<svg width="21" height="21" viewBox="0 0 21 21" fill="none" xmlns="http://www.w3.org/2000/svg">
<path d="M10.6689 20.3259C16.1918 20.3259 20.6689 15.8488 20.6689 10.3259C20.6689 4.80308 16.1918 0.325928 10.6689 0.325928C5.1461 0.325928 0.668945 4.80308 0.668945 10.3259C0.668945 15.8488 5.1461 20.3259 10.6689 20.3259Z" fill="#3972FE"/>
<path fill-rule="evenodd" clip-rule="evenodd" d="M10.6689 5.32593C10.6314 5.32567 10.5941 5.33285 10.5594 5.34707C10.5246 5.36128 10.4931 5.38226 10.4665 5.40876C10.4399 5.43526 10.4188 5.46678 10.4045 5.50148C10.3901 5.53618 10.3828 5.57339 10.3829 5.61093V10.0399H5.95392C5.88112 10.0442 5.81271 10.0762 5.7627 10.1293C5.71268 10.1823 5.68481 10.2525 5.68481 10.3254C5.68481 10.3984 5.71268 10.4685 5.7627 10.5216C5.81271 10.5747 5.88112 10.6066 5.95392 10.6109H10.3829V15.0399C10.3829 15.1157 10.413 15.1883 10.4666 15.2418C10.5201 15.2954 10.5927 15.3254 10.6685 15.3254C10.7442 15.3254 10.8168 15.2954 10.8703 15.2418C10.9238 15.1883 10.9539 15.1157 10.9539 15.0399V10.6109H15.3829C15.4218 10.6132 15.4608 10.6076 15.4974 10.5943C15.5341 10.581 15.5676 10.5603 15.596 10.5336C15.6244 10.5068 15.647 10.4746 15.6624 10.4388C15.6779 10.403 15.6859 10.3644 15.6859 10.3254C15.6859 10.2865 15.6779 10.2479 15.6624 10.2121C15.647 10.1763 15.6244 10.1441 15.596 10.1173C15.5676 10.0906 15.5341 10.0699 15.4974 10.0566C15.4608 10.0433 15.4218 10.0376 15.3829 10.0399H10.9539V5.61093C10.9541 5.57347 10.9468 5.53635 10.9325 5.50171C10.9182 5.46707 10.8973 5.43561 10.8708 5.40911C10.8443 5.38262 10.8128 5.36163 10.7781 5.34736C10.7435 5.33308 10.7064 5.3258 10.6689 5.32593Z" fill="white" stroke="white" stroke-miterlimit="10"/>
</svg>
