<svg width="40" height="40" viewBox="0 0 40 40" fill="none" xmlns="http://www.w3.org/2000/svg">
<g id="b">
<g id="c">
<g id="Group">
<g id="Group_2">
<path id="Vector" d="M20 2.5C10.35 2.5 2.5 10.35 2.5 20C2.5 29.65 10.35 37.5 20 37.5C29.65 37.5 37.5 29.65 37.5 20C37.5 10.35 29.65 2.5 20 2.5Z" fill="url(#paint0_linear_6_3198)"/>
<path id="Vector_2" d="M32.09 7.22C32.54 7.22 32.9 6.86 32.9 6.41C32.9 6.18 32.8 5.96 32.63 5.81L32.55 5.74C32.21 5.45 31.7 5.48 31.41 5.81C31.12 6.15 31.15 6.66 31.48 6.95L31.55 7.01C31.7 7.14 31.89 7.22 32.09 7.22ZM28.49 4.83C20.1 0.140001 9.50003 3.14 4.81003 11.53C3.94003 13.08 3.32003 14.76 2.96003 16.51H3.36003C5.30003 16.49 6.88003 18.04 6.91003 19.98C6.93003 21.92 5.38003 23.5 3.44003 23.53C3.41003 23.53 3.39003 23.53 3.36003 23.53H2.96003C4.90003 32.94 14.1 39 23.51 37.06C30.32 35.66 35.64 30.34 37.04 23.53H36.64C36.03 23.53 35.43 23.37 34.9 23.07C34.52 22.84 34.39 22.34 34.62 21.96C34.84 21.59 35.32 21.46 35.7 21.67C35.99 21.83 36.31 21.92 36.64 21.92H37.29C37.36 21.29 37.39 20.66 37.39 20.03C37.39 19.4 37.35 18.77 37.29 18.14H36.64C35.6 18.14 34.75 18.99 34.75 20.03C34.75 20.48 34.39 20.84 33.94 20.84H27.35C26.9 20.84 26.54 20.48 26.54 20.03C26.54 19.58 26.9 19.22 27.35 19.22H33.23C33.61 17.64 35.02 16.52 36.64 16.52H37.05C36.52 13.93 35.4 11.49 33.78 9.4C33.51 9.04 33.58 8.54 33.94 8.27C34.29 8.01 34.79 8.07 35.06 8.41C37.64 11.73 39.03 15.82 39.02 20.02C39.02 30.51 30.5 39.02 20.01 39.01C9.52003 39.01 1.01003 30.49 1.02003 20C1.01003 9.5 9.52003 0.990001 20.01 1C23.26 1 26.45 1.83 29.28 3.42C29.67 3.64 29.81 4.13 29.59 4.52C29.37 4.91 28.88 5.05 28.49 4.83ZM2.70003 18.12C2.56003 19.38 2.56003 20.64 2.70003 21.9H3.35003C4.39003 21.92 5.25003 21.08 5.27003 20.04C5.29003 19 4.45003 18.14 3.41003 18.12C3.39003 18.12 3.37003 18.12 3.35003 18.12H2.70003ZM21.3 5.52C21.75 5.52 22.11 5.16 22.11 4.71C22.11 4.26 21.75 3.9 21.3 3.9H18.69C18.24 3.9 17.88 4.26 17.88 4.71C17.88 5.16 18.24 5.52 18.69 5.52H21.3ZM23.84 6.96H16.14C15.69 6.96 15.33 7.32 15.33 7.77C15.33 8.22 15.69 8.58 16.14 8.58H23.84C24.29 8.58 24.65 8.22 24.65 7.77C24.65 7.32 24.29 6.96 23.84 6.96ZM21.3 11.64C21.75 11.64 22.11 11.28 22.11 10.83C22.11 10.38 21.75 10.02 21.3 10.02H18.69C18.24 10.02 17.88 10.38 17.88 10.83C17.88 11.28 18.24 11.64 18.69 11.64H21.3ZM23.84 13.08H16.14C15.69 13.08 15.33 13.44 15.33 13.89C15.33 14.34 15.69 14.7 16.14 14.7H23.84C24.29 14.7 24.65 14.34 24.65 13.89C24.65 13.44 24.29 13.08 23.84 13.08ZM21.3 17.76C21.75 17.76 22.11 17.4 22.11 16.95C22.11 16.5 21.75 16.14 21.3 16.14H18.69C18.24 16.14 17.88 16.5 17.88 16.95C17.88 17.4 18.24 17.76 18.69 17.76H21.3ZM23.84 19.2H16.14C15.69 19.2 15.33 19.56 15.33 20.01C15.33 20.46 15.69 20.82 16.14 20.82H23.84C24.29 20.82 24.65 20.46 24.65 20.01C24.65 19.56 24.29 19.2 23.84 19.2ZM21.3 23.88C21.75 23.88 22.11 23.52 22.11 23.07C22.11 22.62 21.75 22.26 21.3 22.26H18.69C18.24 22.26 17.88 22.62 17.88 23.07C17.88 23.52 18.24 23.88 18.69 23.88H21.3ZM23.84 25.32H16.14C15.69 25.32 15.33 25.68 15.33 26.13C15.33 26.58 15.69 26.94 16.14 26.94H23.84C24.29 26.94 24.65 26.58 24.65 26.13C24.65 25.68 24.29 25.32 23.84 25.32ZM21.3 30C21.75 30 22.11 29.64 22.11 29.19C22.11 28.74 21.75 28.38 21.3 28.38H18.69C18.24 28.38 17.88 28.74 17.88 29.19C17.88 29.64 18.24 30 18.69 30H21.3ZM24.65 32.25C24.65 31.8 24.29 31.44 23.84 31.44H16.14C15.69 31.44 15.33 31.8 15.33 32.25C15.33 32.7 15.69 33.06 16.14 33.06H23.84C24.29 33.06 24.65 32.7 24.65 32.25ZM18.69 34.5C18.24 34.5 17.88 34.86 17.88 35.31C17.88 35.76 18.24 36.12 18.69 36.12H21.3C21.75 36.12 22.11 35.76 22.11 35.31C22.11 34.86 21.75 34.5 21.3 34.5H18.69ZM8.69003 19.2C8.24003 19.2 7.88003 19.56 7.88003 20.01C7.88003 20.46 8.24003 20.82 8.69003 20.82H12.65C13.1 20.82 13.46 20.46 13.46 20.01C13.46 19.56 13.1 19.2 12.65 19.2H8.69003Z" fill="url(#paint1_linear_6_3198)"/>
</g>
</g>
</g>
</g>
<defs>
<linearGradient id="paint0_linear_6_3198" x1="20" y1="37.5" x2="20" y2="2.5" gradientUnits="userSpaceOnUse">
<stop stop-color="#E24F58" stop-opacity="0.5"/>
<stop offset="0.5" stop-color="#EAF6FF"/>
<stop offset="1" stop-color="#EAF6FF"/>
</linearGradient>
<linearGradient id="paint1_linear_6_3198" x1="33.42" y1="33.44" x2="6.54003" y2="6.56" gradientUnits="userSpaceOnUse">
<stop stop-color="#E24F58"/>
<stop offset="1" stop-color="#FFBD4A"/>
</linearGradient>
</defs>
</svg>
