<?xml version="1.0" encoding="UTF-8"?><svg xmlns="http://www.w3.org/2000/svg" viewBox="0 0 40 28.66"><defs><style>.d{fill:#005f7e;}.e{fill:#ffa100;}.f{fill:#007aa0;}.g{fill:#cfdde1;}</style></defs><g id="a"/><g id="b"><g id="c"><g><path class="g" d="M28.1,27.17L15.01,7.24c-.21-.31-.52-.49-.86-.49s-.65,.18-.86,.5L.19,27.17c-.22,.33-.25,.7-.09,1s.49,.48,.89,.48H27.3c.4,0,.72-.17,.89-.48s.13-.67-.09-1Z"/><path class="g" d="M28.1,27.17L15.01,7.24c-.21-.31-.52-.49-.86-.49V28.66h13.15c.4,0,.72-.17,.89-.48s.13-.67-.09-1Z"/><path class="e" d="M24.86,7.15c-1.97,0-3.57-1.6-3.57-3.57s1.6-3.57,3.57-3.57,3.57,1.6,3.57,3.57-1.6,3.57-3.57,3.57Z"/><path class="e" d="M24.86,0V7.15c1.97,0,3.57-1.6,3.57-3.57s-1.6-3.57-3.57-3.57Z"/><path class="f" d="M.19,27.17c-.22,.33-.25,.7-.09,1s.49,.48,.89,.48H27.3c.4,0,.72-.17,.89-.48s.13-.67-.09-1l-8.06-12.28c.12,.19,.14,.43,.03,.63l-2.81,5.29c-.11,.2-.32,.33-.55,.33s-.44-.13-.55-.33l-2.01-3.78-2.01,3.78c-.11,.2-.32,.33-.55,.33s-.44-.13-.55-.33l-2.81-5.29c-.11-.2-.1-.44,.03-.63"/><path class="d" d="M28.1,27.17l-8.06-12.28c.12,.19,.14,.43,.03,.63l-2.81,5.29c-.11,.2-.32,.33-.55,.33s-.44-.13-.55-.33l-2.01-3.78h0v11.62h13.15c.4,0,.72-.17,.89-.48,.16-.3,.13-.67-.09-1Z"/><path class="g" d="M39.81,27.17l-9.35-14.24c-.21-.31-.52-.5-.86-.5s-.66,.18-.86,.5l-9.35,14.24c-.22,.33-.25,.7-.09,1,.16,.3,.49,.48,.89,.48h18.83c.4,0,.72-.17,.89-.48s.13-.67-.09-1Z"/><path class="g" d="M39.81,27.17l-9.35-14.24c-.21-.31-.52-.5-.86-.5V28.66h9.41c.4,0,.72-.17,.89-.48s.13-.67-.09-1Z"/><path class="f" d="M39.81,27.17l-6.85-10.43c.14,.21,.14,.48,0,.68l-2.84,4.33c-.12,.18-.31,.28-.52,.28s-.41-.11-.52-.28l-2.84-4.33c-.14-.21-.14-.48,0-.68l-6.85,10.43c-.22,.33-.25,.7-.09,1s.49,.48,.89,.48h18.83c.4,0,.72-.17,.89-.48s.13-.67-.09-1Z"/><path class="d" d="M39.81,27.17l-6.85-10.43c.14,.21,.14,.48,0,.68l-2.84,4.33c-.12,.18-.31,.28-.52,.28v6.62h9.41c.4,0,.72-.17,.89-.48s.13-.67-.09-1Z"/></g></g></g></svg>