<svg width="40" height="40" viewBox="0 0 40 40" fill="none" xmlns="http://www.w3.org/2000/svg">
<g id="b">
<g id="c">
<g id="Group">
<path id="Vector" d="M27.58 1H12.42C4.84005 1 1.05005 4.79 1.05005 12.37V21.84C1.05005 31.31 4.84005 33.21 12.42 33.21H13.37C13.96 33.24 14.51 33.52 14.89 33.97L17.73 37.76C18.53 39.02 20.1901 39.39 21.4401 38.59C21.7801 38.38 22.0601 38.09 22.2701 37.76L25.1101 33.97C25.4701 33.49 26.03 33.21 26.63 33.21H27.58C35.16 33.21 38.9501 29.42 38.9501 21.84V12.37C38.9501 4.79 35.16 1 27.58 1ZM13.43 20.32C14 20.85 14.04 21.75 13.5 22.33C12.96 22.91 12.07 22.94 11.49 22.4C11.47 22.38 11.44 22.35 11.42 22.33L7.63005 18.54C7.08005 17.99 7.07005 17.09 7.63005 16.53L11.42 12.74C11.95 12.17 12.85 12.13 13.43 12.67C14 13.2 14.04 14.1 13.5 14.68C13.48 14.7 13.45 14.73 13.43 14.75L10.65 17.53L13.43 20.31V20.32ZM23.2001 13.67L19.41 22.51C19.1101 23.24 18.28 23.58 17.56 23.29C16.83 22.99 16.49 22.16 16.78 21.44L16.8 21.4L20.59 12.56C20.91 11.84 21.75 11.53 22.47 11.85C23.17 12.16 23.4901 12.98 23.2001 13.68V13.67ZM32.37 18.53L28.58 22.32C28.01 22.85 27.1101 22.82 26.57 22.25C26.06 21.7 26.06 20.86 26.57 20.31L29.35 17.53L26.57 14.75C26 14.22 25.96 13.32 26.5 12.74C27.0401 12.16 27.93 12.13 28.51 12.67C28.5301 12.69 28.56 12.72 28.58 12.74L32.37 16.53C32.92 17.08 32.93 17.98 32.37 18.54V18.53Z" fill="url(#paint0_linear_6_3179)"/>
</g>
</g>
</g>
<defs>
<linearGradient id="paint0_linear_6_3179" x1="33.324" y1="33.7617" x2="4.10185" y2="4.3263" gradientUnits="userSpaceOnUse">
<stop stop-color="#EB595A"/>
<stop offset="1" stop-color="#F18875"/>
</linearGradient>
</defs>
</svg>
