<svg width="15" height="12" viewBox="0 0 15 12" fill="none" xmlns="http://www.w3.org/2000/svg">
<g id="Icon">
<g id="Group 3358">
<path id="Path 7103" fill-rule="evenodd" clip-rule="evenodd" d="M5.69999 2.72697C6.3559 2.14871 7.16476 1.77201 8.02946 1.64201C8.89416 1.51201 9.77804 1.63423 10.575 1.99406C11.3719 2.3539 12.0481 2.93604 12.5224 3.67064C12.9967 4.40523 13.2491 5.26106 13.2491 6.13548C13.2491 7.0099 12.9967 7.86573 12.5224 8.60032C12.0481 9.33492 11.3719 9.91706 10.575 10.2769C9.77804 10.6367 8.89416 10.759 8.02946 10.629C7.16476 10.499 6.3559 10.1223 5.69999 9.54399C5.65523 9.49661 5.60111 9.45903 5.54106 9.4337C5.48101 9.40836 5.4164 9.39583 5.35124 9.39683C5.28607 9.39783 5.22176 9.41234 5.16252 9.4395C5.10327 9.46665 5.05041 9.50583 5.00712 9.55455C4.96383 9.60327 4.93105 9.66049 4.91105 9.72252C4.89105 9.78454 4.88424 9.85007 4.89091 9.9149C4.89758 9.97973 4.91765 10.0424 4.94987 10.0991C4.98209 10.1558 5.02573 10.2051 5.07804 10.244C5.86953 10.9422 6.84564 11.3972 7.88932 11.5544C8.933 11.7115 9.99995 11.5642 10.962 11.13C11.924 10.6958 12.7402 9.99324 13.3128 9.10661C13.8854 8.21998 14.19 7.1869 14.19 6.13145C14.19 5.076 13.8854 4.04298 13.3128 3.15635C12.7402 2.26972 11.924 1.56716 10.962 1.13298C9.99995 0.698792 8.933 0.551444 7.88932 0.708599C6.84564 0.865754 5.86953 1.32074 5.07804 2.01896C5.02573 2.05784 4.98209 2.10721 4.94987 2.16386C4.91765 2.22051 4.89758 2.28323 4.89091 2.34806C4.88424 2.4129 4.89105 2.47842 4.91105 2.54045C4.93105 2.60248 4.96383 2.6597 5.00712 2.70842C5.05041 2.75714 5.10327 2.79631 5.16252 2.82347C5.22176 2.85063 5.28607 2.86513 5.35124 2.86613C5.4164 2.86713 5.48101 2.8546 5.54106 2.82927C5.60111 2.80393 5.65523 2.76635 5.69999 2.71898V2.72697Z" fill="#1E1F4B"/>
<path id="Path 7104" fill-rule="evenodd" clip-rule="evenodd" d="M7.98706 3.37793V5.88495C7.9871 5.94664 7.99927 6.00773 8.02295 6.0647C8.04663 6.12167 8.08129 6.17338 8.125 6.21692L10.131 8.22296C10.2198 8.30765 10.3383 8.35418 10.4611 8.35266C10.5838 8.35114 10.7011 8.30165 10.7878 8.21478C10.8746 8.12792 10.9238 8.01057 10.9252 7.88782C10.9265 7.76507 10.8799 7.64666 10.795 7.55792L8.927 5.68994V3.37793C8.927 3.25328 8.87745 3.13374 8.78931 3.04559C8.70116 2.95745 8.58168 2.90796 8.45703 2.90796C8.33238 2.90796 8.21278 2.95745 8.12463 3.04559C8.03649 3.13374 7.98706 3.25328 7.98706 3.37793Z" fill="#1E1F4B"/>
<path id="Path 7105" fill-rule="evenodd" clip-rule="evenodd" d="M1.18701 4.41193H4.948C5.07265 4.41193 5.19225 4.36243 5.2804 4.27429C5.36854 4.18615 5.41797 4.06661 5.41797 3.94196C5.41797 3.8173 5.36854 3.69776 5.2804 3.60962C5.19225 3.52148 5.07265 3.47192 4.948 3.47192H1.18701C1.06236 3.47192 0.942756 3.52148 0.854614 3.60962C0.766472 3.69776 0.717041 3.8173 0.717041 3.94196C0.717041 4.06661 0.766472 4.18615 0.854614 4.27429C0.942756 4.36243 1.06236 4.41193 1.18701 4.41193Z" fill="#1E1F4B"/>
<path id="Path 7106" fill-rule="evenodd" clip-rule="evenodd" d="M1.81396 6.60602H5.57397C5.69863 6.60602 5.81823 6.55646 5.90637 6.46832C5.99451 6.38018 6.04395 6.26064 6.04395 6.13599C6.04395 6.01133 5.99451 5.89179 5.90637 5.80365C5.81823 5.71551 5.69863 5.66602 5.57397 5.66602H1.81396C1.68931 5.66602 1.56983 5.71551 1.48169 5.80365C1.39355 5.89179 1.34399 6.01133 1.34399 6.13599C1.34399 6.26064 1.39355 6.38018 1.48169 6.46832C1.56983 6.55646 1.68931 6.60602 1.81396 6.60602Z" fill="#1E1F4B"/>
<path id="Path 7107" fill-rule="evenodd" clip-rule="evenodd" d="M2.44104 8.79999H6.20105C6.3257 8.79999 6.44518 8.7505 6.53333 8.66235C6.62147 8.57421 6.67102 8.45467 6.67102 8.33002C6.67102 8.20537 6.62147 8.08582 6.53333 7.99768C6.44518 7.90954 6.3257 7.85999 6.20105 7.85999H2.44104C2.31639 7.85999 2.19678 7.90954 2.10864 7.99768C2.0205 8.08582 1.97095 8.20537 1.97095 8.33002C1.97095 8.45467 2.0205 8.57421 2.10864 8.66235C2.19678 8.7505 2.31639 8.79999 2.44104 8.79999Z" fill="#1E1F4B"/>
</g>
</g>
</svg>
