<svg width="13" height="8" viewBox="0 0 13 8" fill="none" xmlns="http://www.w3.org/2000/svg">
<g id="Group 1277" opacity="0.7">
<path id="Path 2428" d="M11.7051 3.00501V1.91499C11.7051 1.77164 11.6767 1.6297 11.6218 1.49727C11.5669 1.36484 11.4864 1.24451 11.385 1.14319C11.2836 1.04187 11.1632 0.961523 11.0308 0.906754C10.8983 0.851985 10.7564 0.823874 10.613 0.824006H1.34106C1.19776 0.823874 1.05577 0.852003 0.92334 0.906785C0.790915 0.961566 0.670671 1.04192 0.569336 1.14325C0.468001 1.24458 0.387545 1.3649 0.332764 1.49733C0.277983 1.62976 0.249869 1.77168 0.25 1.91499V6.278C0.249869 6.42131 0.277983 6.56324 0.332764 6.69566C0.387545 6.82809 0.468001 6.94841 0.569336 7.04974C0.670671 7.15108 0.790915 7.23144 0.92334 7.28622C1.05577 7.34101 1.19776 7.36914 1.34106 7.369H10.613C10.7564 7.36914 10.8983 7.34101 11.0308 7.28624C11.1632 7.23147 11.2836 7.15113 11.385 7.04981C11.4864 6.94848 11.5669 6.82817 11.6218 6.69574C11.6767 6.56331 11.7051 6.42136 11.7051 6.278V5.187C11.8495 5.18673 11.9879 5.12923 12.0901 5.02708C12.1922 4.92493 12.2497 4.78646 12.25 4.642V3.551C12.2497 3.40644 12.1922 3.26787 12.0901 3.16556C11.988 3.06325 11.8496 3.00553 11.7051 3.00501ZM11.1589 3.551V6.278C11.1589 6.42281 11.1014 6.56168 10.999 6.66408C10.8966 6.76647 10.7578 6.82401 10.613 6.82401H1.34106C1.19634 6.82374 1.05766 6.76613 0.955323 6.66379C0.852985 6.56145 0.795187 6.42273 0.794922 6.278V1.91499C0.794922 1.77019 0.85244 1.63131 0.954834 1.52892C1.05723 1.42652 1.19626 1.369 1.34106 1.369H10.613C10.6848 1.36887 10.7557 1.3829 10.822 1.41029C10.8883 1.43769 10.9485 1.4779 10.9993 1.52863C11.05 1.57935 11.0903 1.6396 11.1177 1.7059C11.1451 1.77221 11.1591 1.84326 11.1589 1.91499V3.551Z" fill="#1E1F4B"/>
<path id="Path 2429" d="M6.25 1.91499H1.34106V6.278H6.25V1.91499Z" fill="#1E1F4B"/>
</g>
</svg>
