<svg width="34" height="35" viewBox="0 0 34 35" fill="none" xmlns="http://www.w3.org/2000/svg">
<path d="M27.2761 0H6.05908C2.74537 0 0.059082 2.82826 0.059082 6.3171V28.6554C0.059082 32.1442 2.74537 34.9725 6.05908 34.9725H27.2761C30.5898 34.9725 33.2761 32.1442 33.2761 28.6554V6.3171C33.2761 2.82826 30.5898 0 27.2761 0Z" fill="#B548C6"/>
<path d="M16.6671 7.94797C14.2649 7.94908 11.9613 8.9543 10.2626 10.7427C8.56397 12.5312 7.60921 14.9565 7.60815 17.4857C7.60895 20.0151 8.56361 22.4407 10.2623 24.2294C11.961 26.018 14.2647 27.0234 16.6671 27.0245C19.0698 27.0237 21.3738 26.0185 23.0727 24.2298C24.7716 22.4411 25.7263 20.0153 25.7271 17.4857C25.7261 14.9563 24.7712 12.5308 23.0723 10.7424C21.3734 8.95392 19.0696 7.9488 16.6671 7.94797ZM10.1671 17.4857C10.1669 15.6685 10.8509 13.9253 12.0693 12.6381C13.2878 11.351 14.9411 10.6249 16.6671 10.619C17.978 10.6115 19.2595 11.0271 20.3391 11.8098L11.3041 21.3476C10.5605 20.2123 10.1645 18.8648 10.1692 17.4857H10.1671ZM16.6671 24.3292C15.3558 24.3349 14.0744 23.9175 12.9951 23.1332L22.0302 13.6207C22.7751 14.757 23.1715 16.1062 23.1661 17.4868C23.1679 18.3858 23.0009 19.2763 22.6749 20.1072C22.3489 20.9382 21.8702 21.6931 21.2664 22.3288C20.6625 22.9645 19.9454 23.4683 19.1562 23.8114C18.3669 24.1545 17.521 24.3312 16.6671 24.3292Z" fill="white"/>
</svg>
