<svg width="210" height="209" viewBox="0 0 210 209" fill="none" xmlns="http://www.w3.org/2000/svg">
<path d="M95.7141 4.22939L95.7032 4.23035C95.4281 4.25442 95.2246 4.49693 95.2487 4.77202L95.4258 6.79629C95.4498 7.07138 95.6923 7.27488 95.9674 7.25081L95.9784 7.24985C96.2535 7.22578 96.457 6.98327 96.4329 6.70818L96.2558 4.68391C96.2317 4.40882 95.9892 4.20532 95.7141 4.22939Z" fill="#3972FE"/>
<path d="M86.9962 5.42147L86.9893 5.42268C86.7163 5.47091 86.5341 5.73134 86.5823 6.00436L86.9351 8.00144C86.9833 8.27446 87.2438 8.45668 87.5168 8.40846L87.5237 8.40724C87.7967 8.35901 87.9789 8.09859 87.9307 7.82557L87.5779 5.82849C87.5297 5.55547 87.2693 5.37324 86.9962 5.42147Z" fill="#3972FE"/>
<path d="M78.4167 7.36818L78.4099 7.37C78.1421 7.4418 77.9833 7.71709 78.0551 7.98487L78.5802 9.94369C78.652 10.2115 78.9273 10.3704 79.1951 10.2986L79.2019 10.2967C79.4697 10.225 79.6285 9.94966 79.5568 9.68187L79.0316 7.72306C78.9598 7.45527 78.6845 7.29639 78.4167 7.36818Z" fill="#3972FE"/>
<path d="M70.0403 10.0549L70.0337 10.0573C69.7732 10.1521 69.6389 10.4402 69.7337 10.7007L70.4273 12.6064C70.5221 12.867 70.8102 13.0013 71.0707 12.9065L71.0773 12.9041C71.3378 12.8092 71.4722 12.5212 71.3774 12.2606L70.6837 10.3549C70.5889 10.0944 70.3008 9.96009 70.0403 10.0549Z" fill="#3972FE"/>
<path d="M61.9293 13.4619L61.923 13.4648C61.6717 13.582 61.563 13.8807 61.6802 14.132L62.5372 15.97C62.6544 16.2212 62.9531 16.3299 63.2044 16.2128L63.2107 16.2098C63.462 16.0926 63.5707 15.794 63.4535 15.5427L62.5964 13.7047C62.4793 13.4534 62.1806 13.3447 61.9293 13.4619Z" fill="#3972FE"/>
<path d="M46.7509 22.326L46.7452 22.33C46.5181 22.489 46.4629 22.802 46.6219 23.0291L47.7851 24.6904C47.9442 24.9175 48.2572 24.9727 48.4843 24.8137L48.49 24.8096C48.7171 24.6506 48.7723 24.3376 48.6133 24.1105L47.4501 22.4492C47.2911 22.2221 46.978 22.1669 46.7509 22.326Z" fill="#3972FE"/>
<path d="M39.7989 27.7168L39.7935 27.7213C39.5811 27.8995 39.5534 28.2161 39.7316 28.4285L41.0352 29.982C41.2134 30.1944 41.53 30.2221 41.7424 30.0439L41.7478 30.0394C41.9602 29.8612 41.9879 29.5446 41.8097 29.3322L40.5061 27.7786C40.3279 27.5663 40.0112 27.5386 39.7989 27.7168Z" fill="#3972FE"/>
<path d="M33.3428 33.6918L33.3379 33.6968C33.1418 33.8928 33.1418 34.2107 33.3379 34.4067L34.7719 35.8407C34.9679 36.0368 35.2858 36.0368 35.4818 35.8407L35.4868 35.8358C35.6828 35.6397 35.6828 35.3219 35.4868 35.1259L34.0528 33.6918C33.8567 33.4958 33.5389 33.4958 33.3428 33.6918Z" fill="#3972FE"/>
<path d="M27.4322 40.2068L27.4277 40.2121C27.2494 40.4245 27.2772 40.7411 27.4895 40.9194L29.0431 42.2229C29.2555 42.4011 29.5721 42.3734 29.7503 42.1611L29.7548 42.1557C29.933 41.9433 29.9053 41.6267 29.6929 41.4485L28.1394 40.1449C27.927 39.9667 27.6104 39.9944 27.4322 40.2068Z" fill="#3972FE"/>
<path d="M22.1109 47.2129L22.1069 47.2187C21.9479 47.4458 22.0031 47.7588 22.2302 47.9178L23.8914 49.081C24.1185 49.2401 24.4316 49.1849 24.5906 48.9578L24.5946 48.952C24.7536 48.7249 24.6984 48.4119 24.4713 48.2529L22.8101 47.0897C22.583 46.9306 22.2699 46.9858 22.1109 47.2129Z" fill="#3972FE"/>
<path d="M13.3981 62.4786L13.3951 62.485C13.278 62.7362 13.3867 63.0349 13.6379 63.1521L15.4759 64.0092C15.7272 64.1263 16.0259 64.0176 16.1431 63.7664L16.146 63.76C16.2632 63.5087 16.1545 63.2101 15.9032 63.0929L14.0652 62.2358C13.8139 62.1186 13.5153 62.2274 13.3981 62.4786Z" fill="#3972FE"/>
<path d="M10.072 70.6227L10.0696 70.6293C9.97479 70.8899 10.1092 71.1779 10.3697 71.2727L12.2755 71.9661C12.536 72.0609 12.8241 71.9265 12.9189 71.666L12.9213 71.6594C13.016 71.3989 12.8817 71.1108 12.6211 71.016L10.7154 70.3226C10.4548 70.2278 10.1668 70.3622 10.072 70.6227Z" fill="#3972FE"/>
<path d="M7.46865 79.0254L7.46684 79.0322C7.39508 79.3 7.55401 79.5753 7.82181 79.647L9.78071 80.1719C10.0485 80.2437 10.3238 80.0847 10.3955 79.8169L10.3973 79.8102C10.4691 79.5424 10.3102 79.2671 10.0424 79.1954L8.08347 78.6705C7.81567 78.5987 7.54041 78.7576 7.46865 79.0254Z" fill="#3972FE"/>
<path d="M5.60743 87.6237L5.60621 87.6306C5.55807 87.9037 5.74038 88.164 6.01342 88.2122L8.01061 88.5643C8.28364 88.6125 8.54401 88.4302 8.59215 88.1571L8.59337 88.1502C8.64151 87.8772 8.4592 87.6168 8.18616 87.5687L6.18897 87.2165C5.91594 87.1684 5.65557 87.3507 5.60743 87.6237Z" fill="#3972FE"/>
<path d="M4.50254 96.3489L4.50159 96.3598C4.47752 96.6349 4.68101 96.8774 4.95611 96.9015L6.98037 97.0786C7.25546 97.1027 7.49798 96.8992 7.52205 96.6241L7.52301 96.6131C7.54707 96.338 7.34358 96.0955 7.06849 96.0714L5.04422 95.8943C4.76913 95.8703 4.52661 96.0738 4.50254 96.3489Z" fill="#3972FE"/>
<path d="M4.59054 113.926L4.5915 113.937C4.61553 114.212 4.85802 114.416 5.13311 114.392L7.15741 114.215C7.4325 114.191 7.63603 113.948 7.612 113.673L7.61104 113.662C7.58701 113.387 7.34452 113.184 7.06943 113.208L5.04514 113.384C4.77004 113.408 4.56651 113.651 4.59054 113.926Z" fill="#3972FE"/>
<path d="M8.18649 121.71L6.18941 122.063C5.91639 122.111 5.73417 122.371 5.78239 122.644L5.78361 122.651C5.83184 122.924 6.09226 123.106 6.36528 123.058L8.36236 122.705C8.63538 122.657 8.81761 122.397 8.76938 122.124L8.76817 122.117C8.71994 121.844 8.45951 121.662 8.18649 121.71Z" fill="#3972FE"/>
<path d="M10.0427 130.083L8.08387 130.608C7.81608 130.68 7.6572 130.955 7.729 131.223L7.73081 131.229C7.80261 131.497 8.0779 131.656 8.34569 131.584L10.3045 131.059C10.5723 130.987 10.7312 130.712 10.6594 130.444L10.6576 130.437C10.5858 130.17 10.3105 130.011 10.0427 130.083Z" fill="#3972FE"/>
<path d="M12.6214 138.263L10.7157 138.956C10.4552 139.051 10.3209 139.339 10.4157 139.6L10.4181 139.606C10.5129 139.867 10.801 140.001 11.0615 139.906L12.9672 139.213C13.2278 139.118 13.3621 138.83 13.2673 138.569L13.2649 138.563C13.17 138.302 12.882 138.168 12.6214 138.263Z" fill="#3972FE"/>
<path d="M15.9029 146.186L14.065 147.043C13.8137 147.16 13.705 147.459 13.8221 147.71L13.8251 147.716C13.9423 147.967 14.2409 148.076 14.4922 147.959L16.3302 147.102C16.5815 146.985 16.6902 146.686 16.573 146.435L16.5701 146.428C16.4529 146.177 16.1542 146.068 15.9029 146.186Z" fill="#3972FE"/>
<path d="M24.4714 161.027L22.8101 162.19C22.583 162.349 22.5278 162.662 22.6869 162.889L22.6909 162.895C22.8499 163.122 23.1629 163.177 23.39 163.018L25.0513 161.855C25.2784 161.696 25.3336 161.383 25.1745 161.156L25.1705 161.15C25.0115 160.923 24.6985 160.868 24.4714 161.027Z" fill="#3972FE"/>
<path d="M29.6918 167.83L28.1385 169.134C27.9262 169.313 27.8985 169.629 28.0768 169.842L28.0813 169.847C28.2595 170.059 28.5762 170.087 28.7885 169.909L30.3418 168.605C30.5542 168.427 30.5818 168.11 30.4036 167.898L30.3991 167.892C30.2208 167.68 29.9042 167.652 29.6918 167.83Z" fill="#3972FE"/>
<path d="M35.486 174.153L34.052 175.587C33.8559 175.783 33.8559 176.101 34.052 176.297L34.0569 176.302C34.253 176.498 34.5708 176.498 34.7669 176.302L36.2009 174.868C36.3969 174.672 36.3969 174.354 36.2009 174.158L36.1959 174.153C35.9999 173.957 35.682 173.957 35.486 174.153Z" fill="#3972FE"/>
<path d="M41.8092 179.948L40.5057 181.501C40.3275 181.714 40.3552 182.03 40.5675 182.208L40.5729 182.213C40.7853 182.391 41.1019 182.363 41.2801 182.151L42.5837 180.598C42.7619 180.385 42.7342 180.068 42.5218 179.89L42.5165 179.886C42.3041 179.708 41.9874 179.735 41.8092 179.948Z" fill="#3972FE"/>
<path d="M48.614 185.169L47.4501 186.83C47.291 187.057 47.346 187.37 47.5731 187.529L47.5788 187.533C47.8058 187.692 48.1189 187.637 48.278 187.41L49.4419 185.749C49.6011 185.522 49.546 185.209 49.319 185.05L49.3132 185.046C49.0862 184.887 48.7732 184.942 48.614 185.169Z" fill="#3972FE"/>
<path d="M63.4543 193.736L62.5964 195.574C62.4791 195.825 62.5877 196.124 62.8389 196.241L62.8452 196.244C63.0965 196.361 63.3952 196.253 63.5125 196.002L64.3704 194.164C64.4877 193.913 64.3791 193.614 64.1279 193.497L64.1216 193.494C63.8704 193.377 63.5716 193.485 63.4543 193.736Z" fill="#3972FE"/>
<path d="M71.3773 197.019L70.6837 198.924C70.5888 199.185 70.7232 199.473 70.9837 199.568L70.9903 199.57C71.2508 199.665 71.5389 199.531 71.6337 199.27L72.3273 197.364C72.4221 197.104 72.2878 196.816 72.0273 196.721L72.0207 196.719C71.7602 196.624 71.4721 196.758 71.3773 197.019Z" fill="#3972FE"/>
<path d="M79.5562 199.597L79.031 201.556C78.9592 201.824 79.1181 202.099 79.3859 202.171L79.3926 202.173C79.6604 202.245 79.9357 202.086 80.0075 201.818L80.5327 199.859C80.6045 199.591 80.4456 199.316 80.1778 199.244L80.1711 199.242C79.9033 199.171 79.628 199.33 79.5562 199.597Z" fill="#3972FE"/>
<path d="M87.9293 201.453L87.5772 203.45C87.529 203.723 87.7113 203.984 87.9844 204.032L87.9913 204.033C88.2643 204.081 88.5247 203.899 88.5728 203.626L88.925 201.629C88.9731 201.356 88.7908 201.095 88.5178 201.047L88.5109 201.046C88.2378 200.998 87.9775 201.18 87.9293 201.453Z" fill="#3972FE"/>
<path d="M96.709 205.136L96.7199 205.137C96.995 205.161 97.2375 204.958 97.2615 204.683L97.4383 202.658C97.4624 202.383 97.2588 202.141 96.9838 202.117L96.9728 202.116C96.6977 202.092 96.4552 202.295 96.4312 202.57L96.2544 204.595C96.2303 204.87 96.4339 205.112 96.709 205.136Z" fill="#3972FE"/>
<path d="M114.286 205.049L114.297 205.048C114.572 205.024 114.775 204.782 114.751 204.507L114.574 202.483C114.55 202.207 114.308 202.004 114.033 202.028L114.022 202.029C113.747 202.053 113.543 202.296 113.567 202.571L113.744 204.595C113.768 204.87 114.011 205.073 114.286 205.049Z" fill="#3972FE"/>
<path d="M122.485 200.87L122.478 200.872C122.205 200.92 122.023 201.18 122.071 201.453L122.424 203.45C122.472 203.723 122.733 203.906 123.006 203.857L123.013 203.856C123.286 203.808 123.468 203.548 123.42 203.275L123.067 201.277C123.019 201.004 122.758 200.822 122.485 200.87Z" fill="#3972FE"/>
<path d="M130.806 198.981L130.799 198.983C130.531 199.055 130.372 199.33 130.444 199.598L130.969 201.556C131.041 201.824 131.316 201.983 131.584 201.911L131.591 201.91C131.859 201.838 132.017 201.562 131.946 201.295L131.42 199.336C131.349 199.068 131.073 198.909 130.806 198.981Z" fill="#3972FE"/>
<path d="M138.929 196.373L138.923 196.375C138.662 196.47 138.528 196.758 138.623 197.019L139.316 198.924C139.411 199.185 139.699 199.319 139.96 199.224L139.966 199.222C140.227 199.127 140.361 198.839 140.266 198.579L139.573 196.673C139.478 196.412 139.19 196.278 138.929 196.373Z" fill="#3972FE"/>
<path d="M146.795 193.067L146.789 193.07C146.538 193.187 146.429 193.485 146.546 193.737L147.403 195.575C147.52 195.826 147.819 195.935 148.07 195.818L148.077 195.815C148.328 195.697 148.437 195.399 148.319 195.147L147.462 193.309C147.345 193.058 147.047 192.949 146.795 193.067Z" fill="#3972FE"/>
<path d="M161.516 184.465L161.51 184.469C161.283 184.628 161.228 184.941 161.387 185.168L162.551 186.829C162.71 187.056 163.023 187.111 163.25 186.952L163.256 186.948C163.483 186.788 163.538 186.475 163.379 186.248L162.215 184.588C162.056 184.361 161.743 184.306 161.516 184.465Z" fill="#3972FE"/>
<path d="M168.258 179.236L168.252 179.24C168.04 179.419 168.012 179.735 168.191 179.948L169.494 181.501C169.672 181.713 169.989 181.741 170.201 181.563L170.207 181.558C170.419 181.38 170.447 181.064 170.269 180.851L168.965 179.298C168.787 179.085 168.47 179.058 168.258 179.236Z" fill="#3972FE"/>
<path d="M174.519 173.439L174.514 173.444C174.318 173.64 174.318 173.958 174.514 174.154L175.948 175.588C176.144 175.784 176.462 175.784 176.658 175.588L176.663 175.583C176.859 175.387 176.859 175.069 176.663 174.873L175.229 173.439C175.033 173.243 174.715 173.243 174.519 173.439Z" fill="#3972FE"/>
<path d="M180.25 167.118L180.246 167.123C180.067 167.336 180.095 167.652 180.308 167.83L181.861 169.134C182.073 169.312 182.39 169.285 182.568 169.072L182.573 169.067C182.751 168.854 182.723 168.538 182.511 168.36L180.957 167.056C180.745 166.878 180.428 166.906 180.25 167.118Z" fill="#3972FE"/>
<path d="M185.41 160.322L185.406 160.328C185.247 160.555 185.302 160.868 185.529 161.027L187.19 162.19C187.417 162.349 187.731 162.294 187.89 162.067L187.894 162.061C188.053 161.834 187.997 161.521 187.77 161.362L186.109 160.199C185.882 160.04 185.569 160.095 185.41 160.322Z" fill="#3972FE"/>
<path d="M193.857 145.513L193.854 145.519C193.737 145.77 193.846 146.069 194.097 146.186L195.935 147.043C196.186 147.161 196.485 147.052 196.602 146.801L196.605 146.794C196.722 146.543 196.614 146.244 196.362 146.127L194.524 145.27C194.273 145.153 193.974 145.262 193.857 145.513Z" fill="#3972FE"/>
<path d="M197.081 137.613L197.079 137.619C196.984 137.88 197.118 138.168 197.379 138.263L199.284 138.956C199.545 139.051 199.833 138.917 199.928 138.656L199.93 138.65C200.025 138.389 199.891 138.101 199.63 138.006L197.724 137.312C197.464 137.218 197.176 137.352 197.081 137.613Z" fill="#3972FE"/>
<path d="M199.605 129.462L199.603 129.469C199.531 129.737 199.69 130.012 199.958 130.084L201.917 130.609C202.185 130.681 202.46 130.522 202.532 130.254L202.533 130.248C202.605 129.98 202.446 129.705 202.179 129.633L200.22 129.108C199.952 129.036 199.677 129.195 199.605 129.462Z" fill="#3972FE"/>
<path d="M201.408 121.123L201.407 121.13C201.359 121.403 201.541 121.663 201.814 121.711L203.812 122.063C204.085 122.111 204.345 121.929 204.393 121.656L204.394 121.649C204.443 121.376 204.26 121.116 203.987 121.068L201.99 120.716C201.717 120.667 201.457 120.85 201.408 121.123Z" fill="#3972FE"/>
<path d="M205.497 112.931L205.498 112.92C205.522 112.645 205.319 112.402 205.044 112.378L203.02 112.201C202.745 112.177 202.502 112.381 202.478 112.656L202.477 112.667C202.453 112.942 202.656 113.184 202.932 113.208L204.956 113.385C205.231 113.41 205.473 113.206 205.497 112.931Z" fill="#3972FE"/>
<path d="M205.41 95.3528L205.409 95.3418C205.385 95.0668 205.142 94.8633 204.867 94.8873L202.843 95.0644C202.568 95.0885 202.364 95.331 202.388 95.6061L202.389 95.6171C202.413 95.8922 202.656 96.0956 202.931 96.0716L204.955 95.8945C205.23 95.8704 205.434 95.6279 205.41 95.3528Z" fill="#3972FE"/>
<path d="M203.636 86.2218L201.638 86.574C201.365 86.6221 201.183 86.8825 201.231 87.1555L201.232 87.1624C201.281 87.4354 201.541 87.6177 201.814 87.5696L203.811 87.2174C204.084 87.1693 204.267 86.9089 204.218 86.6359L204.217 86.629C204.169 86.356 203.909 86.1737 203.636 86.2218Z" fill="#3972FE"/>
<path d="M201.655 77.6949L199.696 78.2201C199.428 78.2919 199.269 78.5672 199.341 78.835L199.343 78.8417C199.415 79.1095 199.69 79.2684 199.958 79.1966L201.916 78.6714C202.184 78.5996 202.343 78.3243 202.271 78.0565L202.27 78.0498C202.198 77.782 201.922 77.6231 201.655 77.6949Z" fill="#3972FE"/>
<path d="M198.938 69.3735L197.033 70.0671C196.772 70.1619 196.638 70.45 196.733 70.7105L196.735 70.7171C196.83 70.9776 197.118 71.1119 197.379 71.0171L199.284 70.3235C199.545 70.2287 199.679 69.9406 199.584 69.6801L199.582 69.6735C199.487 69.413 199.199 69.2786 198.938 69.3735Z" fill="#3972FE"/>
<path d="M195.508 61.3184L193.67 62.1763C193.419 62.2936 193.31 62.5923 193.427 62.8435L193.43 62.8499C193.548 63.1011 193.846 63.2097 194.098 63.0924L195.935 62.2344C196.186 62.1171 196.295 61.8184 196.178 61.5672L196.175 61.5609C196.057 61.3096 195.759 61.2011 195.508 61.3184Z" fill="#3972FE"/>
<path d="M186.611 46.2617L184.949 47.425C184.722 47.584 184.667 47.897 184.826 48.1241L184.83 48.1298C184.989 48.3569 185.302 48.4121 185.529 48.2531L187.19 47.0899C187.418 46.9309 187.473 46.6179 187.314 46.3908L187.31 46.385C187.151 46.1579 186.838 46.1027 186.611 46.2617Z" fill="#3972FE"/>
<path d="M181.212 39.3708L179.658 40.6744C179.446 40.8526 179.418 41.1692 179.597 41.3816L179.601 41.387C179.779 41.5994 180.096 41.6271 180.308 41.4489L181.862 40.1453C182.074 39.9671 182.102 39.6504 181.924 39.4381L181.919 39.4327C181.741 39.2203 181.424 39.1926 181.212 39.3708Z" fill="#3972FE"/>
<path d="M175.233 32.9771L173.799 34.4111C173.603 34.6072 173.603 34.925 173.799 35.1211L173.804 35.126C174 35.3221 174.318 35.3221 174.514 35.126L175.948 33.692C176.144 33.496 176.144 33.1781 175.948 32.9821L175.943 32.9771C175.747 32.7811 175.429 32.7811 175.233 32.9771Z" fill="#3972FE"/>
<path d="M168.72 27.1288L167.417 28.6823C167.238 28.8947 167.266 29.2114 167.479 29.3896L167.484 29.3941C167.696 29.5723 168.013 29.5446 168.191 29.3322L169.495 27.7787C169.673 27.5663 169.645 27.2496 169.433 27.0714L169.427 27.0669C169.215 26.8887 168.898 26.9164 168.72 27.1288Z" fill="#3972FE"/>
<path d="M161.723 21.871L160.559 23.5318C160.4 23.7588 160.455 24.0719 160.682 24.231L160.688 24.235C160.915 24.3941 161.228 24.3391 161.387 24.112L162.551 22.4513C162.71 22.2243 162.655 21.9112 162.428 21.7521L162.422 21.7481C162.195 21.589 161.882 21.644 161.723 21.871Z" fill="#3972FE"/>
<path d="M146.487 13.2778L145.63 15.1158C145.513 15.3671 145.622 15.6658 145.873 15.783L145.879 15.7859C146.131 15.9031 146.429 15.7944 146.546 15.5431L147.403 13.7051C147.521 13.4538 147.412 13.1552 147.161 13.038L147.154 13.035C146.903 12.9179 146.604 13.0266 146.487 13.2778Z" fill="#3972FE"/>
<path d="M138.367 10.0095L137.674 11.9152C137.579 12.1758 137.713 12.4638 137.974 12.5587L137.98 12.5611C138.241 12.6559 138.529 12.5215 138.624 12.261L139.317 10.3553C139.412 10.0948 139.278 9.80673 139.017 9.7119L139.011 9.70951C138.75 9.61468 138.462 9.74901 138.367 10.0095Z" fill="#3972FE"/>
<path d="M129.993 7.46099L129.468 9.41989C129.396 9.68769 129.555 9.96296 129.823 10.0347L129.83 10.0365C130.097 10.1083 130.373 9.94936 130.444 9.68156L130.969 7.72266C131.041 7.45486 130.882 7.17959 130.614 7.10784L130.608 7.10603C130.34 7.03427 130.065 7.19319 129.993 7.46099Z" fill="#3972FE"/>
<path d="M121.428 5.65359L121.075 7.65067C121.027 7.92369 121.209 8.18412 121.482 8.23235L121.489 8.23356C121.762 8.28179 122.023 8.09956 122.071 7.82654L122.424 5.82946C122.472 5.55644 122.29 5.29602 122.017 5.24779L122.01 5.24657C121.737 5.19834 121.476 5.38057 121.428 5.65359Z" fill="#3972FE"/>
<path d="M113.291 4.14244L113.28 4.14148C113.005 4.11741 112.762 4.32091 112.738 4.596L112.561 6.62027C112.537 6.89536 112.741 7.13787 113.016 7.16194L113.027 7.1629C113.302 7.18697 113.544 6.98347 113.568 6.70838L113.746 4.68411C113.77 4.40902 113.566 4.1665 113.291 4.14244Z" fill="#3972FE"/>
<path d="M105 4.86011C105 4.58397 104.776 4.36011 104.5 4.36011C104.224 4.36011 104 4.58397 104 4.86011V10.8601C104 11.1363 104.224 11.3601 104.5 11.3601C104.776 11.3601 105 11.1363 105 10.8601V4.86011Z" fill="#3972FE"/>
<path d="M55.1099 18.2282C54.9719 17.989 54.6661 17.9071 54.4269 18.0452C54.1878 18.1832 54.1058 18.489 54.2439 18.7282L57.2439 23.9243C57.382 24.1635 57.6878 24.2454 57.9269 24.1073C58.1661 23.9693 58.248 23.6635 58.1099 23.4243L55.1099 18.2282Z" fill="#3972FE"/>
<path d="M18.588 54.7502C18.3489 54.6121 18.0431 54.6941 17.905 54.9332C17.767 55.1723 17.8489 55.4781 18.088 55.6162L23.2842 58.6162C23.5233 58.7543 23.8291 58.6723 23.9672 58.4332C24.1053 58.1941 24.0233 57.8883 23.7842 57.7502L18.588 54.7502Z" fill="#3972FE"/>
<path d="M5.22095 104.64C4.9448 104.64 4.72095 104.864 4.72095 105.14C4.72095 105.416 4.9448 105.64 5.22095 105.64H11.2209C11.4971 105.64 11.7209 105.416 11.7209 105.14C11.7209 104.864 11.4971 104.64 11.2209 104.64H5.22095Z" fill="#3972FE"/>
<path d="M18.588 154.53C18.3489 154.668 18.267 154.974 18.405 155.213C18.5431 155.452 18.8489 155.534 19.088 155.396L24.2842 152.396C24.5233 152.258 24.6053 151.952 24.4672 151.713C24.3291 151.474 24.0233 151.392 23.7842 151.53L18.588 154.53Z" fill="#3972FE"/>
<path d="M55.1099 191.051C54.9719 191.29 55.0538 191.596 55.2929 191.734C55.5321 191.872 55.8379 191.79 55.976 191.551L58.976 186.355C59.114 186.116 59.0321 185.81 58.7929 185.672C58.5538 185.534 58.248 185.616 58.1099 185.855L55.1099 191.051Z" fill="#3972FE"/>
<path d="M105 204.419C105 204.695 105.224 204.919 105.5 204.919C105.776 204.919 106 204.695 106 204.419V198.419C106 198.143 105.776 197.919 105.5 197.919C105.224 197.919 105 198.143 105 198.419V204.419Z" fill="#3972FE"/>
<path d="M154.89 191.051C155.028 191.29 155.334 191.372 155.573 191.234C155.812 191.096 155.894 190.79 155.756 190.551L152.756 185.355C152.618 185.116 152.312 185.034 152.073 185.172C151.834 185.31 151.752 185.616 151.89 185.855L154.89 191.051Z" fill="#3972FE"/>
<path d="M191.412 154.529C191.651 154.667 191.957 154.585 192.095 154.346C192.233 154.107 192.151 153.801 191.912 153.663L186.716 150.663C186.477 150.525 186.171 150.607 186.033 150.846C185.895 151.085 185.977 151.391 186.216 151.529L191.412 154.529Z" fill="#3972FE"/>
<path d="M204.779 104.64C205.055 104.64 205.279 104.416 205.279 104.14C205.279 103.864 205.055 103.64 204.779 103.64H198.779C198.503 103.64 198.279 103.864 198.279 104.14C198.279 104.416 198.503 104.64 198.779 104.64H204.779Z" fill="#3972FE"/>
<path d="M191.412 54.7503C191.651 54.6122 191.733 54.3064 191.595 54.0673C191.457 53.8281 191.151 53.7462 190.912 53.8843L185.716 56.8843C185.477 57.0223 185.395 57.3281 185.533 57.5673C185.671 57.8064 185.977 57.8884 186.216 57.7503L191.412 54.7503Z" fill="#3972FE"/>
<path d="M154.89 18.2282C155.028 17.989 154.946 17.6832 154.707 17.5452C154.468 17.4071 154.162 17.489 154.024 17.7282L151.024 22.9243C150.886 23.1635 150.968 23.4693 151.207 23.6073C151.446 23.7454 151.752 23.6635 151.89 23.4243L154.89 18.2282Z" fill="#3972FE"/>
<path d="M105 208.5C162.36 208.5 208.86 162 208.86 104.64C208.86 47.2797 162.36 0.780029 105 0.780029C47.6397 0.780029 1.14001 47.2797 1.14001 104.64C1.14001 162 47.6397 208.5 105 208.5Z" stroke="#F9F9F9" stroke-miterlimit="10"/>
</svg>
