<svg width="208" height="208" viewBox="0 0 208 208" fill="none" xmlns="http://www.w3.org/2000/svg">
<path d="M95.236 101.709H180.114C180.407 101.709 180.698 101.767 180.969 101.879C181.24 101.991 181.486 102.156 181.694 102.363C181.901 102.571 182.066 102.817 182.178 103.088C182.29 103.359 182.348 103.65 182.348 103.943C182.348 104.535 182.112 105.103 181.693 105.522C181.274 105.941 180.706 106.176 180.114 106.176H95.236C94.9425 106.176 94.6518 106.119 94.3806 106.007C94.1093 105.895 93.8628 105.73 93.6551 105.523C93.4474 105.316 93.2827 105.069 93.1703 104.798C93.0579 104.527 93 104.236 93 103.943C93 103.649 93.0578 103.359 93.1702 103.088C93.2826 102.816 93.4474 102.57 93.655 102.363C93.8627 102.155 94.1092 101.991 94.3805 101.878C94.6518 101.766 94.9425 101.709 95.236 101.709Z" fill="#1E1F4B"/>
<path d="M109.505 96.4818L90.784 144.32C90.6772 144.593 90.5175 144.843 90.3143 145.054C90.111 145.265 89.8681 145.435 89.5993 145.552C89.3305 145.67 89.0413 145.733 88.748 145.739C88.4547 145.745 88.1632 145.693 87.89 145.586C87.6168 145.479 87.3673 145.319 87.1558 145.116C86.9443 144.913 86.775 144.67 86.6574 144.401C86.5398 144.132 86.4764 143.843 86.4706 143.55C86.4649 143.257 86.517 142.965 86.624 142.692L105.345 94.8508C105.561 94.2994 105.987 93.8564 106.53 93.619C107.073 93.3816 107.687 93.3693 108.239 93.5848C108.513 93.6917 108.762 93.8514 108.974 94.0549C109.186 94.2584 109.355 94.5016 109.473 94.7707C109.591 95.0398 109.654 95.3295 109.659 95.6231C109.665 95.9167 109.612 96.2085 109.505 96.4818Z" fill="#1E1F4B"/>
<path d="M101.274 95.4528L136.306 186.081C136.466 186.495 136.455 186.956 136.276 187.362C136.096 187.768 135.762 188.087 135.348 188.247C135.143 188.326 134.924 188.364 134.704 188.359C134.484 188.354 134.267 188.306 134.066 188.217C133.865 188.128 133.683 188 133.531 187.841C133.379 187.682 133.26 187.494 133.181 187.289L98.149 96.6608C97.9889 96.2464 98.0001 95.7853 98.1799 95.3791C98.3598 94.9729 98.6936 94.6548 99.108 94.4948C99.3131 94.4153 99.5319 94.3771 99.7518 94.3823C99.9717 94.3875 100.188 94.4359 100.39 94.5249C100.591 94.6139 100.772 94.7416 100.924 94.9008C101.076 95.06 101.195 95.2476 101.274 95.4528Z" fill="#3972FE"/>
<path d="M103.613 109.527C106.389 109.527 108.639 107.276 108.639 104.501C108.639 101.725 106.389 99.4746 103.613 99.4746C100.837 99.4746 98.5869 101.725 98.5869 104.501C98.5869 107.276 100.837 109.527 103.613 109.527Z" fill="#3972FE"/>
</svg>
