<svg width="97" height="96" viewBox="0 0 97 96" fill="none" xmlns="http://www.w3.org/2000/svg">
<path d="M9.23602 8.48926H94.114C94.4074 8.48926 94.6979 8.54705 94.9689 8.65932C95.24 8.77159 95.4862 8.93614 95.6937 9.14359C95.9011 9.35103 96.0657 9.59731 96.1779 9.86835C96.2902 10.1394 96.348 10.4299 96.348 10.7233C96.3478 11.3156 96.1122 11.8836 95.6933 12.3023C95.2744 12.721 94.7063 12.9563 94.114 12.9563H9.23602C8.94253 12.9566 8.65182 12.8992 8.38055 12.7871C8.10929 12.6751 7.86276 12.5107 7.65509 12.3033C7.44742 12.0959 7.28269 11.8496 7.17029 11.5785C7.05788 11.3074 7 11.0168 7 10.7233C7 10.4297 7.05783 10.1391 7.17023 9.86789C7.28262 9.59672 7.44737 9.35034 7.65503 9.14287C7.86269 8.9354 8.10922 8.77089 8.38049 8.65874C8.65177 8.54659 8.94248 8.489 9.23602 8.48926Z" fill="#1E1F4B"/>
<path d="M23.505 3.2621L4.784 51.1001C4.67717 51.3733 4.51754 51.6228 4.31427 51.8343C4.11099 52.0458 3.86806 52.2151 3.5993 52.3327C3.33055 52.4503 3.04127 52.5137 2.74798 52.5195C2.4547 52.5252 2.16315 52.4731 1.89001 52.3661C1.61681 52.2593 1.36732 52.0997 1.15582 51.8964C0.944328 51.6931 0.774976 51.4502 0.657409 51.1814C0.539841 50.9127 0.476372 50.6234 0.470641 50.3301C0.46491 50.0368 0.517044 49.7453 0.624022 49.4721L19.345 1.63111C19.5612 1.0797 19.9874 0.636639 20.53 0.399264C21.0727 0.161888 21.6873 0.149613 22.239 0.365114C22.5126 0.471929 22.7624 0.631655 22.9741 0.835146C23.1859 1.03864 23.3554 1.28188 23.473 1.55098C23.5906 1.82008 23.6539 2.10973 23.6594 2.40335C23.6649 2.69697 23.6124 2.98879 23.505 3.2621Z" fill="#1E1F4B"/>
<path d="M15.274 2.23304L50.306 92.861C50.4661 93.2753 50.4552 93.7362 50.2755 94.1424C50.0959 94.5486 49.7622 94.8668 49.348 95.027C49.1428 95.1065 48.924 95.1447 48.704 95.1395C48.4841 95.1344 48.2673 95.086 48.066 94.997C47.8648 94.908 47.683 94.7803 47.5312 94.621C47.3793 94.4618 47.2604 94.2743 47.181 94.069L12.149 3.44103C11.9889 3.02663 12.0001 2.56562 12.1799 2.15941C12.3598 1.75321 12.6936 1.43509 13.108 1.27503C13.3131 1.19561 13.5319 1.1574 13.7518 1.16257C13.9717 1.16774 14.1884 1.2162 14.3895 1.30517C14.5907 1.39413 14.7723 1.52189 14.9241 1.6811C15.0758 1.8403 15.1947 2.02785 15.274 2.23304Z" fill="#3972FE"/>
<path d="M17.6129 16.3069C20.3887 16.3069 22.6389 14.0567 22.6389 11.2809C22.6389 8.5051 20.3887 6.25488 17.6129 6.25488C14.8371 6.25488 12.5869 8.5051 12.5869 11.2809C12.5869 14.0567 14.8371 16.3069 17.6129 16.3069Z" fill="#3972FE"/>
</svg>
