<?xml version="1.0" encoding="UTF-8"?><svg xmlns="http://www.w3.org/2000/svg" xmlns:xlink="http://www.w3.org/1999/xlink" viewBox="0 0 40 40"><defs><style>.j{fill:url(#i);opacity:0;}.k{opacity:.5;}.l{fill:url(#f);}.m{fill:url(#g);}.n{fill:url(#h);}.o{fill:url(#d);}.p{fill:url(#e);}.q{fill:#b0c4d9;}</style><linearGradient id="d" x1="20" y1="400.42" x2="20" y2="438.42" gradientTransform="translate(0 439.42) scale(1 -1)" gradientUnits="userSpaceOnUse"><stop offset="0" stop-color="#5558ff"/><stop offset="1" stop-color="#00c0ff"/></linearGradient><linearGradient id="e" x1="20" y1="402.65" x2="20" y2="436.19" gradientTransform="translate(0 439.42) scale(1 -1)" gradientUnits="userSpaceOnUse"><stop offset="0" stop-color="#addcff"/><stop offset=".5" stop-color="#eaf6ff"/><stop offset="1" stop-color="#eaf6ff"/></linearGradient><linearGradient id="f" x1="17.48" y1="410.44" x2="17.48" y2="423.36" xlink:href="#d"/><linearGradient id="g" x1="22.52" y1="415.48" x2="22.52" y2="428.41" xlink:href="#d"/><linearGradient id="h" y1="-294.23" x2="20" y2="-290.23" gradientTransform="translate(0 -272.23) scale(1 -1)" xlink:href="#e"/><linearGradient id="i" x1="0" y1="20" x2="40" y2="20" gradientTransform="matrix(1, 0, 0, 1, 0, 0)" gradientUnits="userSpaceOnUse"><stop offset="0" stop-color="#eb595a"/><stop offset="1" stop-color="#f18875"/></linearGradient></defs><g id="a"/><g id="b"><g id="c"><g><g><path class="o" d="M20,39C9.54,39,1,30.46,1,20S9.54,1,20,1s19,8.54,19,19-8.54,19-19,19Z"/><path class="p" d="M20,3.23C10.75,3.23,3.23,10.75,3.23,20s7.52,16.77,16.77,16.77,16.77-7.52,16.77-16.77S29.25,3.23,20,3.23Z"/><g class="k"><path class="q" d="M20.04,32.13c-.65,0-1.09-.43-1.09-1.09V9.3c0-.65,.43-1.09,1.09-1.09s1.09,.43,1.09,1.09V31.04c0,.65-.43,1.09-1.09,1.09Z"/><path class="q" d="M25.37,25.5c-.43,.43-1.09,.43-1.52,0l-9.24-9.24c-.43-.43-.43-1.09,0-1.52s1.09-.43,1.52,0l9.24,9.24c.43,.43,.43,1.2,0,1.52Z"/><path class="q" d="M8.09,20.17c0-.65,.43-1.09,1.09-1.09H30.91c.65,0,1.09,.43,1.09,1.09s-.43,1.09-1.09,1.09H9.17c-.65,0-1.09-.43-1.09-1.09Z"/></g><path class="l" d="M23.94,23.94l-7.87-7.87h0c-.1,.1-.18,.22-.24,.35l-4.72,11.02c-.18,.42-.09,.9,.24,1.23,.32,.32,.81,.41,1.23,.24l11.02-4.72c.13-.06,.25-.14,.35-.24h0Z"/><path class="m" d="M28.9,12.57l-4.72,11.02c-.06,.13-.14,.25-.24,.35h0l-7.87-7.87h0c.1-.1,.22-.18,.35-.24l11.02-4.72c.42-.18,.9-.09,1.23,.24,.32,.32,.42,.81,.24,1.23h0Z"/><circle class="n" cx="20" cy="20" r="2"/></g><rect class="j" width="40" height="40"/></g></g></g></svg>