<svg width="293" height="295" viewBox="0 0 293 295" fill="none" xmlns="http://www.w3.org/2000/svg">
<path d="M147.524 68.585H146.024V226.585H147.524V68.585Z" fill="black"/>
<path d="M225.774 148.335V146.835H67.774V148.335H225.774Z" fill="black"/>
<path d="M146.638 10.2711C145.973 10.2888 145.319 10.0887 144.778 9.70113C144.231 9.27745 143.82 8.70228 143.597 8.04712C143.048 6.3478 143.045 4.51911 143.589 2.81812C143.812 2.16332 144.223 1.58853 144.77 1.16512C145.315 0.793181 145.96 0.594238 146.62 0.594238C147.28 0.594238 147.925 0.793181 148.47 1.16512C149.017 1.5881 149.428 2.16111 149.654 2.81412C149.949 3.65128 150.09 4.53482 150.07 5.42212C150.094 6.31296 149.958 7.2009 149.67 8.04413C149.448 8.69945 149.039 9.27565 148.494 9.70212C147.955 10.0906 147.302 10.2906 146.638 10.2711ZM146.638 9.04613C146.949 9.04661 147.254 8.95919 147.518 8.79396C147.782 8.62873 147.994 8.39239 148.129 8.11212C148.534 7.27484 148.719 6.34775 148.664 5.41913C148.677 4.75091 148.593 4.08436 148.415 3.44012C148.295 2.97575 148.054 2.5518 147.715 2.21213C147.421 1.93713 147.031 1.78753 146.629 1.79512C146.318 1.7958 146.013 1.88417 145.75 2.05008C145.487 2.21599 145.276 2.45272 145.141 2.73312C144.734 3.57007 144.548 4.49696 144.599 5.42612C144.587 6.09596 144.671 6.76412 144.848 7.41013C144.967 7.87333 145.209 8.29582 145.548 8.63312C145.843 8.90618 146.233 9.05421 146.635 9.04613H146.638Z" fill="#1D2438"/>
<path d="M187.432 16.1491L187.756 15.1731L191.814 13.0521C192.248 12.8201 192.613 12.6108 192.909 12.4241C193.172 12.2642 193.413 12.0702 193.625 11.8471C193.806 11.6497 193.943 11.4153 194.025 11.1601C194.122 10.8986 194.141 10.6141 194.077 10.3423C194.014 10.0705 193.871 9.82348 193.668 9.63213C193.455 9.42668 193.197 9.27335 192.914 9.18413C192.626 9.08126 192.316 9.05305 192.014 9.10213C191.739 9.15042 191.484 9.27957 191.282 9.47313C191.064 9.68681 190.902 9.95192 190.813 10.2441L189.529 9.81812C189.684 9.31371 189.978 8.86318 190.377 8.51813C190.76 8.19786 191.225 7.99015 191.719 7.91812C192.256 7.85119 192.801 7.90468 193.314 8.07472C193.827 8.24476 194.296 8.52707 194.687 8.90112C195.028 9.24359 195.27 9.67164 195.387 10.1401C195.501 10.6072 195.477 11.0971 195.319 11.5511C195.209 11.8832 195.036 12.1913 194.811 12.4591C194.522 12.7861 194.188 13.0697 193.818 13.3011C193.256 13.6606 192.675 13.9897 192.078 14.2871L189.696 15.5471L189.674 15.6121L193.687 16.9481L193.303 18.1011L187.432 16.1491Z" fill="black"/>
<path d="M197.753 19.9871C197.132 19.7471 196.605 19.3115 196.253 18.7461C195.91 18.1442 195.751 17.4546 195.796 16.7631C195.849 15.8741 196.061 15.0018 196.42 14.1871C196.741 13.3589 197.207 12.5951 197.798 11.9321C198.256 11.4135 198.856 11.0401 199.523 10.8581C200.169 10.7072 200.846 10.7715 201.451 11.0411C202.069 11.2773 202.593 11.7111 202.939 12.2751C203.282 12.8754 203.443 13.5628 203.401 14.2531C203.352 15.1387 203.142 16.008 202.783 16.8191C202.463 17.6513 201.995 18.4191 201.403 19.0861C200.947 19.606 200.348 19.9811 199.681 20.1651C199.036 20.3184 198.359 20.2559 197.753 19.9871ZM198.221 18.8541C198.508 18.9742 198.824 19.0107 199.131 18.9596C199.438 18.9085 199.724 18.7717 199.957 18.5651C200.652 17.9471 201.178 17.1615 201.484 16.2831C201.754 15.6715 201.933 15.0236 202.014 14.3601C202.081 13.8859 202.02 13.4024 201.836 12.9601C201.67 12.5941 201.368 12.3072 200.994 12.1601C200.706 12.0408 200.391 12.0052 200.084 12.0573C199.776 12.1095 199.49 12.2474 199.258 12.4551C198.562 13.0716 198.034 13.8557 197.725 14.7331C197.456 15.3466 197.276 15.996 197.193 16.6611C197.125 17.1353 197.187 17.6192 197.372 18.0611C197.542 18.4255 197.846 18.7098 198.221 18.8541Z" fill="black"/>
<path d="M230.639 36.0999L231.35 35.1999L238.513 32.6899L239.223 33.2509L238.175 34.5749L237.725 34.2199L232.595 36.0199L232.551 36.0779L236.913 39.5309L236.168 40.4729L230.639 36.0999ZM232.993 40.2999L234.348 38.5879L234.679 38.1879L238.831 32.9429L239.884 33.7769L234.054 41.1429L232.993 40.2999Z" fill="black"/>
<path d="M238.462 45.14C237.96 44.7025 237.614 44.1135 237.476 43.462C237.359 42.7802 237.445 42.0791 237.724 41.446C238.469 39.8229 239.704 38.4735 241.254 37.587C241.861 37.255 242.553 37.1086 243.242 37.166C243.895 37.2606 244.505 37.5496 244.991 37.9955C245.478 38.4414 245.819 39.0235 245.97 39.666C246.087 40.3469 246.003 41.0471 245.728 41.681C245.379 42.496 244.886 43.2412 244.272 43.881C243.686 44.5535 242.985 45.1157 242.201 45.541C241.594 45.8738 240.904 46.0222 240.214 45.968C239.555 45.8909 238.94 45.6 238.462 45.14ZM239.288 44.24C239.517 44.45 239.801 44.5913 240.107 44.6479C240.412 44.7045 240.728 44.674 241.017 44.56C241.882 44.2164 242.644 43.6574 243.232 42.936C243.694 42.4529 244.084 41.9048 244.387 41.309C244.612 40.8846 244.719 40.4078 244.698 39.928C244.667 39.5267 244.482 39.1531 244.181 38.886C243.951 38.6766 243.666 38.5361 243.36 38.4806C243.053 38.4251 242.737 38.4567 242.448 38.572C241.583 38.9144 240.82 39.4712 240.23 40.19C239.767 40.6745 239.377 41.2239 239.072 41.821C238.847 42.2438 238.74 42.7195 238.762 43.198C238.797 43.5989 238.985 43.9709 239.288 44.236V44.24Z" fill="black"/>
<path d="M263.471 74.7441C263.253 74.3831 263.097 73.9879 263.01 73.5751C262.92 73.1365 262.933 72.6831 263.047 72.2501C263.192 71.7342 263.449 71.2563 263.799 70.8501C264.279 70.2956 264.846 69.8227 265.478 69.4501C266.097 69.0525 266.762 68.7337 267.46 68.5011C268.021 68.3126 268.611 68.2265 269.203 68.2471C269.71 68.268 270.205 68.411 270.645 68.6641C271.085 68.9263 271.453 69.2928 271.717 69.7311C271.999 70.1635 272.174 70.6567 272.228 71.1701C272.274 71.641 272.2 72.1159 272.015 72.5511C271.824 72.9927 271.533 73.3834 271.164 73.6921L270.422 72.5051C270.693 72.2382 270.873 71.8929 270.936 71.5181C270.991 71.1209 270.895 70.7174 270.668 70.3871C270.503 70.1083 270.266 69.879 269.982 69.7232C269.698 69.5673 269.377 69.4906 269.053 69.5011C268.182 69.5457 267.34 69.8344 266.625 70.3341L266.662 70.3921C266.968 70.3874 267.273 70.4372 267.562 70.5391C267.849 70.6423 268.118 70.7931 268.355 70.9851C268.678 71.2507 268.94 71.5819 269.125 71.9568C269.31 72.3316 269.413 72.7415 269.427 73.1591C269.437 73.6751 269.311 74.1845 269.061 74.6361C268.789 75.1229 268.394 75.53 267.916 75.8171C267.437 76.1261 266.885 76.305 266.316 76.3361C265.766 76.366 265.218 76.2431 264.733 75.9811C264.208 75.6912 263.771 75.2635 263.471 74.7441ZM264.48 74.1081C264.656 74.4012 264.913 74.6375 265.219 74.7891C265.518 74.935 265.851 75.0008 266.183 74.9801C266.529 74.9541 266.863 74.8452 267.157 74.6626C267.452 74.48 267.698 74.2291 267.875 73.9311C268.038 73.6467 268.124 73.3242 268.123 72.9961C268.121 72.6587 268.022 72.329 267.838 72.0461C267.703 71.8246 267.521 71.6346 267.306 71.4891C267.098 71.3498 266.864 71.2526 266.618 71.2031C266.37 71.1525 266.115 71.1477 265.866 71.1891C265.612 71.2308 265.369 71.3233 265.151 71.4611C264.859 71.6391 264.618 71.8891 264.451 72.1871C264.286 72.4779 264.198 72.8066 264.197 73.1411C264.195 73.4842 264.293 73.8204 264.48 74.1081Z" fill="black"/>
<path d="M267.508 81.699C267.182 81.1188 267.054 80.4483 267.144 79.789C267.262 79.1068 267.579 78.4745 268.054 77.971C268.661 77.3193 269.38 76.7815 270.176 76.383C270.951 75.9474 271.798 75.656 272.676 75.523C273.359 75.4142 274.06 75.5084 274.69 75.794C275.274 76.102 275.751 76.5786 276.059 77.1617C276.368 77.7447 276.494 78.4072 276.421 79.0629C276.303 79.7441 275.988 80.376 275.516 80.881C274.913 81.532 274.198 82.0689 273.405 82.466C272.628 82.9024 271.779 83.1963 270.898 83.334C270.215 83.4433 269.515 83.3508 268.883 83.068C268.287 82.7753 267.803 82.2941 267.508 81.699ZM268.59 81.124C268.735 81.3993 268.955 81.6283 269.224 81.7846C269.493 81.9409 269.801 82.0183 270.112 82.008C271.042 81.9738 271.947 81.703 272.743 81.221C273.341 80.922 273.891 80.5365 274.376 80.077C274.732 79.7522 274.994 79.3377 275.134 78.877C275.24 78.4888 275.191 78.0747 274.997 77.722C274.851 77.4473 274.63 77.2194 274.36 77.0642C274.09 76.9089 273.782 76.8326 273.471 76.844C272.541 76.8756 271.634 77.1441 270.836 77.624C270.238 77.9253 269.687 78.3116 269.199 78.771C268.845 79.0931 268.585 79.5045 268.445 79.962C268.34 80.3534 268.392 80.7703 268.59 81.124Z" fill="black"/>
<path d="M281.536 119.77C281.403 119.187 281.397 118.583 281.518 117.997C281.619 117.496 281.853 117.031 282.195 116.651C282.525 116.294 282.962 116.052 283.44 115.963C283.812 115.88 284.198 115.886 284.566 115.981C284.92 116.074 285.248 116.244 285.526 116.481C285.799 116.711 286.01 117.006 286.14 117.339L286.194 117.328C286.204 116.862 286.386 116.416 286.705 116.075C287.028 115.737 287.445 115.503 287.902 115.403C288.358 115.302 288.835 115.34 289.27 115.511C289.703 115.698 290.079 115.997 290.359 116.376C290.676 116.805 290.891 117.3 290.989 117.824C291.105 118.342 291.101 118.879 290.978 119.394C290.869 119.854 290.64 120.276 290.316 120.619C289.989 120.955 289.567 121.183 289.107 121.271C288.646 121.359 288.17 121.304 287.742 121.112C287.319 120.926 286.977 120.594 286.78 120.176L286.726 120.187C286.739 120.54 286.661 120.891 286.499 121.205C286.335 121.53 286.101 121.815 285.814 122.04C285.514 122.277 285.163 122.44 284.789 122.516C284.313 122.618 283.818 122.566 283.373 122.368C282.909 122.154 282.51 121.819 282.219 121.399C281.878 120.911 281.645 120.356 281.536 119.77ZM282.673 119.535C282.735 119.877 282.869 120.201 283.068 120.485C283.235 120.723 283.467 120.909 283.735 121.021C284.007 121.128 284.305 121.152 284.59 121.089C284.893 121.03 285.172 120.882 285.39 120.664C285.604 120.447 285.757 120.178 285.834 119.883C285.909 119.553 285.913 119.21 285.844 118.878C285.775 118.546 285.635 118.233 285.434 117.96C285.248 117.718 285.001 117.529 284.717 117.414C284.43 117.303 284.117 117.281 283.817 117.351C283.53 117.4 283.264 117.536 283.056 117.739C282.853 117.949 282.714 118.212 282.656 118.498C282.588 118.841 282.594 119.195 282.673 119.535ZM286.954 118.654C287.007 118.937 287.128 119.202 287.306 119.428C287.47 119.635 287.687 119.792 287.934 119.883C288.194 119.975 288.475 119.993 288.745 119.933C289.011 119.882 289.258 119.758 289.458 119.574C289.646 119.395 289.78 119.167 289.845 118.916C289.908 118.632 289.91 118.337 289.851 118.052C289.792 117.766 289.674 117.497 289.503 117.26C289.346 117.054 289.132 116.897 288.888 116.809C288.633 116.721 288.357 116.707 288.094 116.77C287.828 116.813 287.58 116.932 287.38 117.114C287.18 117.295 287.037 117.53 286.968 117.791C286.894 118.074 286.89 118.37 286.954 118.654Z" fill="black"/>
<path d="M282.91 127.743C282.807 127.086 282.921 126.413 283.234 125.826C283.584 125.228 284.101 124.746 284.721 124.438C285.517 124.04 286.378 123.786 287.263 123.689C288.14 123.551 289.035 123.573 289.904 123.752C290.583 123.889 291.206 124.221 291.698 124.708C292.137 125.201 292.418 125.814 292.505 126.468C292.591 127.122 292.479 127.787 292.183 128.376C291.834 128.973 291.319 129.455 290.701 129.764C289.91 130.165 289.053 130.419 288.171 130.514C287.29 130.654 286.392 130.634 285.518 130.455C284.838 130.321 284.213 129.991 283.718 129.505C283.264 129.022 282.981 128.403 282.91 127.743ZM284.125 127.582C284.165 127.891 284.292 128.182 284.49 128.422C284.688 128.662 284.95 128.841 285.245 128.939C286.128 129.232 287.071 129.294 287.985 129.119C288.649 129.047 289.299 128.878 289.915 128.619C290.36 128.438 290.748 128.142 291.041 127.761C291.276 127.434 291.374 127.028 291.314 126.63C291.273 126.322 291.145 126.031 290.946 125.791C290.747 125.552 290.485 125.373 290.189 125.275C289.306 124.981 288.363 124.917 287.448 125.089C286.783 125.162 286.132 125.33 285.515 125.589C285.071 125.769 284.684 126.064 284.393 126.444C284.16 126.775 284.064 127.183 284.125 127.582Z" fill="black"/>
<path d="M292.635 166.99L283.313 165.829L283.488 164.419L291.4 165.403L291.406 165.348L290.227 162.936L291.575 163.104L292.805 165.619L292.635 166.99Z" fill="black"/>
<path d="M282.273 171.441C282.373 170.783 282.685 170.175 283.161 169.71C283.674 169.246 284.312 168.943 284.996 168.838C285.876 168.697 286.774 168.716 287.647 168.892C288.525 169.025 289.372 169.316 290.147 169.751C290.753 170.086 291.246 170.591 291.567 171.204C291.838 171.806 291.922 172.475 291.806 173.125C291.691 173.775 291.382 174.374 290.92 174.846C290.408 175.31 289.771 175.614 289.089 175.722C288.213 175.864 287.319 175.847 286.449 175.673C285.568 175.538 284.718 175.247 283.939 174.814C283.333 174.48 282.837 173.977 282.514 173.365C282.224 172.767 282.14 172.091 282.273 171.441ZM283.479 171.653C283.424 171.959 283.457 172.275 283.573 172.564C283.689 172.853 283.884 173.103 284.136 173.286C284.889 173.832 285.77 174.177 286.694 174.286C287.349 174.415 288.02 174.449 288.685 174.386C289.164 174.348 289.624 174.183 290.017 173.908C290.339 173.667 290.554 173.311 290.617 172.914C290.67 172.607 290.637 172.291 290.519 172.003C290.402 171.714 290.206 171.465 289.954 171.282C289.201 170.735 288.321 170.388 287.397 170.276C286.739 170.146 286.065 170.112 285.397 170.176C284.92 170.213 284.462 170.377 284.07 170.652C283.751 170.897 283.54 171.256 283.479 171.653Z" fill="black"/>
<path d="M280.612 179.463C280.75 178.812 281.097 178.224 281.599 177.788C282.139 177.356 282.794 177.091 283.483 177.026C285.263 176.888 287.042 177.312 288.569 178.238C289.154 178.608 289.618 179.141 289.903 179.772C290.138 180.389 290.182 181.062 290.029 181.705C289.876 182.347 289.533 182.928 289.044 183.372C288.506 183.806 287.852 184.073 287.164 184.14C286.282 184.233 285.39 184.165 284.532 183.94C283.66 183.756 282.828 183.418 282.076 182.94C281.49 182.572 281.025 182.04 280.738 181.41C280.482 180.793 280.438 180.108 280.612 179.463ZM281.803 179.747C281.731 180.05 281.745 180.367 281.844 180.662C281.943 180.957 282.123 181.218 282.363 181.416C283.083 182.005 283.942 182.399 284.858 182.562C285.504 182.731 286.172 182.806 286.84 182.783C287.321 182.773 287.79 182.635 288.199 182.383C288.535 182.162 288.771 181.819 288.858 181.426C288.93 181.123 288.915 180.806 288.815 180.511C288.715 180.216 288.534 179.955 288.293 179.758C287.573 179.168 286.715 178.771 285.8 178.604C285.152 178.435 284.482 178.361 283.813 178.384C283.334 178.394 282.866 178.532 282.459 178.784C282.124 179.008 281.889 179.353 281.803 179.746V179.747Z" fill="black"/>
<path d="M278.368 213.378L269.932 209.243L270.559 207.966L277.717 211.475L277.742 211.425L277.413 208.761L278.632 209.361L278.977 212.14L278.368 213.378Z" fill="black"/>
<path d="M268.833 211.44L269.733 211.94L271.075 216.315C271.225 216.786 271.363 217.183 271.492 217.508C271.601 217.797 271.748 218.069 271.928 218.319C272.089 218.534 272.293 218.711 272.528 218.84C272.774 218.987 273.058 219.056 273.343 219.04C273.614 219.022 273.875 218.928 274.096 218.77C274.337 218.597 274.535 218.371 274.674 218.109C274.828 217.845 274.912 217.546 274.919 217.239C274.922 216.96 274.843 216.686 274.691 216.451C274.52 216.199 274.288 215.992 274.017 215.851L274.671 214.667C275.138 214.912 275.527 215.283 275.793 215.738C276.04 216.174 276.161 216.669 276.142 217.169C276.11 217.709 275.958 218.235 275.697 218.709C275.436 219.182 275.072 219.591 274.633 219.906C274.234 220.18 273.768 220.34 273.285 220.369C272.805 220.396 272.328 220.283 271.911 220.044C271.605 219.874 271.334 219.648 271.111 219.378C270.843 219.034 270.626 218.653 270.466 218.247C270.216 217.629 269.999 216.998 269.816 216.356L269.011 213.777L268.95 213.743L266.902 217.443L265.839 216.854L268.833 211.44Z" fill="black"/>
<path d="M263.143 220.927C263.484 220.356 264.002 219.912 264.619 219.661C265.27 219.426 265.976 219.386 266.649 219.548C268.378 219.994 269.924 220.971 271.07 222.34C271.504 222.879 271.77 223.533 271.836 224.221C271.858 224.881 271.682 225.531 271.33 226.089C270.978 226.647 270.466 227.086 269.861 227.349C269.211 227.585 268.506 227.626 267.833 227.467C266.969 227.268 266.147 226.914 265.408 226.423C264.643 225.966 263.966 225.375 263.408 224.679C262.973 224.141 262.705 223.488 262.637 222.799C262.596 222.137 262.774 221.479 263.143 220.927ZM264.179 221.58C264.013 221.843 263.924 222.148 263.922 222.459C263.92 222.77 264.006 223.076 264.169 223.34C264.661 224.131 265.346 224.782 266.161 225.232C266.717 225.601 267.323 225.887 267.961 226.081C268.419 226.227 268.907 226.249 269.376 226.143C269.765 226.042 270.099 225.793 270.309 225.45C270.474 225.186 270.562 224.881 270.562 224.57C270.562 224.259 270.474 223.953 270.309 223.689C269.819 222.898 269.135 222.244 268.323 221.789C267.764 221.421 267.155 221.134 266.514 220.939C266.058 220.793 265.571 220.772 265.104 220.877C264.717 220.984 264.386 221.236 264.179 221.58Z" fill="black"/>
<path d="M248.336 253.963L241.799 247.217L242.821 246.226L248.368 251.952L248.408 251.913L249 249.296L249.946 250.27L249.328 253.002L248.336 253.963Z" fill="black"/>
<path d="M236.832 251.702L238.269 253.347L238.606 253.747L243.006 258.784L241.994 259.669L235.814 252.593L236.832 251.702ZM241.394 250.154L242.149 251.018L243.31 258.518L242.63 259.118L241.52 257.847L241.951 257.47L241.113 252.098L241.066 252.042L236.875 255.703L236.085 254.803L241.394 250.154Z" fill="black"/>
<path d="M231.064 256.212C231.581 255.793 232.219 255.553 232.884 255.528C233.576 255.528 234.253 255.732 234.83 256.115C235.576 256.603 236.228 257.219 236.758 257.935C237.319 258.624 237.75 259.408 238.03 260.25C238.254 260.905 238.28 261.611 238.106 262.28C237.902 262.908 237.514 263.459 236.992 263.863C236.47 264.266 235.839 264.504 235.181 264.544C234.49 264.543 233.814 264.34 233.236 263.961C231.763 262.953 230.644 261.507 230.036 259.829C229.811 259.175 229.782 258.469 229.952 257.798C230.139 257.162 230.529 256.605 231.064 256.212ZM231.813 257.18C231.567 257.371 231.379 257.627 231.272 257.918C231.164 258.21 231.141 258.527 231.204 258.831C231.395 259.742 231.816 260.588 232.427 261.289C232.825 261.826 233.299 262.303 233.834 262.703C234.213 262.998 234.665 263.185 235.141 263.245C235.542 263.284 235.942 263.165 236.256 262.913C236.501 262.722 236.687 262.465 236.793 262.173C236.899 261.881 236.921 261.564 236.856 261.26C236.666 260.35 236.247 259.502 235.639 258.798C235.241 258.26 234.766 257.782 234.23 257.38C233.853 257.087 233.404 256.9 232.93 256.84C232.528 256.806 232.128 256.927 231.813 257.18Z" fill="black"/>
<path d="M205.013 282.557L201.231 273.957L202.531 273.384L205.742 280.684L205.792 280.662L207.258 278.413L207.804 279.657L206.276 282.002L205.013 282.557Z" fill="black"/>
<path d="M195.871 275.974C196.268 275.83 196.686 275.754 197.108 275.749C197.556 275.747 197.998 275.848 198.4 276.043C198.879 276.285 199.299 276.63 199.63 277.053C200.081 277.631 200.434 278.279 200.677 278.971C200.947 279.655 201.131 280.369 201.225 281.098C201.302 281.685 201.271 282.282 201.135 282.858C201.021 283.355 200.783 283.816 200.443 284.197C200.103 284.578 199.673 284.867 199.192 285.037C198.713 285.229 198.195 285.306 197.681 285.26C197.21 285.213 196.758 285.049 196.367 284.782C195.972 284.509 195.645 284.148 195.414 283.727L196.722 283.227C196.931 283.546 197.234 283.791 197.59 283.927C197.969 284.057 198.383 284.041 198.751 283.883C199.057 283.775 199.327 283.586 199.535 283.338C199.743 283.089 199.881 282.79 199.934 282.47C200.06 281.607 199.94 280.725 199.587 279.927L199.523 279.951C199.469 280.251 199.361 280.539 199.205 280.801C199.05 281.064 198.85 281.297 198.615 281.492C198.292 281.758 197.916 281.952 197.513 282.06C197.109 282.169 196.687 282.191 196.274 282.123C195.766 282.033 195.29 281.81 194.896 281.476C194.471 281.115 194.148 280.649 193.96 280.124C193.751 279.595 193.682 279.021 193.76 278.458C193.839 277.913 194.066 277.4 194.416 276.975C194.801 276.516 195.304 276.17 195.871 275.974ZM196.299 277.088C195.978 277.205 195.697 277.411 195.489 277.681C195.287 277.946 195.157 278.259 195.113 278.59C195.071 278.934 195.113 279.283 195.235 279.607C195.357 279.932 195.555 280.222 195.813 280.453C196.06 280.668 196.359 280.815 196.681 280.878C197.013 280.939 197.356 280.904 197.669 280.778C197.913 280.688 198.134 280.547 198.318 280.364C198.496 280.187 198.637 279.976 198.733 279.744C198.831 279.511 198.885 279.262 198.892 279.009C198.901 278.752 198.857 278.495 198.765 278.255C198.646 277.935 198.447 277.651 198.188 277.429C197.935 277.21 197.629 277.06 197.301 276.994C196.964 276.927 196.615 276.96 196.296 277.088H196.299Z" fill="black"/>
<path d="M188.246 278.594C188.876 278.38 189.558 278.375 190.19 278.582C190.839 278.823 191.403 279.249 191.812 279.807C192.344 280.522 192.742 281.327 192.989 282.183C193.277 283.023 193.41 283.908 193.382 284.794C193.365 285.486 193.146 286.158 192.75 286.726C192.341 287.244 191.786 287.627 191.156 287.824C190.527 288.022 189.853 288.027 189.221 287.836C188.573 287.596 188.009 287.172 187.598 286.616C187.067 285.906 186.669 285.105 186.422 284.253C186.134 283.41 185.998 282.521 186.022 281.629C186.039 280.938 186.257 280.266 186.649 279.695C187.046 279.163 187.607 278.776 188.246 278.594ZM188.614 279.762C188.317 279.856 188.052 280.03 187.85 280.267C187.648 280.503 187.516 280.792 187.47 281.099C187.335 282.02 187.438 282.96 187.77 283.829C187.956 284.471 188.236 285.082 188.599 285.643C188.854 286.051 189.213 286.383 189.638 286.605C190.001 286.779 190.417 286.806 190.799 286.678C191.096 286.585 191.36 286.409 191.561 286.172C191.763 285.935 191.894 285.646 191.939 285.338C192.076 284.418 191.977 283.477 191.651 282.605C191.463 281.962 191.183 281.35 190.819 280.787C190.566 280.381 190.209 280.05 189.784 279.829C189.417 279.657 188.998 279.633 188.614 279.763V279.762Z" fill="black"/>
<path d="M155.816 294.221L155.174 284.848L156.593 284.748L157.139 292.703H157.193L159.336 291.084L159.428 292.439L157.194 294.127L155.816 294.221Z" fill="black"/>
<path d="M149.554 284.926C150.152 284.904 150.747 285.01 151.301 285.235C151.776 285.427 152.19 285.743 152.501 286.149C152.792 286.54 152.948 287.013 152.947 287.5C152.96 287.88 152.883 288.257 152.721 288.6C152.567 288.931 152.339 289.222 152.056 289.452C151.78 289.679 151.451 289.832 151.1 289.898V289.953C151.556 290.049 151.961 290.309 152.237 290.685C152.51 291.065 152.663 291.518 152.677 291.985C152.692 292.453 152.567 292.914 152.318 293.31C152.055 293.702 151.693 294.017 151.268 294.221C150.788 294.455 150.261 294.575 149.727 294.574C149.198 294.593 148.671 294.49 148.188 294.274C147.756 294.082 147.383 293.78 147.105 293.398C146.835 293.015 146.689 292.558 146.688 292.089C146.686 291.62 146.829 291.162 147.096 290.777C147.357 290.395 147.748 290.12 148.196 290.004V289.95C147.847 289.896 147.517 289.755 147.237 289.538C146.948 289.316 146.711 289.033 146.543 288.71C146.366 288.373 146.27 287.998 146.265 287.617C146.252 287.131 146.394 286.652 146.671 286.252C146.967 285.834 147.369 285.503 147.836 285.294C148.376 285.051 148.962 284.926 149.554 284.926ZM149.575 286.087C149.228 286.085 148.885 286.158 148.569 286.3C148.304 286.421 148.078 286.614 147.918 286.858C147.764 287.105 147.686 287.393 147.695 287.684C147.698 287.992 147.791 288.292 147.964 288.547C148.139 288.797 148.376 288.997 148.652 289.127C148.958 289.27 149.294 289.339 149.632 289.327C149.973 289.327 150.309 289.248 150.614 289.094C150.887 288.958 151.118 288.751 151.283 288.494C151.446 288.234 151.525 287.93 151.511 287.623C151.515 287.332 151.431 287.046 151.269 286.804C151.1 286.565 150.867 286.379 150.596 286.269C150.272 286.137 149.924 286.075 149.575 286.087ZM149.653 290.458C149.365 290.457 149.081 290.526 148.825 290.658C148.593 290.782 148.399 290.967 148.264 291.192C148.125 291.431 148.056 291.704 148.064 291.98C148.066 292.251 148.142 292.517 148.286 292.747C148.427 292.965 148.626 293.138 148.861 293.247C149.125 293.368 149.414 293.425 149.704 293.414C149.998 293.414 150.288 293.346 150.551 293.214C150.783 293.097 150.977 292.916 151.109 292.692C151.243 292.457 151.307 292.188 151.293 291.918C151.297 291.643 151.222 291.372 151.077 291.137C150.934 290.916 150.733 290.739 150.496 290.625C150.232 290.504 149.943 290.449 149.653 290.463V290.458Z" fill="black"/>
<path d="M141.443 284.809C142.108 284.82 142.751 285.047 143.276 285.456C143.804 285.902 144.191 286.493 144.388 287.156C144.644 288.009 144.745 288.902 144.688 289.791C144.673 290.679 144.498 291.557 144.173 292.383C143.922 293.027 143.488 293.583 142.924 293.983C142.364 294.332 141.711 294.505 141.051 294.478C140.391 294.451 139.754 294.226 139.224 293.832C138.696 293.385 138.31 292.794 138.111 292.132C137.852 291.283 137.748 290.395 137.804 289.51C137.82 288.619 137.994 287.739 138.319 286.91C138.568 286.264 139 285.705 139.563 285.302C140.118 284.935 140.779 284.762 141.443 284.809ZM141.393 286.033C141.082 286.02 140.774 286.094 140.503 286.248C140.233 286.402 140.011 286.629 139.863 286.903C139.424 287.723 139.202 288.642 139.217 289.572C139.175 290.239 139.231 290.909 139.383 291.56C139.484 292.029 139.709 292.463 140.034 292.816C140.316 293.103 140.699 293.269 141.102 293.279C141.413 293.291 141.721 293.215 141.991 293.06C142.261 292.906 142.483 292.678 142.63 292.404C143.071 291.584 143.296 290.666 143.283 289.735C143.324 289.066 143.269 288.395 143.118 287.743C143.018 287.275 142.793 286.842 142.468 286.491C142.183 286.206 141.799 286.042 141.396 286.033H141.393Z" fill="black"/>
<path d="M112.618 280.748L112.338 281.736L108.381 284.036C107.957 284.287 107.601 284.513 107.314 284.713C107.058 284.884 106.826 285.088 106.624 285.321C106.451 285.526 106.325 285.767 106.253 286.026C106.168 286.291 106.163 286.576 106.238 286.845C106.314 287.113 106.467 287.353 106.678 287.536C106.901 287.731 107.166 287.872 107.453 287.949C107.745 288.038 108.054 288.053 108.353 287.991C108.625 287.93 108.874 287.791 109.068 287.591C109.277 287.367 109.427 287.094 109.503 286.798L110.803 287.168C110.67 287.678 110.396 288.14 110.013 288.503C109.646 288.842 109.191 289.072 108.7 289.167C108.167 289.258 107.621 289.229 107.1 289.083C106.58 288.936 106.099 288.676 105.692 288.32C105.335 287.993 105.073 287.576 104.934 287.113C104.8 286.651 104.802 286.16 104.939 285.7C105.035 285.363 105.193 285.047 105.405 284.769C105.679 284.429 106.001 284.131 106.36 283.884C106.905 283.5 107.471 283.145 108.053 282.821L110.383 281.45L110.401 281.384L106.331 280.231L106.664 279.062L112.618 280.748Z" fill="black"/>
<path d="M102.088 277.363C102.722 277.567 103.272 277.971 103.656 278.514C104.033 279.094 104.232 279.772 104.227 280.464C104.227 281.355 104.066 282.239 103.754 283.073C103.484 283.919 103.063 284.709 102.511 285.405C102.084 285.95 101.508 286.358 100.852 286.578C100.215 286.749 99.5412 286.725 98.9181 286.508C98.2951 286.292 97.7515 285.893 97.3581 285.363C96.9816 284.784 96.7819 284.107 96.7831 283.416C96.7807 282.529 96.9389 281.648 97.25 280.816C97.5212 279.967 97.9426 279.173 98.494 278.472C98.9196 277.927 99.4952 277.518 100.15 277.295C100.786 277.105 101.467 277.129 102.088 277.363ZM101.688 278.52C101.394 278.418 101.077 278.401 100.774 278.47C100.47 278.539 100.192 278.693 99.9721 278.912C99.3149 279.57 98.8364 280.385 98.5821 281.279C98.3496 281.906 98.2095 282.563 98.166 283.23C98.1264 283.709 98.2162 284.189 98.4261 284.62C98.6126 284.977 98.9307 285.247 99.313 285.373C99.6071 285.475 99.9241 285.492 100.227 285.423C100.531 285.353 100.808 285.199 101.028 284.978C101.688 284.321 102.17 283.507 102.428 282.612C102.662 281.985 102.803 281.326 102.846 280.657C102.885 280.18 102.795 279.702 102.586 279.271C102.395 278.913 102.073 278.642 101.686 278.517L101.688 278.52Z" fill="black"/>
<path d="M94.4331 274.452C95.0543 274.692 95.5808 275.127 95.9331 275.691C96.276 276.293 96.4345 276.982 96.389 277.673C96.3365 278.563 96.1248 279.436 95.764 280.25C95.4451 281.079 94.9786 281.842 94.3871 282.504C93.9299 283.023 93.3304 283.397 92.6631 283.578C92.0169 283.712 91.3454 283.649 90.7358 283.396C90.1262 283.144 89.6067 282.713 89.245 282.161C88.9028 281.561 88.743 280.873 88.785 280.183C88.8342 279.298 89.0436 278.428 89.4031 277.617C89.7237 276.786 90.1908 276.018 90.7821 275.351C91.2387 274.831 91.8371 274.456 92.504 274.271C93.1495 274.119 93.8272 274.183 94.4331 274.452ZM93.9651 275.584C93.6779 275.465 93.3628 275.428 93.056 275.48C92.7492 275.531 92.463 275.667 92.2301 275.873C91.5343 276.491 91.0082 277.277 90.702 278.155C90.4333 278.767 90.2545 279.415 90.171 280.078C90.1061 280.553 90.1675 281.035 90.349 281.478C90.516 281.844 90.8182 282.131 91.192 282.278C91.4802 282.396 91.7958 282.431 92.1027 282.377C92.4095 282.324 92.6951 282.186 92.927 281.978C93.6242 281.361 94.1523 280.577 94.4611 279.698C94.7305 279.086 94.91 278.437 94.994 277.773C95.0604 277.299 94.9986 276.816 94.8151 276.373C94.6436 276.011 94.3392 275.728 93.9651 275.584Z" fill="black"/>
<path d="M68.6719 260.614L68.066 261.443L63.5581 262.234C63.0727 262.323 62.6606 262.412 62.322 262.501C62.0231 262.573 61.7352 262.685 61.466 262.833C61.2318 262.965 61.0294 263.147 60.873 263.366C60.6976 263.592 60.5932 263.864 60.5729 264.149C60.5575 264.42 60.6181 264.69 60.748 264.929C60.889 265.19 61.0889 265.415 61.332 265.585C61.5756 265.771 61.8626 265.892 62.166 265.937C62.4427 265.974 62.7243 265.929 62.975 265.806C63.2483 265.668 63.4827 265.465 63.6571 265.213L64.751 266.013C64.4507 266.446 64.0348 266.785 63.551 266.993C63.0885 267.184 62.582 267.243 62.088 267.163C61.5563 267.064 61.0534 266.848 60.6159 266.53C60.1784 266.212 59.8173 265.8 59.559 265.325C59.3378 264.895 59.237 264.414 59.267 263.931C59.2999 263.451 59.471 262.991 59.76 262.607C59.9658 262.324 60.2234 262.083 60.519 261.896C60.8926 261.672 61.2968 261.504 61.7189 261.396C62.3634 261.224 63.0168 261.087 63.676 260.985L66.335 260.505L66.374 260.449L62.957 257.959L63.673 256.977L68.6719 260.614Z" fill="black"/>
<path d="M62.4021 255.989L61.752 256.784L57.206 257.321C56.716 257.383 56.3 257.45 55.958 257.521C55.6552 257.577 55.361 257.672 55.083 257.804C54.8422 257.924 54.6304 258.094 54.462 258.304C54.2774 258.514 54.159 258.773 54.1214 259.05C54.0839 259.326 54.129 259.608 54.2511 259.859C54.3779 260.127 54.5646 260.362 54.797 260.546C55.0294 260.747 55.3093 260.884 55.6099 260.946C55.8846 260.999 56.1689 260.97 56.427 260.862C56.7067 260.739 56.9516 260.549 57.14 260.308L58.187 261.163C57.8632 261.579 57.4286 261.895 56.9331 262.075C56.4604 262.24 55.9509 262.271 55.462 262.162C54.9367 262.034 54.4468 261.79 54.0279 261.449C53.609 261.107 53.2718 260.676 53.041 260.187C52.8428 259.746 52.7682 259.259 52.825 258.779C52.8859 258.303 53.0827 257.854 53.392 257.486C53.6138 257.214 53.8853 256.987 54.192 256.817C54.5787 256.614 54.9926 256.469 55.421 256.384C56.0737 256.248 56.7334 256.148 57.3971 256.084L60.0791 255.754L60.122 255.7L56.849 253.023L57.618 252.081L62.4021 255.989Z" fill="black"/>
<path d="M54.096 248.694C54.5966 249.132 54.9409 249.722 55.077 250.373C55.192 251.055 55.1045 251.757 54.825 252.39C54.0763 254.011 52.8392 255.358 51.287 256.241C50.6791 256.572 49.9875 256.716 49.2981 256.657C48.6458 256.561 48.0372 256.272 47.5516 255.826C47.066 255.38 46.7258 254.799 46.575 254.157C46.4596 253.476 46.545 252.775 46.821 252.142C47.1714 251.326 47.6668 250.581 48.2831 249.942C48.8698 249.271 49.5719 248.711 50.356 248.287C50.9635 247.956 51.6543 247.809 52.344 247.864C53.003 247.941 53.6186 248.233 54.096 248.694ZM53.2671 249.594C53.0383 249.383 52.7548 249.241 52.4491 249.184C52.1433 249.126 51.8276 249.156 51.5381 249.27C50.6723 249.611 49.9086 250.168 49.32 250.889C48.8573 251.371 48.4672 251.918 48.162 252.513C47.9359 252.937 47.8272 253.414 47.847 253.894C47.8776 254.295 48.0626 254.669 48.363 254.937C48.5927 255.147 48.8767 255.288 49.1828 255.344C49.4889 255.401 49.8047 255.37 50.094 255.255C50.9596 254.914 51.7244 254.358 52.317 253.641C52.7811 253.158 53.1723 252.61 53.478 252.014C53.7042 251.592 53.8123 251.116 53.791 250.638C53.7562 250.235 53.5666 249.862 53.2621 249.597L53.2671 249.594Z" fill="black"/>
<path d="M34.4961 226.646L33.6421 227.217L29.1371 226.404C28.6511 226.32 28.234 226.261 27.886 226.227C27.5803 226.192 27.2715 226.197 26.9671 226.242C26.7016 226.288 26.449 226.391 26.2261 226.542C25.9891 226.689 25.8007 226.902 25.6842 227.156C25.5678 227.409 25.5284 227.691 25.5711 227.967C25.614 228.26 25.7242 228.54 25.8931 228.784C26.0573 229.042 26.2849 229.255 26.5541 229.401C26.7994 229.531 27.0776 229.586 27.354 229.559C27.658 229.523 27.9484 229.413 28.1991 229.237L28.9511 230.362C28.5192 230.665 28.0108 230.84 27.484 230.867C26.9841 230.887 26.4886 230.767 26.0531 230.521C25.5876 230.245 25.1897 229.868 24.8885 229.418C24.5872 228.968 24.3902 228.457 24.312 227.921C24.2524 227.441 24.324 226.954 24.5191 226.511C24.7155 226.072 25.0346 225.7 25.438 225.439C25.7295 225.245 26.0549 225.107 26.3971 225.033C26.8255 224.952 27.2633 224.933 27.697 224.978C28.3611 225.039 29.0214 225.135 29.6751 225.267L32.338 225.734L32.3941 225.696L30.0451 222.179L31.0561 221.503L34.4961 226.646Z" fill="black"/>
<path d="M28.151 216.656L26.271 217.765L25.8151 218.023L20.0541 221.423L19.3721 220.266L27.464 215.495L28.151 216.656ZM28.833 221.425L27.8451 222.008L20.259 221.768L19.8 220.989L21.254 220.132L21.546 220.626L26.9801 220.793L27.0431 220.755L24.217 215.962L25.2521 215.352L28.833 221.425Z" fill="black"/>
<path d="M24.7721 210.136C25.0891 210.72 25.2076 211.392 25.11 212.05C24.9802 212.729 24.6546 213.354 24.1731 213.85C22.9081 215.11 21.2809 215.944 19.519 216.234C18.8341 216.332 18.1355 216.228 17.509 215.934C16.9198 215.63 16.4456 215.142 16.1581 214.545C15.8418 213.965 15.7245 213.298 15.8241 212.645C15.9526 211.967 16.2761 211.342 16.755 210.845C17.3662 210.202 18.0893 209.675 18.889 209.29C19.6722 208.864 20.5254 208.582 21.4081 208.457C22.0924 208.357 22.7909 208.46 23.4181 208.751C24.0089 209.052 24.4845 209.539 24.7721 210.136ZM23.682 210.694C23.5401 210.418 23.3234 210.187 23.0566 210.028C22.7898 209.868 22.4837 209.787 22.1731 209.794C21.2427 209.814 20.3328 210.071 19.53 210.542C18.9288 210.834 18.3734 211.211 17.8811 211.663C17.5217 211.982 17.2544 212.392 17.107 212.849C16.9956 213.235 17.0389 213.65 17.228 214.005C17.3703 214.282 17.5876 214.513 17.8552 214.672C18.1228 214.832 18.4298 214.912 18.7411 214.905C19.6714 214.885 20.5813 214.629 21.386 214.162C21.9888 213.87 22.5458 213.492 23.039 213.039C23.3981 212.722 23.6648 212.314 23.811 211.858C23.921 211.468 23.8747 211.05 23.682 210.694Z" fill="black"/>
<path d="M14.473 184.208L13.473 184.458L9.504 182.178C9.07467 181.935 8.70165 181.739 8.38498 181.591C8.10892 181.455 7.81606 181.356 7.51401 181.297C7.24839 181.249 6.97538 181.259 6.71396 181.326C6.43549 181.39 6.18138 181.532 5.98203 181.737C5.79643 181.936 5.67003 182.182 5.61704 182.449C5.55863 182.739 5.56849 183.039 5.64597 183.325C5.71422 183.623 5.85707 183.898 6.061 184.125C6.24976 184.331 6.49549 184.477 6.76706 184.544C7.06408 184.612 7.37325 184.605 7.66696 184.524L7.99606 185.837C7.48772 185.977 6.9502 185.971 6.44504 185.82C5.96779 185.671 5.5418 185.391 5.21506 185.012C4.87011 184.596 4.62227 184.108 4.48959 183.584C4.35691 183.06 4.34264 182.513 4.44797 181.983C4.55278 181.511 4.78372 181.076 5.11606 180.724C5.4493 180.378 5.87477 180.135 6.34201 180.024C6.6819 179.939 7.03475 179.919 7.38205 179.965C7.81282 180.032 8.23146 180.161 8.62497 180.349C9.22923 180.631 9.81838 180.944 10.39 181.287L12.7411 182.621L12.8081 182.604L11.7771 178.504L12.957 178.204L14.473 184.208Z" fill="black"/>
<path d="M12.1221 173.375C12.195 173.791 12.1973 174.216 12.1291 174.633C12.054 175.074 11.8781 175.492 11.615 175.854C11.2937 176.284 10.8817 176.638 10.4081 176.89C9.75969 177.233 9.05997 177.47 8.33609 177.59C7.61609 177.738 6.88023 177.795 6.14603 177.759C5.55462 177.733 4.97292 177.6 4.42911 177.366C3.96362 177.163 3.55394 176.85 3.23501 176.455C2.91961 176.052 2.7084 175.577 2.62002 175.073C2.51353 174.568 2.529 174.045 2.66507 173.547C2.79235 173.091 3.03314 172.675 3.36502 172.337C3.70246 171.994 4.11555 171.735 4.57107 171.581L4.83304 172.955C4.48474 173.106 4.19273 173.363 3.99808 173.689C3.80347 174.039 3.7467 174.45 3.83902 174.84C3.89226 175.16 4.03053 175.459 4.23917 175.707C4.4478 175.955 4.71918 176.143 5.02505 176.25C5.85323 176.524 6.742 176.559 7.58902 176.35L7.57608 176.283C7.29065 176.177 7.02623 176.021 6.79507 175.823C6.56405 175.624 6.36832 175.387 6.21609 175.123C6.05897 174.847 5.94876 174.547 5.89004 174.235C5.786 173.725 5.82482 173.197 6.0021 172.708C6.17904 172.223 6.48128 171.794 6.87808 171.464C7.30711 171.108 7.82241 170.871 8.3721 170.777C8.929 170.662 9.50602 170.694 10.047 170.869C10.5704 171.04 11.0368 171.351 11.395 171.769C11.778 172.229 12.0293 172.784 12.1221 173.375ZM10.9511 173.603C10.8923 173.267 10.7386 172.955 10.5081 172.703C10.2821 172.457 9.9961 172.275 9.67813 172.174C9.34399 172.068 8.98837 172.05 8.64505 172.12C8.30665 172.181 7.98918 172.326 7.72208 172.543C7.46643 172.748 7.27006 173.018 7.15311 173.324C7.033 173.639 7.00593 173.982 7.0751 174.312C7.12103 174.568 7.22123 174.81 7.36905 175.024C7.51285 175.23 7.69573 175.405 7.90713 175.54C8.12107 175.677 8.35829 175.774 8.60709 175.825C8.85941 175.879 9.11994 175.881 9.37308 175.831C9.70799 175.768 10.0217 175.622 10.2851 175.406C10.545 175.194 10.7461 174.918 10.869 174.606C10.9929 174.287 11.0214 173.938 10.9511 173.603Z" fill="black"/>
<path d="M10.868 165.415C10.9699 166.072 10.8554 166.745 10.542 167.331C10.1922 167.929 9.67449 168.411 9.05308 168.717C8.25668 169.116 7.39536 169.368 6.50999 169.463C5.63286 169.6 4.73818 169.578 3.869 169.397C3.19088 169.26 2.56788 168.927 2.077 168.439C1.63845 167.946 1.35809 167.333 1.27232 166.679C1.18655 166.025 1.29937 165.36 1.59605 164.771C1.94596 164.175 2.46148 163.692 3.08006 163.383C3.87224 162.984 4.73 162.731 5.61204 162.637C6.49265 162.499 7.39081 162.52 8.26402 162.699C8.9441 162.835 9.56982 163.166 10.0641 163.652C10.5181 164.136 10.8006 164.755 10.868 165.415ZM9.65305 165.575C9.61325 165.266 9.48727 164.975 9.28953 164.735C9.09179 164.495 8.83025 164.315 8.53501 164.216C7.65265 163.922 6.70964 163.859 5.796 164.033C5.13157 164.106 4.48112 164.274 3.86497 164.533C3.41987 164.713 3.03089 165.009 2.73801 165.389C2.50257 165.716 2.40419 166.122 2.46397 166.52C2.5044 166.829 2.6312 167.12 2.82969 167.36C3.02817 167.6 3.29035 167.779 3.58604 167.876C4.4683 168.172 5.41141 168.237 6.32603 168.066C6.9918 167.994 7.64352 167.825 8.26096 167.566C8.70473 167.387 9.09254 167.093 9.38401 166.713C9.61774 166.383 9.71422 165.975 9.65305 165.575Z" fill="black"/>
<path d="M9.93098 136.85L8.90803 136.75L5.95405 133.25C5.63305 132.876 5.348 132.565 5.102 132.316C4.88834 132.095 4.64663 131.902 4.38301 131.743C4.15018 131.609 3.89138 131.527 3.62397 131.5C3.3474 131.462 3.06563 131.506 2.81404 131.627C2.56244 131.748 2.35231 131.941 2.21003 132.181C2.05659 132.435 1.96385 132.721 1.93904 133.016C1.89985 133.321 1.93976 133.631 2.05501 133.916C2.16201 134.175 2.34333 134.396 2.576 134.551C2.83259 134.717 3.12636 134.817 3.43098 134.841L3.295 136.187C2.76927 136.146 2.26581 135.957 1.84199 135.643C1.44434 135.34 1.13863 134.932 0.958936 134.464C0.776349 133.955 0.709719 133.412 0.763867 132.874C0.818016 132.335 0.99169 131.816 1.27205 131.353C1.53133 130.946 1.89619 130.616 2.32795 130.399C2.75857 130.186 3.24173 130.103 3.71895 130.158C4.06821 130.194 4.40751 130.296 4.71895 130.458C5.1011 130.669 5.45082 130.934 5.75703 131.244C6.23026 131.715 6.67785 132.21 7.09797 132.728L8.852 134.783L8.92097 134.79L9.35103 130.582L10.559 130.706L9.93098 136.85Z" fill="black"/>
<path d="M11.396 125.982C11.3123 126.574 11.1044 127.142 10.7861 127.648C10.5133 128.081 10.1293 128.433 9.67411 128.666C9.23902 128.883 8.74542 128.953 8.26713 128.866C7.89837 128.813 7.54694 128.675 7.2404 128.463C6.93385 128.251 6.68042 127.971 6.50004 127.645C6.32555 127.334 6.23205 126.983 6.22807 126.626L6.17411 126.617C5.99935 127.049 5.67189 127.402 5.25407 127.608C4.83195 127.811 4.35907 127.882 3.89592 127.814C3.43276 127.747 3.00042 127.542 2.6541 127.227C2.31418 126.9 2.06799 126.488 1.94108 126.033C1.79721 125.52 1.77087 124.98 1.86406 124.455C1.93902 123.931 2.13264 123.43 2.4301 122.992C2.69402 122.601 3.0566 122.286 3.48112 122.08C3.90592 121.882 4.38145 121.818 4.84343 121.899C5.3054 121.979 5.73152 122.2 6.06413 122.53C6.39441 122.853 6.59624 123.285 6.63212 123.745L6.68705 123.754C6.80087 123.419 6.99806 123.119 7.26005 122.881C7.52962 122.637 7.84897 122.453 8.19609 122.344C8.5598 122.229 8.9454 122.201 9.32206 122.261C9.80344 122.334 10.2492 122.558 10.5951 122.901C10.9541 123.265 11.2086 123.719 11.3321 124.215C11.4792 124.793 11.5009 125.395 11.396 125.982ZM5.93315 125.109C5.98352 124.826 5.96459 124.534 5.87809 124.259C5.79751 124.009 5.6502 123.786 5.45207 123.613C5.2414 123.439 4.98814 123.323 4.71818 123.279C4.44822 123.235 4.17131 123.264 3.91606 123.362C3.67711 123.463 3.47131 123.629 3.32206 123.841C3.15654 124.079 3.04992 124.354 3.01103 124.641C2.95843 124.93 2.97356 125.227 3.0551 125.509C3.12939 125.758 3.27382 125.981 3.47111 126.15C3.67931 126.323 3.93259 126.433 4.20109 126.466C4.47175 126.519 4.75172 126.492 5.0081 126.391C5.25061 126.289 5.46026 126.123 5.61406 125.909C5.78278 125.672 5.89186 125.398 5.93205 125.109H5.93315ZM10.25 125.799C10.3119 125.458 10.3004 125.108 10.2161 124.772C10.144 124.49 9.99361 124.234 9.78215 124.033C9.56475 123.837 9.29439 123.71 9.00505 123.667C8.70019 123.615 8.38687 123.656 8.10514 123.783C7.82769 123.91 7.58886 124.108 7.41313 124.357C7.21882 124.634 7.09326 124.952 7.04704 125.287C6.98639 125.623 7.0056 125.968 7.10307 126.295C7.19165 126.588 7.35631 126.851 7.58012 127.059C7.80802 127.265 8.09341 127.397 8.39811 127.436C8.6841 127.492 8.9802 127.459 9.24711 127.342C9.51207 127.218 9.73561 127.021 9.89103 126.773C10.0785 126.478 10.2016 126.146 10.25 125.799Z" fill="black"/>
<path d="M12.9331 118.018C12.8056 118.671 12.4689 119.264 11.974 119.708C11.4423 120.153 10.7917 120.431 10.103 120.508C9.2186 120.612 8.32285 120.556 7.45798 120.344C6.58635 120.175 5.75265 119.849 4.99704 119.382C4.40647 119.022 3.93407 118.497 3.63803 117.872C3.39323 117.259 3.33861 116.587 3.48129 115.943C3.62398 115.298 3.95729 114.712 4.43796 114.259C4.96976 113.818 5.61839 113.54 6.30502 113.459C7.18583 113.354 8.0785 113.408 8.94003 113.619C9.81482 113.789 10.652 114.115 11.412 114.58C12.0037 114.939 12.4782 115.463 12.7771 116.087C13.0392 116.696 13.094 117.375 12.9331 118.018ZM11.733 117.753C11.8003 117.45 11.7808 117.133 11.6769 116.84C11.5729 116.547 11.3886 116.289 11.145 116.095C10.4142 115.52 9.54843 115.141 8.62998 114.995C7.98054 114.837 7.31154 114.774 6.64401 114.809C6.16437 114.828 5.69822 114.973 5.29306 115.23C4.96071 115.457 4.73024 115.806 4.65097 116.2C4.58421 116.504 4.60444 116.821 4.70932 117.114C4.8142 117.407 4.99949 117.665 5.24399 117.857C5.97323 118.435 6.83786 118.818 7.75607 118.969C8.40724 119.127 9.07787 119.19 9.74704 119.155C10.2252 119.138 10.6901 118.993 11.093 118.735C11.4274 118.504 11.6586 118.152 11.737 117.753H11.733Z" fill="black"/>
<path d="M22.7441 89.1271C22.506 89.6547 22.1603 90.1268 21.729 90.513C21.3571 90.8498 20.9022 91.0814 20.4111 91.184C19.9344 91.2772 19.4408 91.2225 18.9961 91.0271L19.6111 89.727C19.8565 89.8282 20.1281 89.8468 20.3851 89.78C20.6515 89.7084 20.8958 89.5708 21.0951 89.3801C21.3222 89.164 21.5054 88.9064 21.6351 88.621C21.7861 88.3182 21.8701 87.9863 21.8811 87.6481C21.8925 87.356 21.8233 87.0664 21.6811 86.811C21.5388 86.5635 21.3222 86.3668 21.0621 86.249C20.7967 86.118 20.4981 86.0703 20.2051 86.112C19.9026 86.1633 19.6209 86.2996 19.3931 86.5051C19.1109 86.7616 18.886 87.0747 18.7331 87.4241L18.3941 88.141L17.349 87.6481L17.6871 86.93C17.828 86.6464 17.9039 86.3348 17.9091 86.0181C17.9136 85.7416 17.8409 85.4694 17.6991 85.232C17.5521 84.9934 17.3363 84.8048 17.0801 84.6911C16.842 84.5717 16.5754 84.5208 16.3101 84.5441C16.0571 84.5702 15.8168 84.6676 15.6171 84.8251C15.3906 85.0062 15.2109 85.2391 15.0931 85.504C14.9662 85.7687 14.8935 86.0559 14.8791 86.349C14.8647 86.6205 14.919 86.8912 15.037 87.136C15.1566 87.3772 15.3519 87.5725 15.5931 87.692L15.0081 88.9321C14.5744 88.7204 14.2179 88.378 13.9891 87.953C13.7593 87.5185 13.6447 87.0324 13.656 86.5411C13.6657 86.0006 13.7937 85.4688 14.031 84.983C14.2491 84.4872 14.5869 84.0532 15.0141 83.72C15.3857 83.434 15.8276 83.2533 16.2931 83.197C16.7405 83.1437 17.1937 83.2212 17.5981 83.4201C18.0435 83.6108 18.4068 83.9535 18.6231 84.387C18.8298 84.8156 18.8879 85.3008 18.7881 85.766L18.8551 85.797C19.148 85.316 19.608 84.9599 20.1471 84.797C20.673 84.6588 21.2313 84.7208 21.714 84.9711C22.1673 85.1746 22.5434 85.518 22.787 85.951C23.0384 86.4032 23.1661 86.9138 23.1571 87.431C23.146 88.0199 23.0049 88.599 22.7441 89.1271Z" fill="black"/>
<path d="M26.476 81.8442C26.1721 82.4359 25.6833 82.9124 25.0839 83.2011C24.4497 83.4782 23.7481 83.5631 23.066 83.4452C22.1873 83.2965 21.3423 82.9917 20.571 82.5452C19.7799 82.14 19.0685 81.5953 18.471 80.9372C18.0047 80.4265 17.6975 79.7908 17.587 79.1082C17.5221 78.4514 17.6563 77.7904 17.9724 77.2111C18.2884 76.6317 18.7716 76.161 19.359 75.8602C19.9924 75.5839 20.6925 75.4978 21.374 75.6122C23.1283 75.9461 24.7342 76.8202 25.967 78.1122C26.4356 78.6214 26.7453 79.2564 26.858 79.9392C26.9431 80.5989 26.809 81.2683 26.476 81.8442ZM25.4 81.2582C25.5503 80.9857 25.6207 80.6764 25.603 80.3658C25.5853 80.0551 25.4803 79.7558 25.3 79.5022C24.7599 78.7449 24.0349 78.1387 23.1941 77.7412C22.6141 77.4085 21.9888 77.162 21.338 77.0092C20.8722 76.8925 20.3838 76.9022 19.9231 77.0372C19.5408 77.1639 19.2225 77.4338 19.035 77.7902C18.8865 78.0637 18.818 78.3736 18.8372 78.6843C18.8565 78.995 18.9628 79.294 19.144 79.5472C19.6826 80.3049 20.4053 80.913 21.244 81.3142C21.8253 81.6473 22.4518 81.8946 23.104 82.0482C23.5685 82.1646 24.0557 82.1546 24.515 82.0192C24.8958 81.8887 25.2115 81.616 25.396 81.2582H25.4Z" fill="black"/>
<path d="M30.6211 74.7541C30.2816 75.3262 29.7653 75.7723 29.15 76.0251C28.5005 76.2646 27.7948 76.3074 27.1211 76.1481C25.3903 75.709 23.8399 74.7398 22.687 73.3762C22.2523 72.8381 21.9835 72.1853 21.9131 71.4971C21.8869 70.8376 22.0602 70.1856 22.4104 69.6261C22.7606 69.0666 23.2715 68.6258 23.8761 68.3612C24.5251 68.1229 25.2294 68.0788 25.9031 68.2341C26.7682 68.4288 27.5909 68.7788 28.3311 69.2672C29.0985 69.7207 29.7783 70.3083 30.338 71.0022C30.7751 71.5386 31.0462 72.1909 31.1181 72.8791C31.1631 73.5418 30.9885 74.2008 30.6211 74.7541ZM29.5821 74.1051C29.7477 73.8415 29.8356 73.5365 29.8356 73.2252C29.8356 72.9138 29.7477 72.6088 29.5821 72.3452C29.0875 71.5564 28.3989 70.9077 27.5821 70.4612C27.0228 70.0949 26.4135 69.8117 25.7731 69.6201C25.3154 69.4766 24.8276 69.4572 24.36 69.5641C23.9703 69.6673 23.6364 69.9184 23.4291 70.2642C23.2637 70.5279 23.1759 70.8329 23.1759 71.1441C23.1759 71.4554 23.2637 71.7604 23.4291 72.0242C23.9228 72.8133 24.6094 73.4638 25.4241 73.9142C25.9839 74.2817 26.5944 74.5657 27.2361 74.7572C27.6925 74.9024 28.1797 74.9214 28.646 74.8121C29.0382 74.7073 29.374 74.4537 29.5821 74.1051Z" fill="black"/>
<path d="M52.012 48.4123C51.6013 48.8195 51.1097 49.136 50.569 49.3413C50.101 49.5222 49.5933 49.5753 49.098 49.4953C48.6199 49.4109 48.179 49.1828 47.8339 48.8413L48.876 47.8413C49.0677 48.0235 49.3133 48.1382 49.576 48.1683C49.8512 48.1964 50.1291 48.1547 50.384 48.0473C50.6733 47.927 50.9368 47.7522 51.16 47.5323C51.4089 47.3035 51.6063 47.0243 51.739 46.7133C51.8543 46.4444 51.8935 46.149 51.852 45.8593C51.8081 45.5766 51.6758 45.3151 51.474 45.1123C51.2741 44.8948 51.013 44.7432 50.725 44.6773C50.424 44.6163 50.1118 44.6423 49.825 44.7523C49.4696 44.8906 49.1469 45.1018 48.878 45.3723L48.304 45.9203L47.504 45.0853L48.077 44.5373C48.3106 44.3233 48.4932 44.0594 48.611 43.7653C48.7147 43.509 48.7447 43.2288 48.6979 42.9563C48.6456 42.681 48.5119 42.4278 48.314 42.2293C48.1347 42.032 47.9041 41.8884 47.648 41.8143C47.4022 41.7489 47.1429 41.7541 46.9 41.8293C46.6235 41.9165 46.3723 42.0696 46.168 42.2753C45.9553 42.4767 45.7852 42.7188 45.668 42.9873C45.5573 43.2351 45.5108 43.5068 45.533 43.7773C45.558 44.0454 45.67 44.2979 45.852 44.4963L44.861 45.4443C44.5319 45.0906 44.3219 44.6426 44.2609 44.1633C44.2048 43.6751 44.2737 43.1806 44.461 42.7263C44.6645 42.2253 44.9752 41.7748 45.371 41.4063C45.7529 41.0221 46.2239 40.7384 46.742 40.5803C47.1915 40.447 47.6685 40.4373 48.123 40.5523C48.5594 40.6636 48.9545 40.8983 49.2609 41.2283C49.6078 41.5662 49.8236 42.0163 49.8699 42.4983C49.9095 42.9725 49.7902 43.4463 49.531 43.8453L49.582 43.8993C50.0273 43.5566 50.5837 43.3906 51.144 43.4333C51.6842 43.4922 52.1833 43.7499 52.544 44.1563C52.894 44.5091 53.1218 44.9647 53.194 45.4563C53.2672 45.969 53.2027 46.4918 53.007 46.9713C52.7867 47.5197 52.4468 48.012 52.012 48.4123Z" fill="black"/>
<path d="M55.5331 44.9444L54.868 44.1624L55.151 39.5944C55.178 39.1004 55.188 38.6804 55.181 38.3304C55.1802 38.0227 55.1392 37.7165 55.0591 37.4194C54.9835 37.1618 54.854 36.9231 54.679 36.7194C54.5053 36.5012 54.2711 36.339 54.0058 36.2527C53.7406 36.1665 53.4558 36.1601 53.187 36.2344C52.9003 36.311 52.6354 36.453 52.4131 36.6494C52.1753 36.8427 51.9905 37.0932 51.8761 37.3774C51.7753 37.638 51.7537 37.9226 51.8141 38.1954C51.8849 38.4926 52.0285 38.7675 52.232 38.9954L51.202 39.8724C50.8498 39.4787 50.6165 38.9933 50.529 38.4724C50.4516 37.9784 50.5129 37.4726 50.706 37.0114C50.918 36.5118 51.2476 36.0709 51.667 35.7264C52.0713 35.3663 52.5574 35.1103 53.083 34.9804C53.5524 34.8658 54.0441 34.88 54.5061 35.0214C54.9649 35.1654 55.3722 35.4391 55.679 35.8094C55.9056 36.0744 56.0799 36.3797 56.193 36.7094C56.3237 37.1259 56.3934 37.559 56.4 37.9954C56.4158 38.6626 56.3968 39.3302 56.343 39.9954L56.188 42.6954L56.233 42.7464L59.452 40.0044L60.2411 40.9294L55.5331 44.9444Z" fill="black"/>
<path d="M64.196 38.0723C63.6752 38.4859 63.0339 38.719 62.369 38.7363C61.6769 38.729 61.0024 38.5174 60.43 38.1283C58.9675 37.1026 57.8634 35.6442 57.2731 33.9583C57.058 33.3009 57.0396 32.595 57.2201 31.9273C57.4164 31.2941 57.8142 30.7425 58.353 30.3563C58.8697 29.942 59.5088 29.7099 60.171 29.6963C60.8618 29.7042 61.5354 29.9126 62.11 30.2963C62.8483 30.7874 63.492 31.4076 64.01 32.1273C64.5648 32.8254 64.9908 33.6168 65.268 34.4643C65.4858 35.121 65.5063 35.8271 65.327 36.4953C65.1335 37.1309 64.736 37.6852 64.196 38.0723ZM63.457 37.0953C63.7052 36.9076 63.8957 36.654 64.0067 36.3633C64.1177 36.0726 64.1449 35.7566 64.0851 35.4513C63.9025 34.5387 63.4893 33.688 62.885 32.9803C62.4934 32.4388 62.0252 31.9571 61.495 31.5503C61.119 31.2521 60.6703 31.0598 60.195 30.9933C59.7948 30.951 59.3938 31.0661 59.077 31.3143C58.8289 31.5023 58.6387 31.7565 58.5285 32.0476C58.4183 32.3388 58.3926 32.6551 58.4541 32.9603C58.6337 33.8736 59.0436 34.7259 59.645 35.4363C60.0372 35.9791 60.5061 36.4621 61.037 36.8703C61.4126 37.1684 61.8618 37.3595 62.337 37.4233C62.7387 37.4632 63.1403 37.3456 63.457 37.0953Z" fill="black"/>
<path d="M91.5431 21.949C91.0178 22.1925 90.447 22.3223 89.8681 22.33C89.3663 22.3403 88.8707 22.2171 88.4321 21.973C88.0115 21.7309 87.6752 21.3659 87.4681 20.927L88.7861 20.347C88.9057 20.5838 89.0987 20.7757 89.3361 20.894C89.5848 21.0147 89.86 21.0701 90.136 21.055C90.4496 21.0408 90.7576 20.9664 91.0431 20.836C91.3546 20.7057 91.6346 20.5108 91.865 20.264C92.0661 20.051 92.2046 19.7867 92.2651 19.5C92.3193 19.2194 92.2844 18.9288 92.1651 18.669C92.0511 18.3963 91.8573 18.1645 91.6091 18.004C91.3473 17.8438 91.045 17.7622 90.7381 17.769C90.3573 17.7768 89.9824 17.8651 89.6381 18.028L88.912 18.348L88.4451 17.29L89.172 16.971C89.4642 16.8486 89.7258 16.6632 89.938 16.428C90.1218 16.2217 90.2454 15.9688 90.2951 15.697C90.3401 15.4199 90.3007 15.1355 90.1821 14.881C90.0804 14.6348 89.9126 14.4216 89.6971 14.265C89.4891 14.1191 89.2439 14.0351 88.99 14.023C88.7001 14.0111 88.4116 14.0694 88.1491 14.193C87.8795 14.3099 87.6364 14.4799 87.4341 14.693C87.2435 14.8886 87.1058 15.1295 87.0341 15.393C86.9667 15.6537 86.986 15.9293 87.089 16.178L85.834 16.731C85.6456 16.2869 85.6012 15.7948 85.7071 15.324C85.8197 14.845 86.0523 14.4024 86.3831 14.038C86.7434 13.6369 87.1871 13.3194 87.6832 13.108C88.1733 12.8771 88.713 12.7712 89.2541 12.8C89.7221 12.8274 90.1741 12.9808 90.5621 13.244C90.9341 13.4975 91.2253 13.8526 91.4011 14.267C91.6118 14.7025 91.6614 15.1985 91.5411 15.667C91.4154 16.1261 91.1411 16.5305 90.761 16.817L90.7911 16.884C91.3269 16.7146 91.9063 16.7481 92.4191 16.978C92.9064 17.219 93.2872 17.6319 93.4881 18.137C93.6967 18.5885 93.7555 19.0948 93.6561 19.582C93.5491 20.0881 93.3104 20.5569 92.964 20.941C92.5709 21.3782 92.0857 21.7225 91.5431 21.949Z" fill="black"/>
<path d="M95.196 18.2433L94.796 17.1683L96.3621 9.74132L97.209 9.42632L97.797 11.0083L97.26 11.2083L96.1431 16.5283L96.1691 16.5983L101.384 14.6553L101.804 15.7813L95.196 18.2433ZM100.01 18.4083L99.248 16.3623L99.0741 15.8693L96.74 9.60132L98 9.13232L101.278 17.9323L100.01 18.4083Z" fill="black"/>
<path d="M106.996 16.2401C106.365 16.4494 105.683 16.4476 105.053 16.2351C104.406 15.9883 103.845 15.5576 103.44 14.9961C102.916 14.2757 102.525 13.4678 102.284 12.6101C102.005 11.7674 101.88 10.8812 101.915 9.99412C101.938 9.30269 102.164 8.63325 102.564 8.06912C102.977 7.55468 103.536 7.1766 104.167 6.98414C104.798 6.79168 105.472 6.79376 106.102 6.99012C106.748 7.2363 107.308 7.66464 107.715 8.22312C108.239 8.93894 108.63 9.74303 108.87 10.5971C109.15 11.4432 109.277 12.3324 109.246 13.2231C109.224 13.9154 109 14.586 108.601 15.1521C108.2 15.6812 107.636 16.0635 106.996 16.2401ZM106.638 15.0681C106.936 14.9781 107.202 14.806 107.407 14.5714C107.611 14.3369 107.745 14.0495 107.794 13.7421C107.938 12.8229 107.845 11.8821 107.523 11.0091C107.341 10.366 107.067 9.75257 106.709 9.18812C106.459 8.77818 106.103 8.44286 105.679 8.21711C105.318 8.04002 104.902 8.00991 104.519 8.13311C104.222 8.22437 103.956 8.39751 103.752 8.6327C103.548 8.8679 103.415 9.15566 103.367 9.46311C103.221 10.3824 103.312 11.3237 103.631 12.1981C103.813 12.8431 104.088 13.4581 104.447 14.0241C104.696 14.4325 105.05 14.7663 105.473 14.9901C105.837 15.1648 106.254 15.1909 106.637 15.0631L106.638 15.0681Z" fill="black"/>
<path d="M241.77 156.312V138.857H252.714V141.124H244.404V146.443H252.143V148.701H244.404V154.045H252.815V156.312H241.77Z" fill="black"/>
<path d="M42.688 156.312L37.847 138.857H40.6171L44.0171 152.375H44.1801L47.717 138.857H50.4611L53.9971 152.383H54.16L57.552 138.857H60.3301L55.4811 156.312H52.8301L49.1571 143.238H49.02L45.347 156.312H42.688Z" fill="black"/>
<path d="M147.274 17.085H146.274V29.085H147.274V17.085Z" fill="#1D2438"/>
<path d="M142.719 17.1471L141.72 17.1821L142.14 29.1701L143.139 29.1351L142.719 17.1471Z" fill="#1D2438"/>
<path d="M138.17 17.367L137.172 17.437L138.012 29.413L139.01 29.343L138.17 17.367Z" fill="#1D2438"/>
<path d="M133.631 17.7471L132.636 17.8521L133.896 29.7921L134.891 29.6871L133.631 17.7471Z" fill="#1D2438"/>
<path d="M129.107 18.2847L128.117 18.4238L129.787 30.307L130.777 30.1679L129.107 18.2847Z" fill="#1D2438"/>
<path d="M124.605 18.9798L123.62 19.1538L125.708 30.9738L126.693 30.7998L124.605 18.9798Z" fill="#1D2438"/>
<path d="M120.13 19.832L119.152 20.04L121.648 31.776L122.626 31.568L120.13 19.832Z" fill="#1D2438"/>
<path d="M115.688 20.8401L114.718 21.082L117.621 32.7256L118.591 32.4837L115.688 20.8401Z" fill="#1D2438"/>
<path d="M111.284 22.0022L110.323 22.2778L113.631 33.813L114.592 33.5373L111.284 22.0022Z" fill="#1D2438"/>
<path d="M106.923 23.317L105.972 23.626L109.68 35.038L110.631 34.729L106.923 23.317Z" fill="#1D2438"/>
<path d="M102.61 24.784L101.67 25.126L105.774 36.4023L106.714 36.0603L102.61 24.784Z" fill="#1D2438"/>
<path d="M98.3513 26.4003L97.4241 26.7749L101.919 37.9011L102.847 37.5265L98.3513 26.4003Z" fill="#1D2438"/>
<path d="M94.152 28.1628L93.238 28.5698L98.122 39.5378L99.036 39.1308L94.152 28.1628Z" fill="#1D2438"/>
<path d="M90.0161 30.0727L89.1171 30.5107L94.3731 41.2987L95.2721 40.8607L90.0161 30.0727Z" fill="#1D2438"/>
<path d="M85.949 32.1257L85.066 32.5947L90.694 43.1907L91.577 42.7217L85.949 32.1257Z" fill="#1D2438"/>
<path d="M81.9571 34.3179L81.0911 34.8179L87.0911 45.2102L87.9571 44.7102L81.9571 34.3179Z" fill="#1D2438"/>
<path d="M78.0431 36.6487L77.1951 37.1787L83.5551 47.3547L84.4031 46.8247L78.0431 36.6487Z" fill="#1D2438"/>
<path d="M74.214 39.1156L73.385 39.6748L80.0953 49.6233L80.9244 49.0641L74.214 39.1156Z" fill="#1D2438"/>
<path d="M70.4721 41.7138L69.6631 42.3018L76.7191 52.0098L77.5281 51.4218L70.4721 41.7138Z" fill="#1D2438"/>
<path d="M66.824 44.4411L66.036 45.0571L73.428 54.5131L74.216 53.8971L66.824 44.4411Z" fill="#1D2438"/>
<path d="M63.2731 47.2942L62.5071 47.937L70.2205 57.1295L70.9866 56.4868L63.2731 47.2942Z" fill="#1D2438"/>
<path d="M59.8242 50.2698L59.0811 50.939L67.1106 59.8567L67.8538 59.1876L59.8242 50.2698Z" fill="#1D2438"/>
<path d="M56.48 53.3631L55.761 54.0581L64.101 62.6861L64.82 61.9911L56.48 53.3631Z" fill="#1D2438"/>
<path d="M53.2481 56.573L52.5531 57.292L61.1811 65.632L61.8761 64.913L53.2481 56.573Z" fill="#1D2438"/>
<path d="M50.1281 59.8916L49.459 60.6348L58.3767 68.6643L59.0459 67.9212L50.1281 59.8916Z" fill="#1D2438"/>
<path d="M47.1268 63.3179L46.484 64.084L55.6765 71.7974L56.3193 71.0314L47.1268 63.3179Z" fill="#1D2438"/>
<path d="M44.2471 66.8468L43.6311 67.6348L53.0871 75.0268L53.7031 74.2388L44.2471 66.8468Z" fill="#1D2438"/>
<path d="M41.4911 70.4742L40.9031 71.2832L50.6111 78.3392L51.1991 77.5302L41.4911 70.4742Z" fill="#1D2438"/>
<path d="M38.8642 74.1959L38.3051 75.0249L48.2535 81.7352L48.8127 80.9062L38.8642 74.1959Z" fill="#1D2438"/>
<path d="M36.369 78.006L35.839 78.854L46.015 85.214L46.545 84.366L36.369 78.006Z" fill="#1D2438"/>
<path d="M34.0081 81.902L33.5081 82.7681L43.9004 88.7681L44.4004 87.902L34.0081 81.902Z" fill="#1D2438"/>
<path d="M31.7831 85.8768L31.3141 86.7598L41.9101 92.3878L42.3791 91.5048L31.7831 85.8768Z" fill="#1D2438"/>
<path d="M29.7001 89.9281L29.2621 90.8271L40.0501 96.0831L40.4881 95.1841L29.7001 89.9281Z" fill="#1D2438"/>
<path d="M27.76 94.0479L27.353 94.9619L38.321 99.8459L38.728 98.9319L27.76 94.0479Z" fill="#1D2438"/>
<path d="M25.9636 98.2349L25.589 99.1621L36.7152 103.657L37.0898 102.73L25.9636 98.2349Z" fill="#1D2438"/>
<path d="M24.315 102.481L23.973 103.421L35.2493 107.525L35.5914 106.585L24.315 102.481Z" fill="#1D2438"/>
<path d="M22.8151 106.783L22.5061 107.734L33.9181 111.442L34.2271 110.491L22.8151 106.783Z" fill="#1D2438"/>
<path d="M21.4667 111.133L21.191 112.095L32.7262 115.402L33.0018 114.441L21.4667 111.133Z" fill="#1D2438"/>
<path d="M20.271 115.529L20.0291 116.499L31.6726 119.402L31.9145 118.432L20.271 115.529Z" fill="#1D2438"/>
<path d="M19.2301 119.963L19.0221 120.941L30.7581 123.437L30.9661 122.459L19.2301 119.963Z" fill="#1D2438"/>
<path d="M18.344 124.431L18.17 125.416L29.99 127.504L30.164 126.519L18.344 124.431Z" fill="#1D2438"/>
<path d="M17.6132 128.928L17.474 129.918L29.3572 131.588L29.4964 130.598L17.6132 128.928Z" fill="#1D2438"/>
<path d="M17.041 133.446L16.936 134.441L28.876 135.701L28.981 134.706L17.041 133.446Z" fill="#1D2438"/>
<path d="M16.627 137.982L16.557 138.98L28.533 139.82L28.603 138.822L16.627 137.982Z" fill="#1D2438"/>
<path d="M16.3711 142.531L16.3361 143.53L28.3241 143.95L28.3591 142.951L16.3711 142.531Z" fill="#1D2438"/>
<path d="M16.274 147.085V148.085H28.274V147.085H16.274Z" fill="#1D2438"/>
<path d="M16.3361 151.64L16.3711 152.639L28.3591 152.219L28.3241 151.22L16.3361 151.64Z" fill="#1D2438"/>
<path d="M16.5571 156.189L16.6271 157.187L28.6031 156.347L28.5331 155.349L16.5571 156.189Z" fill="#1D2438"/>
<path d="M16.936 160.728L17.041 161.723L28.981 160.463L28.876 159.468L16.936 160.728Z" fill="#1D2438"/>
<path d="M17.4739 165.252L17.613 166.242L29.4963 164.572L29.3571 163.582L17.4739 165.252Z" fill="#1D2438"/>
<path d="M18.169 169.753L18.343 170.738L30.163 168.65L29.989 167.665L18.169 169.753Z" fill="#1D2438"/>
<path d="M19.0221 174.228L19.2301 175.206L30.9661 172.71L30.7581 171.732L19.0221 174.228Z" fill="#1D2438"/>
<path d="M20.0291 178.671L20.271 179.641L31.9145 176.738L31.6726 175.768L20.0291 178.671Z" fill="#1D2438"/>
<path d="M21.1914 183.075L21.467 184.036L33.0022 180.728L32.7265 179.767L21.1914 183.075Z" fill="#1D2438"/>
<path d="M22.507 187.436L22.816 188.387L34.228 184.679L33.919 183.728L22.507 187.436Z" fill="#1D2438"/>
<path d="M23.973 191.748L24.3151 192.688L35.5914 188.584L35.2494 187.644L23.973 191.748Z" fill="#1D2438"/>
<path d="M25.5894 196.008L25.964 196.935L37.0902 192.44L36.7156 191.513L25.5894 196.008Z" fill="#1D2438"/>
<path d="M27.353 200.207L27.76 201.121L38.728 196.237L38.321 195.323L27.353 200.207Z" fill="#1D2438"/>
<path d="M29.2621 204.343L29.7001 205.242L40.4881 199.986L40.0501 199.087L29.2621 204.343Z" fill="#1D2438"/>
<path d="M31.3151 208.409L31.7841 209.292L42.3801 203.664L41.9111 202.781L31.3151 208.409Z" fill="#1D2438"/>
<path d="M33.5081 212.402L34.0081 213.268L44.4004 207.268L43.9004 206.402L33.5081 212.402Z" fill="#1D2438"/>
<path d="M35.838 216.315L36.368 217.163L46.544 210.803L46.014 209.955L35.838 216.315Z" fill="#1D2438"/>
<path d="M38.3048 220.145L38.864 220.974L48.8125 214.264L48.2533 213.435L38.3048 220.145Z" fill="#1D2438"/>
<path d="M40.9031 223.886L41.4911 224.695L51.1991 217.639L50.6111 216.83L40.9031 223.886Z" fill="#1D2438"/>
<path d="M43.6301 227.535L44.2461 228.323L53.7021 220.931L53.0861 220.143L43.6301 227.535Z" fill="#1D2438"/>
<path d="M46.4833 231.086L47.1261 231.852L56.3186 224.139L55.6758 223.373L46.4833 231.086Z" fill="#1D2438"/>
<path d="M49.4589 234.535L50.1281 235.278L59.0458 227.248L58.3767 226.505L49.4589 234.535Z" fill="#1D2438"/>
<path d="M52.5521 237.878L53.2471 238.597L61.8751 230.257L61.1801 229.538L52.5521 237.878Z" fill="#1D2438"/>
<path d="M55.7621 241.111L56.4811 241.806L64.8211 233.178L64.1021 232.483L55.7621 241.111Z" fill="#1D2438"/>
<path d="M59.081 244.231L59.8241 244.9L67.8537 235.982L67.1105 235.313L59.081 244.231Z" fill="#1D2438"/>
<path d="M62.507 247.232L63.2731 247.875L70.9865 238.682L70.2205 238.04L62.507 247.232Z" fill="#1D2438"/>
<path d="M66.0361 250.112L66.8241 250.728L74.2161 241.272L73.4281 240.656L66.0361 250.112Z" fill="#1D2438"/>
<path d="M69.663 252.867L70.472 253.455L77.528 243.747L76.719 243.159L69.663 252.867Z" fill="#1D2438"/>
<path d="M73.385 255.495L74.214 256.054L80.9243 246.105L80.0953 245.546L73.385 255.495Z" fill="#1D2438"/>
<path d="M77.1951 257.99L78.0431 258.52L84.4031 248.344L83.5551 247.814L77.1951 257.99Z" fill="#1D2438"/>
<path d="M81.091 260.351L81.957 260.851L87.957 250.459L87.091 249.959L81.091 260.351Z" fill="#1D2438"/>
<path d="M85.0661 262.575L85.9491 263.044L91.5771 252.448L90.6941 251.979L85.0661 262.575Z" fill="#1D2438"/>
<path d="M89.117 264.659L90.016 265.097L95.272 254.309L94.373 253.871L89.117 264.659Z" fill="#1D2438"/>
<path d="M93.2381 266.599L94.1521 267.006L99.0361 256.038L98.1221 255.631L93.2381 266.599Z" fill="#1D2438"/>
<path d="M97.4239 268.395L98.3511 268.77L102.846 257.644L101.919 257.269L97.4239 268.395Z" fill="#1D2438"/>
<path d="M101.67 270.044L102.61 270.386L106.714 259.109L105.775 258.767L101.67 270.044Z" fill="#1D2438"/>
<path d="M105.972 271.543L106.923 271.852L110.631 260.44L109.68 260.131L105.972 271.543Z" fill="#1D2438"/>
<path d="M110.323 272.891L111.284 273.167L114.592 261.632L113.63 261.356L110.323 272.891Z" fill="#1D2438"/>
<path d="M114.718 274.087L115.688 274.329L118.591 262.686L117.621 262.444L114.718 274.087Z" fill="#1D2438"/>
<path d="M119.152 275.129L120.13 275.337L122.626 263.601L121.648 263.393L119.152 275.129Z" fill="#1D2438"/>
<path d="M123.62 276.015L124.605 276.189L126.693 264.369L125.708 264.195L123.62 276.015Z" fill="#1D2438"/>
<path d="M128.117 276.745L129.107 276.884L130.777 265.001L129.787 264.861L128.117 276.745Z" fill="#1D2438"/>
<path d="M132.635 277.317L133.63 277.422L134.89 265.482L133.895 265.377L132.635 277.317Z" fill="#1D2438"/>
<path d="M137.171 277.732L138.169 277.802L139.009 265.826L138.011 265.756L137.171 277.732Z" fill="#1D2438"/>
<path d="M141.72 277.988L142.719 278.023L143.139 266.035L142.14 266L141.72 277.988Z" fill="#1D2438"/>
<path d="M146.274 278.085H147.274V266.085H146.274V278.085Z" fill="#1D2438"/>
<path d="M150.829 278.023L151.828 277.988L151.408 266L150.409 266.035L150.829 278.023Z" fill="#1D2438"/>
<path d="M155.378 277.802L156.376 277.732L155.536 265.756L154.538 265.826L155.378 277.802Z" fill="#1D2438"/>
<path d="M159.917 277.423L160.912 277.318L159.652 265.378L158.657 265.483L159.917 277.423Z" fill="#1D2438"/>
<path d="M164.441 276.884L165.431 276.745L163.761 264.862L162.771 265.001L164.441 276.884Z" fill="#1D2438"/>
<path d="M168.942 276.189L169.927 276.015L167.839 264.195L166.854 264.369L168.942 276.189Z" fill="#1D2438"/>
<path d="M173.417 275.337L174.395 275.129L171.899 263.393L170.921 263.601L173.417 275.337Z" fill="#1D2438"/>
<path d="M177.86 274.329L178.83 274.087L175.927 262.443L174.957 262.685L177.86 274.329Z" fill="#1D2438"/>
<path d="M182.264 273.168L183.225 272.892L179.917 261.357L178.956 261.633L182.264 273.168Z" fill="#1D2438"/>
<path d="M186.625 271.852L187.576 271.543L183.868 260.131L182.917 260.44L186.625 271.852Z" fill="#1D2438"/>
<path d="M190.937 270.386L191.877 270.044L187.773 258.768L186.833 259.11L190.937 270.386Z" fill="#1D2438"/>
<path d="M195.197 268.77L196.124 268.395L191.629 257.269L190.702 257.643L195.197 268.77Z" fill="#1D2438"/>
<path d="M199.396 267.006L200.31 266.599L195.426 255.631L194.512 256.038L199.396 267.006Z" fill="#1D2438"/>
<path d="M203.532 265.096L204.431 264.658L199.175 253.87L198.276 254.308L203.532 265.096Z" fill="#1D2438"/>
<path d="M207.598 263.044L208.481 262.575L202.853 251.979L201.97 252.448L207.598 263.044Z" fill="#1D2438"/>
<path d="M211.591 260.851L212.457 260.351L206.457 249.959L205.591 250.459L211.591 260.851Z" fill="#1D2438"/>
<path d="M215.504 258.52L216.352 257.99L209.992 247.814L209.144 248.344L215.504 258.52Z" fill="#1D2438"/>
<path d="M219.334 256.054L220.163 255.495L213.453 245.547L212.624 246.106L219.334 256.054Z" fill="#1D2438"/>
<path d="M223.075 253.456L223.884 252.868L216.828 243.16L216.019 243.748L223.075 253.456Z" fill="#1D2438"/>
<path d="M226.724 250.728L227.512 250.112L220.12 240.656L219.332 241.272L226.724 250.728Z" fill="#1D2438"/>
<path d="M230.275 247.875L231.041 247.232L223.328 238.039L222.562 238.682L230.275 247.875Z" fill="#1D2438"/>
<path d="M233.724 244.9L234.467 244.231L226.437 235.313L225.694 235.982L233.724 244.9Z" fill="#1D2438"/>
<path d="M237.067 241.806L237.786 241.111L229.446 232.483L228.727 233.178L237.067 241.806Z" fill="#1D2438"/>
<path d="M240.3 238.597L240.995 237.878L232.367 229.538L231.672 230.257L240.3 238.597Z" fill="#1D2438"/>
<path d="M243.42 235.278L244.089 234.535L235.171 226.506L234.502 227.249L243.42 235.278Z" fill="#1D2438"/>
<path d="M246.421 231.852L247.064 231.086L237.872 223.372L237.229 224.139L246.421 231.852Z" fill="#1D2438"/>
<path d="M249.301 228.323L249.917 227.535L240.461 220.143L239.845 220.931L249.301 228.323Z" fill="#1D2438"/>
<path d="M252.056 224.695L252.644 223.886L242.936 216.83L242.348 217.639L252.056 224.695Z" fill="#1D2438"/>
<path d="M254.684 220.974L255.243 220.145L245.295 213.435L244.735 214.264L254.684 220.974Z" fill="#1D2438"/>
<path d="M257.179 217.163L257.709 216.315L247.533 209.955L247.003 210.803L257.179 217.163Z" fill="#1D2438"/>
<path d="M259.54 213.268L260.04 212.402L249.648 206.402L249.148 207.268L259.54 213.268Z" fill="#1D2438"/>
<path d="M261.764 209.292L262.233 208.409L251.637 202.781L251.168 203.664L261.764 209.292Z" fill="#1D2438"/>
<path d="M263.848 205.242L264.286 204.343L253.498 199.087L253.06 199.986L263.848 205.242Z" fill="#1D2438"/>
<path d="M265.788 201.121L266.195 200.207L255.227 195.323L254.82 196.237L265.788 201.121Z" fill="#1D2438"/>
<path d="M267.584 196.934L267.959 196.007L256.833 191.512L256.458 192.439L267.584 196.934Z" fill="#1D2438"/>
<path d="M269.233 192.689L269.575 191.749L258.299 187.645L257.957 188.584L269.233 192.689Z" fill="#1D2438"/>
<path d="M270.732 188.387L271.041 187.436L259.629 183.728L259.32 184.679L270.732 188.387Z" fill="#1D2438"/>
<path d="M272.08 184.036L272.356 183.075L260.821 179.768L260.545 180.729L272.08 184.036Z" fill="#1D2438"/>
<path d="M273.276 179.64L273.518 178.67L261.875 175.767L261.633 176.737L273.276 179.64Z" fill="#1D2438"/>
<path d="M274.318 175.206L274.526 174.228L262.79 171.732L262.582 172.71L274.318 175.206Z" fill="#1D2438"/>
<path d="M275.204 170.738L275.378 169.753L263.558 167.665L263.384 168.65L275.204 170.738Z" fill="#1D2438"/>
<path d="M275.934 166.242L276.073 165.252L264.19 163.582L264.051 164.572L275.934 166.242Z" fill="#1D2438"/>
<path d="M276.506 161.723L276.611 160.728L264.671 159.468L264.566 160.463L276.506 161.723Z" fill="#1D2438"/>
<path d="M276.921 157.187L276.991 156.189L265.015 155.349L264.945 156.347L276.921 157.187Z" fill="#1D2438"/>
<path d="M277.177 152.638L277.212 151.639L265.224 151.219L265.189 152.218L277.177 152.638Z" fill="#1D2438"/>
<path d="M277.274 148.085V147.085H265.274V148.085H277.274Z" fill="#1D2438"/>
<path d="M277.212 143.53L277.177 142.531L265.189 142.951L265.224 143.95L277.212 143.53Z" fill="#1D2438"/>
<path d="M276.991 138.981L276.921 137.983L264.945 138.823L265.015 139.821L276.991 138.981Z" fill="#1D2438"/>
<path d="M276.612 134.442L276.507 133.447L264.567 134.707L264.672 135.702L276.612 134.442Z" fill="#1D2438"/>
<path d="M276.073 129.917L275.934 128.927L264.051 130.597L264.19 131.587L276.073 129.917Z" fill="#1D2438"/>
<path d="M275.378 125.416L275.204 124.431L263.384 126.519L263.558 127.504L275.378 125.416Z" fill="#1D2438"/>
<path d="M274.526 120.941L274.318 119.963L262.582 122.459L262.79 123.437L274.526 120.941Z" fill="#1D2438"/>
<path d="M273.518 116.499L273.276 115.529L261.632 118.432L261.874 119.402L273.518 116.499Z" fill="#1D2438"/>
<path d="M272.357 112.094L272.081 111.133L260.546 114.44L260.822 115.402L272.357 112.094Z" fill="#1D2438"/>
<path d="M271.041 107.733L270.732 106.782L259.32 110.49L259.629 111.441L271.041 107.733Z" fill="#1D2438"/>
<path d="M269.575 103.421L269.233 102.481L257.957 106.585L258.299 107.525L269.575 103.421Z" fill="#1D2438"/>
<path d="M267.959 99.162L267.584 98.2349L256.458 102.73L256.832 103.657L267.959 99.162Z" fill="#1D2438"/>
<path d="M266.195 94.9628L265.788 94.0488L254.82 98.9328L255.227 99.8468L266.195 94.9628Z" fill="#1D2438"/>
<path d="M264.285 90.8267L263.847 89.9277L253.059 95.1837L253.497 96.0827L264.285 90.8267Z" fill="#1D2438"/>
<path d="M262.233 86.76L261.764 85.877L251.168 91.505L251.637 92.388L262.233 86.76Z" fill="#1D2438"/>
<path d="M260.04 82.7679L259.54 81.9019L249.148 87.9019L249.648 88.7679L260.04 82.7679Z" fill="#1D2438"/>
<path d="M257.709 78.8539L257.179 78.0059L247.003 84.3659L247.533 85.2139L257.709 78.8539Z" fill="#1D2438"/>
<path d="M255.243 75.0239L254.684 74.1948L244.736 80.9051L245.295 81.7342L255.243 75.0239Z" fill="#1D2438"/>
<path d="M252.645 71.2831L252.057 70.4741L242.349 77.5301L242.937 78.3391L252.645 71.2831Z" fill="#1D2438"/>
<path d="M249.917 67.6352L249.301 66.8472L239.845 74.2392L240.461 75.0272L249.917 67.6352Z" fill="#1D2438"/>
<path d="M247.064 64.0839L246.421 63.3179L237.228 71.0313L237.871 71.7974L247.064 64.0839Z" fill="#1D2438"/>
<path d="M244.089 60.6352L243.42 59.8921L234.502 67.9217L235.171 68.6648L244.089 60.6352Z" fill="#1D2438"/>
<path d="M240.995 57.2908L240.3 56.5718L231.672 64.9118L232.367 65.6308L240.995 57.2908Z" fill="#1D2438"/>
<path d="M237.786 54.0588L237.067 53.3638L228.727 61.9918L229.446 62.6868L237.786 54.0588Z" fill="#1D2438"/>
<path d="M234.467 50.9392L233.724 50.27L225.694 59.1878L226.438 59.8569L234.467 50.9392Z" fill="#1D2438"/>
<path d="M231.041 47.9367L230.275 47.2939L222.562 56.4865L223.328 57.1293L231.041 47.9367Z" fill="#1D2438"/>
<path d="M227.512 45.0569L226.724 44.4409L219.332 53.8969L220.12 54.5129L227.512 45.0569Z" fill="#1D2438"/>
<path d="M223.884 42.3019L223.075 41.7139L216.019 51.4219L216.828 52.0099L223.884 42.3019Z" fill="#1D2438"/>
<path d="M220.163 39.6749L219.334 39.1157L212.624 49.0642L213.453 49.6234L220.163 39.6749Z" fill="#1D2438"/>
<path d="M216.352 37.1799L215.504 36.6499L209.144 46.8259L209.992 47.3559L216.352 37.1799Z" fill="#1D2438"/>
<path d="M212.457 34.8179L211.591 34.3179L205.591 44.7102L206.457 45.2102L212.457 34.8179Z" fill="#1D2438"/>
<path d="M208.481 32.594L207.598 32.125L201.97 42.721L202.853 43.19L208.481 32.594Z" fill="#1D2438"/>
<path d="M204.431 30.5108L203.532 30.0728L198.276 40.8608L199.175 41.2988L204.431 30.5108Z" fill="#1D2438"/>
<path d="M200.31 28.5711L199.396 28.1641L194.512 39.1321L195.426 39.5391L200.31 28.5711Z" fill="#1D2438"/>
<path d="M196.123 26.7745L195.196 26.3999L190.701 37.5261L191.628 37.9007L196.123 26.7745Z" fill="#1D2438"/>
<path d="M191.878 25.1262L190.938 24.7842L186.834 36.0605L187.773 36.4025L191.878 25.1262Z" fill="#1D2438"/>
<path d="M187.576 23.6259L186.625 23.3169L182.917 34.7289L183.868 35.0379L187.576 23.6259Z" fill="#1D2438"/>
<path d="M183.225 22.2776L182.264 22.002L178.956 33.5371L179.918 33.8127L183.225 22.2776Z" fill="#1D2438"/>
<path d="M178.83 21.0818L177.86 20.8398L174.957 32.4834L175.927 32.7253L178.83 21.0818Z" fill="#1D2438"/>
<path d="M174.395 20.041L173.417 19.833L170.921 31.569L171.899 31.777L174.395 20.041Z" fill="#1D2438"/>
<path d="M169.927 19.154L168.942 18.98L166.854 30.8L167.839 30.974L169.927 19.154Z" fill="#1D2438"/>
<path d="M165.431 18.4243L164.441 18.2852L162.771 30.1684L163.761 30.3075L165.431 18.4243Z" fill="#1D2438"/>
<path d="M160.913 17.8521L159.918 17.7471L158.658 29.6871L159.653 29.7921L160.913 17.8521Z" fill="#1D2438"/>
<path d="M156.376 17.4382L155.378 17.3682L154.538 29.3442L155.536 29.4142L156.376 17.4382Z" fill="#1D2438"/>
<path d="M151.828 17.182L150.829 17.147L150.409 29.135L151.408 29.17L151.828 17.182Z" fill="#1D2438"/>
<path d="M147.774 14.585H145.774V30.585H147.774V14.585Z" fill="#1D2438"/>
<path d="M102.224 22.2637L100.345 22.9478L105.817 37.9828L107.697 37.2988L102.224 22.2637Z" fill="#1D2438"/>
<path d="M62.0491 45.0582L60.5171 46.3438L70.8017 58.6005L72.3338 57.3149L62.0491 45.0582Z" fill="#1D2438"/>
<path d="M32.092 80.2191L31.092 81.9512L44.9484 89.9512L45.9484 88.2191L32.092 80.2191Z" fill="#1D2438"/>
<path d="M15.9691 123.504L15.6211 125.474L31.3811 128.258L31.7291 126.288L15.9691 123.504Z" fill="#1D2438"/>
<path d="M15.62 169.695L15.968 171.665L31.728 168.881L31.38 166.911L15.62 169.695Z" fill="#1D2438"/>
<path d="M31.092 213.219L32.092 214.951L45.9484 206.951L44.9484 205.219L31.092 213.219Z" fill="#1D2438"/>
<path d="M60.517 248.825L62.049 250.111L72.3336 237.854L70.8016 236.569L60.517 248.825Z" fill="#1D2438"/>
<path d="M100.346 272.222L102.225 272.906L107.697 257.871L105.818 257.187L100.346 272.222Z" fill="#1D2438"/>
<path d="M145.774 280.585H147.774V264.585H145.774V280.585Z" fill="#1D2438"/>
<path d="M191.323 272.906L193.202 272.222L187.73 257.187L185.85 257.871L191.323 272.906Z" fill="#1D2438"/>
<path d="M231.499 250.112L233.031 248.826L222.746 236.569L221.214 237.855L231.499 250.112Z" fill="#1D2438"/>
<path d="M261.455 214.951L262.455 213.219L248.599 205.219L247.599 206.951L261.455 214.951Z" fill="#1D2438"/>
<path d="M277.579 171.665L277.927 169.695L262.167 166.911L261.819 168.881L277.579 171.665Z" fill="#1D2438"/>
<path d="M277.928 125.475L277.58 123.505L261.82 126.289L262.168 128.259L277.928 125.475Z" fill="#1D2438"/>
<path d="M262.455 81.9508L261.455 80.2188L247.599 88.2188L248.599 89.9508L262.455 81.9508Z" fill="#1D2438"/>
<path d="M233.03 46.3437L231.498 45.0581L221.213 57.3148L222.746 58.6004L233.03 46.3437Z" fill="#1D2438"/>
<path d="M193.202 22.9482L191.323 22.2642L185.851 37.2992L187.73 37.9833L193.202 22.9482Z" fill="#1D2438"/>
<path d="M153.818 44.3989V61.8529H151.396L142.524 49.0529H142.362V61.8529H139.728V44.3989H142.166L151.047 57.2169H151.209V44.3989H153.818Z" fill="black"/>
<path d="M150.489 241.985C150.457 241.607 150.338 241.241 150.143 240.915C149.949 240.589 149.682 240.312 149.364 240.105C148.621 239.636 147.754 239.402 146.876 239.436C146.24 239.421 145.608 239.535 145.018 239.773C144.538 239.964 144.118 240.282 143.804 240.693C143.519 241.075 143.368 241.541 143.373 242.018C143.363 242.397 143.465 242.771 143.667 243.092C143.867 243.397 144.132 243.655 144.443 243.846C144.769 244.049 145.116 244.217 145.478 244.346C145.827 244.473 146.183 244.583 146.544 244.674L148.244 245.118C148.827 245.263 149.399 245.447 149.957 245.671C150.539 245.903 151.086 246.213 151.584 246.592C152.084 246.973 152.498 247.455 152.799 248.007C153.122 248.63 153.282 249.325 153.263 250.027C153.279 250.961 153.013 251.879 152.5 252.66C151.951 253.461 151.186 254.091 150.293 254.476C149.191 254.946 148.001 255.173 146.803 255.14C145.642 255.167 144.487 254.956 143.411 254.518C142.513 254.149 141.737 253.536 141.169 252.749C140.615 251.946 140.302 251.002 140.269 250.027H142.911C142.942 250.604 143.158 251.155 143.529 251.599C143.903 252.025 144.382 252.346 144.919 252.529C145.518 252.735 146.148 252.836 146.781 252.829C147.461 252.841 148.136 252.721 148.77 252.476C149.307 252.272 149.782 251.932 150.147 251.488C150.481 251.065 150.658 250.539 150.647 250C150.666 249.537 150.509 249.083 150.208 248.731C149.877 248.374 149.473 248.095 149.022 247.912C148.476 247.68 147.913 247.489 147.339 247.341L145.277 246.779C144.054 246.488 142.917 245.912 141.957 245.1C141.552 244.73 141.233 244.275 141.021 243.769C140.81 243.263 140.712 242.716 140.734 242.168C140.715 241.224 141.002 240.3 141.552 239.534C142.123 238.764 142.887 238.16 143.768 237.783C144.763 237.353 145.838 237.139 146.921 237.157C147.998 237.135 149.066 237.347 150.053 237.779C150.906 238.15 151.645 238.74 152.198 239.488C152.721 240.215 153.006 241.085 153.016 241.981L150.489 241.985Z" fill="black"/>
</svg>
