<svg width="21" height="24" viewBox="0 0 21 24" fill="none" xmlns="http://www.w3.org/2000/svg">
<g opacity="0.4">
<path d="M20.1637 5.866C20.14 5.8111 20.1061 5.76121 20.0637 5.719L15.4797 1.133C15.3932 1.04813 15.2769 1.00041 15.1557 1H8.3497C7.84579 1 7.36252 1.20018 7.0062 1.5565C6.64988 1.91282 6.44971 2.39609 6.44971 2.9V3.749H2.8497C2.34579 3.749 1.86252 3.94918 1.5062 4.3055C1.14988 4.66182 0.949707 5.14509 0.949707 5.649V21.1C0.949707 21.6039 1.14988 22.0872 1.5062 22.4435C1.86252 22.7998 2.34579 23 2.8497 23H12.7947C13.2986 23 13.7819 22.7998 14.1382 22.4435C14.4945 22.0872 14.6947 21.6039 14.6947 21.1V20.251H18.2947C18.7986 20.251 19.2819 20.0508 19.6382 19.6945C19.9945 19.3382 20.1947 18.8549 20.1947 18.351V6.039C20.1955 5.97989 20.1849 5.92117 20.1637 5.866ZM15.6137 2.566L18.6307 5.583H15.6137V2.566ZM12.3387 22.08H3.3097C2.92673 22.08 2.55945 21.9279 2.28864 21.6571C2.01784 21.3863 1.86571 21.019 1.86571 20.636V6.106C1.86571 5.72303 2.01784 5.35574 2.28864 5.08494C2.55945 4.81414 2.92673 4.662 3.3097 4.662H9.1977V8.786C9.19757 8.84618 9.20933 8.9058 9.2323 8.96143C9.25527 9.01705 9.289 9.06759 9.33156 9.11015C9.37411 9.15271 9.42465 9.18644 9.48028 9.20941C9.53591 9.23238 9.59552 9.24413 9.6557 9.244H13.7797V20.632C13.781 20.8219 13.7447 21.0102 13.6728 21.1861C13.601 21.3619 13.495 21.5217 13.361 21.6564C13.227 21.791 13.0677 21.8977 12.8922 21.9705C12.7168 22.0432 12.5286 22.0804 12.3387 22.08ZM10.1167 8.332V5.315L13.1337 8.332H10.1167ZM17.8397 19.332H14.6977V8.79C14.6973 8.66879 14.6496 8.55254 14.5647 8.466L9.9837 3.885C9.89717 3.80013 9.78091 3.75241 9.65971 3.752H7.36571V3.36C7.36571 2.97703 7.51784 2.60974 7.78864 2.33894C8.05945 2.06814 8.42673 1.916 8.8097 1.916H14.6977V6.04C14.6976 6.10018 14.7093 6.1598 14.7323 6.21542C14.7553 6.27105 14.789 6.32159 14.8316 6.36415C14.8741 6.4067 14.9247 6.44044 14.9803 6.46341C15.0359 6.48638 15.0955 6.49813 15.1557 6.498H19.2797V17.885C19.2804 18.0745 19.2436 18.2623 19.1715 18.4376C19.0995 18.6129 18.9935 18.7722 18.8597 18.9065C18.7259 19.0407 18.567 19.1472 18.3919 19.2199C18.2169 19.2926 18.0292 19.33 17.8397 19.33V19.332Z" fill="#1E1F4B" stroke="#1E1F4B" stroke-width="0.4"/>
</g>
</svg>
