<svg width="35" height="35" viewBox="0 0 35 35" fill="none" xmlns="http://www.w3.org/2000/svg">
<path d="M24.348 0H10.435C4.67191 0 0 4.67191 0 10.435V24.348C0 30.1111 4.67191 34.783 10.435 34.783H24.348C30.1111 34.783 34.783 30.1111 34.783 24.348V10.435C34.783 4.67191 30.1111 0 24.348 0Z" fill="white"/>
<path d="M23.9738 12.5389C23.9566 12.499 23.9319 12.4627 23.9011 12.432L20.5673 9.09673C20.5043 9.03501 20.4198 9.0003 20.3316 9H15.3818C15.0153 9 14.6639 9.14558 14.4047 9.40473C14.1456 9.66387 14 10.0153 14 10.3818V10.9993H11.3818C11.0153 10.9993 10.6639 11.1449 10.4047 11.404C10.1456 11.6631 10 12.0146 10 12.3811V23.6182C10 23.9847 10.1456 24.3361 10.4047 24.5953C10.6639 24.8544 11.0153 25 11.3818 25H18.6145C18.981 25 19.3325 24.8544 19.5916 24.5953C19.8508 24.3361 19.9964 23.9847 19.9964 23.6182V23.0007H22.6145C22.981 23.0007 23.3325 22.8551 23.5916 22.596C23.8508 22.3369 23.9964 21.9854 23.9964 21.6189V12.6647C23.9969 12.6217 23.9893 12.579 23.9738 12.5389ZM20.6647 10.1389L22.8589 12.3331H20.6647V10.1389ZM18.2829 24.3309H11.7164C11.4378 24.3309 11.1707 24.2203 10.9738 24.0233C10.7768 23.8264 10.6662 23.5593 10.6662 23.2807V12.7135C10.6662 12.4349 10.7768 12.1678 10.9738 11.9709C11.1707 11.7739 11.4378 11.6633 11.7164 11.6633H15.9985V14.6625C15.9984 14.7063 16.007 14.7497 16.0237 14.7901C16.0404 14.8306 16.0649 14.8673 16.0959 14.8983C16.1268 14.9292 16.1636 14.9538 16.2041 14.9705C16.2445 14.9872 16.2879 14.9957 16.3316 14.9956H19.3309V23.2778C19.3319 23.416 19.3055 23.5529 19.2532 23.6808C19.2009 23.8086 19.1238 23.9249 19.0264 24.0228C18.929 24.1207 18.8131 24.1984 18.6855 24.2512C18.5579 24.3041 18.421 24.3312 18.2829 24.3309ZM16.6669 14.3324V12.1382L18.8611 14.3324H16.6669ZM22.2836 22.3324H19.9985V14.6655C19.9982 14.5773 19.9635 14.4928 19.9018 14.4298L16.5702 11.0982C16.5072 11.0365 16.4227 11.0018 16.3345 11.0015H14.6662V10.7164C14.6662 10.4378 14.7768 10.1707 14.9738 9.97377C15.1707 9.77683 15.4378 9.66618 15.7164 9.66618H19.9985V12.6655C19.9984 12.7092 20.007 12.7526 20.0237 12.793C20.0404 12.8335 20.0649 12.8702 20.0959 12.9012C20.1268 12.9321 20.1636 12.9567 20.2041 12.9734C20.2445 12.9901 20.2879 12.9986 20.3316 12.9985H23.3309V21.28C23.3314 21.4178 23.3047 21.5544 23.2522 21.6819C23.1998 21.8094 23.1228 21.9253 23.0255 22.0229C22.9282 22.1205 22.8125 22.198 22.6852 22.2508C22.558 22.3037 22.4215 22.3309 22.2836 22.3309V22.3324Z" fill="#1E1F4B" stroke="#1E1F4B" stroke-width="0.4"/>
</svg>
