<svg width="35" height="35" viewBox="0 0 35 35" fill="none" xmlns="http://www.w3.org/2000/svg">
<path d="M24.348 0H10.435C4.67191 0 0 4.67191 0 10.435V24.348C0 30.1111 4.67191 34.783 10.435 34.783H24.348C30.1111 34.783 34.783 30.1111 34.783 24.348V10.435C34.783 4.67191 30.1111 0 24.348 0Z" fill="white"/>
<path d="M23.2271 13.0965C23.212 13.0616 23.1904 13.0299 23.1635 13.003L20.2464 10.0846C20.1913 10.0306 20.1173 10.0003 20.0402 10H15.7091C15.3884 10 15.0809 10.1274 14.8541 10.3541C14.6274 10.5809 14.5 10.8884 14.5 11.2091V11.7494H12.2091C11.8884 11.7494 11.5809 11.8767 11.3541 12.1035C11.1274 12.3302 11 12.6378 11 12.9585V22.7909C11 23.1116 11.1274 23.4191 11.3541 23.6459C11.5809 23.8726 11.8884 24 12.2091 24H18.5377C18.8584 24 19.1659 23.8726 19.3927 23.6459C19.6194 23.4191 19.7468 23.1116 19.7468 22.7909V22.2506H22.0377C22.3584 22.2506 22.6659 22.1233 22.8927 21.8965C23.1194 21.6698 23.2468 21.3622 23.2468 21.0415V13.2066C23.2473 13.169 23.2406 13.1317 23.2271 13.0965ZM20.3316 10.9965L22.2515 12.9165H20.3316V10.9965ZM18.2475 23.4145H12.5018C12.2581 23.4145 12.0244 23.3177 11.8521 23.1454C11.6797 22.9731 11.5829 22.7393 11.5829 22.4956V13.2493C11.5829 13.0056 11.6797 12.7718 11.8521 12.5995C12.0244 12.4272 12.2581 12.3304 12.5018 12.3304H16.2487V14.9547C16.2486 14.993 16.2561 15.031 16.2707 15.0664C16.2854 15.1018 16.3068 15.1339 16.3339 15.161C16.361 15.1881 16.3931 15.2095 16.4285 15.2242C16.4639 15.2388 16.5019 15.2463 16.5402 15.2462H19.1645V22.4931C19.1654 22.614 19.1423 22.7338 19.0965 22.8457C19.0508 22.9576 18.9834 23.0593 18.8981 23.145C18.8128 23.2306 18.7115 23.2986 18.5998 23.3448C18.4881 23.3911 18.3684 23.4148 18.2475 23.4145ZM16.8335 14.6658V12.7459L18.7535 14.6658H16.8335ZM21.7482 21.6658H19.7487V14.9573C19.7485 14.8801 19.7181 14.8062 19.6641 14.7511L16.7489 11.8359C16.6938 11.7819 16.6199 11.7515 16.5427 11.7513H15.0829V11.5018C15.0829 11.2581 15.1797 11.0244 15.352 10.8521C15.5244 10.6797 15.7581 10.5829 16.0018 10.5829H19.7487V13.2073C19.7486 13.2456 19.7561 13.2835 19.7707 13.3189C19.7854 13.3543 19.8068 13.3865 19.8339 13.4135C19.861 13.4406 19.8931 13.4621 19.9285 13.4767C19.9639 13.4913 20.0019 13.4988 20.0402 13.4987H22.6645V20.745C22.665 20.8656 22.6416 20.9851 22.5957 21.0967C22.5498 21.2082 22.4824 21.3096 22.3973 21.395C22.3121 21.4805 22.211 21.5482 22.0996 21.5945C21.9882 21.6407 21.8688 21.6645 21.7482 21.6645V21.6658Z" fill="#1E1F4B" stroke="#1E1F4B" stroke-width="0.4"/>
</svg>
