<svg width="35" height="35" viewBox="0 0 35 35" fill="none" xmlns="http://www.w3.org/2000/svg">
<path d="M28.1643 0H6.94727C3.63356 0 0.947266 2.82826 0.947266 6.3171V28.6554C0.947266 32.1442 3.63356 34.9725 6.94727 34.9725H28.1643C31.478 34.9725 34.1643 32.1442 34.1643 28.6554V6.3171C34.1643 2.82826 31.478 0 28.1643 0Z" fill="#32A7E2"/>
<path d="M14.7072 17.2015H18.3712C19.8201 17.2015 21.2097 17.8075 22.2342 18.8861C23.2587 19.9648 23.8342 21.4278 23.8342 22.9532V24.5925C23.8342 25.2375 23.5909 25.8561 23.1577 26.3122C22.7244 26.7683 22.1369 27.0246 21.5242 27.0246H11.5502C10.9394 27.0215 10.3546 26.7639 9.92358 26.3082C9.49259 25.8525 9.2505 25.2356 9.25024 24.5925V22.9532C9.25011 22.1979 9.39128 21.45 9.66571 20.7522C9.94014 20.0544 10.3425 19.4203 10.8497 18.8862C11.3569 18.3521 11.9591 17.9284 12.6218 17.6393C13.2846 17.3503 13.9949 17.2015 14.7122 17.2015H14.7072Z" fill="white"/>
<path d="M16.5413 16.1307C18.6875 16.1307 20.4273 14.2989 20.4273 12.0393C20.4273 9.77974 18.6875 7.94797 16.5413 7.94797C14.3951 7.94797 12.6553 9.77974 12.6553 12.0393C12.6553 14.2989 14.3951 16.1307 16.5413 16.1307Z" fill="white"/>
<path d="M27.7812 13.9461H26.5232V12.6216C26.5232 12.3139 26.4074 12.0188 26.2013 11.8008C25.9951 11.5828 25.7154 11.4596 25.4232 11.4582C25.1301 11.4582 24.8491 11.5808 24.6418 11.7989C24.4346 12.0171 24.3182 12.313 24.3182 12.6216V13.9461H23.0602C22.768 13.9474 22.4882 14.0706 22.282 14.2887C22.0759 14.5067 21.9602 14.8018 21.9602 15.1095C21.9602 15.4171 22.0759 15.7122 22.282 15.9303C22.4882 16.1483 22.768 16.2715 23.0602 16.2729H24.3182V17.6005C24.3195 17.9081 24.4365 18.2027 24.6436 18.4198C24.8507 18.6368 25.131 18.7586 25.4232 18.7586C25.7145 18.7573 25.9935 18.6348 26.1995 18.4179C26.4055 18.201 26.5219 17.9072 26.5232 17.6005V16.276H27.7812C28.0734 16.2746 28.3532 16.1514 28.5593 15.9334C28.7655 15.7154 28.8812 15.4203 28.8812 15.1126C28.8812 14.805 28.7655 14.5099 28.5593 14.2918C28.3532 14.0738 28.0734 13.9506 27.7812 13.9492V13.9461Z" fill="white"/>
</svg>
