<svg width="35" height="35" viewBox="0 0 35 35" fill="none" xmlns="http://www.w3.org/2000/svg">
<path d="M24.348 0H10.435C4.67191 0 0 4.67191 0 10.435V24.348C0 30.1111 4.67191 34.783 10.435 34.783H24.348C30.1111 34.783 34.783 30.1111 34.783 24.348V10.435C34.783 4.67191 30.1111 0 24.348 0Z" fill="white"/>
<path d="M24.2756 18.2727H22.7672C22.6047 16.9925 22.0214 15.8026 21.1092 14.8898C20.1969 13.977 19.0074 13.3931 17.7273 13.2298V11.7273C17.7273 11.5344 17.6506 11.3494 17.5142 11.213C17.3778 11.0766 17.1929 11 17 11C16.8071 11 16.622 11.0766 16.4856 11.213C16.3492 11.3494 16.2727 11.5344 16.2727 11.7273V13.2298C14.9921 13.3925 13.8017 13.9762 12.8888 14.889C11.976 15.8018 11.3925 16.9921 11.2298 18.2727H9.72727C9.53439 18.2727 9.34928 18.3494 9.21289 18.4858C9.0765 18.6221 9 18.8071 9 19C9 19.1929 9.0765 19.3779 9.21289 19.5143C9.34928 19.6507 9.53439 19.7273 9.72727 19.7273H11.2298C11.3928 21.0072 11.9763 22.1968 12.8887 23.1091C13.801 24.0215 14.9905 24.605 16.2704 24.768V26.2727C16.2704 26.4656 16.3471 26.6506 16.4835 26.787C16.6199 26.9234 16.8048 27 16.9977 27C17.1906 27 17.3757 26.9234 17.5121 26.787C17.6485 26.6506 17.725 26.4656 17.725 26.2727V24.7644C19.0049 24.6015 20.1947 24.018 21.1071 23.1056C22.0194 22.1932 22.6029 21.0036 22.7658 19.7236H24.2704C24.4633 19.7236 24.6484 19.647 24.7848 19.5107C24.9212 19.3743 24.9977 19.1892 24.9977 18.9964C24.9977 18.8035 24.9212 18.6185 24.7848 18.4821C24.6484 18.3457 24.4633 18.2691 24.2704 18.2691L24.2756 18.2727ZM17.0028 23.3636C16.1398 23.3636 15.2961 23.1077 14.5785 22.6282C13.8609 22.1488 13.3017 21.4673 12.9714 20.6699C12.6411 19.8726 12.5546 18.9952 12.723 18.1487C12.8914 17.3022 13.307 16.5247 13.9173 15.9145C14.5275 15.3042 15.3052 14.8886 16.1516 14.7202C16.9981 14.5518 17.8754 14.6383 18.6728 14.9685C19.4701 15.2988 20.1516 15.8581 20.631 16.5757C21.1105 17.2933 21.3665 18.137 21.3665 19C21.3665 20.1573 20.9068 21.2672 20.0884 22.0856C19.2701 22.9039 18.1601 23.3636 17.0028 23.3636Z" fill="#1E1F4B"/>
<path d="M17.0021 16.1099C16.4306 16.1099 15.872 16.2794 15.3968 16.5969C14.9216 16.9144 14.5512 17.3656 14.3325 17.8936C14.1138 18.4216 14.0566 19.0025 14.1681 19.563C14.2796 20.1235 14.5548 20.6384 14.9589 21.0425C15.363 21.4466 15.8778 21.7218 16.4383 21.8333C16.9988 21.9448 17.5799 21.8876 18.1079 21.6689C18.6359 21.4502 19.0871 21.0798 19.4046 20.6046C19.7221 20.1295 19.8915 19.5708 19.8915 18.9993C19.8915 18.233 19.5871 17.4981 19.0452 16.9562C18.5033 16.4143 17.7684 16.1099 17.0021 16.1099ZM17.0021 20.4444C16.7163 20.4444 16.4368 20.3597 16.1992 20.2009C15.9615 20.0421 15.7764 19.8164 15.667 19.5523C15.5577 19.2883 15.5291 18.9977 15.5848 18.7174C15.6406 18.4371 15.7781 18.1796 15.9802 17.9775C16.1823 17.7754 16.4398 17.6378 16.7201 17.582C17.0004 17.5263 17.2911 17.5549 17.5552 17.6642C17.8192 17.7736 18.0448 17.9588 18.2036 18.1965C18.3624 18.4341 18.4472 18.7135 18.4472 18.9993C18.447 19.3825 18.2947 19.75 18.0237 20.021C17.7528 20.2919 17.3853 20.4442 17.0021 20.4444Z" fill="#1E1F4B"/>
</svg>
