<svg width="35" height="35" viewBox="0 0 35 35" fill="none" xmlns="http://www.w3.org/2000/svg">
<path d="M24.348 0H10.435C4.67191 0 0 4.67191 0 10.435V24.348C0 30.1111 4.67191 34.783 10.435 34.783H24.348C30.1111 34.783 34.783 30.1111 34.783 24.348V10.435C34.783 4.67191 30.1111 0 24.348 0Z" fill="white"/>
<path d="M23.3661 16.3636H22.0463C21.9041 15.2435 21.3938 14.2023 20.5955 13.4036C19.7973 12.6049 18.7565 12.094 17.6364 11.9511V10.6364C17.6364 10.4676 17.5693 10.3057 17.4499 10.1864C17.3306 10.0671 17.1688 10 17 10C16.8312 10 16.6693 10.0671 16.5499 10.1864C16.4306 10.3057 16.3636 10.4676 16.3636 10.6364V11.9511C15.2431 12.0935 14.2015 12.6041 13.4027 13.4029C12.604 14.2016 12.0934 15.2431 11.951 16.3636H10.6364C10.4676 16.3636 10.3056 16.4307 10.1863 16.55C10.0669 16.6694 10 16.8312 10 17C10 17.1688 10.0669 17.3307 10.1863 17.45C10.3056 17.5693 10.4676 17.6364 10.6364 17.6364H11.951C12.0937 18.7563 12.6043 19.7972 13.4026 20.5955C14.2009 21.3938 15.2417 21.9044 16.3616 22.047V23.3636C16.3616 23.5324 16.4287 23.6943 16.5481 23.8136C16.6674 23.933 16.8292 24 16.998 24C17.1668 24 17.3287 23.933 17.4481 23.8136C17.5674 23.6943 17.6343 23.5324 17.6343 23.3636V22.0438C18.7543 21.9013 19.7954 21.3907 20.5937 20.5924C21.392 19.7941 21.9025 18.7532 22.0451 17.6332H23.3616C23.5304 17.6332 23.6924 17.5662 23.8117 17.4468C23.931 17.3275 23.998 17.1656 23.998 16.9968C23.998 16.828 23.931 16.6662 23.8117 16.5468C23.6924 16.4275 23.5304 16.3605 23.3616 16.3605L23.3661 16.3636ZM17.0025 20.8182C16.2473 20.8182 15.5091 20.5943 14.8812 20.1747C14.2533 19.7552 13.764 19.1589 13.475 18.4612C13.186 17.7635 13.1103 16.9958 13.2576 16.2551C13.405 15.5145 13.7686 14.8341 14.3026 14.3002C14.8366 13.7662 15.517 13.4025 16.2577 13.2552C16.9983 13.1079 17.766 13.1835 18.4637 13.4725C19.1613 13.7615 19.7576 14.2509 20.1772 14.8788C20.5967 15.5067 20.8207 16.2448 20.8207 17C20.8207 18.0126 20.4184 18.9838 19.7024 19.6999C18.9863 20.4159 18.0151 20.8182 17.0025 20.8182Z" fill="#1E1F4B"/>
<path d="M17.0018 14.4711C16.5018 14.4711 16.013 14.6194 15.5972 14.8972C15.1814 15.175 14.8573 15.5699 14.6659 16.0318C14.4746 16.4938 14.4245 17.0022 14.5221 17.4926C14.6196 17.983 14.8605 18.4335 15.2141 18.7871C15.5677 19.1407 16.0181 19.3815 16.5085 19.4791C16.999 19.5766 17.5074 19.5265 17.9694 19.3352C18.4314 19.1438 18.8262 18.8198 19.104 18.404C19.3818 17.9882 19.53 17.4994 19.53 16.9994C19.53 16.3288 19.2637 15.6857 18.7896 15.2116C18.3154 14.7375 17.6724 14.4711 17.0018 14.4711ZM17.0018 18.2638C16.7517 18.2638 16.5072 18.1897 16.2993 18.0507C16.0913 17.9118 15.9294 17.7143 15.8337 17.4832C15.7379 17.2522 15.7129 16.998 15.7617 16.7527C15.8105 16.5074 15.9309 16.2821 16.1077 16.1052C16.2845 15.9284 16.5098 15.808 16.7551 15.7592C17.0004 15.7104 17.2547 15.7354 17.4858 15.8311C17.7168 15.9269 17.9142 16.0889 18.0532 16.2968C18.1921 16.5048 18.2663 16.7493 18.2663 16.9994C18.2661 17.3347 18.1329 17.6562 17.8958 17.8933C17.6587 18.1304 17.3371 18.2636 17.0018 18.2638Z" fill="#1E1F4B"/>
</svg>
