<svg width="34" height="34" viewBox="0 0 34 34" fill="none" xmlns="http://www.w3.org/2000/svg">
<path d="M27.9411 0.78299H6.72412C3.41041 0.78299 0.724121 3.46928 0.724121 6.78299V28C0.724121 31.3137 3.41041 34 6.72412 34H27.9411C31.2548 34 33.9411 31.3137 33.9411 28V6.78299C33.9411 3.46928 31.2548 0.78299 27.9411 0.78299Z" fill="#22B07D"/>
<path d="M25.5142 21.727L22.8842 19.889C22.543 19.6502 22.1366 19.5224 21.7202 19.523C21.3933 19.5231 21.0713 19.6022 20.7816 19.7535C20.4919 19.9048 20.2431 20.1238 20.0562 20.392L19.4452 21.267C18.2769 20.4605 17.1874 19.5454 16.1912 18.534C15.18 17.5376 14.265 16.4481 13.4582 15.28L14.3322 14.669C14.5517 14.517 14.739 14.323 14.883 14.0981C15.027 13.8732 15.125 13.622 15.1712 13.359C15.2181 13.0963 15.2125 12.827 15.1549 12.5664C15.0972 12.3059 14.9886 12.0594 14.8352 11.841L13.0002 9.20999C12.8147 8.94124 12.5671 8.72113 12.2785 8.5683C11.9899 8.41547 11.6687 8.33442 11.3422 8.332C11.1166 8.33178 10.8928 8.37175 10.6812 8.45001C10.4418 8.53782 10.2122 8.65043 9.99617 8.78601L9.63319 9.04199C9.54324 9.11299 9.45776 9.18948 9.37721 9.271C8.92289 9.73366 8.60014 10.3091 8.44222 10.938C7.68422 13.776 9.56018 18.069 13.1102 21.618C16.0902 24.599 19.6712 26.45 22.4552 26.451C22.9055 26.454 23.3542 26.3986 23.7902 26.286C24.4191 26.1274 24.9947 25.8048 25.4582 25.351C25.5437 25.2656 25.6235 25.1747 25.6972 25.079L25.9532 24.714C26.0839 24.5034 26.1925 24.2799 26.2772 24.047C26.4241 23.6303 26.4289 23.1767 26.2909 22.757C26.1529 22.3373 25.8798 21.9751 25.5142 21.727Z" fill="white"/>
</svg>
