<svg width="16" height="16" viewBox="0 0 16 16" fill="none" xmlns="http://www.w3.org/2000/svg">
<path d="M8 16C12.4183 16 16 12.4183 16 8C16 3.58172 12.4183 0 8 0C3.58172 0 0 3.58172 0 8C0 12.4183 3.58172 16 8 16Z" fill="#3972FE"/>
<path d="M4.544 10.176V11.056C4.544 11.1604 4.58547 11.2605 4.65928 11.3343C4.7331 11.4081 4.83321 11.4496 4.9376 11.4496H5.81758C5.86928 11.4496 5.9205 11.4395 5.96827 11.4197C6.01604 11.3999 6.05944 11.3709 6.096 11.3344L9.94962 7.4808C9.98667 7.44419 10.0161 7.40059 10.0361 7.35253C10.0562 7.30447 10.0666 7.25289 10.0666 7.2008C10.0666 7.14871 10.0562 7.09714 10.0361 7.04908C10.0161 7.00101 9.98667 6.95741 9.94962 6.9208L9.06959 6.0408C9.03298 6.00375 8.98938 5.97432 8.94131 5.95424C8.89325 5.93417 8.8417 5.92383 8.78961 5.92383C8.73752 5.92383 8.68596 5.93417 8.6379 5.95424C8.58983 5.97432 8.54619 6.00375 8.50958 6.0408L4.65601 9.8944C4.61966 9.93161 4.59106 9.97565 4.57183 10.024C4.55261 10.0723 4.54313 10.124 4.544 10.176Z" fill="white"/>
<path d="M11.3441 6.09598L10.8122 6.62798C10.7672 6.67293 10.7061 6.69817 10.6425 6.69817C10.5789 6.69817 10.5179 6.67293 10.4729 6.62798L9.37534 5.53038C9.3304 5.48538 9.30518 5.42439 9.30518 5.36078C9.30518 5.29718 9.3304 5.23618 9.37534 5.19118L9.90732 4.65919C9.97955 4.58752 10.0772 4.5473 10.179 4.5473C10.2807 4.5473 10.3783 4.58752 10.4505 4.65919L11.3441 5.55359C11.3798 5.58918 11.4081 5.63145 11.4274 5.67798C11.4467 5.72452 11.4566 5.7744 11.4566 5.82478C11.4566 5.87516 11.4467 5.92505 11.4274 5.97158C11.4081 6.01812 11.3798 6.06039 11.3441 6.09598Z" fill="white"/>
<path d="M11.3441 6.09598L10.8122 6.62798C10.7672 6.67293 10.7061 6.69817 10.6425 6.69817C10.5789 6.69817 10.5179 6.67293 10.4729 6.62798L9.37534 5.53038C9.3304 5.48538 9.30518 5.42439 9.30518 5.36078C9.30518 5.29718 9.3304 5.23618 9.37534 5.19118L9.90732 4.65919C9.97955 4.58752 10.0772 4.5473 10.179 4.5473C10.2807 4.5473 10.3783 4.58752 10.4505 4.65919L11.3441 5.55359C11.3798 5.58918 11.4081 5.63145 11.4274 5.67798C11.4467 5.72452 11.4566 5.7744 11.4566 5.82478C11.4566 5.87516 11.4467 5.92505 11.4274 5.97158C11.4081 6.01812 11.3798 6.06039 11.3441 6.09598Z" fill="white"/>
</svg>
