<svg width="13" height="13" viewBox="0 0 13 13" fill="none" xmlns="http://www.w3.org/2000/svg">
<g id="Group 1321">
<path id="Path 2469" d="M12.408 6.2C12.408 4.6087 11.7759 3.08257 10.6506 1.95735C9.52542 0.832133 7.99926 0.199997 6.40796 0.199997C4.81666 0.199997 3.2905 0.832133 2.16528 1.95735C1.04006 3.08257 0.407959 4.6087 0.407959 6.2C0.407812 7.629 0.917792 9.01114 1.84595 10.0977C2.7741 11.1842 4.05948 11.9038 5.47095 12.127V7.935H3.948V6.2H5.47095V4.87801C5.43823 4.56934 5.47388 4.25725 5.5752 3.96385C5.67652 3.67046 5.84116 3.40294 6.05737 3.18024C6.27359 2.95753 6.53614 2.78509 6.82642 2.67514C7.11669 2.56519 7.42756 2.52043 7.73706 2.54401C8.18698 2.55022 8.63586 2.58931 9.08008 2.661V4.138H8.32397C8.19504 4.12083 8.06383 4.13288 7.94019 4.17328C7.81654 4.21368 7.70355 4.28138 7.60962 4.37137C7.51569 4.46136 7.44336 4.57133 7.39771 4.69313C7.35205 4.81493 7.33431 4.94544 7.34595 5.075V6.2H9.01001L8.7439 7.935H7.34399V12.127C8.75565 11.9041 10.0414 11.1845 10.9697 10.098C11.8981 9.01141 12.4081 7.62915 12.408 6.2Z" fill="#1677F0"/>
<path id="Path 2470" d="M8.7439 7.932L9.01001 6.197H7.34595V5.072C7.33431 4.94245 7.35205 4.81192 7.39771 4.69012C7.44336 4.56832 7.51569 4.45835 7.60962 4.36836C7.70355 4.27837 7.81654 4.21067 7.94019 4.17027C8.06383 4.12987 8.19504 4.11782 8.32397 4.13499H9.08008V2.658C8.63586 2.58631 8.18698 2.54721 7.73706 2.541C7.42756 2.51742 7.11669 2.5622 6.82642 2.67215C6.53614 2.78209 6.27359 2.95452 6.05737 3.17723C5.84116 3.39993 5.67652 3.66745 5.5752 3.96084C5.47388 4.25424 5.43823 4.56633 5.47095 4.875V6.19999H3.948V7.93499H5.47095V12.127C5.78091 12.1756 6.0942 12.2001 6.40796 12.2C6.72205 12.2001 7.03566 12.1757 7.34595 12.127V7.93499L8.7439 7.932Z" fill="white"/>
</g>
</svg>
