<svg width="25" height="25" viewBox="0 0 25 25" fill="none" xmlns="http://www.w3.org/2000/svg">
<g id="Group 1310">
<path id="Path 2454" d="M5.97192 20.436C3.95492 20.436 1.81201 21.103 1.81201 22.336C1.81201 23.569 3.95492 24.236 5.97192 24.236C7.98892 24.236 10.1311 23.569 10.1311 22.336C10.1311 21.103 7.98792 20.436 5.97192 20.436Z" fill="#FFDB56"/>
<path id="Path 2455" d="M5.97192 7.457C4.41169 7.45885 2.91599 8.07946 1.81274 9.18271C0.709494 10.286 0.0887666 11.7818 0.0869141 13.342C0.0869141 15.356 1.04504 17.522 2.93604 19.78C3.78284 20.7949 4.72745 21.724 5.7561 22.554C5.81773 22.6022 5.89365 22.6283 5.97192 22.628C6.04991 22.6284 6.1258 22.6023 6.18701 22.554C7.21579 21.7238 8.16069 20.7947 9.00806 19.78C10.8981 17.522 11.856 15.356 11.856 13.342C11.8544 11.7819 11.234 10.286 10.1309 9.18277C9.02777 8.07949 7.53206 7.45885 5.97192 7.457ZM8.17798 13.342C8.17798 13.9272 7.94566 14.4884 7.53198 14.9022C7.11831 15.3161 6.55708 15.5487 5.97192 15.549C5.38659 15.549 4.82527 15.3165 4.41138 14.9026C3.99748 14.4887 3.76489 13.9273 3.76489 13.342C3.76489 12.7567 3.99748 12.1953 4.41138 11.7814C4.82527 11.3675 5.38659 11.135 5.97192 11.135C6.55708 11.1353 7.11831 11.3679 7.53198 11.7818C7.94566 12.1956 8.17798 12.7569 8.17798 13.342Z" fill="#FF4A4A"/>
<path id="Path 2456" d="M21.6631 10.593C20.9595 10.3319 20.2132 10.2047 19.4629 10.218C18.7126 10.2048 17.9665 10.332 17.2629 10.593C16.5689 10.876 16.187 11.293 16.187 11.763C16.187 12.233 16.5689 12.649 17.2629 12.932C17.9665 13.193 18.7126 13.3202 19.4629 13.307C20.2132 13.3202 20.9595 13.193 21.6631 12.932C22.3571 12.649 22.74 12.232 22.74 11.763C22.74 11.294 22.3571 10.876 21.6631 10.593Z" fill="#FFDB56"/>
<g id="Group 1308">
<path id="Path 2457" d="M5.97192 23.364C4.20892 23.364 2.34894 22.854 1.90894 21.9C1.84393 22.0376 1.80994 22.1878 1.80908 22.34C1.80908 23.576 3.95199 24.24 5.96899 24.24C7.98599 24.24 10.1279 23.573 10.1279 22.34C10.1271 22.1878 10.0931 22.0376 10.0281 21.9C9.59408 22.854 7.73392 23.364 5.97192 23.364Z" fill="#FFBB24"/>
<path id="Path 2458" d="M21.6631 12.053C20.9595 12.3141 20.2132 12.4413 19.4629 12.428C18.7126 12.4412 17.9665 12.314 17.2629 12.053C16.8722 11.9219 16.5357 11.6652 16.3059 11.323C16.2287 11.4568 16.1878 11.6085 16.187 11.763C16.187 12.234 16.5689 12.649 17.2629 12.932C17.9665 13.193 18.7126 13.3202 19.4629 13.307C20.2132 13.3203 20.9595 13.1931 21.6631 12.932C22.3581 12.649 22.74 12.232 22.74 11.763C22.7393 11.6083 22.698 11.4566 22.6201 11.323C22.3906 11.6654 22.054 11.9221 21.6631 12.053Z" fill="#FFBB24"/>
</g>
<path id="Path 2459" d="M19.4609 0.243011C18.2418 0.245653 17.0733 0.731136 16.2112 1.59323C15.3491 2.45533 14.8637 3.6238 14.8611 4.84299C14.9892 6.71672 15.7706 8.48613 17.0691 9.84299C17.7243 10.6272 18.4547 11.3453 19.25 11.987C19.3114 12.0349 19.3872 12.061 19.4651 12.061C19.5433 12.0608 19.619 12.0348 19.6809 11.987C20.4757 11.3451 21.206 10.627 21.8611 9.84299C23.1598 8.48622 23.9412 6.71676 24.0691 4.84299C24.0667 3.62234 23.5802 2.4525 22.7163 1.59012C21.8524 0.727737 20.6816 0.243274 19.4609 0.243011ZM21.1609 4.84299C21.1609 5.29386 20.9819 5.72626 20.6631 6.04507C20.3443 6.36389 19.9118 6.543 19.4609 6.543C19.0101 6.543 18.5778 6.36389 18.259 6.04507C17.9402 5.72626 17.761 5.29386 17.761 4.84299C17.761 4.39212 17.9402 3.95974 18.259 3.64093C18.5778 3.32212 19.0101 3.14301 19.4609 3.14301C19.6842 3.14353 19.9053 3.18801 20.1113 3.27393C20.3174 3.35984 20.5044 3.48551 20.6619 3.64374C20.8194 3.80197 20.9441 3.98968 21.0291 4.19614C21.114 4.40259 21.1575 4.62374 21.157 4.84698L21.1609 4.84299Z" fill="#FF4A4A"/>
<g id="Group 1309">
<path id="Path 2460" d="M5.97192 7.457C5.75038 7.45699 5.52917 7.46968 5.30908 7.495C6.745 7.65959 8.07031 8.34624 9.03296 9.42432C9.99561 10.5024 10.5284 11.8967 10.53 13.342C10.53 15.356 9.57188 17.522 7.68188 19.78C6.95554 20.6414 6.16225 21.4439 5.30908 22.18C5.57208 22.406 5.7371 22.535 5.7561 22.549C5.81799 22.5968 5.89374 22.6228 5.97192 22.623C6.04983 22.6229 6.12558 22.5969 6.18701 22.549C7.21579 21.7188 8.16069 20.7897 9.00806 19.775C10.8981 17.517 11.856 15.351 11.856 13.337C11.853 11.7777 11.2321 10.2832 10.1292 9.181C9.0262 8.0788 7.5312 7.45885 5.97192 7.457Z" fill="#E7343F"/>
<path id="Path 2461" d="M19.4609 0.243011C19.2391 0.243286 19.0177 0.2593 18.7981 0.290985C19.8922 0.451638 20.8921 1.00011 21.6157 1.8364C22.3393 2.67268 22.7383 3.74111 22.74 4.84698C22.6121 6.72075 21.8307 8.49022 20.532 9.84698C19.9997 10.4801 19.4202 11.0719 18.7981 11.617C19.0601 11.847 19.2291 11.978 19.2461 11.991C19.3075 12.0389 19.383 12.065 19.4609 12.065C19.5391 12.0648 19.6151 12.0388 19.677 11.991C20.4718 11.3491 21.2019 10.631 21.8569 9.84698C23.1556 8.49022 23.937 6.72075 24.0649 4.84698C24.0636 3.62633 23.5782 2.45609 22.7151 1.59296C21.852 0.729826 20.6816 0.244335 19.4609 0.243011Z" fill="#E7343F"/>
</g>
<path id="Path 2462" d="M11.4309 22.692C11.3379 22.692 11.2488 22.6552 11.1829 22.5896C11.1169 22.524 11.0796 22.435 11.0791 22.342C11.0788 22.2958 11.0875 22.25 11.105 22.2072C11.1224 22.1644 11.1482 22.1254 11.1807 22.0925C11.2132 22.0596 11.2518 22.0335 11.2944 22.0156C11.337 21.9976 11.3827 21.9883 11.429 21.988H11.894C11.987 21.988 12.0761 22.0249 12.1419 22.0905C12.2076 22.1561 12.2449 22.2451 12.2451 22.338C12.2455 22.3843 12.2366 22.4302 12.2192 22.473C12.2018 22.5159 12.1761 22.5549 12.1436 22.5878C12.111 22.6207 12.0725 22.6468 12.0298 22.6647C11.9871 22.6826 11.9413 22.6919 11.895 22.692H11.4309ZM13.29 22.683C13.244 22.6832 13.1982 22.6742 13.1555 22.6567C13.1129 22.6392 13.0742 22.6134 13.0415 22.5809C13.0088 22.5484 12.9829 22.5098 12.9651 22.4673C12.9473 22.4247 12.9381 22.3791 12.938 22.333C12.9377 22.2868 12.9467 22.2411 12.9641 22.1983C12.9816 22.1556 13.0073 22.1167 13.0398 22.0839C13.0723 22.0511 13.111 22.025 13.1536 22.0072C13.1962 21.9894 13.2419 21.9802 13.2881 21.98H13.7529C13.846 21.9803 13.9353 22.0173 14.0012 22.0831C14.0672 22.1488 14.1045 22.2379 14.105 22.331C14.1052 22.3773 14.0964 22.4231 14.0789 22.466C14.0613 22.5088 14.0356 22.5477 14.0029 22.5805C13.9703 22.6133 13.9314 22.6394 13.8887 22.6571C13.846 22.6749 13.8002 22.684 13.7539 22.684L13.29 22.683ZM15.1489 22.675C15.0559 22.675 14.9668 22.6382 14.9009 22.5726C14.8349 22.507 14.7977 22.418 14.7971 22.325C14.7969 22.2316 14.8336 22.1418 14.8994 22.0755C14.9652 22.0091 15.0545 21.9715 15.148 21.971H15.613C15.6591 21.9709 15.7047 21.9798 15.7473 21.9974C15.79 22.0149 15.8289 22.0406 15.8616 22.0731C15.8943 22.1056 15.9202 22.1442 15.938 22.1868C15.9558 22.2293 15.965 22.2749 15.9651 22.321C15.9654 22.3673 15.9564 22.4131 15.939 22.4559C15.9215 22.4987 15.8958 22.5376 15.8633 22.5705C15.8308 22.6034 15.7921 22.6295 15.7495 22.6474C15.7069 22.6654 15.6612 22.6747 15.615 22.675H15.1489ZM17.009 22.667C16.9159 22.667 16.8265 22.6301 16.7605 22.5643C16.6945 22.4985 16.6573 22.4092 16.657 22.316C16.6567 22.2228 16.6934 22.1334 16.759 22.0672C16.8246 22.001 16.9139 21.9636 17.0071 21.963H17.4719C17.5648 21.963 17.6539 21.9999 17.7197 22.0655C17.7855 22.1311 17.8227 22.2201 17.823 22.313C17.8234 22.3592 17.8145 22.405 17.7971 22.4479C17.7797 22.4907 17.754 22.5296 17.7214 22.5625C17.6889 22.5953 17.6503 22.6213 17.6077 22.6391C17.565 22.6569 17.5191 22.666 17.4729 22.666H17.0081L17.009 22.667ZM18.8679 22.658C18.8218 22.6581 18.7763 22.6492 18.7336 22.6317C18.691 22.6141 18.6523 22.5884 18.6196 22.5559C18.5869 22.5234 18.561 22.4848 18.5432 22.4423C18.5255 22.3997 18.5163 22.3541 18.5161 22.308C18.5159 22.2618 18.5246 22.216 18.542 22.1732C18.5594 22.1304 18.5852 22.0914 18.6177 22.0585C18.6502 22.0256 18.6888 21.9995 18.7315 21.9816C18.7741 21.9636 18.8197 21.9543 18.866 21.954H19.3311C19.4242 21.9543 19.5134 21.9913 19.5794 22.057C19.6453 22.1228 19.6826 22.2119 19.6831 22.305C19.6832 22.3512 19.6741 22.397 19.6565 22.4398C19.6389 22.4826 19.6132 22.5214 19.5806 22.5542C19.548 22.587 19.5092 22.613 19.4666 22.6308C19.4239 22.6487 19.3783 22.6579 19.332 22.658H18.8679ZM20.7271 22.65C20.634 22.6497 20.5447 22.6127 20.4788 22.547C20.4128 22.4812 20.3755 22.3921 20.375 22.299C20.3749 22.2528 20.3838 22.207 20.4014 22.1642C20.4189 22.1215 20.4447 22.0826 20.4773 22.0498C20.5099 22.017 20.5487 21.991 20.5913 21.9732C20.634 21.9554 20.6799 21.9462 20.7261 21.946H20.792C20.9094 21.9452 21.0267 21.9368 21.1431 21.921C21.1891 21.9141 21.2359 21.9164 21.281 21.9278C21.3261 21.9392 21.3685 21.9594 21.4058 21.9873C21.443 22.0152 21.4743 22.0503 21.4978 22.0904C21.5214 22.1305 21.5367 22.1749 21.543 22.221C21.5498 22.267 21.5473 22.3139 21.5359 22.3589C21.5245 22.404 21.5042 22.4463 21.4763 22.4835C21.4484 22.5207 21.4136 22.552 21.3735 22.5756C21.3335 22.5992 21.289 22.6146 21.2429 22.621C21.0958 22.6414 20.9476 22.6517 20.7991 22.652H20.731L20.7271 22.65ZM22.478 22.12C22.4211 22.1201 22.3651 22.1063 22.3147 22.0798C22.2643 22.0533 22.2212 22.0149 22.189 21.968C22.1626 21.93 22.1439 21.8873 22.134 21.8421C22.1242 21.7969 22.1234 21.7503 22.1316 21.7048C22.1398 21.6593 22.1567 21.6158 22.1816 21.5769C22.2066 21.538 22.2392 21.5044 22.2771 21.478C22.3897 21.4001 22.4959 21.3135 22.595 21.219C22.6286 21.1869 22.6681 21.1617 22.7114 21.1449C22.7548 21.1282 22.801 21.1201 22.8474 21.1212C22.8939 21.1223 22.9397 21.1326 22.9822 21.1514C23.0247 21.1703 23.063 21.1973 23.095 21.231C23.1271 21.2646 23.1524 21.3042 23.1692 21.3475C23.186 21.3908 23.194 21.437 23.1929 21.4835C23.1918 21.53 23.1814 21.5757 23.1626 21.6182C23.1438 21.6607 23.1167 21.699 23.083 21.731C22.9581 21.8502 22.8245 21.9599 22.6831 22.059C22.6227 22.1 22.551 22.1214 22.478 22.12ZM23.5911 20.668C23.5509 20.6682 23.5108 20.6614 23.4729 20.648C23.4294 20.6325 23.3895 20.6085 23.3552 20.5774C23.321 20.5464 23.293 20.5089 23.2732 20.4671C23.2534 20.4254 23.2423 20.3801 23.24 20.3339C23.2377 20.2877 23.2444 20.2415 23.26 20.198C23.3054 20.0692 23.3408 19.9372 23.366 19.803C23.3834 19.7114 23.4364 19.6304 23.5134 19.5777C23.5904 19.5251 23.6854 19.505 23.7771 19.522C23.8225 19.5305 23.8658 19.548 23.9045 19.5732C23.9433 19.5985 23.9766 19.6311 24.0027 19.6693C24.0288 19.7075 24.0471 19.7504 24.0566 19.7956C24.0661 19.8409 24.0667 19.8876 24.0581 19.933C24.0262 20.1031 23.9807 20.2703 23.9221 20.433C23.8981 20.5017 23.8532 20.5611 23.794 20.6032C23.7347 20.6453 23.6638 20.668 23.5911 20.668ZM23.648 18.84C23.5715 18.8401 23.4973 18.8152 23.4363 18.7692C23.3753 18.7232 23.331 18.6585 23.3101 18.585C23.2721 18.4539 23.2243 18.3259 23.167 18.202C23.1474 18.1601 23.1363 18.1148 23.1343 18.0686C23.1322 18.0224 23.1392 17.9762 23.155 17.9328C23.1708 17.8893 23.1951 17.8494 23.2263 17.8153C23.2575 17.7812 23.295 17.7536 23.3369 17.734C23.3787 17.7145 23.4241 17.7033 23.4702 17.7013C23.5163 17.6993 23.5623 17.7063 23.6057 17.7221C23.6491 17.7379 23.6889 17.7621 23.7229 17.7933C23.7569 17.8245 23.7845 17.8621 23.804 17.904C23.8777 18.0613 23.939 18.2241 23.9871 18.391C24.0127 18.4808 24.0014 18.5771 23.9561 18.6586C23.9107 18.7402 23.8349 18.8004 23.7451 18.826C23.7137 18.8355 23.6808 18.8402 23.648 18.84ZM22.627 17.322C22.5481 17.3219 22.4716 17.2951 22.4099 17.246C22.302 17.1617 22.1882 17.0855 22.0691 17.018C21.9879 16.9722 21.928 16.896 21.9028 16.8062C21.8777 16.7164 21.8894 16.6203 21.9351 16.539C21.9577 16.4987 21.988 16.4632 22.0244 16.4346C22.0608 16.406 22.1026 16.3849 22.1472 16.3724C22.1918 16.36 22.2385 16.3565 22.2844 16.362C22.3304 16.3676 22.3747 16.3822 22.415 16.405C22.566 16.4901 22.71 16.5867 22.846 16.694C22.9191 16.7519 22.9664 16.8364 22.9773 16.929C22.9882 17.0216 22.9618 17.1148 22.9041 17.188C22.871 17.2298 22.8287 17.2636 22.7808 17.2868C22.7328 17.31 22.6803 17.322 22.627 17.322ZM20.9141 16.684H20.898H20.78H20.449C20.3556 16.684 20.2662 16.6469 20.2002 16.5809C20.1342 16.5149 20.0969 16.4254 20.0969 16.332C20.0972 16.2387 20.1345 16.1494 20.2004 16.0834C20.2664 16.0175 20.3557 15.9803 20.449 15.98H20.78C20.829 15.98 20.88 15.98 20.929 15.98C20.9752 15.9819 21.0208 15.993 21.0627 16.0126C21.1047 16.0322 21.1424 16.0598 21.1736 16.094C21.2048 16.1282 21.229 16.1683 21.2446 16.2119C21.2603 16.2555 21.2672 16.3017 21.2649 16.348C21.261 16.4385 21.2224 16.5239 21.157 16.5866C21.0916 16.6492 21.0046 16.6841 20.9141 16.684ZM19.0549 16.684H18.5901C18.5438 16.6841 18.4978 16.6751 18.4551 16.6575C18.4123 16.6398 18.3735 16.6139 18.3408 16.5812C18.3081 16.5485 18.2821 16.5096 18.2644 16.4669C18.2468 16.4241 18.2379 16.3783 18.238 16.332C18.238 16.2387 18.2751 16.1491 18.3411 16.0831C18.4071 16.0171 18.4967 15.98 18.5901 15.98H19.0549C19.1482 15.9803 19.2378 16.0175 19.3037 16.0834C19.3697 16.1494 19.4067 16.2387 19.407 16.332C19.4062 16.4248 19.3687 16.5136 19.3027 16.579C19.2368 16.6444 19.1478 16.681 19.0549 16.681V16.684ZM17.1951 16.684H16.731C16.6847 16.6841 16.639 16.6751 16.5962 16.6575C16.5534 16.6398 16.5144 16.6139 16.4817 16.5812C16.449 16.5485 16.4232 16.5096 16.4055 16.4669C16.3879 16.4241 16.3788 16.3783 16.3789 16.332C16.3789 16.2387 16.4162 16.1491 16.4822 16.0831C16.5482 16.0171 16.6376 15.98 16.731 15.98H17.1951C17.2884 15.98 17.3778 16.0171 17.4439 16.0831C17.5099 16.1491 17.5471 16.2387 17.5471 16.332C17.5466 16.4241 17.5097 16.5122 17.4448 16.5775C17.3799 16.6428 17.292 16.68 17.2 16.681L17.1951 16.684ZM15.3359 16.684H14.8711C14.7777 16.684 14.6881 16.6469 14.6221 16.5809C14.5561 16.5149 14.519 16.4254 14.519 16.332C14.5193 16.2387 14.5564 16.1494 14.6223 16.0834C14.6883 16.0175 14.7778 15.9803 14.8711 15.98H15.3359C15.4292 15.9803 15.5188 16.0175 15.5847 16.0834C15.6507 16.1494 15.6877 16.2387 15.688 16.332C15.6872 16.4248 15.6497 16.5136 15.5837 16.579C15.5178 16.6444 15.4288 16.681 15.3359 16.681V16.684ZM13.543 16.334C13.4768 16.3337 13.4121 16.315 13.356 16.28C13.2047 16.1843 13.0634 16.0738 12.9341 15.95C12.9005 15.9179 12.8737 15.8794 12.855 15.8369C12.8363 15.7944 12.8261 15.7486 12.8252 15.7021C12.8243 15.6556 12.8324 15.6095 12.8494 15.5662C12.8663 15.5229 12.8918 15.4835 12.9241 15.45C12.9562 15.4165 12.9946 15.3896 13.0371 15.3709C13.0797 15.3522 13.1254 15.3421 13.1719 15.3412C13.2183 15.3403 13.2646 15.3485 13.3079 15.3655C13.3511 15.3824 13.3906 15.4078 13.4241 15.44C13.5184 15.5311 13.6218 15.6122 13.7329 15.682C13.7721 15.7067 13.806 15.7388 13.8328 15.7766C13.8595 15.8144 13.8787 15.8571 13.8889 15.9022C13.8991 15.9473 13.9002 15.994 13.8923 16.0397C13.8845 16.0853 13.8678 16.1289 13.843 16.168C13.811 16.2184 13.7666 16.2598 13.7141 16.2883C13.6616 16.3168 13.6027 16.3315 13.543 16.331V16.334ZM12.52 14.843C12.4384 14.8429 12.3593 14.8144 12.2964 14.7624C12.2335 14.7104 12.1906 14.6382 12.1751 14.558C12.1427 14.3916 12.1262 14.2225 12.126 14.053V14.025C12.1268 13.9324 12.1642 13.8439 12.23 13.7788C12.2957 13.7136 12.3845 13.677 12.4771 13.677C12.5702 13.6783 12.6591 13.7165 12.7241 13.7833C12.7892 13.85 12.825 13.9398 12.824 14.033V14.053C12.8239 14.1776 12.8361 14.3018 12.8601 14.424C12.869 14.4694 12.8688 14.5161 12.8596 14.5614C12.8505 14.6067 12.8325 14.6497 12.8066 14.6881C12.7808 14.7264 12.7475 14.7593 12.709 14.7849C12.6705 14.8104 12.6274 14.8282 12.582 14.837C12.5615 14.8396 12.5407 14.8406 12.52 14.84V14.843ZM12.905 13.077C12.8315 13.0768 12.7598 13.0537 12.7 13.011C12.6244 12.9564 12.5735 12.8742 12.5584 12.7822C12.5432 12.6902 12.5648 12.596 12.6189 12.52C12.7234 12.375 12.8426 12.241 12.9741 12.12C13.0081 12.0881 13.0479 12.0634 13.0916 12.0471C13.1352 12.0308 13.1817 12.0234 13.2283 12.0253C13.2748 12.0271 13.3204 12.0382 13.3626 12.0579C13.4048 12.0776 13.4428 12.1055 13.4741 12.14C13.506 12.174 13.5306 12.2139 13.5469 12.2576C13.5631 12.3012 13.5707 12.3477 13.5689 12.3942C13.567 12.4407 13.5558 12.4864 13.5361 12.5286C13.5164 12.5708 13.4886 12.6087 13.4541 12.64C13.3579 12.7291 13.2708 12.8276 13.1941 12.934C13.1605 12.9786 13.1167 13.0145 13.0664 13.0389C13.0162 13.0632 12.9609 13.0753 12.905 13.074V13.077ZM14.4541 12.145C14.3697 12.1454 14.2878 12.1152 14.2239 12.0601C14.1599 12.005 14.118 11.9286 14.106 11.845C14.099 11.799 14.1014 11.7521 14.1128 11.707C14.1242 11.6619 14.1445 11.6194 14.1724 11.5822C14.2003 11.545 14.2353 11.5137 14.2754 11.4902C14.3155 11.4666 14.3599 11.4513 14.406 11.445C14.522 11.4293 14.6391 11.4216 14.7561 11.422H14.916C14.9622 11.4219 15.0078 11.4309 15.0505 11.4484C15.0932 11.466 15.1321 11.4919 15.1648 11.5245C15.1975 11.5571 15.2235 11.5958 15.2412 11.6385C15.2589 11.6811 15.2681 11.7268 15.2681 11.773C15.2682 11.8193 15.2591 11.8651 15.2415 11.9079C15.2238 11.9506 15.198 11.9895 15.1653 12.0222C15.1326 12.0549 15.0936 12.0808 15.0508 12.0985C15.008 12.1161 14.9623 12.1251 14.916 12.125H14.7561C14.6702 12.1251 14.5842 12.1308 14.499 12.142C14.484 12.1429 14.4691 12.1429 14.4541 12.142V12.145Z" fill="#1EA4E9"/>
</g>
</svg>
