<svg width="35" height="35" viewBox="0 0 35 35" fill="none" xmlns="http://www.w3.org/2000/svg">
<path d="M9.12294 14.724C9.34452 14.7188 9.55527 14.6268 9.70973 14.4678C9.8642 14.3089 9.9501 14.0957 9.94899 13.874V10.574H13.224C13.4465 10.574 13.6599 10.4856 13.8173 10.3283C13.9746 10.1709 14.063 9.95753 14.063 9.73502C14.063 9.5125 13.9746 9.2991 13.8173 9.14175C13.6599 8.98441 13.4465 8.896 13.224 8.896H9.11C8.88805 8.89783 8.67576 8.98682 8.51881 9.14377C8.36187 9.30072 8.27284 9.51306 8.27101 9.73502V13.87C8.27034 13.982 8.29188 14.093 8.33449 14.1965C8.37709 14.3001 8.4399 14.3941 8.51918 14.4732C8.59846 14.5523 8.69262 14.6149 8.79628 14.6572C8.89994 14.6996 9.01096 14.7209 9.12294 14.72V14.724Z" fill="#1E1F4B"/>
<path d="M25.6989 14.693C25.9208 14.6878 26.1318 14.5955 26.2863 14.4361C26.4408 14.2767 26.5266 14.063 26.525 13.841V9.72901C26.5231 9.50706 26.4341 9.29471 26.2772 9.13776C26.1202 8.98081 25.9079 8.89185 25.686 8.89002H21.5519C21.433 8.88798 21.315 8.91086 21.2055 8.95719C21.096 9.00352 20.9973 9.07225 20.916 9.159C20.7758 9.3155 20.6994 9.51891 20.702 9.72901C20.6996 9.93949 20.7755 10.1433 20.915 10.301C20.9969 10.3871 21.0957 10.4553 21.2054 10.5013C21.315 10.5472 21.4331 10.57 21.5519 10.568H24.8519V13.84C24.8508 13.9522 24.8722 14.0635 24.9146 14.1673C24.9571 14.2712 25.0197 14.3655 25.0991 14.4449C25.1784 14.5242 25.2728 14.5869 25.3766 14.6293C25.4805 14.6718 25.5917 14.6931 25.7039 14.692L25.6989 14.693Z" fill="#1E1F4B"/>
<path d="M25.666 25.879C25.8879 25.8769 26.1001 25.7878 26.257 25.6309C26.4139 25.474 26.5029 25.2619 26.505 25.04V20.906C26.5069 20.787 26.4841 20.669 26.438 20.5593C26.3919 20.4496 26.3233 20.3508 26.2369 20.269C26.1159 20.1565 25.9644 20.0822 25.8013 20.0555C25.6382 20.0288 25.4709 20.0508 25.3203 20.1189C25.1697 20.1869 25.0425 20.2979 24.9547 20.4379C24.867 20.5779 24.8226 20.7408 24.827 20.906V24.206H21.552C21.3295 24.206 21.1161 24.2944 20.9587 24.4517C20.8014 24.6091 20.713 24.8225 20.713 25.045C20.713 25.2675 20.8014 25.4809 20.9587 25.6383C21.1161 25.7956 21.3295 25.884 21.552 25.884L25.666 25.879Z" fill="#1E1F4B"/>
<path d="M13.224 25.89C13.3428 25.892 13.4607 25.8692 13.5702 25.823C13.6797 25.7769 13.7784 25.7084 13.86 25.622C13.9979 25.4638 14.0738 25.2609 14.0738 25.051C14.0738 24.8411 13.9979 24.6383 13.86 24.48C13.7784 24.3936 13.6797 24.3251 13.5702 24.279C13.4607 24.2328 13.3428 24.21 13.224 24.212H9.92395V20.94C9.92592 20.8212 9.9032 20.7033 9.85705 20.5938C9.81091 20.4843 9.74242 20.3856 9.656 20.304C9.49776 20.1661 9.29488 20.0901 9.08496 20.0901C8.87503 20.0901 8.67228 20.1661 8.51403 20.304C8.42762 20.3856 8.35913 20.4843 8.31298 20.5938C8.26684 20.7033 8.24399 20.8212 8.24597 20.94V25.054C8.2478 25.276 8.33682 25.4883 8.49377 25.6453C8.65072 25.8022 8.86301 25.8912 9.08496 25.893L13.224 25.89Z" fill="#1E1F4B"/>
</svg>
