<?xml version="1.0" encoding="utf-8"?>
<!-- Generator: Adobe Illustrator 26.1.0, SVG Export Plug-In . SVG Version: 6.00 Build 0)  -->
<svg version="1.1" id="Layer_1" xmlns="http://www.w3.org/2000/svg" xmlns:xlink="http://www.w3.org/1999/xlink" x="0px" y="0px"
	 viewBox="0 0 48 48" style="enable-background:new 0 0 48 48;" xml:space="preserve">
<style type="text/css">
	.st0{fill:#F9F9F9;}
	.st1{fill:url(#SVGID_1_);}
	.st2{fill:url(#SVGID_00000004544122734296226730000005592816107811347857_);}
	.st3{fill:url(#SVGID_00000021086634228167253360000014208622281492130700_);}
	.st4{fill:url(#SVGID_00000008861538763853229430000017541586880638233270_);}
	.st5{fill:url(#SVGID_00000055668095291597711900000016150460038249821568_);}
</style>
<path class="st0" d="M12,0h24c6.6,0,12,5.4,12,12v24c0,6.6-5.4,12-12,12H12C5.4,48,0,42.6,0,36V12C0,5.4,5.4,0,12,0z"/>
<g>
	
		<linearGradient id="SVGID_1_" gradientUnits="userSpaceOnUse" x1="27.7199" y1="11.9886" x2="18.2838" y2="21.424" gradientTransform="matrix(1 0 0 -1 0 50)">
		<stop  offset="0" style="stop-color:#34344F"/>
		<stop  offset="0.54" style="stop-color:#353551"/>
		<stop  offset="1" style="stop-color:#666684"/>
	</linearGradient>
	<ellipse class="st1" cx="23" cy="33.3" rx="9" ry="2.7"/>
	
		<linearGradient id="SVGID_00000088846255248862396250000009615117814671003803_" gradientUnits="userSpaceOnUse" x1="28.2758" y1="32.9782" x2="28.2758" y2="31.2632">
		<stop  offset="0" style="stop-color:#FFD2D2"/>
		<stop  offset="1" style="stop-color:#FFFFFF"/>
	</linearGradient>
	<path style="fill:url(#SVGID_00000088846255248862396250000009615117814671003803_);" d="M33.2,33h-9.8c-0.5,0-0.9-0.4-0.9-0.9v0
		c0-0.5,0.4-0.9,0.9-0.9h9.8c0.5,0,0.9,0.4,0.9,0.9v0C34,32.6,33.7,33,33.2,33z"/>
	
		<linearGradient id="SVGID_00000152244176047863352950000003784446779554224038_" gradientUnits="userSpaceOnUse" x1="27.3664" y1="30.9901" x2="27.3664" y2="29.2095">
		<stop  offset="0" style="stop-color:#FFD2D2"/>
		<stop  offset="1" style="stop-color:#FFFFFF"/>
	</linearGradient>
	<path style="fill:url(#SVGID_00000152244176047863352950000003784446779554224038_);" d="M31.3,31h-7.9c-0.5,0-0.9-0.4-0.9-0.9v0
		c0-0.5,0.4-0.9,0.9-0.9h7.9c0.5,0,0.9,0.4,0.9,0.9v0C32.2,30.6,31.8,31,31.3,31z"/>
	
		<linearGradient id="SVGID_00000144300993471923409490000001830741052199888006_" gradientUnits="userSpaceOnUse" x1="29.1003" y1="22.8004" x2="16.9038" y2="34.9969" gradientTransform="matrix(1 0 0 -1 0 50)">
		<stop  offset="0" style="stop-color:#EF3739"/>
		<stop  offset="0.54" style="stop-color:#EF3739"/>
		<stop  offset="1" style="stop-color:#FF8C8B"/>
	</linearGradient>
	<path style="fill:url(#SVGID_00000144300993471923409490000001830741052199888006_);" d="M28.6,14.5C27.1,12.9,25.1,12,23,12h-0.1
		c-4.2,0.1-8,4-8.1,8.2c0,0.9,0.1,1.9,0.5,2.7l0,0c0,0.1,1.7,4,7.1,9.7c0,0,0,0,0.1,0.1c0.3,0.3,0.7,0.3,1,0.1c0,0,0,0,0,0
		c2.1-2.1,3.9-4.3,5.5-6.8c1.2-1.8,1.7-2.9,1.7-3l0,0c0.3-0.9,0.5-1.8,0.5-2.7C31.1,18.2,30.2,16.1,28.6,14.5L28.6,14.5z"/>
	
		<linearGradient id="SVGID_00000135666126020177842720000014151889725274481537_" gradientUnits="userSpaceOnUse" x1="25.2805" y1="27.4295" x2="20.721" y2="31.9883" gradientTransform="matrix(1 0 0 -1 0 50)">
		<stop  offset="0" style="stop-color:#FFD2D2"/>
		<stop  offset="0.57" style="stop-color:#FFFFFF"/>
		<stop  offset="1" style="stop-color:#FFFFFF"/>
	</linearGradient>
	<path style="fill:url(#SVGID_00000135666126020177842720000014151889725274481537_);" d="M23,23.5c-1.8,0-3.2-1.4-3.2-3.2
		c0-1.8,1.5-3.2,3.2-3.2c1.8,0,3.2,1.5,3.2,3.2C26.2,22.1,24.8,23.5,23,23.5z"/>
</g>
</svg>
