<svg width="48" height="48" viewBox="0 0 48 48" fill="none" xmlns="http://www.w3.org/2000/svg">
<path d="M36 0H12C5.37258 0 0 5.37258 0 12V36C0 42.6274 5.37258 48 12 48H36C42.6274 48 48 42.6274 48 36V12C48 5.37258 42.6274 0 36 0Z" fill="#F9F9F9"/>
<path d="M23 36C27.9706 36 32 34.7912 32 33.3C32 31.8088 27.9706 30.6 23 30.6C18.0294 30.6 14 31.8088 14 33.3C14 34.7912 18.0294 36 23 36Z" fill="url(#paint0_linear_402_111)"/>
<path d="M33.2 33H23.4C22.9 33 22.5 32.6 22.5 32.1C22.5 31.6 22.9 31.2 23.4 31.2H33.2C33.7 31.2 34.1 31.6 34.1 32.1C34 32.6 33.7 33 33.2 33Z" fill="url(#paint1_linear_402_111)"/>
<path d="M31.3 31H23.4C22.9 31 22.5 30.6 22.5 30.1C22.5 29.6 22.9 29.2 23.4 29.2H31.3C31.8 29.2 32.2 29.6 32.2 30.1C32.2 30.6 31.8 31 31.3 31Z" fill="url(#paint2_linear_402_111)"/>
<path d="M28.6 14.5C27.1 12.9 25.1 12 23 12H22.9C18.7 12.1 14.9 16 14.8 20.2C14.8 21.1 14.9 22.1 15.3 22.9C15.3 23 17 26.9 22.4 32.6C22.4 32.6 22.4 32.6 22.5 32.7C22.8 33 23.2 33 23.5 32.8C25.6 30.7 27.4 28.5 29 26C30.2 24.2 30.7 23.1 30.7 23C31 22.1 31.2 21.2 31.2 20.3C31.1 18.2 30.2 16.1 28.6 14.5Z" fill="url(#paint3_linear_402_111)"/>
<path d="M23 23.5C21.2 23.5 19.8 22.1 19.8 20.3C19.8 18.5 21.3 17.1 23 17.1C24.8 17.1 26.2 18.6 26.2 20.3C26.2 22.1 24.8 23.5 23 23.5Z" fill="url(#paint4_linear_402_111)"/>
<defs>
<linearGradient id="paint0_linear_402_111" x1="27.7199" y1="38.0114" x2="18.2838" y2="28.576" gradientUnits="userSpaceOnUse">
<stop stop-color="#34344F"/>
<stop offset="0.54" stop-color="#353551"/>
<stop offset="1" stop-color="#666684"/>
</linearGradient>
<linearGradient id="paint1_linear_402_111" x1="28.2758" y1="32.9782" x2="28.2758" y2="31.2632" gradientUnits="userSpaceOnUse">
<stop stop-color="#FFD2D2"/>
<stop offset="1" stop-color="white"/>
</linearGradient>
<linearGradient id="paint2_linear_402_111" x1="27.3664" y1="30.9901" x2="27.3664" y2="29.2095" gradientUnits="userSpaceOnUse">
<stop stop-color="#FFD2D2"/>
<stop offset="1" stop-color="white"/>
</linearGradient>
<linearGradient id="paint3_linear_402_111" x1="29.1003" y1="27.1996" x2="16.9038" y2="15.0031" gradientUnits="userSpaceOnUse">
<stop stop-color="#EF3739"/>
<stop offset="0.54" stop-color="#EF3739"/>
<stop offset="1" stop-color="#FF8C8B"/>
</linearGradient>
<linearGradient id="paint4_linear_402_111" x1="25.2805" y1="22.5705" x2="20.721" y2="18.0117" gradientUnits="userSpaceOnUse">
<stop stop-color="#FFD2D2"/>
<stop offset="0.57" stop-color="white"/>
<stop offset="1" stop-color="white"/>
</linearGradient>
</defs>
</svg>
