<svg width="21" height="25" viewBox="0 0 21 25" fill="none" xmlns="http://www.w3.org/2000/svg">
<g id="Group 1311">
<path id="Ellipse 65" d="M9.07799 24.33C14.0684 24.33 18.114 23.1185 18.114 21.624C18.114 20.1295 14.0684 18.918 9.07799 18.918C4.08755 18.918 0.0419922 20.1295 0.0419922 21.624C0.0419922 23.1185 4.08755 24.33 9.07799 24.33Z" fill="url(#paint0_linear_1_2206)"/>
<path id="Rectangle 869" d="M19.253 19.593H9.45102C8.97716 19.593 8.59302 19.9769 8.59302 20.4505C8.59302 20.9241 8.97716 21.308 9.45102 21.308H19.253C19.7269 21.308 20.111 20.9241 20.111 20.4505C20.111 19.9769 19.7269 19.593 19.253 19.593Z" fill="url(#paint1_linear_1_2206)"/>
<path id="Rectangle 870" d="M17.402 17.54H9.48302C8.99148 17.54 8.59302 17.9385 8.59302 18.43V18.431C8.59302 18.9225 8.99148 19.321 9.48302 19.321H17.402C17.8936 19.321 18.292 18.9225 18.292 18.431V18.43C18.292 17.9385 17.8936 17.54 17.402 17.54Z" fill="url(#paint2_linear_1_2206)"/>
<path id="Path 2463" d="M14.709 2.85999C13.9867 2.08385 13.1165 1.46018 12.1494 1.02567C11.1824 0.591153 10.1378 0.354597 9.07792 0.329987H9.02103C6.89532 0.474656 4.89647 1.39339 3.40238 2.91235C1.90829 4.43132 1.02267 6.44519 0.913121 8.573C0.897614 9.50398 1.06053 10.4293 1.3931 11.299V11.313C1.4131 11.449 3.13001 15.297 8.47001 21.019C8.48861 21.0438 8.5087 21.0675 8.53006 21.09C8.65966 21.2329 8.84055 21.3187 9.03324 21.3284C9.22593 21.3382 9.41479 21.2711 9.55814 21.142L9.58915 21.112C11.6494 19.0476 13.4873 16.7729 15.073 14.325C15.7063 13.3693 16.2654 12.3663 16.7452 11.325L16.7561 11.299C17.0853 10.4375 17.2479 9.52121 17.2351 8.599C17.1626 6.43131 16.2559 4.37533 14.7041 2.85999H14.709Z" fill="url(#paint3_linear_1_2206)"/>
<path id="Path 2464" d="M9.07788 11.841C8.65443 11.8418 8.23498 11.7591 7.84351 11.5977C7.45203 11.4362 7.09643 11.1992 6.79663 10.9001C6.49683 10.6011 6.25885 10.2458 6.09644 9.85477C5.93402 9.4637 5.85036 9.04446 5.8501 8.621C5.85604 7.76513 6.1972 6.9457 6.80054 6.33862C7.40387 5.73155 8.22109 5.38523 9.0769 5.37399C9.93265 5.38573 10.7499 5.73221 11.3533 6.33914C11.9567 6.94608 12.2982 7.7652 12.3049 8.621C12.3039 9.47589 11.9633 10.2954 11.3582 10.8992C10.753 11.503 9.93277 11.8418 9.07788 11.841Z" fill="url(#paint4_linear_1_2206)"/>
</g>
<defs>
<linearGradient id="paint0_linear_1_2206" x1="13.7948" y1="-124.327" x2="12.8802" y2="-114.13" gradientUnits="userSpaceOnUse">
<stop stop-color="#34344F"/>
<stop offset="0.54" stop-color="#353551"/>
<stop offset="1" stop-color="#666684"/>
</linearGradient>
<linearGradient id="paint1_linear_1_2206" x1="14.352" y1="21.308" x2="14.352" y2="19.593" gradientUnits="userSpaceOnUse">
<stop stop-color="#FFD2D2"/>
<stop offset="1" stop-color="white"/>
</linearGradient>
<linearGradient id="paint2_linear_1_2206" x1="13.4425" y1="19.321" x2="13.4425" y2="17.54" gradientUnits="userSpaceOnUse">
<stop stop-color="#FFD2D2"/>
<stop offset="1" stop-color="white"/>
</linearGradient>
<linearGradient id="paint3_linear_1_2206" x1="15.179" y1="-113.529" x2="0.847492" y2="-104.864" gradientUnits="userSpaceOnUse">
<stop stop-color="#EF3739"/>
<stop offset="0.54" stop-color="#EF3739"/>
<stop offset="1" stop-color="#FF8C8B"/>
</linearGradient>
<linearGradient id="paint4_linear_1_2206" x1="11.3561" y1="-108.898" x2="6.79038" y2="-104.348" gradientUnits="userSpaceOnUse">
<stop stop-color="#FFD2D2"/>
<stop offset="0.57" stop-color="white"/>
<stop offset="1" stop-color="white"/>
</linearGradient>
</defs>
</svg>
