<svg width="23" height="23" viewBox="0 0 23 23" fill="none" xmlns="http://www.w3.org/2000/svg">
<g id="Group 95">
<g id="Group 849">
<g id="Group 848">
<g id="Group 847">
<g id="Group 846">
<path id="Path 854" d="M19.3279 7.14795L19.3188 7.13794C18.7238 4.65994 16.89 3.44995 13.709 3.44995H9.37793C5.33893 3.44995 3.54395 5.25006 3.54395 9.28406V13.626C3.54395 16.796 4.7539 18.631 7.2439 19.235C7.90453 19.3768 8.57823 19.4488 9.25391 19.45H13.7119C15.7709 19.45 17.1268 19.011 18.1118 18.026C19.0968 17.041 19.5459 15.674 19.5459 13.626V9.28406C19.5488 8.56636 19.4757 7.85026 19.3279 7.14795ZM14.0598 12.9041L18.002 8.96204V13.645C18.0906 14.5914 17.9147 15.5437 17.4939 16.396L14.0598 12.9041ZM7.15991 17.665C5.67691 17.165 5.0918 16.026 5.0918 13.626V9.28406C5.0918 6.08406 6.175 5.00098 9.375 5.00098H13.7058C16.1158 5.00098 17.2569 5.58706 17.7449 7.06006L12.4868 12.396L7.15991 17.665ZM13.7258 17.9091H9.05298L12.9839 13.967L16.4839 17.401C15.6301 17.8216 14.6766 17.9974 13.729 17.9091H13.7258Z" fill="#3F3F55"/>
</g>
</g>
<path id="Path 855" d="M12.0509 8.41607C11.9048 7.83766 11.5696 7.32468 11.0985 6.95867C10.6274 6.59267 10.0476 6.39462 9.45102 6.39605C8.85442 6.39222 8.27386 6.58939 7.80307 6.95587C7.33228 7.32234 6.99873 7.83677 6.85605 8.41607C6.74643 9.06446 6.81555 9.73039 7.05625 10.3423C7.29694 10.9543 7.70006 11.4891 8.22202 11.8891C8.38124 12.0532 8.57238 12.1829 8.78378 12.2701C8.99519 12.3573 9.22237 12.4002 9.45102 12.3961C9.93554 12.4006 10.4032 12.2192 10.7579 11.8891C11.2715 11.4847 11.6639 10.9467 11.8919 10.334C12.12 9.72142 12.175 9.05788 12.0509 8.41607ZM9.95102 11.089C9.88585 11.1556 9.80812 11.2084 9.72226 11.2444C9.63641 11.2805 9.54415 11.2991 9.45102 11.2991C9.35789 11.2991 9.26564 11.2805 9.17978 11.2444C9.09392 11.2084 9.0162 11.1556 8.95102 11.089C8.59679 10.8085 8.31832 10.4437 8.14121 10.028C7.96409 9.61229 7.8938 9.15886 7.93686 8.70904C8.0048 8.35933 8.19347 8.04457 8.46982 7.81976C8.74617 7.59495 9.09285 7.4744 9.44907 7.47906C9.8121 7.48215 10.1641 7.60409 10.4513 7.82623C10.7384 8.04836 10.9447 8.35843 11.0389 8.70904C11.0867 9.16656 11.0114 9.62855 10.8204 10.0471C10.6294 10.4655 10.3299 10.8253 9.95297 11.089H9.95102Z" fill="#3F3F55"/>
<path id="Path 856" d="M10.2459 8.92298C10.2298 9.10908 10.1487 9.28357 10.0166 9.41565C9.88452 9.54774 9.71003 9.62899 9.52393 9.64502C9.3246 9.64597 9.13211 9.57252 8.98413 9.43897C8.83616 9.30542 8.74331 9.12136 8.72388 8.92298C8.72362 8.82809 8.74213 8.73408 8.77832 8.64637C8.81451 8.55865 8.86772 8.47896 8.93482 8.41187C9.00191 8.34477 9.08148 8.29156 9.16919 8.25537C9.25691 8.21918 9.35092 8.20079 9.4458 8.20105H9.52393C9.61882 8.20079 9.71282 8.21918 9.80054 8.25537C9.88826 8.29156 9.96782 8.34477 10.0349 8.41187C10.102 8.47896 10.1552 8.55865 10.1914 8.64637C10.2276 8.73408 10.2461 8.82809 10.2459 8.92298Z" fill="#3F3F55"/>
</g>
</g>
</g>
</svg>
