<svg xmlns="http://www.w3.org/2000/svg" xmlns:xlink="http://www.w3.org/1999/xlink" width="8.629" height="11.33" viewBox="0 0 8.629 11.33">
  <defs>
    <clipPath id="clip-path">
      <rect id="Rectangle_16" data-name="Rectangle 16" width="8.629" height="11.33" transform="translate(318.071 329.332)" fill="none"/>
    </clipPath>
  </defs>
  <g id="Group_9" data-name="Group 9" transform="translate(-318.071 -329.332)">
    <g id="Group_26" data-name="Group 26">
      <g id="Group_25" data-name="Group 25" clip-path="url(#clip-path)">
        <g id="Group_8" data-name="Group 8">
          <path id="Path_10" data-name="Path 10" d="M321.039,329.332a1.168,1.168,0,0,1,.914.378q2.176,2.174,4.35,4.35a1.286,1.286,0,0,1,.039,1.818c-.027.028-.055.055-.084.08q-1.645,1.659-3.3,3.3l-.941.939a1.317,1.317,0,0,1-1.858.142c-.013-.011-.027-.023-.04-.036a1.321,1.321,0,0,1,.039-1.868c.02-.019.042-.039.064-.057,1.052-1.054,2.105-2.113,3.17-3.161.179-.172.192-.268,0-.453-1.062-1.046-2.114-2.106-3.17-3.163a1.317,1.317,0,0,1-.417-1.344,1.208,1.208,0,0,1,1.234-.923" fill="#fff"/>
          <path id="Path_11" data-name="Path 11" d="M319.729,333.349a1.656,1.656,0,1,1-.005,0h.005" fill="#fff"/>
        </g>
      </g>
    </g>
  </g>
</svg>
