<svg width="47" height="47" viewBox="0 0 47 47" fill="none" xmlns="http://www.w3.org/2000/svg">
<g id="Group 2203">
<path id="Path 3863" d="M46.7629 23.431C46.7629 29.6083 44.3093 35.5325 39.9414 39.9006C35.5735 44.2686 29.6494 46.7228 23.4722 46.723C17.2947 46.723 11.3703 44.269 7.0022 39.9009C2.6341 35.5328 0.180176 29.6085 0.180176 23.431C0.180441 17.2538 2.63437 11.3296 7.00244 6.96173C11.3705 2.59385 17.2949 0.140015 23.4722 0.140015C26.5308 0.140015 29.5595 0.742421 32.3853 1.9129C35.211 3.08338 37.7786 4.79902 39.9414 6.96179C42.1042 9.12456 43.8198 11.6922 44.9902 14.5179C46.1607 17.3437 46.7629 20.3724 46.7629 23.431Z" fill="#3972FE"/>
</g>
</svg>
