<svg xmlns="http://www.w3.org/2000/svg" width="24" height="24" viewBox="0 0 24 24">
  <g id="Group_10066" data-name="Group 10066" transform="translate(-298 -638)">
    <rect id="Rectangle_1037" data-name="Rectangle 1037" width="24" height="24" transform="translate(298 638)" fill="#ec3232" opacity="0"/>
    <g id="b" transform="translate(300.74 638.711)">
      <g id="c">
        <g id="Group_10065" data-name="Group 10065">
          <g id="Group_10062" data-name="Group 10062" transform="translate(6.615 5.953)">
            <path id="Path_2139" data-name="Path 2139" d="M151.323,135.661v5.292a.661.661,0,1,1-1.323,0v-5.292a.661.661,0,0,1,1.323,0Z" transform="translate(-150 -135)" fill="#1d2438"/>
            <path id="Path_2140" data-name="Path 2140" d="M211.984,135h-1.323a.661.661,0,0,0-.661.661v5.3a.661.661,0,0,0,1.323-.005v-1.984h.661a1.984,1.984,0,0,0,0-3.969Zm0,2.646h-.661v-1.323h.661a.661.661,0,1,1,0,1.323Z" transform="translate(-207.354 -135)" fill="#1d2438"/>
          </g>
          <path id="Path_2141" data-name="Path 2141" d="M211.984,135h-1.323a.661.661,0,0,0-.661.661v5.3a.661.661,0,0,0,1.323-.005v-1.984h.661a1.984,1.984,0,0,0,0-3.969Zm0,2.646h-.661v-1.323h.661a.661.661,0,1,1,0,1.323Z" transform="translate(-200.74 -129.047)" fill="#1d2438"/>
          <path id="Path_2142" data-name="Path 2142" d="M9.26,0A9.256,9.256,0,0,0,2.505,15.589l6.272,6.779a.662.662,0,0,0,.967,0l6.271-6.779A9.255,9.255,0,0,0,9.26,0Zm0,15.875A6.615,6.615,0,1,1,15.875,9.26,6.622,6.622,0,0,1,9.26,15.875Z" fill="#1d2438"/>
          <g id="Group_10063" data-name="Group 10063" transform="translate(6.615 5.953)">
            <path id="Path_2143" data-name="Path 2143" d="M151.323,135.661v5.292a.661.661,0,1,1-1.323,0v-5.292a.661.661,0,0,1,1.323,0Z" transform="translate(-150 -135)" fill="#1d2438"/>
            <path id="Path_2144" data-name="Path 2144" d="M211.984,135h-1.323a.661.661,0,0,0-.661.661v5.3a.661.661,0,0,0,1.323-.005v-1.984h.661a1.984,1.984,0,0,0,0-3.969Zm0,2.646h-.661v-1.323h.661a.661.661,0,1,1,0,1.323Z" transform="translate(-207.354 -135)" fill="#1d2438"/>
          </g>
          <path id="Path_2145" data-name="Path 2145" d="M211.984,135h-1.323a.661.661,0,0,0-.661.661v5.3a.661.661,0,0,0,1.323-.005v-1.984h.661a1.984,1.984,0,0,0,0-3.969Zm0,2.646h-.661v-1.323h.661a.661.661,0,1,1,0,1.323Z" transform="translate(-200.74 -129.047)" fill="#1d2438"/>
          <g id="Group_10064" data-name="Group 10064" transform="translate(6.615 5.953)">
            <path id="Path_2146" data-name="Path 2146" d="M151.323,135.661v5.292a.661.661,0,1,1-1.323,0v-5.292a.661.661,0,0,1,1.323,0Z" transform="translate(-150 -135)" fill="#1d2438"/>
            <path id="Path_2147" data-name="Path 2147" d="M211.984,135h-1.323a.661.661,0,0,0-.661.661v5.3a.661.661,0,0,0,1.323-.005v-1.984h.661a1.984,1.984,0,0,0,0-3.969Zm0,2.646h-.661v-1.323h.661a.661.661,0,1,1,0,1.323Z" transform="translate(-207.354 -135)" fill="#1d2438"/>
          </g>
        </g>
      </g>
    </g>
  </g>
</svg>
