<svg xmlns="http://www.w3.org/2000/svg" xmlns:xlink="http://www.w3.org/1999/xlink" width="24" height="24" viewBox="0 0 24 24">
  <defs>
    <clipPath id="clip-path">
      <rect id="Rectangle_1027" data-name="Rectangle 1027" width="22" height="22" transform="translate(0 0.005)" fill="none"/>
    </clipPath>
  </defs>
  <g id="Group_10041" data-name="Group 10041" transform="translate(328 -452)">
    <rect id="Rectangle_1028" data-name="Rectangle 1028" width="24" height="24" transform="translate(-328 452)" fill="#fff" opacity="0"/>
    <g id="Group_10040" data-name="Group 10040" transform="translate(-327 452.996)">
      <g id="Group_10039" data-name="Group 10039" transform="translate(0 -0.001)" clip-path="url(#clip-path)">
        <path id="Path_2003" data-name="Path 2003" d="M.44,3.254a5.529,5.529,0,0,1,1.685-2.23C2.933.4,4.089-.314,5.143.148a1.744,1.744,0,0,1,.711.585,2.322,2.322,0,0,1,.305.581c.017.046.7,2.223.959,3.283a1.43,1.43,0,0,1-.412,1.587,2.634,2.634,0,0,1-.521.337c-.488.248-1,.455-1.5.661l-.213.086-.6.227.22.628a21.964,21.964,0,0,0,5.555,8.588l.414.444.524-.5a11.748,11.748,0,0,1,1.232-1.216,1.57,1.57,0,0,1,2.225-.054,25.386,25.386,0,0,1,2.712,2.3,1.734,1.734,0,0,1-.046,2.759,5.091,5.091,0,0,1-2.862,1.493,6.656,6.656,0,0,1-4.307-.957,18.952,18.952,0,0,1-2.96-2.121l-1.249-1.2A21.036,21.036,0,0,1,.577,9.115,9.026,9.026,0,0,1,.44,3.254Z" transform="translate(-0.003 0)" fill="#1d2438"/>
        <path id="Path_2004" data-name="Path 2004" d="M45.052,7.571c-.71-2.053-1.341-4.21-1.879-6.362.044-.037.088-.072.133-.107A3.591,3.591,0,0,1,45.97.115,1.905,1.905,0,0,1,47.388,1.53c.323,1.043.657,2.084.912,3.144A1.5,1.5,0,0,1,47.366,6.6c-.556.282-1.138.514-1.717.747Z" transform="translate(-41.184 -0.078)" fill="#1d2438"/>
        <path id="Path_2005" data-name="Path 2005" d="M218.324,326.754c.728.744,1.495,1.47,2.291,2.189a27.94,27.94,0,0,0,2.739,2.229,4.871,4.871,0,0,0,1.617-1.124,1.733,1.733,0,0,0,.047-2.759,25.387,25.387,0,0,0-2.712-2.3,1.57,1.57,0,0,0-2.225.054,11.815,11.815,0,0,0-1.233,1.215Z" transform="translate(-208.268 -309.601)" fill="#1d2438"/>
        <path id="Path_2006" data-name="Path 2006" d="M.574,52.545A19.6,19.6,0,0,0,9.535,64.413a6.654,6.654,0,0,0,4.307.957A5.089,5.089,0,0,0,16.7,63.876a2.412,2.412,0,0,0,.68-1.154l-.063.067a5.09,5.09,0,0,1-2.862,1.493,6.654,6.654,0,0,1-4.307-.957A19.6,19.6,0,0,1,1.192,51.457,9.025,9.025,0,0,1,1.055,45.6l.03-.07a5.639,5.639,0,0,0-.648,1.157A9.025,9.025,0,0,0,.574,52.545Z" transform="translate(0 -43.43)" fill="#1d2438"/>
        <path id="Path_2007" data-name="Path 2007" d="M308,420.4a5.089,5.089,0,0,0,2.862-1.493l.063-.067v.006c0,.017-.007.035-.011.052a1.825,1.825,0,0,1-.075.226,2.2,2.2,0,0,1-.222.417,3.381,3.381,0,0,1-.286.363,4.628,4.628,0,0,1-.346.345,4.9,4.9,0,0,1-.705.531,4.965,4.965,0,0,1-.515.278c-.035.016-.07.033-.106.047l-.03.013c-.32-.225-.622-.449-.913-.676C307.808,420.431,307.9,420.417,308,420.4Z" transform="translate(-293.539 -399.547)" fill="#1d2438"/>
        <path id="Path_2008" data-name="Path 2008" d="M265.187,104.03a4.7,4.7,0,0,1-.006,1.425.433.433,0,0,1-.123.23.284.284,0,0,1-.359,0,.491.491,0,0,1-.13-.254,3.145,3.145,0,0,1-.051-.7,3.2,3.2,0,0,1,.057-.726.435.435,0,0,1,.123-.23.278.278,0,0,1,.18-.064.274.274,0,0,1,.179.064.5.5,0,0,1,.13.255" transform="translate(-252.335 -98.934)" fill="#1d2438"/>
        <path id="Path_2009" data-name="Path 2009" d="M204.865,38.957a.5.5,0,0,0-.13-.255.276.276,0,0,0-.179-.064.279.279,0,0,0-.18.064.432.432,0,0,0-.123.23,4.7,4.7,0,0,0-.006,1.427.5.5,0,0,0,.13.254.284.284,0,0,0,.359,0,.43.43,0,0,0,.123-.23,4.686,4.686,0,0,0,.006-1.425m0,0a.5.5,0,0,0-.13-.255.276.276,0,0,0-.179-.064.279.279,0,0,0-.18.064.432.432,0,0,0-.123.23,4.7,4.7,0,0,0-.006,1.427.5.5,0,0,0,.13.254.284.284,0,0,0,.359,0,.43.43,0,0,0,.123-.23,4.686,4.686,0,0,0,.006-1.425m3.371-3.461h-5.79a3.527,3.527,0,0,0-3.523,3.523V45.3l3.6-1.675h5.709A3.527,3.527,0,0,0,211.76,40.1V39.019a3.528,3.528,0,0,0-3.524-3.523m-5.276,5.345a.792.792,0,0,1-.657.3.829.829,0,0,1-.682-.326,2.651,2.651,0,0,1,.026-2.339.874.874,0,0,1,1.315,0,2.6,2.6,0,0,1,0,2.363m2.252,0a.791.791,0,0,1-.657.3.83.83,0,0,1-.682-.326,2.653,2.653,0,0,1,.026-2.339.874.874,0,0,1,1.315,0,2.6,2.6,0,0,1,0,2.363m2.078.247h-.556V38.994a1.92,1.92,0,0,1-.718.421v-.5a1.619,1.619,0,0,0,.473-.27,1.029,1.029,0,0,0,.35-.464h.451Zm2.029,0h-.556V38.994a1.927,1.927,0,0,1-.718.421v-.5a1.618,1.618,0,0,0,.473-.27,1.025,1.025,0,0,0,.35-.464h.451ZM204.736,38.7a.276.276,0,0,0-.179-.064.279.279,0,0,0-.18.064.432.432,0,0,0-.123.23,4.7,4.7,0,0,0-.006,1.427.5.5,0,0,0,.13.254.284.284,0,0,0,.359,0,.43.43,0,0,0,.123-.23,4.686,4.686,0,0,0,.006-1.425.5.5,0,0,0-.13-.255m.13.255a.5.5,0,0,0-.13-.255.276.276,0,0,0-.179-.064.279.279,0,0,0-.18.064.432.432,0,0,0-.123.23,4.7,4.7,0,0,0-.006,1.427.5.5,0,0,0,.13.254.284.284,0,0,0,.359,0,.43.43,0,0,0,.123-.23,4.686,4.686,0,0,0,.006-1.425m0,0a.5.5,0,0,0-.13-.255.276.276,0,0,0-.179-.064.279.279,0,0,0-.18.064.432.432,0,0,0-.123.23,4.7,4.7,0,0,0-.006,1.427.5.5,0,0,0,.13.254.284.284,0,0,0,.359,0,.43.43,0,0,0,.123-.23,4.686,4.686,0,0,0,.006-1.425" transform="translate(-189.761 -33.861)" fill="#1d2438"/>
      </g>
    </g>
  </g>
</svg>
