<svg id="Group_10068" data-name="Group 10068" xmlns="http://www.w3.org/2000/svg" xmlns:xlink="http://www.w3.org/1999/xlink" width="9.832" height="5.898" viewBox="0 0 9.832 5.898">
  <defs>
    <clipPath id="clip-path">
      <rect id="Rectangle_1041" data-name="Rectangle 1041" width="9.832" height="5.898" fill="#fff"/>
    </clipPath>
  </defs>
  <g id="Group_10067" data-name="Group 10067" clip-path="url(#clip-path)">
    <path id="Path_2148" data-name="Path 2148" d="M4.917,0q-1.9,0-3.793,0A1.109,1.109,0,0,0,.285.286,1,1,0,0,0,.326,1.721Q2.28,3.631,4.189,5.585A1,1,0,0,0,5.623,5.6Q7.481,3.737,9.341,1.875a1.316,1.316,0,0,0,.482-.749A.965.965,0,0,0,8.976.019,2.8,2.8,0,0,0,8.643,0H4.917" transform="translate(-0.001 0)" fill="#fff"/>
  </g>
</svg>
