<svg xmlns="http://www.w3.org/2000/svg" width="24" height="24" viewBox="0 0 24 24">
  <g id="Group_10058" data-name="Group 10058" transform="translate(-110 -738)">
    <rect id="Rectangle_1036" data-name="Rectangle 1036" width="24" height="24" transform="translate(110 738)" fill="#b49191" opacity="0"/>
    <g id="Group_10057" data-name="Group 10057" transform="translate(-6.125 -0.375)">
      <path id="Path_1982" data-name="Path 1982" d="M11.125,22.25A11.125,11.125,0,1,1,22.25,11.125,11.137,11.137,0,0,1,11.125,22.25M11.125.7A10.422,10.422,0,1,0,21.547,11.125,10.433,10.433,0,0,0,11.125.7" transform="translate(117 739.5)" stroke="#1d2438" stroke-width="0.9"/>
      <rect id="Rectangle_1020" data-name="Rectangle 1020" width="22.25" height="22.25" transform="translate(117 739)" fill="none"/>
      <g id="Group_10056" data-name="Group 10056" transform="translate(25.229 -0.022)">
        <path id="Path_2094" data-name="Path 2094" d="M152.917,295.233a.433.433,0,0,1-.433.433h-1.4a.433.433,0,0,1,0-.866h1.4a.432.432,0,0,1,.433.433" transform="translate(-48.888 463.617)" fill="#1d2438"/>
        <path id="Path_2095" data-name="Path 2095" d="M152.917,242.113a.432.432,0,0,1-.433.433h-1.4a.433.433,0,0,1,0-.866h1.4a.433.433,0,0,1,.433.433" transform="translate(-48.888 513.458)" fill="#1d2438"/>
        <path id="Path_2096" data-name="Path 2096" d="M152.917,189a.433.433,0,0,1-.433.433h-1.4a.433.433,0,0,1,0-.866h1.4a.432.432,0,0,1,.433.433" transform="translate(-48.888 563.289)" fill="#1d2438"/>
        <path id="Path_2097" data-name="Path 2097" d="M152.917,135.873a.432.432,0,0,1-.433.433h-1.4a.433.433,0,0,1,0-.866h1.4a.433.433,0,0,1,.433.433" transform="translate(-48.888 613.14)" fill="#1d2438"/>
        <path id="Path_2098" data-name="Path 2098" d="M152.917,82.763a.433.433,0,0,1-.433.433h-1.4a.433.433,0,0,1,0-.866h1.4a.432.432,0,0,1,.433.433" transform="translate(-48.888 662.971)" fill="#1d2438"/>
        <path id="Path_2099" data-name="Path 2099" d="M152.917,29.643a.432.432,0,0,1-.433.433h-1.4a.433.433,0,0,1,0-.866h1.4a.433.433,0,0,1,.433.433" transform="translate(-48.888 712.812)" fill="#1d2438"/>
        <path id="Path_2100" data-name="Path 2100" d="M133.589,268.673a.433.433,0,0,1-.433.433h-4.124a.433.433,0,0,1,0-.867h4.124a.433.433,0,0,1,.433.433" transform="translate(-28.199 488.538)" fill="#1d2438"/>
        <path id="Path_2101" data-name="Path 2101" d="M133.589,215.563a.432.432,0,0,1-.433.433h-4.124a.433.433,0,0,1,0-.866h4.124a.433.433,0,0,1,.433.433" transform="translate(-28.199 538.369)" fill="#1d2438"/>
        <path id="Path_2102" data-name="Path 2102" d="M133.589,162.433a.433.433,0,0,1-.433.433h-4.124a.433.433,0,0,1,0-.867h4.124a.433.433,0,0,1,.433.433" transform="translate(-28.199 588.219)" fill="#1d2438"/>
        <path id="Path_2103" data-name="Path 2103" d="M133.589,109.313a.433.433,0,0,1-.433.433h-4.124a.433.433,0,0,1,0-.866h4.124a.432.432,0,0,1,.433.433" transform="translate(-28.199 638.06)" fill="#1d2438"/>
        <path id="Path_2104" data-name="Path 2104" d="M133.589,56.193a.433.433,0,0,1-.433.433h-4.124a.433.433,0,0,1,0-.867h4.124a.433.433,0,0,1,.433.433" transform="translate(-28.199 687.901)" fill="#1d2438"/>
        <path id="Path_2105" data-name="Path 2105" d="M152.917,295.233a.433.433,0,0,1-.433.433h-1.4a.433.433,0,0,1,0-.866h1.4a.432.432,0,0,1,.433.433" transform="translate(-48.888 463.617)" fill="#1d2438"/>
        <path id="Path_2106" data-name="Path 2106" d="M152.917,242.113a.432.432,0,0,1-.433.433h-1.4a.433.433,0,0,1,0-.866h1.4a.433.433,0,0,1,.433.433" transform="translate(-48.888 513.458)" fill="#1d2438"/>
        <path id="Path_2107" data-name="Path 2107" d="M152.917,189a.433.433,0,0,1-.433.433h-1.4a.433.433,0,0,1,0-.866h1.4a.432.432,0,0,1,.433.433" transform="translate(-48.888 563.289)" fill="#1d2438"/>
        <path id="Path_2108" data-name="Path 2108" d="M152.917,135.873a.432.432,0,0,1-.433.433h-1.4a.433.433,0,0,1,0-.866h1.4a.433.433,0,0,1,.433.433" transform="translate(-48.888 613.14)" fill="#1d2438"/>
        <path id="Path_2109" data-name="Path 2109" d="M152.917,82.763a.433.433,0,0,1-.433.433h-1.4a.433.433,0,0,1,0-.866h1.4a.432.432,0,0,1,.433.433" transform="translate(-48.888 662.971)" fill="#1d2438"/>
        <path id="Path_2110" data-name="Path 2110" d="M152.917,29.643a.432.432,0,0,1-.433.433h-1.4a.433.433,0,0,1,0-.866h1.4a.433.433,0,0,1,.433.433" transform="translate(-48.888 712.812)" fill="#1d2438"/>
        <path id="Path_2111" data-name="Path 2111" d="M133.589,268.673a.433.433,0,0,1-.433.433h-4.124a.433.433,0,0,1,0-.867h4.124a.433.433,0,0,1,.433.433" transform="translate(-28.199 488.538)" fill="#1d2438"/>
        <path id="Path_2112" data-name="Path 2112" d="M133.589,215.563a.432.432,0,0,1-.433.433h-4.124a.433.433,0,0,1,0-.866h4.124a.433.433,0,0,1,.433.433" transform="translate(-28.199 538.369)" fill="#1d2438"/>
        <path id="Path_2113" data-name="Path 2113" d="M133.589,162.433a.433.433,0,0,1-.433.433h-4.124a.433.433,0,0,1,0-.867h4.124a.433.433,0,0,1,.433.433" transform="translate(-28.199 588.219)" fill="#1d2438"/>
        <path id="Path_2114" data-name="Path 2114" d="M133.589,109.313a.433.433,0,0,1-.433.433h-4.124a.433.433,0,0,1,0-.866h4.124a.432.432,0,0,1,.433.433" transform="translate(-28.199 638.06)" fill="#1d2438"/>
        <path id="Path_2115" data-name="Path 2115" d="M133.589,56.193a.433.433,0,0,1-.433.433h-4.124a.433.433,0,0,1,0-.867h4.124a.433.433,0,0,1,.433.433" transform="translate(-28.199 687.901)" fill="#1d2438"/>
        <path id="Path_2116" data-name="Path 2116" d="M152.917,29.643a.432.432,0,0,1-.433.433h-1.4a.433.433,0,0,1,0-.866h1.4a.433.433,0,0,1,.433.433" transform="translate(-48.888 712.812)" fill="#1d2438"/>
        <path id="Path_2117" data-name="Path 2117" d="M133.589,56.193a.433.433,0,0,1-.433.433h-4.124a.433.433,0,0,1,0-.867h4.124a.433.433,0,0,1,.433.433" transform="translate(-28.199 687.901)" fill="#1d2438"/>
        <path id="Path_2118" data-name="Path 2118" d="M152.917,82.763a.433.433,0,0,1-.433.433h-1.4a.433.433,0,0,1,0-.866h1.4a.432.432,0,0,1,.433.433" transform="translate(-48.888 662.971)" fill="#1d2438"/>
        <path id="Path_2119" data-name="Path 2119" d="M133.589,109.313a.433.433,0,0,1-.433.433h-4.124a.433.433,0,0,1,0-.866h4.124a.432.432,0,0,1,.433.433" transform="translate(-28.199 638.06)" fill="#1d2438"/>
        <path id="Path_2120" data-name="Path 2120" d="M152.917,135.873a.432.432,0,0,1-.433.433h-1.4a.433.433,0,0,1,0-.866h1.4a.433.433,0,0,1,.433.433" transform="translate(-48.888 613.14)" fill="#1d2438"/>
        <path id="Path_2121" data-name="Path 2121" d="M133.589,162.433a.433.433,0,0,1-.433.433h-4.124a.433.433,0,0,1,0-.867h4.124a.433.433,0,0,1,.433.433" transform="translate(-28.199 588.219)" fill="#1d2438"/>
        <path id="Path_2122" data-name="Path 2122" d="M152.917,189a.433.433,0,0,1-.433.433h-1.4a.433.433,0,0,1,0-.866h1.4a.432.432,0,0,1,.433.433" transform="translate(-48.888 563.289)" fill="#1d2438"/>
        <path id="Path_2123" data-name="Path 2123" d="M133.589,215.563a.432.432,0,0,1-.433.433h-4.124a.433.433,0,0,1,0-.866h4.124a.433.433,0,0,1,.433.433" transform="translate(-28.199 538.369)" fill="#1d2438"/>
        <path id="Path_2124" data-name="Path 2124" d="M152.917,242.113a.432.432,0,0,1-.433.433h-1.4a.433.433,0,0,1,0-.866h1.4a.433.433,0,0,1,.433.433" transform="translate(-48.888 513.458)" fill="#1d2438"/>
        <path id="Path_2125" data-name="Path 2125" d="M133.589,268.673a.433.433,0,0,1-.433.433h-4.124a.433.433,0,0,1,0-.867h4.124a.433.433,0,0,1,.433.433" transform="translate(-28.199 488.538)" fill="#1d2438"/>
        <path id="Path_2126" data-name="Path 2126" d="M152.917,295.233a.433.433,0,0,1-.433.433h-1.4a.433.433,0,0,1,0-.866h1.4a.432.432,0,0,1,.433.433" transform="translate(-48.888 463.617)" fill="#1d2438"/>
      </g>
      <path id="Path_2128" data-name="Path 2128" d="M5.664,1.847a.426.426,0,0,1-.426.426h-3.1a1.847,1.847,0,0,1-1.8,1.42H.133C.075,3.414.032,3.13,0,2.842H.376A1,1,0,1,0,.345.851H0C.031.564.076.28.133,0H.345a1.849,1.849,0,0,1,1.8,1.421h3.1a.426.426,0,0,1,.426.426" transform="translate(117.798 749)" fill="#1d2438"/>
      <path id="Path_2129" data-name="Path 2129" d="M29.087,1.847a.426.426,0,0,0,.426.426h3.1a1.847,1.847,0,0,0,1.8,1.42h.213c.057-.279.1-.564.132-.851h-.375A1,1,0,1,1,34.406.851h.345C34.721.564,34.676.28,34.619,0h-.213a1.849,1.849,0,0,0-1.8,1.421h-3.1a.426.426,0,0,0-.426.426" transform="translate(103.7 749)" fill="#1d2438"/>
    </g>
  </g>
</svg>
