<svg xmlns="http://www.w3.org/2000/svg" xmlns:xlink="http://www.w3.org/1999/xlink" width="24" height="24" viewBox="0 0 24 24">
  <defs>
    <clipPath id="clip-path">
      <path id="path297" d="M0-682.665H22v22H0Z" transform="translate(0 682.665)" fill="#1d2438"/>
    </clipPath>
  </defs>
  <g id="Group_10235" data-name="Group 10235" transform="translate(1011 -957)">
    <path id="Path_2354" data-name="Path 2354" d="M0,0H24V24H0Z" transform="translate(-1011 957)" fill="#9a6f6f" opacity="0"/>
    <g id="g291" transform="translate(-1010 1640.665)">
      <g id="g293" transform="translate(0 -682.665)">
        <g id="g295" clip-path="url(#clip-path)">
          <g id="g301" transform="translate(0.645 0.645)">
            <path id="path303" d="M-621.954-310.977a10.386,10.386,0,0,1-10.355,10.355,10.386,10.386,0,0,1-10.355-10.355,10.386,10.386,0,0,1,10.355-10.355A10.386,10.386,0,0,1-621.954-310.977Z" transform="translate(642.665 321.333)" fill="none" stroke="#1d2438" stroke-width="1.2"/>
          </g>
          <g id="g305" transform="translate(11 0.645)">
            <path id="path307" d="M0-621.954v-20.711" transform="translate(0 642.665)" fill="none" stroke="#1d2438" stroke-width="1.2"/>
          </g>
          <g id="g309" transform="translate(5.844 0.645)">
            <path id="path311" d="M-309.687-310.977c0,5.7-2.309,10.355-5.156,10.355S-320-305.282-320-310.977s2.309-10.355,5.156-10.355S-309.687-316.673-309.687-310.977Z" transform="translate(319.999 321.333)" fill="none" stroke="#1d2438" stroke-width="1.2"/>
          </g>
          <g id="g313" transform="translate(0.645 11)">
            <path id="path315" d="M-621.954,0h-20.711" transform="translate(642.665)" fill="none" stroke="#1d2438" stroke-width="1.2"/>
          </g>
          <g id="g317" transform="translate(2.472 5.199)">
            <path id="path319" d="M-512.17,0h-17.055" transform="translate(529.225)" fill="none" stroke="#1d2438" stroke-width="1.2"/>
          </g>
          <g id="g321" transform="translate(2.472 16.801)">
            <path id="path323" d="M-512.17,0h-17.055" transform="translate(529.225)" fill="none" stroke="#1d2438" stroke-width="1.2"/>
          </g>
        </g>
      </g>
    </g>
  </g>
</svg>
