<svg xmlns="http://www.w3.org/2000/svg" width="24" height="24" viewBox="0 0 24 24">
  <g id="Group_10037" data-name="Group 10037" transform="translate(264 -426)">
    <rect id="Rectangle_1025" data-name="Rectangle 1025" width="24" height="24" transform="translate(-264 426)" fill="#1d2438" opacity="0"/>
    <g id="speedometer" transform="translate(-264 372.767)">
      <path id="Path_1998" data-name="Path 1998" d="M197.959,425.767h-4.464a.695.695,0,1,0,0,1.389h4.464a.695.695,0,1,0,0-1.389Z" transform="translate(-183.872 -352.421)" fill="#1d2438"/>
      <path id="Path_1999" data-name="Path 1999" d="M146.136,201.386a2.182,2.182,0,0,0-2.926-2.925l-3.272-3.272a.695.695,0,0,0-.982.982l3.272,3.272a2.182,2.182,0,0,0,2.925,2.925l.77.77a.695.695,0,1,0,.982-.982Z" transform="translate(-132.327 -132.327)" fill="#1d2438"/>
      <path id="Path_2000" data-name="Path 2000" d="M11.855,56.233A11.855,11.855,0,0,0,1.589,74.016a.7.7,0,0,0,.948.254L4.47,73.154a.695.695,0,1,0-.695-1.2l-1.312.757a10.459,10.459,0,0,1-1.05-3.925H2.927a.695.695,0,1,0,0-1.389H1.413a10.387,10.387,0,0,1,1.053-3.924l1.31.756a.695.695,0,0,0,.695-1.2l-1.308-.755a10.552,10.552,0,0,1,2.872-2.872L6.789,60.7a.695.695,0,0,0,1.2-.695L7.236,58.7a10.39,10.39,0,0,1,3.924-1.053V59.16a.695.695,0,1,0,1.389,0V57.646A10.391,10.391,0,0,1,16.474,58.7l-.756,1.31a.695.695,0,0,0,1.2.695l.755-1.308a10.551,10.551,0,0,1,2.872,2.872l-1.308.755a.695.695,0,1,0,.695,1.2l1.31-.756A10.388,10.388,0,0,1,22.3,67.393H20.783a.695.695,0,1,0,0,1.389H22.3a10.459,10.459,0,0,1-1.05,3.925l-1.312-.757a.695.695,0,1,0-.695,1.2l1.933,1.116a.7.7,0,0,0,.948-.254A11.855,11.855,0,0,0,11.855,56.233Z" fill="#1d2438"/>
    </g>
  </g>
</svg>
