<svg xmlns="http://www.w3.org/2000/svg" xmlns:xlink="http://www.w3.org/1999/xlink" width="24" height="24" viewBox="0 0 24 24">
  <defs>
    <clipPath id="clip-path">
      <rect id="Rectangle_1023" data-name="Rectangle 1023" width="21.865" height="20.635" fill="#1d2438"/>
    </clipPath>
  </defs>
  <g id="Group_10036" data-name="Group 10036" transform="translate(178 -384)">
    <rect id="Rectangle_1024" data-name="Rectangle 1024" width="24" height="24" transform="translate(-178 384)" fill="#fff" opacity="0"/>
    <g id="Group_10034" data-name="Group 10034" transform="translate(-177 386)">
      <g id="Group_10033" data-name="Group 10033" clip-path="url(#clip-path)">
        <path id="Path_1991" data-name="Path 1991" d="M4.653,0A4.655,4.655,0,0,1,9.306,4.653a6.677,6.677,0,0,1-1.56,3.7,19.173,19.173,0,0,1-2.764,2.9.518.518,0,0,1-.658,0,17.7,17.7,0,0,1-2.764-2.9A6.677,6.677,0,0,1,0,4.653,4.655,4.655,0,0,1,4.653,0m0,2.068A2.585,2.585,0,1,0,7.238,4.653,2.586,2.586,0,0,0,4.653,2.068m0,1.034A1.551,1.551,0,1,1,3.1,4.653,1.552,1.552,0,0,1,4.653,3.1" fill="#1d2438" fill-rule="evenodd"/>
        <path id="Path_1992" data-name="Path 1992" d="M263.783,176.015a4.655,4.655,0,0,1,4.653,4.653,6.677,6.677,0,0,1-1.56,3.7,19.172,19.172,0,0,1-2.764,2.9.518.518,0,0,1-.658,0,17.7,17.7,0,0,1-2.764-2.9,6.677,6.677,0,0,1-1.56-3.7,4.655,4.655,0,0,1,4.653-4.653m0,2.068a2.585,2.585,0,1,0,2.585,2.585,2.586,2.586,0,0,0-2.585-2.585m0,1.034a1.551,1.551,0,1,1-1.551,1.551,1.552,1.552,0,0,1,1.551-1.551" transform="translate(-246.571 -167.484)" fill="#1d2438" fill-rule="evenodd"/>
        <path id="Path_1993" data-name="Path 1993" d="M35.4,252.489h0a.517.517,0,0,1-.517.517H21.837a1.551,1.551,0,1,1,0-3.1h6.187a.529.529,0,0,0,.508-.357.517.517,0,0,0-.492-.678h-3.1a1.551,1.551,0,0,1-1.551-1.551v-2.595a.517.517,0,1,1,1.034,0v2.595a.517.517,0,0,0,.517.517h3.1a1.551,1.551,0,1,1,0,3.1H21.854a.531.531,0,0,0-.5.324.518.518,0,0,0,.316.684.531.531,0,0,0,.171.026H34.88a.517.517,0,0,1,.517.517" transform="translate(-19.303 -232.371)" fill="#1d2438" fill-rule="evenodd"/>
      </g>
    </g>
  </g>
</svg>
