<svg xmlns="http://www.w3.org/2000/svg" width="44" height="44" viewBox="0 0 44 44">
  <g id="Group_10032" data-name="Group 10032" transform="translate(-21 -313)">
    <g id="Group_10008" data-name="Group 10008" transform="translate(233 -8)">
      <circle id="Ellipse_7" data-name="Ellipse 7" cx="22" cy="22" r="22" transform="translate(-212 321)" fill="#5eb456"/>
    </g>
    <g id="layer1" transform="translate(32.516 35.201)">
      <path id="path835" d="M8.465.266a8.228,8.228,0,0,0-8.2,8.2c0,3.185,1.754,6.28,3.314,8.815A41.932,41.932,0,0,0,6.72,21.8a2.232,2.232,0,0,0,1.751.829l11.931.013a2.238,2.238,0,0,0,0-4.477h-3a.746.746,0,0,1,0-1.492h4.487a.746.746,0,1,0,0-1.492H17.407a2.238,2.238,0,0,0,0,4.475h3a.747.747,0,1,1,0,1.493H10.712a40.393,40.393,0,0,0,2.649-3.866c1.56-2.535,3.314-5.63,3.314-8.815A8.236,8.236,0,0,0,8.465.266Zm0,5.218A2.984,2.984,0,1,1,5.484,8.468,2.984,2.984,0,0,1,8.468,5.484Z" transform="translate(0 288.533)" fill="#fefefe" fill-rule="evenodd"/>
    </g>
  </g>
</svg>
