<svg xmlns="http://www.w3.org/2000/svg" width="24" height="24" viewBox="0 0 24 24">
  <g id="Group_10038" data-name="Group 10038" transform="translate(249 -324)">
    <rect id="Rectangle_1026" data-name="Rectangle 1026" width="24" height="24" transform="translate(-249 324)" fill="#1d2438" opacity="0"/>
    <g id="Layer_16" transform="translate(-248.1 324.9)">
      <path id="Path_2001" data-name="Path 2001" d="M12.321,17A4.679,4.679,0,0,1,20.8,14.269,10.1,10.1,0,1,0,14.269,20.8,4.679,4.679,0,0,1,12.321,17Zm-1.888-2.7c-.081,1.273-1.47,1.5-2.12,2.987a3.915,3.915,0,0,0-.222,2.207,8.879,8.879,0,0,1-5.772-8.3c0-.058.007-.114.009-.171a2.531,2.531,0,0,0,1.739,1.12c1.571.122,2.371-2.045,3.949-1.835,1.118.149,1.781,1.4,1.984,1.835.02.047.041.088.047.108a5.085,5.085,0,0,1,.386,2.052ZM12.29,2.394a8.876,8.876,0,0,1,6.535,4.3c-.14-.014-.28-.026-.406-.051-1.036-.2-1.023-.664-1.822-.711-1.443-.095-2.1,1.388-3.21,1.138A1.984,1.984,0,0,1,12.221,6a4.712,4.712,0,0,1,.069-3.6Z" fill="#1d2438"/>
      <path id="Path_2002" data-name="Path 2002" d="M22.835,19.167A3.669,3.669,0,1,0,26.5,22.835,3.669,3.669,0,0,0,22.835,19.167Zm1.25,4.917a.611.611,0,0,1-.863,0l-.818-.818a.613.613,0,0,1-.179-.431V21.111a.61.61,0,1,1,1.219,0v1.472l.639.639a.609.609,0,0,1,0,.862Z" transform="translate(-5.83 -5.83)" fill="#1d2438"/>
    </g>
  </g>
</svg>
