<svg width="28" height="26" viewBox="0 0 28 26" fill="none" xmlns="http://www.w3.org/2000/svg">
<path d="M15.296 0C12.4775 0.0145509 9.74333 0.963487 7.5219 2.69819C5.30047 4.4329 3.71709 6.8554 3.0198 9.58629L2.16608 8.30372C2.08752 8.17234 1.98386 8.05773 1.861 7.96642C1.73815 7.87511 1.59858 7.80889 1.45013 7.77154C1.30169 7.7342 1.14731 7.72646 0.995875 7.74876C0.844437 7.77107 0.698713 7.82299 0.567338 7.90155C0.435963 7.98011 0.321366 8.08377 0.230055 8.20663C0.138744 8.32948 0.0725908 8.46912 0.0352451 8.61757C-0.00210047 8.76601 -0.00987366 8.92036 0.0124316 9.0718C0.0347368 9.22324 0.0866327 9.3688 0.165193 9.50017C0.18173 9.52998 0.200141 9.55874 0.220214 9.58629L2.7854 13.4725C2.96222 13.7205 3.22239 13.8968 3.51834 13.969C3.82285 14.0295 4.13886 13.969 4.39957 13.8004L8.24724 11.2078C8.5094 11.0441 8.69588 10.7829 8.76546 10.4817C8.83504 10.1805 8.78205 9.86403 8.61829 9.60186C8.45453 9.3397 8.19324 9.15332 7.89206 9.08374C7.59088 9.01416 7.27456 9.06707 7.0124 9.23083L6.94641 9.27297L5.19648 10.4529C5.74957 8.12545 7.08435 6.05804 8.97772 4.59575C10.8711 3.13345 13.2086 2.36472 15.6004 2.41785C17.9921 2.47099 20.2931 3.34277 22.1197 4.88772C23.9462 6.43266 25.1878 8.5573 25.637 10.9071C26.0862 13.2568 25.7159 15.6896 24.588 17.7993C23.4601 19.909 21.6426 21.5681 19.4391 22.4996C17.2356 23.4312 14.7793 23.5789 12.48 22.918C10.1808 22.2572 8.17786 20.8278 6.80528 18.8684C6.63196 18.6196 6.36867 18.4479 6.071 18.3899C5.77333 18.3319 5.46469 18.392 5.21057 18.5575C4.95645 18.723 4.77681 18.981 4.70957 19.2767C4.64232 19.5724 4.69269 19.8827 4.85025 20.1418L4.89252 20.2023C6.16643 21.9747 7.87387 23.3905 9.85157 24.3141C11.8293 25.2377 14.0109 25.6383 16.1877 25.4774C18.3645 25.3165 20.4637 24.5995 22.2841 23.3952C24.1045 22.1908 25.5852 20.5394 26.5846 18.5989C27.5841 16.6584 28.0687 14.4939 27.9922 12.3125C27.9156 10.1311 27.2806 8.00586 26.1476 6.14021C25.0146 4.27456 23.4217 2.73095 21.5214 1.65714C19.621 0.583333 17.4769 0.0152685 15.2942 0.00732494L15.296 0Z" fill="#1E1F4B"/>
<path d="M15.1788 5.77148C14.8698 5.77148 14.5732 5.89426 14.3546 6.11279C14.1361 6.33133 14.0133 6.62774 14.0133 6.93679V12.8238C14.0173 13.1321 14.1393 13.4271 14.3542 13.6483L17.852 17.1772C18.0725 17.3925 18.3683 17.5131 18.6765 17.5131C18.9846 17.5131 19.2804 17.3925 19.5009 17.1772C19.7193 16.9584 19.842 16.6619 19.842 16.3527C19.842 16.0435 19.7193 15.747 19.5009 15.5282L16.3367 12.3364V6.93679C16.3367 6.62774 16.2139 6.33133 15.9954 6.11279C15.7769 5.89426 15.4805 5.77148 15.1714 5.77148H15.1788Z" fill="#1E1F4B"/>
</svg>
