<svg width="16" height="15" viewBox="0 0 16 15" fill="none" xmlns="http://www.w3.org/2000/svg">
<g id="Group 264">
<path id="Path 256" d="M9.02497 0.414062C7.48671 0.422004 5.99447 0.939914 4.78205 1.88668C3.56964 2.83345 2.70547 4.1556 2.3249 5.64606L1.85896 4.94606C1.81608 4.87436 1.75951 4.81181 1.69245 4.76197C1.6254 4.71213 1.54923 4.67599 1.46821 4.65561C1.38719 4.63523 1.30294 4.631 1.22029 4.64318C1.13763 4.65535 1.0581 4.68369 0.986399 4.72656C0.914697 4.76944 0.852153 4.82602 0.802317 4.89307C0.752482 4.96012 0.716376 5.03633 0.695994 5.11735C0.675611 5.19837 0.671369 5.28261 0.683543 5.36526C0.695716 5.44791 0.72404 5.52736 0.766917 5.59906C0.775942 5.61533 0.78599 5.63103 0.796946 5.64606L2.19697 7.76706C2.29348 7.90245 2.43547 7.99864 2.59699 8.03806C2.76319 8.07106 2.93566 8.03806 3.07795 7.94606L5.17793 6.53106C5.32101 6.44168 5.42279 6.29913 5.46076 6.13475C5.49874 5.97037 5.46982 5.79764 5.38044 5.65456C5.29106 5.51148 5.14846 5.40976 4.98408 5.37178C4.8197 5.3338 4.64706 5.36268 4.50398 5.45206L4.46797 5.47506L3.51289 6.11906C3.81476 4.84876 4.54325 3.72042 5.57661 2.92233C6.60997 2.12423 7.88576 1.70468 9.19111 1.73368C10.4965 1.76268 11.7523 2.23848 12.7492 3.08168C13.7461 3.92487 14.4237 5.08446 14.6689 6.36691C14.914 7.64936 14.712 8.9771 14.0964 10.1285C13.4808 11.28 12.4888 12.1855 11.2862 12.6939C10.0836 13.2023 8.74298 13.2829 7.48811 12.9223C6.23324 12.5616 5.14006 11.7815 4.39094 10.7121C4.29634 10.5762 4.15265 10.4826 3.99018 10.4509C3.82772 10.4192 3.65927 10.452 3.52058 10.5424C3.38188 10.6327 3.28384 10.7735 3.24714 10.9349C3.21044 11.0963 3.23793 11.2656 3.32392 11.4071L3.34699 11.4401C4.04227 12.4074 4.97415 13.1801 6.05354 13.6842C7.13292 14.1883 8.32362 14.4069 9.51167 14.3191C10.6997 14.2313 11.8454 13.84 12.8389 13.1827C13.8325 12.5253 14.6406 11.624 15.1861 10.5649C15.7316 9.50588 15.9961 8.32453 15.9543 7.13397C15.9125 5.94341 15.5659 4.7835 14.9476 3.76526C14.3292 2.74703 13.4598 1.90456 12.4227 1.3185C11.3855 0.732434 10.2153 0.422396 9.024 0.41806L9.02497 0.414062Z" fill="#1E1F4B"/>
<path id="Path 257" d="M8.96106 3.56409C8.79238 3.56409 8.6305 3.63109 8.51123 3.75037C8.39196 3.86964 8.32495 4.03141 8.32495 4.20009V7.41309C8.32713 7.58135 8.39372 7.74239 8.51099 7.86309L10.42 9.78909C10.5404 9.90661 10.7018 9.9724 10.87 9.9724C11.0382 9.9724 11.1996 9.90661 11.3199 9.78909C11.4391 9.66966 11.5061 9.50782 11.5061 9.33909C11.5061 9.17035 11.4391 9.00851 11.3199 8.88909L9.59302 7.14709V4.20009C9.59302 4.03141 9.52601 3.86964 9.40674 3.75037C9.28747 3.63109 9.12571 3.56409 8.95703 3.56409H8.96106Z" fill="#1E1F4B"/>
</g>
</svg>
