<svg width="23" height="23" viewBox="0 0 23 23" fill="none" xmlns="http://www.w3.org/2000/svg">
<g id="Group 92">
<g id="Group 840">
<g id="Group 839">
<g id="Group 838">
<g id="Group 837">
<g id="Group 836">
<path id="Path 850" d="M14.554 11.45C14.5545 11.5302 14.539 11.6098 14.5086 11.6841C14.4781 11.7583 14.4332 11.8258 14.3765 11.8826C14.3197 11.9393 14.2522 11.9842 14.178 12.0146C14.1037 12.0451 14.0241 12.0606 13.9439 12.0601H9.89381C9.81356 12.0606 9.73417 12.0451 9.65993 12.0146C9.58568 11.9842 9.51819 11.9393 9.46144 11.8826C9.40469 11.8258 9.35983 11.7583 9.32936 11.6841C9.29889 11.6098 9.28342 11.5302 9.28395 11.45C9.28448 11.2883 9.34886 11.1336 9.46315 11.0193C9.57743 10.905 9.73219 10.8405 9.89381 10.84H13.9439C14.1055 10.8405 14.2605 10.905 14.3748 11.0193C14.4891 11.1336 14.5534 11.2883 14.554 11.45Z" fill="#3F3F55"/>
</g>
</g>
</g>
</g>
</g>
<g id="Group 843">
<g id="Group 842">
<g id="Group 841">
<path id="Path 851" d="M18.6968 7.95398L13.813 4.10901C13.274 3.68202 12.6066 3.44971 11.9189 3.44971C11.2313 3.44971 10.5639 3.68202 10.0249 4.10901L5.15088 7.95398C4.78843 8.24021 4.49569 8.60495 4.29443 9.02063C4.09317 9.43631 3.98851 9.89216 3.98877 10.354V16.4C3.99009 17.2088 4.31215 17.984 4.88403 18.5559C5.45592 19.1278 6.23103 19.4497 7.0398 19.451H16.8079C17.6151 19.4479 18.3884 19.125 18.9583 18.5532C19.5282 17.9815 19.8484 17.2073 19.8489 16.4V10.354C19.8488 9.89323 19.7453 9.43834 19.5459 9.02295C19.3465 8.60756 19.0562 8.24224 18.6968 7.95398ZM16.8079 17.844H7.0398C6.65547 17.8445 6.28661 17.6928 6.01392 17.422C5.74122 17.1512 5.58708 16.7834 5.58496 16.399V10.353C5.58467 10.1341 5.63462 9.91803 5.7312 9.72156C5.82779 9.52509 5.96831 9.35344 6.14185 9.21997L11.0259 5.36499C11.2771 5.16198 11.5908 5.05207 11.9138 5.05396C12.2411 5.04834 12.56 5.15852 12.814 5.36499L17.7068 9.21997C17.8777 9.35527 18.0159 9.52755 18.1108 9.72375C18.2057 9.91996 18.2549 10.1351 18.2549 10.353V16.399C18.253 16.7819 18.1002 17.1484 17.8293 17.4191C17.5585 17.6897 17.1907 17.8424 16.8079 17.844Z" fill="#3F3F55"/>
</g>
</g>
</g>
</g>
</svg>
