<svg width="17" height="13" viewBox="0 0 17 13" fill="none" xmlns="http://www.w3.org/2000/svg">
<g id="Group 1267">
<g id="Group 1266">
<path id="Path 2418" d="M9.34595 12.2H1.34595C1.08073 12.2 0.826452 12.0946 0.638916 11.9071C0.45138 11.7196 0.345947 11.4652 0.345947 11.2C0.345947 10.9348 0.45138 10.6804 0.638916 10.4929C0.826452 10.3054 1.08073 10.2 1.34595 10.2H9.34595C9.61116 10.2 9.86569 10.3054 10.0532 10.4929C10.2408 10.6804 10.3459 10.9348 10.3459 11.2C10.3459 11.4652 10.2408 11.7196 10.0532 11.9071C9.86569 12.0946 9.61116 12.2 9.34595 12.2ZM15.3459 7.2H1.34595C1.08073 7.2 0.826452 7.09464 0.638916 6.90711C0.45138 6.71957 0.345947 6.46522 0.345947 6.2C0.345947 5.93478 0.45138 5.68043 0.638916 5.49289C0.826452 5.30536 1.08073 5.2 1.34595 5.2H15.3459C15.6112 5.2 15.8657 5.30536 16.0532 5.49289C16.2408 5.68043 16.3459 5.93478 16.3459 6.2C16.3459 6.46522 16.2408 6.71957 16.0532 6.90711C15.8657 7.09464 15.6112 7.2 15.3459 7.2ZM9.34595 2.2H1.34595C1.08073 2.2 0.826452 2.09464 0.638916 1.90711C0.45138 1.71957 0.345947 1.46522 0.345947 1.2C0.345947 0.934784 0.45138 0.68043 0.638916 0.492893C0.826452 0.305357 1.08073 0.200001 1.34595 0.200001H9.34595C9.61116 0.200001 9.86569 0.305357 10.0532 0.492893C10.2408 0.68043 10.3459 0.934784 10.3459 1.2C10.3459 1.46522 10.2408 1.71957 10.0532 1.90711C9.86569 2.09464 9.61116 2.2 9.34595 2.2Z" fill="#1E1F4B"/>
</g>
</g>
</svg>
