<svg width="33" height="31" viewBox="0 0 33 31" fill="none" xmlns="http://www.w3.org/2000/svg">
<path d="M32.962 14.6444V24.6862C33.0612 25.5342 32.9656 26.3934 32.6825 27.1996C32.3993 28.0058 31.936 28.738 31.327 29.3417C30.7181 29.9453 29.9793 30.4046 29.166 30.6852C28.3527 30.9659 27.4859 31.0606 26.6305 30.9623H6.36953C5.51408 31.0606 4.64728 30.9659 3.83398 30.6852C3.02068 30.4046 2.28192 29.9453 1.67298 29.3417C1.06403 28.738 0.600664 28.0058 0.317532 27.1996C0.0343996 26.3934 -0.0611656 25.5342 0.0379848 24.6862V7.94979C-0.0611656 7.10183 0.0343996 6.24261 0.317532 5.43642C0.600664 4.63024 1.06403 3.89794 1.67298 3.29433C2.28192 2.69071 3.02068 2.2314 3.83398 1.95074C4.64728 1.67009 5.51408 1.57536 6.36953 1.67364H18.1884C18.5243 1.67364 18.8463 1.80589 19.0838 2.04129C19.3213 2.27669 19.4547 2.59596 19.4547 2.92887C19.4547 3.26178 19.3213 3.58105 19.0838 3.81645C18.8463 4.05185 18.5243 4.1841 18.1884 4.1841H6.36953C3.7069 4.1841 2.5706 5.31046 2.5706 7.94979V23.431L6.85917 19.1799C7.17795 18.8664 7.60885 18.6904 8.05794 18.6904C8.50704 18.6904 8.93793 18.8664 9.25671 19.1799L10.8438 20.7531C11.0016 20.9065 11.2138 20.9924 11.4348 20.9924C11.6557 20.9924 11.8679 20.9065 12.0257 20.7531L20.3665 12.4854C20.6852 12.1718 21.1161 11.9958 21.5652 11.9958C22.0143 11.9958 22.4452 12.1718 22.764 12.4854L30.4294 20.0837V14.6444C30.4294 14.3114 30.5628 13.9922 30.8003 13.7568C31.0378 13.5214 31.3599 13.3891 31.6957 13.3891C32.0316 13.3891 32.3536 13.5214 32.5911 13.7568C32.8286 13.9922 32.962 14.3114 32.962 14.6444ZM9.73453 9.20502C9.17396 9.20657 8.63693 9.4286 8.24137 9.82234C7.84582 10.2161 7.62408 10.7493 7.62487 11.305C7.62565 11.8607 7.84888 12.3933 8.24555 12.786C8.64221 13.1786 9.17987 13.3992 9.74044 13.3992C10.301 13.3992 10.8387 13.1786 11.2353 12.786C11.632 12.3933 11.8552 11.8607 11.856 11.305C11.8568 10.7493 11.6351 10.2161 11.2395 9.82234C10.844 9.4286 10.3069 9.20657 9.74635 9.20502H9.73453ZM24.9421 5.85774H27.0526V7.94979C27.0526 8.2827 27.186 8.60197 27.4235 8.83737C27.6609 9.07277 27.983 9.20502 28.3189 9.20502C28.6547 9.20502 28.9768 9.07277 29.2143 8.83737C29.4518 8.60197 29.5852 8.2827 29.5852 7.94979V5.85774H31.6957C32.0316 5.85774 32.3536 5.72549 32.5911 5.49009C32.8286 5.25469 32.962 4.93542 32.962 4.60251C32.962 4.2696 32.8286 3.95033 32.5911 3.71493C32.3536 3.47953 32.0316 3.34728 31.6957 3.34728H29.5852V1.25523C29.5852 0.922323 29.4518 0.60305 29.2143 0.367648C28.9768 0.132247 28.6547 0 28.3189 0C27.983 0 27.6609 0.132247 27.4235 0.367648C27.186 0.60305 27.0526 0.922323 27.0526 1.25523V3.34728H24.9421C24.6062 3.34728 24.2841 3.47953 24.0466 3.71493C23.8092 3.95033 23.6758 4.2696 23.6758 4.60251C23.6758 4.93542 23.8092 5.25469 24.0466 5.49009C24.2841 5.72549 24.6062 5.85774 24.9421 5.85774Z" fill="#D9D9D9"/>
</svg>
