<svg width="9" height="8" viewBox="0 0 9 8" fill="none" xmlns="http://www.w3.org/2000/svg">
<g id="Group 1317">
<g id="Group 1316">
<path id="Path 2465" d="M4.5 1.10001C5.509 1.10001 5.6281 1.09999 6.0271 1.12199C6.26616 1.12491 6.50289 1.16889 6.72705 1.252C6.8909 1.31301 7.03897 1.40968 7.16089 1.535C7.28647 1.6567 7.38338 1.805 7.44409 1.96899C7.52724 2.19315 7.57109 2.42995 7.57397 2.66901C7.59197 3.06901 7.59595 3.18701 7.59595 4.19501C7.59595 5.20301 7.59597 5.323 7.57397 5.722C7.57113 5.96106 7.52728 6.19785 7.44409 6.422C7.38339 6.58629 7.28649 6.73492 7.16089 6.85699C7.0392 6.98235 6.89103 7.07874 6.72705 7.13901C6.50289 7.22212 6.26616 7.26608 6.0271 7.269C5.6271 7.287 5.509 7.291 4.5 7.291C3.491 7.291 3.3719 7.291 2.9729 7.269C2.73384 7.26608 2.49711 7.22212 2.27295 7.13901C2.10897 7.07874 1.9608 6.98235 1.83911 6.85699C1.71351 6.73492 1.61661 6.58629 1.55591 6.422C1.47272 6.19785 1.42887 5.96106 1.42603 5.722C1.40803 5.322 1.40405 5.20401 1.40405 4.19501C1.40405 3.18601 1.40403 3.06701 1.42603 2.66901C1.42891 2.42995 1.47276 2.19315 1.55591 1.96899C1.61662 1.805 1.71353 1.6567 1.83911 1.535C1.96103 1.40968 2.1091 1.31301 2.27295 1.252C2.49711 1.16889 2.73384 1.12491 2.9729 1.12199C3.3729 1.10399 3.491 1.10001 4.5 1.10001ZM4.5 0.419006C3.474 0.419006 3.34489 0.419001 2.94189 0.442001C2.62849 0.448529 2.31845 0.50803 2.0249 0.617996C1.77263 0.712517 1.54429 0.861371 1.35596 1.054C1.16379 1.24252 1.01524 1.47089 0.920898 1.72301C0.810236 2.01636 0.750925 2.32652 0.745117 2.64C0.727117 3.04 0.721924 3.17101 0.721924 4.19701C0.721924 5.22301 0.727117 5.35201 0.745117 5.755C0.750925 6.06849 0.810236 6.37864 0.920898 6.672C1.01548 6.924 1.16399 7.15232 1.35596 7.341C1.54482 7.53298 1.77301 7.68172 2.0249 7.77699C2.31852 7.88658 2.62855 7.94575 2.94189 7.952C3.34189 7.971 3.474 7.97501 4.5 7.97501C5.526 7.97501 5.65511 7.975 6.05811 7.952C6.37145 7.94575 6.68148 7.88658 6.9751 7.77699C7.22699 7.68172 7.45518 7.53298 7.64404 7.341C7.83601 7.15232 7.98452 6.924 8.0791 6.672C8.18976 6.37864 8.24907 6.06849 8.25488 5.755C8.27288 5.355 8.27808 5.22301 8.27808 4.19701C8.27808 3.17101 8.27288 3.043 8.25488 2.64C8.24907 2.32652 8.18976 2.01636 8.0791 1.72301C7.98476 1.47089 7.83621 1.24252 7.64404 1.054C7.45571 0.861371 7.22737 0.712517 6.9751 0.617996C6.68155 0.50803 6.37151 0.448529 6.05811 0.442001C5.65811 0.424001 5.526 0.419006 4.5 0.419006Z" fill="white"/>
<path id="Path 2466" d="M4.5 2.257C3.98548 2.257 3.49199 2.46139 3.12817 2.82521C2.76435 3.18903 2.56006 3.68249 2.56006 4.19701C2.56006 4.71153 2.76435 5.20497 3.12817 5.56879C3.49199 5.93261 3.98548 6.13699 4.5 6.13699C5.01452 6.13699 5.50801 5.93261 5.87183 5.56879C6.23565 5.20497 6.43994 4.71153 6.43994 4.19701C6.43994 3.68249 6.23565 3.18903 5.87183 2.82521C5.50801 2.46139 5.01452 2.257 4.5 2.257ZM4.5 5.457C4.16609 5.457 3.84597 5.32435 3.60986 5.08824C3.37375 4.85213 3.24097 4.53191 3.24097 4.198C3.24097 3.86409 3.37375 3.54386 3.60986 3.30775C3.84597 3.07165 4.16609 2.939 4.5 2.939C4.83391 2.939 5.15403 3.07165 5.39014 3.30775C5.62625 3.54386 5.75903 3.86409 5.75903 4.198C5.75877 4.53173 5.62597 4.85171 5.38989 5.0876C5.15381 5.32349 4.83373 5.45599 4.5 5.45599V5.457Z" fill="white"/>
<path id="Ellipse 67" d="M6.51599 2.63301C6.76617 2.63301 6.96899 2.43019 6.96899 2.18001C6.96899 1.92982 6.76617 1.72701 6.51599 1.72701C6.2658 1.72701 6.06299 1.92982 6.06299 2.18001C6.06299 2.43019 6.2658 2.63301 6.51599 2.63301Z" fill="white"/>
</g>
</g>
</svg>
