<svg width="40" height="40" viewBox="0 0 40 40" fill="none" xmlns="http://www.w3.org/2000/svg">
<g id="b">
<g id="c">
<g id="Group">
<g id="d">
<path id="Vector" d="M13.96 19.93C13.96 19.31 13.46 18.82 12.85 18.82H4.33998C3.71998 18.82 3.22998 19.32 3.22998 19.93V26.61C3.22998 27.23 3.72998 27.72 4.33998 27.72C4.94998 27.72 5.44998 27.22 5.44998 26.61V21.04H12.85C13.47 21.04 13.96 20.54 13.96 19.93ZM4.33998 14.36H10.12C10.74 14.36 11.23 13.86 11.23 13.25C11.23 12.64 10.73 12.14 10.12 12.14H5.44998V6.57C5.44998 5.95 4.94998 5.46 4.33998 5.46C3.72998 5.46 3.22998 5.96 3.22998 6.57V13.25C3.22998 13.87 3.72998 14.36 4.33998 14.36ZM35.66 5.45C35.04 5.45 34.55 5.95 34.55 6.56V12.13H30.02C29.4 12.13 28.91 12.63 28.91 13.24C28.91 13.85 29.41 14.35 30.02 14.35H35.66C36.28 14.35 36.77 13.85 36.77 13.24V6.57C36.77 5.95 36.27 5.46 35.66 5.46V5.45ZM35.66 18.81H27.15C26.53 18.81 26.04 19.31 26.04 19.92C26.04 20.53 26.54 21.03 27.15 21.03H34.55V26.6C34.55 27.22 35.05 27.71 35.66 27.71C36.27 27.71 36.77 27.21 36.77 26.6V19.92C36.77 19.3 36.27 18.81 35.66 18.81ZM20 17.7C23.68 17.7 26.68 14.7 26.68 11.02C26.68 7.34 23.68 4.34 20 4.34C16.32 4.34 13.32 7.34 13.32 11.02C13.32 14.7 16.32 17.7 20 17.7ZM26.68 36.77H13.32C12.7 36.77 12.21 37.27 12.21 37.88C12.21 38.49 12.71 38.99 13.32 38.99H26.68C27.3 38.99 27.79 38.49 27.79 37.88C27.79 37.27 27.29 36.77 26.68 36.77Z" fill="url(#paint0_linear_6_3191)"/>
<path id="Vector_2" d="M20 1C10.73 1 6.34 11.31 10.72 18.3L19.02 33.81C19.21 34.17 19.59 34.4 20 34.4C20.41 34.4 20.79 34.17 20.98 33.81L29.27 18.33C33.64 11.29 29.32 1 20 1ZM20 16.59C16.93 16.59 14.43 14.09 14.43 11.02C14.43 7.95 16.93 5.45 20 5.45C23.07 5.45 25.57 7.95 25.57 11.02C25.57 14.09 23.07 16.59 20 16.59ZM35.66 25.5C33.82 25.5 32.32 27 32.32 28.84C32.32 30.68 33.82 32.18 35.66 32.18C37.5 32.18 39 30.68 39 28.84C39 27 37.5 25.5 35.66 25.5ZM35.66 7.69C37.5 7.69 39 6.19 39 4.35C39 2.51 37.5 1.01 35.66 1.01C33.82 1.01 32.32 2.51 32.32 4.35C32.32 6.19 33.82 7.69 35.66 7.69ZM4.34 1C2.5 1 1 2.5 1 4.34C1 6.18 2.5 7.68 4.34 7.68C6.18 7.68 7.68 6.18 7.68 4.34C7.68 2.5 6.18 1 4.34 1ZM4.34 25.49C2.5 25.49 1 26.99 1 28.83C1 30.67 2.5 32.17 4.34 32.17C6.18 32.17 7.68 30.67 7.68 28.83C7.68 26.99 6.18 25.49 4.34 25.49Z" fill="url(#paint1_linear_6_3191)"/>
</g>
</g>
</g>
</g>
<defs>
<linearGradient id="paint0_linear_6_3191" x1="20" y1="39" x2="20" y2="4.34" gradientUnits="userSpaceOnUse">
<stop stop-color="#79DCFF"/>
<stop offset="0.5" stop-color="#DEF6FF"/>
<stop offset="1" stop-color="#EAF6FF"/>
</linearGradient>
<linearGradient id="paint1_linear_6_3191" x1="20" y1="34.39" x2="20" y2="1" gradientUnits="userSpaceOnUse">
<stop stop-color="#5558FF"/>
<stop offset="1" stop-color="#00C0FF"/>
</linearGradient>
</defs>
</svg>
