<?xml version="1.0" encoding="utf-8"?>
<!-- Generator: Adobe Illustrator 26.1.0, SVG Export Plug-In . SVG Version: 6.00 Build 0)  -->
<svg version="1.1" id="Layer_1" xmlns="http://www.w3.org/2000/svg" xmlns:xlink="http://www.w3.org/1999/xlink" x="0px" y="0px"
	 viewBox="0 0 512 512" style="enable-background:new 0 0 512 512;" xml:space="preserve">
<style type="text/css">
	.st0{fill-rule:evenodd;clip-rule:evenodd;fill:#3972FE;}
</style>
<path class="st0" d="M375.3,256c0-10.4-8.4-18.7-18.8-18.7c0,0,0,0,0,0H200.7l48.6-48.6c7.3-7.4,7.2-19.2-0.2-26.5
	c-7.3-7.2-19.1-7.2-26.4,0l-80.6,80.6c-7.3,7.3-7.3,19.2,0,26.5l80.6,80.6c7.4,7.3,19.3,7.1,26.5-0.3c7.1-7.3,7.2-18.9,0-26.2
	l-48.6-48.6h155.8C366.9,274.8,375.3,266.4,375.3,256C375.3,256.1,375.3,256,375.3,256L375.3,256z"/>
</svg>
