<svg width="11" height="9" viewBox="0 0 11 9" fill="none" xmlns="http://www.w3.org/2000/svg">
<g id="bi:arrow-left-short">
<g id="Group-2">
<path id="Vector-5" d="M10.5 4.37398C10.5001 4.45596 10.4842 4.53716 10.4529 4.61293C10.4216 4.6887 10.3756 4.75754 10.3176 4.81551C10.2597 4.87348 10.1908 4.91944 10.115 4.95075C10.0392 4.98206 9.95796 4.99811 9.87598 4.99798H2.63403L5.31812 7.67998C5.436 7.79734 5.50231 7.95672 5.50269 8.12307C5.50306 8.28941 5.43743 8.44909 5.32007 8.56698C5.20271 8.68487 5.0433 8.75131 4.87695 8.75168C4.71061 8.75206 4.55099 8.68634 4.43311 8.56898L0.683105 4.81598C0.566226 4.69898 0.500488 4.54036 0.500488 4.37498C0.500488 4.2096 0.566226 4.05098 0.683105 3.93398L4.43311 0.183979C4.49094 0.123768 4.56006 0.0757135 4.63672 0.0426367C4.71338 0.00955994 4.79591 -0.00787179 4.87939 -0.00864042C4.96288 -0.00940904 5.04579 0.00650232 5.12305 0.0381621C5.2003 0.0698219 5.27041 0.116592 5.32935 0.175728C5.38828 0.234863 5.43467 0.305174 5.46606 0.382534C5.49746 0.459894 5.51326 0.542742 5.51221 0.626224C5.51116 0.709707 5.4933 0.792142 5.45996 0.868687C5.42662 0.945231 5.37852 1.01435 5.31812 1.07198L2.63403 3.75298H9.87598C9.95796 3.75285 10.0392 3.7689 10.115 3.80021C10.1908 3.83152 10.2597 3.87748 10.3176 3.93545C10.3756 3.99342 10.4216 4.06226 10.4529 4.13803C10.4842 4.21379 10.5001 4.295 10.5 4.37698V4.37398Z" fill="#1D2438"/>
</g>
</g>
</svg>
