<svg width="47" height="96" viewBox="0 0 47 96" fill="none" xmlns="http://www.w3.org/2000/svg">
<g id="Group 3704">
<path id="Path 7649" style="mix-blend-mode:multiply" d="M46.7 71.9002C46.698 76.4883 45.3356 80.9728 42.7852 84.7867C40.2347 88.6006 36.6108 91.5726 32.3714 93.3271C28.1319 95.0815 23.4675 95.5395 18.9678 94.6432C14.4681 93.7469 10.3352 91.5365 7.09158 88.2915C3.848 85.0466 1.63951 80.9127 0.745142 76.4126C-0.149225 71.9125 0.310672 67.2483 2.06692 63.0096C3.82317 58.771 6.79684 55.1482 10.6118 52.5994C14.4268 50.0506 18.9119 48.6902 23.5 48.6902C26.5475 48.6902 29.5652 49.2906 32.3806 50.4571C35.196 51.6237 37.754 53.3335 39.9085 55.4888C42.0629 57.6442 43.7715 60.203 44.9368 63.0189C46.1021 65.8348 46.7013 68.8527 46.7 71.9002Z" fill="url(#paint0_radial_69_973)"/>
<path id="Path 7650" d="M23.5659 0.0371094C23.5449 0.0371094 23.5239 0.0371094 23.5029 0.0371094C23.4819 0.0371094 23.4581 0.0371094 23.4441 0.0371094C17.2919 0.0688248 11.4024 2.53476 7.06299 6.89594C2.72355 11.2571 0.286864 17.1588 0.285889 23.3111C0.285889 38.4761 14.6381 66.8761 23.4441 67.1391V67.1501C23.4581 67.1501 23.4779 67.1501 23.5029 67.1501H23.5659V67.1391C32.3659 66.8761 46.7141 38.4761 46.7141 23.3111C46.7134 17.1605 44.2783 11.2601 39.9409 6.89915C35.6036 2.53821 29.7165 0.0711959 23.5659 0.0371094ZM23.4441 39.7821C20.1862 39.7843 17.0007 38.8202 14.2908 37.0118C11.5809 35.2034 9.46826 32.632 8.21997 29.6228C6.97168 26.6135 6.6439 23.3016 7.27808 20.1061C7.91225 16.9105 9.47988 13.9748 11.7827 11.6703C14.0855 9.36579 17.02 7.796 20.2151 7.1595C23.4102 6.523 26.7225 6.84837 29.7327 8.09447C32.7428 9.34056 35.3156 11.4514 37.126 14.16C38.9363 16.8686 39.9029 20.0532 39.9031 23.3111C39.9023 27.6772 38.1682 31.8643 35.082 34.9527C31.9959 38.0411 27.8102 39.7781 23.4441 39.7821Z" fill="url(#paint1_linear_69_973)"/>
<path id="Path 7651" d="M23.5659 4.78003H23.5029H23.4441C17.2918 4.81201 11.4022 7.27818 7.06274 11.6395C2.72333 16.0008 0.286863 21.9026 0.285889 28.055C0.285889 43.22 14.6381 71.618 23.4441 71.881V71.892H23.5029H23.5659V71.881C32.3659 71.618 46.7141 43.22 46.7141 28.055C46.7134 21.9043 44.2782 16.0038 39.9409 11.6427C35.6036 7.28162 29.7166 4.81438 23.5659 4.78003ZM23.4441 44.526C20.1859 44.5284 17.0003 43.5644 14.29 41.756C11.5798 39.9476 9.46675 37.376 8.21826 34.3665C6.96977 31.3571 6.64194 28.0449 7.27612 24.8491C7.9103 21.6532 9.47797 18.7172 11.781 16.4125C14.084 14.1078 17.019 12.5379 20.2144 11.9014C23.4097 11.2649 26.722 11.5904 29.7324 12.8367C32.7428 14.083 35.3158 16.1941 37.1262 18.903C38.9366 21.6119 39.9031 24.7969 39.9031 28.055C39.9023 32.4211 38.1682 36.6083 35.082 39.6967C31.9959 42.7851 27.8102 44.5221 23.4441 44.526Z" fill="url(#paint2_linear_69_973)"/>
<path id="Path 7652" d="M23.4999 10.3101C19.9924 10.3081 16.5632 11.3464 13.6459 13.2936C10.7286 15.2408 8.45412 18.0095 7.11049 21.2494C5.76686 24.4893 5.41424 28.0549 6.09731 31.4953C6.78037 34.9356 8.46843 38.0961 10.9479 40.5769C13.4274 43.0578 16.5871 44.7476 20.027 45.4326C23.4669 46.1176 27.0326 45.7671 30.2733 44.4253C33.514 43.0835 36.2839 40.8107 38.2328 37.8945C40.1817 34.9782 41.2218 31.5496 41.2218 28.0421C41.22 23.3416 39.3525 18.8339 36.0297 15.5092C32.7068 12.1845 28.2004 10.3146 23.4999 10.3101ZM23.4999 43.6101C20.4196 43.6109 17.4083 42.6982 14.8468 40.9874C12.2853 39.2767 10.2885 36.8447 9.10927 33.9991C7.93 31.1535 7.6213 28.0222 8.22182 25.001C8.82234 21.9799 10.3052 19.2046 12.483 17.0264C14.6609 14.8481 17.4359 13.3646 20.4569 12.7635C23.478 12.1624 26.6094 12.4707 29.4552 13.6494C32.301 14.8281 34.7332 16.8243 36.4445 19.3855C38.1557 21.9467 39.0692 24.9578 39.069 28.0381C39.0687 32.1678 37.4284 36.1284 34.5089 39.0492C31.5894 41.97 27.6296 43.6119 23.4999 43.6141V43.6101Z" fill="url(#paint3_linear_69_973)"/>
</g>
<defs>
<radialGradient id="paint0_radial_69_973" cx="0" cy="0" r="1" gradientUnits="userSpaceOnUse" gradientTransform="translate(23.5 71.8902) scale(23.2 23.2)">
<stop stop-color="#A34040"/>
<stop offset="0.023" stop-color="#A64747"/>
<stop offset="0.213" stop-color="#C17E7E"/>
<stop offset="0.397" stop-color="#D7ACAC"/>
<stop offset="0.572" stop-color="#E8D0D0"/>
<stop offset="0.735" stop-color="#F4EAEA"/>
<stop offset="0.883" stop-color="#FCF9F9"/>
<stop offset="1" stop-color="white"/>
</radialGradient>
<linearGradient id="paint1_linear_69_973" x1="168.635" y1="-23.3182" x2="215.063" y2="-23.3182" gradientUnits="userSpaceOnUse">
<stop stop-color="#FF7A81"/>
<stop offset="0.26" stop-color="#FFC9CC"/>
<stop offset="0.508" stop-color="#FF7A81"/>
<stop offset="0.732" stop-color="#FF7A81"/>
<stop offset="1" stop-color="#FF7A81"/>
</linearGradient>
<linearGradient id="paint2_linear_69_973" x1="191.849" y1="14.9811" x2="191.849" y2="-52.1309" gradientUnits="userSpaceOnUse">
<stop stop-color="#BA0910"/>
<stop offset="1" stop-color="#FF7A81"/>
</linearGradient>
<linearGradient id="paint3_linear_69_973" x1="191.908" y1="-11.1102" x2="191.908" y2="-46.5742" gradientUnits="userSpaceOnUse">
<stop stop-color="#F5565B"/>
<stop offset="1" stop-color="#A3060E"/>
</linearGradient>
</defs>
</svg>
