<svg width="39" height="39" viewBox="0 0 39 39" fill="none" xmlns="http://www.w3.org/2000/svg">
<g id="Location Map">
<g id="Group 1305">
<g id="Group 1284">
<path id="Path 2436" d="M36.586 35.476L27.679 37.766C25.9316 38.2157 24.0825 38.0472 22.4451 37.289L15.4681 34.042C14.5133 33.6006 13.4319 33.5158 12.42 33.803L4.27202 36.114C3.83898 36.2573 3.37564 36.2834 2.92924 36.1897C2.48284 36.096 2.06937 35.8858 1.73051 35.5805C1.39166 35.2752 1.13958 34.8856 1.00004 34.4513C0.860514 34.017 0.838491 33.5536 0.93608 33.108L4.47417 20.073C4.5681 19.728 4.737 19.408 4.96904 19.136L5.84111 18.188L5.71098 18.534C5.90456 18.4299 6.10927 18.3477 6.32109 18.289C12.5011 16.712 13.156 16.226 15.104 16.489C15.8297 16.5858 16.5343 16.8014 17.19 17.127C22.707 19.86 22.5712 19.887 22.8702 19.819L30.129 18.077C30.811 17.9122 31.5303 18.0115 32.1421 18.355L31.9031 17.891C32.7261 18.83 33.024 19.017 33.262 19.605L38.3621 32.174C38.49 32.5063 38.5445 32.8622 38.522 33.2175C38.4996 33.5729 38.4006 33.9191 38.232 34.2327C38.0633 34.5462 37.829 34.8196 37.545 35.0342C37.2609 35.2488 36.9337 35.3995 36.586 35.476Z" fill="#B0B8CF"/>
</g>
<g id="Group 1285">
<path id="Path 2437" d="M38.4519 33.7L36.6641 32.966L30.6851 18C31.1941 17.9813 31.6984 18.1039 32.1421 18.354L31.9031 17.89C32.7261 18.829 33.024 19.016 33.262 19.604L38.3621 32.173C38.5605 32.658 38.592 33.1951 38.4519 33.7Z" fill="#9EA9C9"/>
</g>
<g id="Group 1286">
<path id="Path 2438" d="M25.0449 37.982C24.1443 37.9054 23.2643 37.6708 22.4451 37.289L15.468 34.042C15.0035 33.8255 14.5038 33.6937 13.9929 33.653L14.0291 31.922C16.6121 30.736 24.9839 36.515 24.9839 36.515L25.0449 37.982Z" fill="#9EA9C9"/>
</g>
<g id="Group 1287">
<path id="Path 2439" d="M6.30586 18.293L3.61787 33.932L1.54707 35.408C1.25174 35.1124 1.03962 34.744 0.932327 34.3401C0.825039 33.9363 0.826305 33.5112 0.935989 33.108L4.47408 20.073C4.56801 19.728 4.73691 19.408 4.96895 19.136L5.84102 18.188L5.71089 18.534C5.89913 18.4307 6.0988 18.3498 6.30586 18.293Z" fill="#9EA9C9"/>
</g>
<g id="Group 1288">
<path id="Path 2440" d="M36.3 33.9L27.393 36.335C25.8983 36.7428 24.3058 36.5887 22.917 35.902L15.9389 32.449C14.7484 31.8602 13.3786 31.7458 12.1069 32.129L3.95895 34.586C3.69121 34.6666 3.40692 34.6748 3.13498 34.6097C2.86305 34.5446 2.6133 34.4085 2.4111 34.2154C2.20891 34.0222 2.06158 33.7789 1.9841 33.5102C1.90662 33.2416 1.90164 32.9572 1.96994 32.686L5.50803 18.829C5.57626 18.5608 5.71365 18.3152 5.90671 18.1168C6.09977 17.9185 6.34158 17.7744 6.60788 17.699L12.7361 15.965C14.0573 15.5916 15.4716 15.7417 16.685 16.384C22.147 19.226 22.0461 19.344 22.6411 19.384C23.0841 19.413 22.6409 19.436 30.3889 17.484C30.7648 17.3881 31.1628 17.4337 31.5073 17.6122C31.8517 17.7907 32.1187 18.0896 32.2571 18.452L37.3569 31.815C37.4352 32.0207 37.4696 32.2405 37.458 32.4602C37.4464 32.68 37.389 32.8949 37.2895 33.0912C37.19 33.2875 37.0505 33.4608 36.8801 33.6001C36.7097 33.7394 36.5122 33.8415 36.3 33.9Z" fill="#E3E7F0"/>
</g>
<g id="Group 1289">
<path id="Path 2441" d="M14.9499 15.813L14.029 31.922C13.3821 31.8715 12.7314 31.9417 12.1101 32.129L3.96188 34.586C3.69414 34.6666 3.40984 34.6748 3.13791 34.6097C2.86597 34.5446 2.61623 34.4085 2.41403 34.2154C2.21184 34.0222 2.06451 33.7789 1.98703 33.5102C1.90955 33.2416 1.90457 32.9572 1.97287 32.686L5.51096 18.829C5.57919 18.5608 5.71682 18.3152 5.90988 18.1168C6.10294 17.9185 6.34475 17.7744 6.61105 17.699L12.739 15.965C13.4571 15.7597 14.2104 15.7079 14.9499 15.813Z" fill="#F1F6FA"/>
</g>
<g id="Group 1290">
<path id="Path 2442" d="M36.3 33.9L27.3931 36.335C26.608 36.5491 25.789 36.6099 24.981 36.514C24.32 31.8 23.1011 23.054 22.6421 19.376C23.0851 19.405 22.6419 19.428 30.3899 17.476C30.7658 17.3801 31.1639 17.4257 31.5083 17.6042C31.8527 17.7827 32.1197 18.0816 32.2581 18.444L37.3579 31.807C37.4375 32.0132 37.4729 32.2338 37.4619 32.4546C37.4509 32.6753 37.3937 32.8913 37.2939 33.0886C37.1942 33.2858 37.0543 33.46 36.8831 33.5997C36.7118 33.7395 36.5133 33.8418 36.3 33.9Z" fill="#F1F6FA"/>
</g>
<g id="Group 1291">
<path id="Path 2443" d="M22.0001 33.887C21.7453 33.8726 21.4907 33.9189 21.2572 34.022L14.1022 30.769L3.66418 33.356C3.54908 33.3847 3.42843 33.3832 3.31408 33.3516C3.19974 33.3201 3.09543 33.2595 3.01135 33.1758C2.92727 33.0921 2.86622 32.9882 2.8341 32.874C2.80199 32.7598 2.79986 32.6392 2.828 32.524L5.02819 23.51C5.16719 22.938 5.87206 23.83 6.51306 23.087C7.15406 22.344 6.88419 23.255 7.42419 23.23C7.96419 23.205 8.13321 23.02 8.67321 22.163C9.21321 21.306 9.75322 21.838 10.6312 21.936C11.5092 22.034 11.4071 21.906 11.7111 21.548C11.8391 21.345 12.0425 21.2012 12.2765 21.1479C12.5105 21.0947 12.7559 21.1364 12.9591 21.264C13.4413 21.4551 13.9615 21.5307 14.4781 21.485C14.612 21.5129 14.7472 21.534 14.8832 21.548C15.0522 21.562 15.1201 21.399 15.4571 21.548C15.7941 21.697 15.8281 21.635 16.1661 22.163C16.5041 22.691 16.9762 23.121 17.5162 22.7C18.0562 22.279 17.9211 22.716 17.9891 22.918C18.1283 23.4214 18.357 23.8956 18.6642 24.318C19.0692 24.809 19.4061 24.84 19.4061 25.684C19.4061 26.528 19.0062 26.696 19.6322 27.641C20.2582 28.586 20.6891 28.688 20.1151 29.498C19.5411 30.308 20.25 30.409 21.566 31.662C22.882 32.915 22.5061 33.887 22.0001 33.887Z" fill="#5EC363"/>
</g>
<g id="Group 1292">
<path id="Path 2444" d="M32.8821 23.494C32.465 23.5836 32.0531 23.6972 31.649 23.834C31.211 24.003 31.379 23.75 30.94 23.434C30.501 23.118 30.671 23.519 30.316 24.16C29.961 24.801 30.0161 24.97 29.4051 24.818C28.7941 24.666 27.9529 25.358 27.9529 25.358L26.823 25.324C26.4319 25.2623 26.0377 25.2229 25.6421 25.206C25.2191 25.206 24.814 25.746 24.46 25.696C24.14 25.6962 23.8237 25.7644 23.532 25.896C23.332 25.71 23.1482 25.546 22.8912 25.322C22.5032 24.985 22.6711 24.968 22.4861 24.696C22.3011 24.424 21.963 24.58 21.625 24.36C21.287 24.14 21.7092 24.225 21.6932 23.938C21.6772 23.651 21.3721 23.787 21.2881 23.449C21.2041 23.111 21.44 23.249 21.388 23.027C21.336 22.805 21.1881 22.927 21.1011 22.627C21.0141 22.327 21.0841 22.289 20.8311 21.983C20.5781 21.677 20.4771 21.631 20.4771 21.311C20.4771 20.991 20.8639 20.855 20.7129 20.349C20.5619 19.843 19.9871 19.876 19.8411 19.421C19.6951 18.966 19.9871 19.083 19.9361 18.897C19.8851 18.711 20.0879 18.678 20.0879 18.678L22.7549 20.197L30.284 18.345C30.4912 18.2945 30.7101 18.3232 30.8973 18.4255C31.0845 18.5278 31.2265 18.6963 31.2959 18.898L32.8821 23.494Z" fill="#57B3FE"/>
</g>
<g id="Group 1293">
<path id="Path 2445" d="M23.5081 25.871C23.4371 25.805 23.2082 25.596 22.8912 25.319C22.5032 24.982 22.6711 24.965 22.4861 24.693C22.3011 24.421 21.963 24.577 21.625 24.357C21.287 24.137 21.7092 24.222 21.6932 23.935C21.6772 23.648 21.3721 23.784 21.2881 23.446C21.2041 23.108 21.44 23.246 21.388 23.024C21.336 22.802 21.1881 22.924 21.1011 22.624C21.0141 22.324 21.0841 22.286 20.8311 21.98C20.5781 21.674 20.4771 21.628 20.4771 21.308C20.4771 20.988 20.8639 20.852 20.7129 20.346C20.5619 19.84 19.9871 19.873 19.8411 19.418C19.6951 18.963 19.9871 19.08 19.9361 18.894C19.8851 18.708 20.0879 18.675 20.0879 18.675L22.7481 20.19L23.5081 25.871Z" fill="#678AEE"/>
</g>
<g id="Group 1294">
<path id="Path 2446" d="M22 33.887C21.58 33.9734 21.144 33.9388 20.7429 33.787L14.1021 30.768L14.625 21.512C14.703 21.526 14.7979 21.541 14.8779 21.547C15.0469 21.561 15.1149 21.398 15.4519 21.547C15.7889 21.696 15.8229 21.634 16.1609 22.162C16.4989 22.69 16.971 23.12 17.511 22.699C18.051 22.278 17.9159 22.715 17.9839 22.917C18.123 23.4204 18.3517 23.8946 18.6589 24.317C19.0639 24.808 19.4009 24.839 19.4009 25.683C19.4009 26.527 19.001 26.695 19.627 27.64C20.253 28.585 20.6841 28.687 20.1101 29.497C19.5361 30.307 20.245 30.408 21.561 31.661C22.877 32.914 22.506 33.887 22 33.887Z" fill="#78E75A"/>
</g>
<g id="Group 1295" opacity="0.2">
<path id="Path 2447" d="M22.262 19.3L15.1089 23.934C14.9239 24.0539 14.7072 24.1154 14.4868 24.1106C14.2664 24.1058 14.0526 24.0348 13.873 23.907L5.83691 18.189C6.01291 17.497 10.7911 16.626 14.7271 15.632L22.262 19.3Z" fill="#1D2943"/>
</g>
<g id="Group 1304">
<g id="Group 1296">
<path id="Path 2448" d="M8.40796 3.494L7.50806 4.71L8.177 4.353L8.40796 3.494Z" fill="#E93565"/>
</g>
<g id="Group 1298">
<g id="Group 1297">
<path id="Path 2449" d="M7.32302 15.214L13.7229 23.742C13.811 23.8596 13.9255 23.955 14.0569 24.0207C14.1883 24.0864 14.3331 24.1207 14.48 24.1207C14.6269 24.1207 14.7719 24.0864 14.9033 24.0207C15.0347 23.955 15.149 23.8596 15.2371 23.742L21.2371 15.728C22.5646 14.1499 23.2894 12.1522 23.283 10.09C23.2803 7.75495 22.3517 5.5163 20.7007 3.86508C19.0497 2.21386 16.8111 1.28491 14.4761 1.282C12.2754 1.28445 10.1551 2.10974 8.53176 3.59574C6.90847 5.08174 5.89932 7.12104 5.7029 9.313C5.51716 11.4107 6.09228 13.5052 7.32302 15.214ZM14.482 14.979C13.5675 14.9747 12.6727 14.7145 11.8985 14.228C11.1242 13.7415 10.5013 13.0481 10.1006 12.2261C9.69992 11.4042 9.53741 10.4865 9.63113 9.57686C9.72485 8.66724 10.0713 7.802 10.6311 7.079C11.088 6.49382 11.6723 6.02059 12.3396 5.69532C13.007 5.37005 13.7396 5.20134 14.482 5.202C15.1242 5.202 15.7602 5.32852 16.3535 5.57433C16.9469 5.82013 17.4861 6.18041 17.9402 6.6346C18.3943 7.08878 18.7543 7.62798 19 8.22137C19.2457 8.81477 19.3722 9.45075 19.3721 10.093C19.3708 11.3891 18.8549 12.6317 17.938 13.5479C17.0211 14.464 15.7781 14.9787 14.482 14.979Z" fill="#CC104A"/>
</g>
</g>
<g id="Group 1299">
<path id="Path 2450" d="M6.20005 13.082H9.56919V9.312H5.71006C5.59604 10.5894 5.76328 11.8762 6.20005 13.082Z" fill="#DF3260"/>
</g>
<g id="Group 1300">
<path id="Path 2451" d="M8.38696 16.63L11.2161 20.4H13.874V16.63H8.38696Z" fill="#DF3260"/>
</g>
<g id="Group 1301">
<path id="Path 2452" d="M10.2 6.762L10.636 7.075C11.0928 6.48982 11.6771 6.01659 12.3445 5.69132C13.0118 5.36606 13.7447 5.19733 14.4871 5.198C15.3699 5.20117 16.2353 5.44281 16.9922 5.89738C17.749 6.35194 18.3691 7.00254 18.7866 7.78041C19.2042 8.55828 19.4039 9.43451 19.3645 10.3165C19.3251 11.1985 19.0482 12.0534 18.563 12.791L19.377 13.377L22.0271 7.463L18.165 3.38L10.718 4.286L10.2 6.762Z" fill="#CC104A"/>
</g>
<g id="Group 1303">
<g id="Group 1302">
<path id="Path 2453" d="M6.61109 8.82C6.6088 10.659 7.18532 12.452 8.25904 13.945L14.6589 22.473C14.7471 22.5906 14.8613 22.686 14.9927 22.7517C15.1241 22.8174 15.2691 22.8517 15.416 22.8517C15.5629 22.8517 15.7077 22.8174 15.8391 22.7517C15.9705 22.686 16.085 22.5906 16.1731 22.473C16.2621 22.355 22.8251 13.594 22.7361 13.714C23.7072 12.2683 24.2245 10.5656 24.2219 8.824C24.2193 6.48878 23.2904 4.24997 21.6392 2.59872C19.9879 0.947477 17.7493 0.0186456 15.4141 0.0159988C13.0803 0.0197019 10.8432 0.948488 9.19312 2.59879C7.54301 4.24908 6.61453 6.48626 6.61109 8.82ZM10.5291 8.82C10.5289 8.17788 10.6552 7.54203 10.9009 6.94875C11.1465 6.35548 11.5067 5.8164 11.9607 5.3623C12.4147 4.90821 12.9537 4.548 13.5469 4.30225C14.1401 4.05649 14.7759 3.93 15.418 3.93C16.715 3.93 17.959 4.44517 18.8762 5.36219C19.7934 6.27921 20.3088 7.523 20.3091 8.82C20.3088 10.117 19.7934 11.3608 18.8762 12.2778C17.959 13.1948 16.715 13.71 15.418 13.71C14.1212 13.7097 12.8778 13.1944 11.9609 12.2774C11.0441 11.3604 10.5291 10.1167 10.5291 8.82Z" fill="#F45170"/>
</g>
</g>
</g>
</g>
</g>
</svg>
