<svg width="15" height="20" viewBox="0 0 15 20" fill="none" xmlns="http://www.w3.org/2000/svg">
<path id="location-pin 4 2" opacity="0.5" d="M7.69997 0C5.78434 0.00899826 3.95063 0.77744 2.60085 2.13678C1.25107 3.49612 0.495497 5.33533 0.50002 7.25098C0.50002 12.933 7.02207 18.8 7.30007 19.051C7.41007 19.1494 7.55238 19.2038 7.69997 19.2038C7.84756 19.2038 7.99011 19.1494 8.10012 19.051C8.37812 18.804 14.8999 12.937 14.8999 7.25098C14.9047 5.33525 14.1494 3.49587 12.7996 2.13647C11.4497 0.777077 9.61568 0.00873438 7.69997 0ZM7.69997 11.2C6.90885 11.2 6.1356 10.9654 5.4778 10.5259C4.82001 10.0864 4.30717 9.46162 4.00441 8.73071C3.70166 7.99981 3.62253 7.19554 3.77688 6.41962C3.93122 5.64369 4.31219 4.93099 4.8716 4.37158C5.43101 3.81217 6.14377 3.4312 6.9197 3.27686C7.69562 3.12251 8.49983 3.2017 9.23073 3.50446C9.96164 3.80721 10.5864 4.31993 11.0259 4.97772C11.4654 5.63552 11.7 6.40889 11.7 7.20001C11.7 8.26088 11.2785 9.2783 10.5283 10.0284C9.77819 10.7786 8.76084 11.2 7.69997 11.2Z" fill="#1E1F4B"/>
</svg>
