<svg width="46" height="45" viewBox="0 0 46 45" fill="none" xmlns="http://www.w3.org/2000/svg">
<g id="Group 11234">
<g id="Group 824">
<g id="Group 823">
<path id="Ellipse 52" d="M23.1088 44.726C35.3442 44.726 45.2628 34.8073 45.2628 22.572C45.2628 10.3367 35.3442 0.41803 23.1088 0.41803C10.8735 0.41803 0.954834 10.3367 0.954834 22.572C0.954834 34.8073 10.8735 44.726 23.1088 44.726Z" fill="#3972FE"/>
</g>
</g>
<g id="Group 85">
<path id="Path 838" d="M23.0088 32.271C22.5908 32.2666 22.1797 32.1638 21.8088 31.9709C17.0088 29.4709 14.3088 25.771 14.3088 21.671C14.3123 19.3382 15.2406 17.1018 16.8901 15.4523C18.5397 13.8027 20.776 12.8744 23.1089 12.871C25.4417 12.8744 27.6781 13.8027 29.3276 15.4523C30.9772 17.1018 31.9055 19.3382 31.9089 21.671C31.9089 25.771 29.1088 29.4709 24.3088 31.9709C23.8991 32.1546 23.4575 32.2565 23.0088 32.271ZM23.0088 14.471C22.0622 14.467 21.1241 14.6506 20.2488 15.011C19.3734 15.3714 18.5783 15.9016 17.9089 16.571C17.2396 17.2404 16.7093 18.0357 16.3489 18.911C15.9884 19.7863 15.8049 20.7244 15.8088 21.671C15.8088 25.171 18.3089 28.371 22.6089 30.571C22.7573 30.6688 22.9312 30.7208 23.1089 30.7208C23.2866 30.7208 23.4605 30.6688 23.6089 30.571C27.9089 28.371 30.4089 25.071 30.4089 21.671C30.3548 19.744 29.5516 17.9139 28.1699 16.5695C26.7882 15.2251 24.9366 14.4723 23.0088 14.471ZM23.0088 25.971C22.9033 25.9725 22.7987 25.9528 22.7009 25.9131C22.6032 25.8735 22.5145 25.8146 22.4399 25.74C22.3654 25.6654 22.3065 25.5766 22.2668 25.4789C22.2272 25.3812 22.2075 25.2765 22.209 25.171V22.371H19.5088C19.4033 22.3725 19.2987 22.3528 19.2009 22.3131C19.1032 22.2734 19.0145 22.2146 18.9399 22.14C18.8654 22.0654 18.8065 21.9766 18.7668 21.8789C18.7272 21.7812 18.7075 21.6765 18.709 21.571C18.6991 21.4635 18.713 21.3551 18.7498 21.2536C18.7865 21.1521 18.845 21.0599 18.9214 20.9835C18.9977 20.9072 19.0899 20.8486 19.1914 20.8118C19.2929 20.7751 19.4013 20.7612 19.5088 20.771H22.3088V18.171C22.3074 18.0656 22.327 17.9608 22.3667 17.8631C22.4064 17.7654 22.4652 17.6766 22.5398 17.602C22.6144 17.5274 22.7033 17.4686 22.801 17.4289C22.8988 17.3892 23.0034 17.3695 23.1089 17.371C23.2164 17.3611 23.3247 17.3751 23.4263 17.4118C23.5278 17.4485 23.6199 17.5072 23.6963 17.5835C23.7726 17.6598 23.8314 17.752 23.8682 17.8536C23.9049 17.9551 23.9188 18.0635 23.9089 18.171V20.971H26.709C26.8145 20.9695 26.9191 20.9892 27.0168 21.0289C27.1146 21.0685 27.2032 21.1274 27.2778 21.202C27.3524 21.2766 27.4112 21.3654 27.4509 21.4631C27.4906 21.5609 27.5103 21.6655 27.5088 21.771C27.5186 21.8785 27.5047 21.9869 27.468 22.0884C27.4313 22.19 27.3727 22.2822 27.2964 22.3585C27.22 22.4349 27.1279 22.4934 27.0264 22.5302C26.9248 22.5669 26.8165 22.5808 26.709 22.571H23.9089V25.371C23.8149 25.5332 23.6848 25.6717 23.5288 25.7757C23.3728 25.8797 23.1947 25.9466 23.0088 25.971Z" fill="white" stroke="white" stroke-miterlimit="10"/>
</g>
</g>
</svg>
