<svg width="33" height="29" viewBox="0 0 33 29" fill="none" xmlns="http://www.w3.org/2000/svg">
<g id="map (2)">
<g id="Group 4004">
<path id="Path 7907" d="M32.333 28.311L29.7921 14.311C29.7796 14.2419 29.7519 14.1765 29.7111 14.1195C29.6703 14.0624 29.6173 14.0151 29.556 13.981L23.161 10.424C23.0797 10.3788 22.9868 10.3586 22.894 10.366L24.057 25.374L24.018 25.391L31.6711 28.824C31.7499 28.8594 31.8369 28.8725 31.9226 28.8621C32.0084 28.8517 32.0897 28.8181 32.1578 28.765C32.2259 28.7118 32.2782 28.641 32.3091 28.5603C32.34 28.4796 32.3482 28.392 32.333 28.307V28.311Z" fill="#44C868"/>
<path id="Path 7908" d="M16.171 13.827L9.63103 10.421C9.55374 10.3809 9.46689 10.3629 9.38004 10.369C9.40267 10.3674 9.42539 10.3674 9.44803 10.369L8.28503 25.377L15.977 28.828C16.038 28.8555 16.1041 28.8698 16.171 28.87V13.827Z" fill="#44C868"/>
</g>
<g id="Group 4005">
<path id="Path 7909" d="M9.44706 10.369C9.35439 10.3614 9.26153 10.3812 9.18006 10.426L2.78506 13.9831C2.72375 14.0172 2.67078 14.0645 2.62997 14.1215C2.58916 14.1786 2.56153 14.244 2.54906 14.313L0.00806233 28.313C-0.00703297 28.398 0.00128372 28.4854 0.0321199 28.566C0.062956 28.6465 0.115147 28.7172 0.183093 28.7703C0.251038 28.8235 0.332173 28.8571 0.417789 28.8676C0.503405 28.8781 0.59027 28.8652 0.669062 28.8301L8.28106 25.415L9.44706 10.369Z" fill="#4CE166"/>
<path id="Path 7910" d="M22.893 10.369C22.8291 10.3738 22.7669 10.3915 22.7101 10.421L16.17 13.827V28.87C16.2369 28.8698 16.3031 28.8555 16.364 28.828L24.056 25.377L22.893 10.369Z" fill="#4CE166"/>
</g>
<path id="Path 7911" d="M1.77906 18.556L1.26306 21.4L8.90506 17.363L9.08206 15.074L9.11106 14.694L1.77906 18.556Z" fill="#FFDB56"/>
<path id="Path 7912" d="M8.97406 16.475L8.90506 17.363L1.26306 21.4L0.00806233 28.311C-0.00703297 28.3959 0.00128372 28.4834 0.0321199 28.5639C0.062956 28.6445 0.115147 28.7151 0.183093 28.7683C0.251038 28.8214 0.332173 28.855 0.417789 28.8656C0.503405 28.8761 0.59027 28.8631 0.669062 28.828L8.28106 25.413L8.97406 16.474V16.475Z" fill="#A8EEFC"/>
<g id="Group 4006">
<path id="Path 7913" d="M16.172 15.704L9.11203 14.694L8.90503 17.363L16.17 28.396V24.384L11.835 17.557L16.172 18.076V15.704Z" fill="#FFBB24"/>
<path id="Path 7914" d="M29.052 13.704L25.98 11.995L23.072 12.675L23.108 13.145L23.252 14.998L29.052 13.704Z" fill="#FFBB24"/>
</g>
<path id="Path 7915" d="M23.5101 18.325L23.2351 14.772L23.0721 12.672L16.1721 15.701V18.074L20.6791 16.114L23.5101 18.325Z" fill="#FFDB56"/>
<path id="Path 7916" d="M32.3331 28.311L31.6951 24.795L23.2531 14.995L23.511 18.322L32.1691 28.758C32.2334 28.7046 32.2824 28.6351 32.3112 28.5566C32.3401 28.4781 32.3476 28.3934 32.3331 28.311Z" fill="#FFBB24"/>
<path id="Path 7917" d="M16.2001 0C14.4405 0.00132159 12.7532 0.700493 11.5085 1.94415C10.2637 3.18781 9.56297 4.87441 9.56006 6.634C9.56006 8.897 10.6341 11.326 12.7531 13.855C13.7016 14.9887 14.7586 16.0269 15.9091 16.955C15.9922 17.0193 16.0944 17.0542 16.1996 17.0542C16.3047 17.0542 16.4069 17.0193 16.4901 16.955C17.6405 16.0269 18.6975 14.9886 19.6461 13.855C21.7651 11.326 22.8391 8.897 22.8391 6.634C22.8362 4.87458 22.1356 3.18813 20.891 1.9445C19.6465 0.700874 17.9595 0.00158623 16.2001 0ZM18.6601 6.635C18.6603 7.12134 18.5162 7.59683 18.2462 8.00132C17.9762 8.40581 17.5923 8.72114 17.143 8.90744C16.6938 9.09373 16.1993 9.14263 15.7223 9.04795C15.2453 8.95326 14.807 8.71924 14.463 8.37548C14.119 8.03172 13.8846 7.59367 13.7895 7.11671C13.6944 6.63975 13.7429 6.1453 13.9288 5.6959C14.1148 5.2465 14.4298 4.86234 14.8341 4.59197C15.2383 4.32161 15.7137 4.1772 16.2001 4.177C16.523 4.17674 16.8429 4.24012 17.1413 4.36353C17.4398 4.48694 17.711 4.66795 17.9394 4.89622C18.1679 5.1245 18.3491 5.39555 18.4728 5.6939C18.5964 5.99225 18.6601 6.31204 18.6601 6.635Z" fill="#FF4A4A"/>
<path id="Path 7918" d="M16.2001 4.25824e-08C15.9139 -3.22824e-05 15.628 0.0183393 15.3441 0.0550003C16.9418 0.26423 18.409 1.04676 19.4728 2.25699C20.5366 3.46721 21.1245 5.0227 21.1271 6.634C21.1271 8.897 20.0531 11.326 17.9341 13.855C17.1404 14.7982 16.2745 15.6782 15.3441 16.487C15.6761 16.775 15.8871 16.939 15.9101 16.957C15.9933 17.0213 16.0955 17.0562 16.2006 17.0562C16.3058 17.0562 16.4079 17.0213 16.4911 16.957C17.6415 16.0289 18.6986 14.9906 19.6471 13.857C21.7661 11.328 22.8401 8.899 22.8401 6.636C22.8377 4.87606 22.1373 3.18895 20.8924 1.94486C19.6476 0.700768 17.9601 0.00132269 16.2001 4.25824e-08Z" fill="#E7343F"/>
<path id="Path 7919" d="M16.364 28.829L19.224 27.5461L16.17 24.384V28.8701C16.2369 28.8702 16.303 28.8562 16.364 28.829Z" fill="#FFDB56"/>
<g id="Group 4007">
<path id="Path 7920" d="M29.7921 14.314C29.7796 14.2449 29.752 14.1795 29.7112 14.1225C29.6704 14.0654 29.6174 14.0181 29.5561 13.984L29.0561 13.704L23.2561 14.997L31.6981 24.797L29.7921 14.314Z" fill="#1EA4E9"/>
<path id="Path 7921" d="M16.17 28.871V28.397L8.90504 17.364L8.28406 25.379L15.976 28.83C16.0371 28.8572 16.1032 28.8712 16.17 28.871Z" fill="#1EA4E9"/>
</g>
</g>
</svg>
