<svg width="35" height="35" viewBox="0 0 35 35" fill="none" xmlns="http://www.w3.org/2000/svg">
<path fill-rule="evenodd" clip-rule="evenodd" d="M18.2788 10.6631C18.0028 10.5269 17.6992 10.4561 17.3914 10.4561C17.0836 10.4561 16.7799 10.5269 16.5039 10.6631L10.9338 13.4051C10.7711 13.4847 10.634 13.6084 10.5381 13.7621C10.4422 13.9158 10.3914 14.0934 10.3914 14.2746C10.3914 14.4558 10.4422 14.6333 10.5381 14.787C10.634 14.9407 10.7711 15.0644 10.9338 15.144L16.5039 17.886C16.7801 18.0218 17.0836 18.0924 17.3914 18.0924C17.6991 18.0924 18.0026 18.0218 18.2788 17.886L23.8489 15.144C24.0116 15.0644 24.1487 14.9407 24.2446 14.787C24.3405 14.6333 24.3914 14.4558 24.3914 14.2746C24.3914 14.0934 24.3405 13.9158 24.2446 13.7621C24.1487 13.6084 24.0116 13.4847 23.8489 13.4051L18.2788 10.6631ZM10.9658 16.571C11.0095 16.5494 11.0577 16.5381 11.1064 16.5381C11.1552 16.5381 11.2032 16.5494 11.2468 16.571L16.5039 19.1591C16.7801 19.2948 17.0836 19.3654 17.3914 19.3654C17.6991 19.3654 18.0026 19.2948 18.2788 19.1591L23.5359 16.571C23.5796 16.5494 23.6275 16.5381 23.6763 16.5381C23.725 16.5381 23.7732 16.5494 23.8169 16.571L23.8489 16.5871C24.0116 16.6667 24.1487 16.7904 24.2446 16.9441C24.3405 17.0978 24.3914 17.2754 24.3914 17.4565C24.3914 17.6377 24.3405 17.8153 24.2446 17.969C24.1487 18.1227 24.0116 18.2464 23.8489 18.326L18.2788 21.0681C18.0026 21.2038 17.6991 21.2744 17.3914 21.2744C17.0836 21.2744 16.7801 21.2038 16.5039 21.0681L10.9338 18.326C10.7711 18.2464 10.634 18.1227 10.5381 17.969C10.4422 17.8153 10.3914 17.6377 10.3914 17.4565C10.3914 17.2754 10.4422 17.0978 10.5381 16.9441C10.634 16.7904 10.7711 16.6667 10.9338 16.5871L10.9658 16.571ZM11.2468 19.7531C11.2032 19.7314 11.1552 19.7201 11.1064 19.7201C11.0577 19.7201 11.0095 19.7314 10.9658 19.7531L10.9338 19.7681C10.7711 19.8479 10.6342 19.9717 10.5383 20.1255C10.4425 20.2792 10.3916 20.4568 10.3916 20.6381C10.3916 20.8193 10.4425 20.9969 10.5383 21.1507C10.6342 21.3045 10.7711 21.4283 10.9338 21.5081L16.5039 24.2501C16.7801 24.3858 17.0836 24.4564 17.3914 24.4564C17.6991 24.4564 18.0026 24.3858 18.2788 24.2501L23.8489 21.5081C24.0116 21.4283 24.1488 21.3045 24.2446 21.1507C24.3405 20.9969 24.3911 20.8193 24.3911 20.6381C24.3911 20.4568 24.3405 20.2792 24.2446 20.1255C24.1488 19.9717 24.0116 19.8479 23.8489 19.7681L23.8169 19.7531C23.7732 19.7314 23.725 19.7201 23.6763 19.7201C23.6275 19.7201 23.5796 19.7314 23.5359 19.7531L18.2788 22.3411C18.0026 22.4768 17.6991 22.5474 17.3914 22.5474C17.0836 22.5474 16.7801 22.4768 16.5039 22.3411L11.2468 19.7531Z" fill="#1E1F4B"/>
</svg>
