<svg width="35" height="34" viewBox="0 0 35 34" fill="none" xmlns="http://www.w3.org/2000/svg">
<path d="M28.0532 0.78299H6.83618C3.52247 0.78299 0.836182 3.46928 0.836182 6.78299V28C0.836182 31.3137 3.52247 34 6.83618 34H28.0532C31.3669 34 34.0532 31.3137 34.0532 28V6.78299C34.0532 3.46928 31.3669 0.78299 28.0532 0.78299Z" fill="#FF8700"/>
<path fill-rule="evenodd" clip-rule="evenodd" d="M25.9872 13.1C25.9572 12.4075 25.7903 11.7277 25.4962 11.1C25.0093 10.1452 24.233 9.36884 23.2782 8.88199C22.6505 8.58771 21.9708 8.42083 21.2782 8.39099C20.5152 8.32899 19.5662 8.32901 18.3552 8.32901H16.5312C15.3212 8.32901 14.3712 8.32899 13.6082 8.39099C12.9156 8.4207 12.2358 8.58759 11.6082 8.88199C10.6531 9.3685 9.87671 10.145 9.3902 11.1C9.09517 11.7274 8.92822 12.4073 8.89917 13.1C8.83717 13.863 8.83716 14.811 8.83716 16.022V19.783C8.83703 20.307 8.94017 20.826 9.14063 21.3102C9.34108 21.7944 9.63497 22.2344 10.0055 22.605C10.376 22.9756 10.8159 23.2696 11.3 23.4702C11.7842 23.6708 12.3032 23.774 12.8272 23.774H13.3582C13.4088 23.7738 13.4587 23.7861 13.5035 23.8097C13.5483 23.8333 13.5865 23.8675 13.615 23.9094C13.6434 23.9512 13.6611 23.9995 13.6666 24.0498C13.672 24.1001 13.665 24.151 13.6462 24.198C13.5151 24.5259 13.4937 24.8873 13.5853 25.2284C13.6768 25.5694 13.8764 25.8716 14.1541 26.0897C14.4317 26.3078 14.7726 26.4301 15.1255 26.4383C15.4785 26.4464 15.8247 26.34 16.1122 26.135L18.4122 24.49L18.4552 24.459C19.0807 24.0175 19.8265 23.7784 20.5922 23.774H20.6832C20.9352 23.774 21.0832 23.774 21.2062 23.768C22.4677 23.7082 23.6617 23.1803 24.5548 22.2873C25.448 21.3944 25.9762 20.2005 26.0362 18.939C26.0412 18.819 26.0412 18.682 26.0412 18.455V16.022C26.0492 14.814 26.0492 13.866 25.9872 13.1ZM13.9142 13.624H17.4442C17.5312 13.624 17.6174 13.6412 17.6978 13.6745C17.7781 13.7078 17.8512 13.7567 17.9127 13.8182C17.9741 13.8798 18.0229 13.9529 18.0561 14.0334C18.0893 14.1138 18.1063 14.2 18.1062 14.287C18.1062 14.3739 18.0891 14.4599 18.0558 14.5402C18.0225 14.6205 17.9737 14.6934 17.9122 14.7548C17.8507 14.8162 17.7778 14.8648 17.6974 14.898C17.6171 14.9311 17.531 14.9481 17.4442 14.948H13.9142C13.7388 14.948 13.5705 14.8784 13.4464 14.7545C13.3223 14.6305 13.2525 14.4624 13.2522 14.287C13.253 14.1118 13.323 13.9441 13.4471 13.8205C13.5711 13.6968 13.739 13.6273 13.9142 13.627V13.624ZM20.9742 18.478H13.9142C13.8272 18.4781 13.7411 18.4611 13.6607 18.4279C13.5803 18.3947 13.5073 18.3459 13.4458 18.2844C13.3843 18.2229 13.3355 18.1499 13.3023 18.0695C13.2691 17.9891 13.2521 17.903 13.2522 17.816C13.2525 17.6406 13.3223 17.4725 13.4464 17.3485C13.5705 17.2246 13.7388 17.155 13.9142 17.155H20.9742C21.1496 17.155 21.3178 17.2246 21.442 17.3485C21.5661 17.4725 21.6359 17.6406 21.6362 17.816C21.6367 17.9032 21.62 17.9897 21.5869 18.0704C21.5539 18.1511 21.5052 18.2245 21.4437 18.2863C21.3821 18.3482 21.309 18.3972 21.2284 18.4306C21.1478 18.464 21.0614 18.4811 20.9742 18.481V18.478Z" fill="white"/>
</svg>
