<svg width="35" height="35" viewBox="0 0 35 35" fill="none" xmlns="http://www.w3.org/2000/svg">
<path d="M22.6557 19.9159H12.1269C11.8965 19.9338 11.6647 19.9045 11.446 19.8298C11.2273 19.7552 11.0261 19.6367 10.8547 19.4816C10.6833 19.3265 10.5453 19.1381 10.4492 18.9279C10.3531 18.7177 10.301 18.4902 10.2958 18.2591C10.2907 18.028 10.3325 17.7983 10.4191 17.584C10.5057 17.3698 10.6352 17.1754 10.7995 17.0128C10.9638 16.8502 11.1593 16.7228 11.3745 16.6384C11.5896 16.554 11.8197 16.5144 12.0507 16.5219H22.6508C22.8812 16.5041 23.113 16.5333 23.3317 16.608C23.5505 16.6827 23.7517 16.8012 23.923 16.9563C24.0944 17.1114 24.2322 17.2998 24.3283 17.5099C24.4244 17.7201 24.4767 17.9477 24.4819 18.1788C24.487 18.4098 24.4452 18.6395 24.3586 18.8538C24.272 19.0681 24.1425 19.2625 23.9782 19.4251C23.8139 19.5877 23.6182 19.715 23.403 19.7994C23.1879 19.8838 22.9577 19.9235 22.7267 19.9159H22.6557Z" fill="#1E1F4B"/>
</svg>
