<svg width="23" height="23" viewBox="0 0 23 23" fill="none" xmlns="http://www.w3.org/2000/svg">
<g id="my-location" opacity="0.5">
<path id="Path 1419" d="M21.574 10.074H19.5C19.2765 8.31369 18.4746 6.67756 17.2202 5.42249C15.9659 4.16742 14.3302 3.36455 12.5701 3.14001V1.07397C12.5701 0.808758 12.4646 0.554419 12.2771 0.366882C12.0896 0.179346 11.8353 0.0739746 11.5701 0.0739746C11.3049 0.0739746 11.0503 0.179346 10.8628 0.366882C10.6753 0.554419 10.5701 0.808758 10.5701 1.07397V3.14001C8.80919 3.36373 7.17238 4.16618 5.91724 5.42133C4.6621 6.67647 3.8597 8.31309 3.63599 10.074H1.57007C1.30485 10.074 1.05033 10.1793 0.862793 10.3669C0.675257 10.5544 0.570068 10.8088 0.570068 11.074C0.570068 11.3392 0.675257 11.5936 0.862793 11.7811C1.05033 11.9687 1.30485 12.074 1.57007 12.074H3.63599C3.86017 13.8339 4.6625 15.4695 5.91699 16.724C7.17148 17.9785 8.807 18.7808 10.5669 19.005V21.074C10.5669 21.3392 10.6723 21.5936 10.8599 21.7811C11.0474 21.9687 11.3017 22.074 11.5669 22.074C11.8321 22.074 12.0866 21.9687 12.2742 21.7811C12.4617 21.5936 12.5669 21.3392 12.5669 21.074V19C14.3269 18.776 15.9628 17.9737 17.2173 16.7192C18.4718 15.4647 19.274 13.8289 19.498 12.069H21.5669C21.8321 12.069 22.0866 11.9637 22.2742 11.7761C22.4617 11.5886 22.5669 11.3342 22.5669 11.069C22.5669 10.8038 22.4617 10.5494 22.2742 10.3619C22.0866 10.1743 21.8321 10.069 21.5669 10.069L21.574 10.074ZM11.574 17.074C10.3873 17.074 9.22717 16.7221 8.24048 16.0628C7.25378 15.4035 6.48489 14.4665 6.03076 13.3701C5.57664 12.2738 5.4577 11.0673 5.68921 9.90344C5.92072 8.73956 6.49218 7.67048 7.3313 6.83136C8.17041 5.99224 9.23968 5.42078 10.4036 5.18927C11.5675 4.95776 12.7738 5.07657 13.8701 5.5307C14.9665 5.98483 15.9035 6.75391 16.5627 7.7406C17.222 8.7273 17.574 9.88729 17.574 11.074C17.574 12.6653 16.9419 14.1914 15.8167 15.3167C14.6914 16.4419 13.1653 17.074 11.574 17.074Z" fill="#1E1F4B"/>
<path id="Path 1420" d="M11.5729 7.1001C10.7871 7.1001 10.019 7.33316 9.36565 7.76971C8.7123 8.20627 8.20298 8.82676 7.90227 9.55273C7.60157 10.2787 7.5229 11.0775 7.6762 11.8482C7.8295 12.6189 8.20797 13.3268 8.7636 13.8824C9.31923 14.4381 10.0271 14.8165 10.7978 14.9698C11.5685 15.1231 12.3675 15.0444 13.0934 14.7437C13.8194 14.443 14.4398 13.9338 14.8764 13.2804C15.313 12.627 15.5458 11.8589 15.5458 11.0731C15.5458 10.0194 15.1273 9.00888 14.3823 8.26379C13.6372 7.51871 12.6266 7.1001 11.5729 7.1001ZM11.5729 13.0601C11.1799 13.0601 10.7957 12.9436 10.4689 12.7253C10.1422 12.5069 9.88762 12.1966 9.73723 11.8335C9.58684 11.4704 9.54753 11.0709 9.6242 10.6855C9.70087 10.3 9.89001 9.94598 10.1679 9.66809C10.4458 9.3902 10.7998 9.201 11.1852 9.12433C11.5707 9.04766 11.9703 9.08697 12.3334 9.23737C12.6965 9.38776 13.0067 9.64242 13.225 9.96918C13.4434 10.2959 13.56 10.6801 13.56 11.0731C13.5597 11.6 13.3503 12.1053 12.9777 12.4778C12.6051 12.8504 12.0998 13.0599 11.5729 13.0601Z" fill="#1E1F4B"/>
</g>
</svg>
