<svg width="168" height="168" viewBox="0 0 168 168" fill="none" xmlns="http://www.w3.org/2000/svg">
<path d="M83.9836 168C62.3316 168 41.9262 165.095 26.5073 159.813C4.59285 152.318 0 142.744 0 136.009C0 127.228 7.77504 121.087 14.3363 117.488C16.7311 116.168 19.7165 117.059 21.0287 119.436C22.341 121.846 21.4552 124.851 19.0931 126.171C13.1881 129.407 9.84183 133.005 9.84183 136.009C9.84183 139.707 15.058 145.451 29.6567 150.437C44.0914 155.389 63.3814 158.096 83.9836 158.096C104.586 158.096 123.876 155.389 138.311 150.437C152.909 145.451 158.125 139.707 158.125 136.009C158.125 132.972 154.779 129.407 148.907 126.138C146.512 124.818 145.659 121.813 146.971 119.403C148.284 116.993 151.269 116.135 153.664 117.455C160.192 121.054 168 127.228 168 135.976C168 142.711 163.407 152.285 141.493 159.78C126.041 165.095 105.636 168 83.9836 168Z" fill="#C9DFF7"/>
<path d="M84 148.145C69.9731 148.145 56.7364 146.584 46.7266 143.726C34.4448 140.237 28.2545 135.153 28.2545 128.673C28.2545 122.193 34.4777 117.109 46.7266 113.62C56.7364 110.762 70.006 109.2 84 109.2C97.994 109.2 111.264 110.762 121.273 113.62C133.555 117.109 139.745 122.193 139.745 128.673C139.745 135.153 133.522 140.237 121.273 143.726C111.264 146.55 98.0269 148.145 84 148.145ZM38.1985 128.673C38.8899 129.67 42.1826 132.295 51.2047 134.621C60.1608 136.914 71.817 138.176 84 138.176C96.183 138.176 107.839 136.914 116.795 134.621C125.817 132.295 129.11 129.703 129.801 128.673C129.11 127.676 125.817 125.051 116.795 122.725C107.839 120.432 96.183 119.169 84 119.169C71.817 119.169 60.1608 120.432 51.2047 122.725C42.1497 125.051 38.857 127.643 38.1985 128.673Z" fill="#C9DFF7"/>
<path d="M84 0C58.7244 0 38.1818 20.5607 38.1818 45.7853C38.1818 61.5179 57.3111 96.0704 73.3507 122.313C75.6515 126.057 79.6285 128.291 84 128.291C88.4043 128.291 92.3814 126.057 94.6493 122.313C110.689 96.0704 129.818 61.5179 129.818 45.7853C129.818 20.5607 109.276 0 84 0ZM84 74.1959C66.5799 74.1959 52.4466 60.0727 52.4466 42.6651C52.4466 25.2575 66.5799 11.1343 84 11.1343C101.42 11.1343 115.553 25.2575 115.553 42.6651C115.553 60.0727 101.42 74.1959 84 74.1959Z" fill="#FE5857"/>
<path d="M82.578 55.8141C79.8874 55.8141 77.7217 58.0453 77.7217 60.736C77.7217 63.361 79.8217 65.6578 82.578 65.6578C85.3342 65.6578 87.4999 63.361 87.4999 60.736C87.4999 58.0453 85.2686 55.8141 82.578 55.8141Z" fill="#FE5857"/>
<path d="M83.4311 18.5391C74.8014 18.5391 70.8311 23.6578 70.8311 27.1031C70.8311 29.5969 72.9311 30.7453 74.6702 30.7453C78.1155 30.7453 76.7046 25.8234 83.2342 25.8234C86.4171 25.8234 88.9764 27.2344 88.9764 30.1547C88.9764 33.6 85.3999 35.6016 83.2999 37.3734C81.4296 38.9813 79.0014 41.6062 79.0014 47.0859C79.0014 50.4 79.8874 51.3844 82.5124 51.3844C85.6295 51.3844 86.2858 49.9734 86.2858 48.7594C86.2858 45.4453 86.3514 43.5094 89.8624 40.7531C91.6014 39.4078 97.0155 35.0766 97.0155 29.0391C97.0155 23.0016 91.6014 18.5391 83.4311 18.5391Z" fill="#FE5857"/>
</svg>
