<svg width="241" height="105" viewBox="0 0 241 105" fill="none" xmlns="http://www.w3.org/2000/svg">
<g id="Group 10073">
<g id="Group 1233">
<path id="Path 2323" d="M232.612 104.586L232.656 104.363L28.1941 104.386C28.1941 104.386 28.0301 104.039 27.9941 103.973C27.9811 103.95 27.965 103.922 27.946 103.891L27.854 103.73C27.843 103.709 27.8302 103.687 27.8162 103.663C27.7692 103.579 27.716 103.485 27.657 103.377C27.585 103.246 27.505 103.096 27.416 102.93C27.084 102.309 26.645 101.448 26.146 100.378C25.982 100.027 25.8125 99.653 25.6372 99.257C25.5672 99.099 25.497 98.939 25.426 98.775C25.357 98.616 25.288 98.455 25.219 98.289L25.2121 98.273C25.1641 98.159 25.1121 98.045 25.0681 97.927C25.0241 97.809 24.968 97.686 24.917 97.564C24.659 96.93 24.395 96.258 24.133 95.549L24.1121 95.493C23.9407 95.0264 23.7701 94.5473 23.6001 94.056C23.5068 93.7853 23.4143 93.5097 23.323 93.229C23.317 93.213 23.3111 93.196 23.3061 93.177C23.2651 93.053 23.225 92.929 23.185 92.803C23.151 92.697 23.1172 92.592 23.0852 92.485C23.0185 92.2663 22.9498 92.0447 22.8791 91.82C22.7921 91.533 22.7051 91.24 22.6201 90.945C22.5054 90.545 22.3926 90.137 22.282 89.721C22.249 89.597 22.2161 89.472 22.1821 89.347C22.0861 88.9723 21.9915 88.593 21.8982 88.209C21.8692 88.085 21.839 87.962 21.811 87.837L21.7571 87.607C21.6191 86.999 21.488 86.3797 21.364 85.749C21.2307 85.0537 21.1063 84.346 20.991 83.626C20.891 82.961 20.7911 82.285 20.7141 81.601C20.6368 80.9537 20.5702 80.2993 20.5142 79.638C20.3882 78.09 20.331 76.501 20.355 74.882C20.3935 71.9667 20.7196 69.0623 21.3281 66.211C21.3511 66.103 21.3752 65.997 21.3992 65.889C21.5558 65.189 21.7325 64.489 21.9292 63.789C22.0779 63.2557 22.2394 62.719 22.4141 62.179C22.5411 61.791 22.6732 61.401 22.8142 61.012C23.1302 60.13 23.4815 59.2483 23.8682 58.367C23.9752 58.123 24.084 57.879 24.198 57.635C26.55 52.6404 29.8153 48.1296 33.8252 44.335L34.072 44.097C36.122 42.1301 38.2929 40.2932 40.572 38.597L40.8071 38.424C64.2641 21.224 84.092 32.896 94.614 32.25C96.6858 32.0717 98.6596 31.2886 100.29 29.998C103.565 27.611 106.733 23.61 111.153 19.316C117.78 12.879 127.219 5.78101 144.039 2.46401C164.853 -1.63599 193.447 -0.490004 205.817 11.846C213.3 19.308 214.847 30.863 205.143 47.823C204.554 48.8543 203.92 49.906 203.243 50.978C202.677 51.878 202.182 52.7377 201.758 53.557C200.82 55.2766 200.156 57.1323 199.792 59.057C199.152 62.948 200.622 65.704 203.258 67.97C204.009 68.6065 204.802 69.1899 205.634 69.716L205.8 69.822C208.879 71.768 212.77 73.439 216.65 75.398C218.817 76.4636 220.913 77.666 222.927 78.998C224.786 80.2304 226.493 81.6792 228.011 83.314C229.003 84.3984 229.875 85.587 230.611 86.859C230.654 86.932 230.695 87.005 230.736 87.078C231.754 88.9037 232.476 90.8792 232.875 92.931C232.898 93.043 232.919 93.154 232.939 93.267C233.547 97.0267 233.436 100.868 232.612 104.586Z" fill="#EBF3FA"/>
<path id="Path 2324" d="M205.141 47.817L88.2261 67.7L79.8381 57.642L205.815 11.842C213.298 19.3 214.844 30.857 205.141 47.817Z" fill="#F8FBFF"/>
<path id="Path 2325" d="M161.222 9.888L100.287 29.988C103.561 27.601 106.73 23.6 111.151 19.306L161.222 9.888Z" fill="#F8FBFF"/>
<path id="Path 2326" d="M159.341 16.6C158.631 16.6003 157.949 16.8826 157.447 17.3849C156.945 17.8873 156.662 18.5686 156.662 19.279C156.662 19.9895 156.944 20.6709 157.447 21.1733C157.949 21.6757 158.631 21.958 159.341 21.958C159.693 21.9581 160.042 21.8889 160.367 21.7544C160.692 21.6198 160.987 21.4225 161.236 21.1737C161.485 20.9249 161.682 20.6295 161.817 20.3044C161.952 19.9793 162.021 19.6309 162.021 19.279C162.021 18.5684 161.738 17.887 161.236 17.3846C160.733 16.8822 160.052 16.6 159.341 16.6Z" fill="#F8FBFF"/>
<g id="Group 1232">
<g id="Group 1149">
<path id="Rectangle 582" d="M125.54 26.545H111.627V94.203H125.54V26.545Z" fill="#C4D9ED"/>
<path id="Rectangle 583" d="M128.665 26.545H114.752V94.203H128.665V26.545Z" fill="#D5E7F7"/>
<path id="Rectangle 584" d="M114.756 30.436H128.665V26.526H114.756V30.436Z" fill="#C4D9ED"/>
<path id="Rectangle 585" d="M114.756 38.916H128.665V35.006H114.756V38.916Z" fill="#C4D9ED"/>
<path id="Rectangle 586" d="M114.756 47.395H128.665V43.485H114.756V47.395Z" fill="#C4D9ED"/>
<path id="Rectangle 587" d="M114.756 55.875H128.665V51.965H114.756V55.875Z" fill="#C4D9ED"/>
<path id="Rectangle 588" d="M114.756 64.354H128.665V60.444H114.756V64.354Z" fill="#C4D9ED"/>
<path id="Rectangle 589" d="M114.756 72.834H128.665V68.924H114.756V72.834Z" fill="#C4D9ED"/>
<path id="Rectangle 590" d="M114.756 81.313H128.665V77.403H114.756V81.313Z" fill="#C4D9ED"/>
<path id="Rectangle 591" d="M114.756 89.793H128.665V85.883H114.756V89.793Z" fill="#C4D9ED"/>
</g>
<g id="Group 1150">
<path id="Rectangle 592" d="M147.782 36.118H133.869V94.202H147.782V36.118Z" fill="#C4D9ED"/>
<path id="Rectangle 593" d="M150.906 36.118H136.993V94.202H150.906V36.118Z" fill="#D5E7F7"/>
<path id="Rectangle 594" d="M136.997 39.459H150.906V36.102H136.997V39.459Z" fill="#C4D9ED"/>
<path id="Rectangle 595" d="M136.997 46.739H150.906V43.383H136.997V46.739Z" fill="#C4D9ED"/>
<path id="Rectangle 596" d="M136.997 54.019H150.906V50.663H136.997V54.019Z" fill="#C4D9ED"/>
<path id="Rectangle 597" d="M136.997 61.298H150.906V57.941H136.997V61.298Z" fill="#C4D9ED"/>
<path id="Rectangle 598" d="M136.997 68.578H150.906V65.222H136.997V68.578Z" fill="#C4D9ED"/>
<path id="Rectangle 599" d="M136.997 75.857H150.906V72.501H136.997V75.857Z" fill="#C4D9ED"/>
<path id="Rectangle 600" d="M136.997 83.137H150.906V79.781H136.997V83.137Z" fill="#C4D9ED"/>
<path id="Rectangle 601" d="M136.997 90.417H150.906V87.061H136.997V90.417Z" fill="#C4D9ED"/>
</g>
<path id="Rectangle 602" d="M104.097 100.623H109.923V92.127H104.097V100.623Z" fill="#DCEAF9"/>
<path id="Path 2327" d="M105.876 80.537V104.125H44.165H43.7451L27.9951 103.977C27.9821 103.954 27.966 103.926 27.947 103.895L27.855 103.734C27.844 103.713 27.8311 103.691 27.8171 103.667C27.7701 103.583 27.7172 103.489 27.6582 103.381C27.5862 103.25 27.506 103.1 27.417 102.934C27.085 102.313 26.646 101.452 26.147 100.382C25.983 100.031 25.8135 99.657 25.6382 99.261C25.5682 99.103 25.498 98.943 25.427 98.779C25.358 98.62 25.289 98.459 25.22 98.293L25.2131 98.277C25.1651 98.163 25.1131 98.049 25.0691 97.931C25.0251 97.813 24.969 97.69 24.918 97.568C24.66 96.934 24.396 96.262 24.134 95.553L24.113 95.497C23.9417 95.0303 23.7711 94.5513 23.6011 94.06C23.5077 93.7893 23.4153 93.5137 23.324 93.233C23.318 93.217 23.3121 93.2 23.3071 93.181C23.2661 93.057 23.226 92.933 23.186 92.807C23.152 92.701 23.1182 92.596 23.0862 92.489C23.0195 92.2703 22.9508 92.0487 22.8801 91.824C22.7931 91.537 22.7061 91.244 22.6211 90.949C22.5064 90.549 22.3939 90.141 22.2832 89.725C22.2502 89.601 22.2171 89.476 22.1831 89.351C22.0871 88.9763 21.9925 88.597 21.8992 88.213C21.8702 88.089 21.84 87.966 21.812 87.841L21.7581 87.611C21.6201 87.003 21.489 86.3837 21.365 85.753C21.2317 85.0577 21.1075 84.35 20.9922 83.63C20.8922 82.965 20.7921 82.289 20.7151 81.605C20.6378 80.9577 20.5711 80.3033 20.5151 79.642C20.3891 78.094 20.3322 76.505 20.3562 74.886C20.3947 71.9707 20.7206 69.0663 21.3291 66.215C21.3521 66.107 21.3762 66.001 21.4002 65.893C21.5568 65.193 21.7335 64.493 21.9302 63.793C22.0788 63.2597 22.2404 62.723 22.415 62.183C22.542 61.795 22.6742 61.405 22.8152 61.016C23.1312 60.134 23.4825 59.2523 23.8691 58.371H24.199V57.639C26.551 52.6444 29.8163 48.1335 33.8262 44.339L34.073 44.101H34.332V53.124H42.3171V38.424H51.1282V47.968H53.1372V36.56H61.948V57.923H73.0911V70.38H77.2551V73.518H86.8191V68.118H92.3101V53.429H99.093V80.537H105.876Z" fill="#D5E7F7"/>
<path id="Rectangle 603" d="M53.1381 40.178H61.9541V38.001H53.1381V40.178Z" fill="#C4D9ED"/>
<path id="Rectangle 604" d="M53.1381 44.268H61.9541V42.091H53.1381V44.268Z" fill="#C4D9ED"/>
<path id="Rectangle 605" d="M53.1381 47.946H61.9541V45.769H53.1381V47.946Z" fill="#C4D9ED"/>
<path id="Rectangle 606" d="M42.32 47.946H51.136V45.769H42.32V47.946Z" fill="#C4D9ED"/>
<path id="Rectangle 607" d="M42.32 44.268H51.136V42.091H42.32V44.268Z" fill="#C4D9ED"/>
<path id="Rectangle 608" d="M42.32 40.594H51.136V38.417H42.32V40.594Z" fill="#C4D9ED"/>
<path id="Rectangle 609" d="M42.3181 51.513H61.9541V49.336H42.3181V51.513Z" fill="#C4D9ED"/>
<path id="Rectangle 610" d="M42.3181 55.08H61.9541V52.903H42.3181V55.08Z" fill="#C4D9ED"/>
<path id="Rectangle 611" d="M92.2471 56.791H99.0901V53.431H92.2471V56.791Z" fill="#C4D9ED"/>
<path id="Rectangle 612" d="M92.2471 61.788H99.0901V58.428H92.2471V61.788Z" fill="#C4D9ED"/>
<path id="Rectangle 613" d="M92.2471 66.784H99.0901V63.424H92.2471V66.784Z" fill="#C4D9ED"/>
<path id="Rectangle 614" d="M92.2471 72.022H99.0901V68.662H92.2471V72.022Z" fill="#C4D9ED"/>
<path id="Rectangle 615" d="M92.2471 77.098H99.0901V73.738H92.2471V77.098Z" fill="#C4D9ED"/>
<path id="Rectangle 616" d="M92.2471 82.173H99.0901V78.813H92.2471V82.173Z" fill="#C4D9ED"/>
<path id="Rectangle 617" d="M92.2471 87.483H99.0901V84.123H92.2471V87.483Z" fill="#C4D9ED"/>
<path id="Rectangle 618" d="M42.3181 57.772H61.9541V56.39H42.3181V57.772Z" fill="#C4D9ED"/>
<path id="Rectangle 619" d="M92.3431 53.431H89.8201V68.114H92.3431V53.431Z" fill="#C4D9ED"/>
<path id="Rectangle 620" d="M86.8201 68.114H81.7451V73.518H86.8201V68.114Z" fill="#C4D9ED"/>
<path id="Path 2328" d="M42.3201 38.418V53.112H40.571V38.591L40.8062 38.418H42.3201Z" fill="#C4D9ED"/>
<path id="Rectangle 621" d="M53.138 36.56H52.063V47.947H53.138V36.56Z" fill="#C4D9ED"/>
<g id="Group 1194" opacity="0.8">
<g id="Group 1157">
<g id="Group 1153">
<g id="Group 1151">
<path id="Rectangle 622" d="M69.7781 62.171H71.2721V60.066H69.7781V62.171Z" fill="#C4D9ED"/>
<path id="Rectangle 623" d="M66.9841 62.171H68.4781V60.066H66.9841V62.171Z" fill="#C4D9ED"/>
<path id="Rectangle 624" d="M64.2542 62.171H65.7482V60.066H64.2542V62.171Z" fill="#C4D9ED"/>
<path id="Rectangle 625" d="M61.6653 62.171H63.1593V60.066H61.6653V62.171Z" fill="#C4D9ED"/>
<path id="Rectangle 626" d="M59.0261 62.171H60.5201V60.066H59.0261V62.171Z" fill="#C4D9ED"/>
</g>
<g id="Group 1152">
<path id="Rectangle 627" d="M56.3572 62.171H57.8512V60.066H56.3572V62.171Z" fill="#C4D9ED"/>
<path id="Rectangle 628" d="M53.5642 62.171H55.0582V60.066H53.5642V62.171Z" fill="#C4D9ED"/>
<path id="Rectangle 629" d="M50.8333 62.171H52.3273V60.066H50.8333V62.171Z" fill="#C4D9ED"/>
<path id="Rectangle 630" d="M48.2442 62.171H49.7382V60.066H48.2442V62.171Z" fill="#C4D9ED"/>
<path id="Rectangle 631" d="M45.6052 62.171H47.0992V60.066H45.6052V62.171Z" fill="#C4D9ED"/>
</g>
</g>
<g id="Group 1156">
<g id="Group 1154">
<path id="Rectangle 632" d="M42.8552 62.171H44.3492V60.066H42.8552V62.171Z" fill="#C4D9ED"/>
<path id="Rectangle 633" d="M40.0623 62.171H41.5563V60.066H40.0623V62.171Z" fill="#C4D9ED"/>
<path id="Rectangle 634" d="M37.3313 62.171H38.8253V60.066H37.3313V62.171Z" fill="#C4D9ED"/>
<path id="Rectangle 635" d="M34.7422 62.171H36.2362V60.066H34.7422V62.171Z" fill="#C4D9ED"/>
<path id="Rectangle 636" d="M32.1033 62.171H33.5973V60.066H32.1033V62.171Z" fill="#C4D9ED"/>
</g>
<g id="Group 1155">
<path id="Rectangle 637" d="M29.4352 62.171H30.9292V60.066H29.4352V62.171Z" fill="#C4D9ED"/>
<path id="Rectangle 638" d="M26.641 62.171H28.135V60.066H26.641V62.171Z" fill="#C4D9ED"/>
<path id="Rectangle 639" d="M23.911 62.171H25.405V60.066H23.911V62.171Z" fill="#C4D9ED"/>
<path id="Path 2329" d="M22.8162 61V62.167H22.416C22.544 61.783 22.6762 61.393 22.8162 61Z" fill="#C4D9ED"/>
</g>
</g>
</g>
<g id="Group 1164">
<g id="Group 1160">
<g id="Group 1158">
<path id="Rectangle 640" d="M69.7781 65.887H71.2721V63.782H69.7781V65.887Z" fill="#C4D9ED"/>
<path id="Rectangle 641" d="M66.9841 65.887H68.4781V63.782H66.9841V65.887Z" fill="#C4D9ED"/>
<path id="Rectangle 642" d="M64.2542 65.887H65.7482V63.782H64.2542V65.887Z" fill="#C4D9ED"/>
<path id="Rectangle 643" d="M61.6653 65.887H63.1593V63.782H61.6653V65.887Z" fill="#C4D9ED"/>
<path id="Rectangle 644" d="M59.0261 65.887H60.5201V63.782H59.0261V65.887Z" fill="#C4D9ED"/>
</g>
<g id="Group 1159">
<path id="Rectangle 645" d="M56.3572 65.887H57.8512V63.782H56.3572V65.887Z" fill="#C4D9ED"/>
<path id="Rectangle 646" d="M53.5642 65.887H55.0582V63.782H53.5642V65.887Z" fill="#C4D9ED"/>
<path id="Rectangle 647" d="M50.8333 65.887H52.3273V63.782H50.8333V65.887Z" fill="#C4D9ED"/>
<path id="Rectangle 648" d="M48.2442 65.887H49.7382V63.782H48.2442V65.887Z" fill="#C4D9ED"/>
<path id="Rectangle 649" d="M45.6052 65.887H47.0992V63.782H45.6052V65.887Z" fill="#C4D9ED"/>
</g>
</g>
<g id="Group 1163">
<g id="Group 1161">
<path id="Rectangle 650" d="M42.8552 65.887H44.3492V63.782H42.8552V65.887Z" fill="#C4D9ED"/>
<path id="Rectangle 651" d="M40.0623 65.887H41.5563V63.782H40.0623V65.887Z" fill="#C4D9ED"/>
<path id="Rectangle 652" d="M37.3313 65.887H38.8253V63.782H37.3313V65.887Z" fill="#C4D9ED"/>
<path id="Rectangle 653" d="M34.7422 65.887H36.2362V63.782H34.7422V65.887Z" fill="#C4D9ED"/>
<path id="Rectangle 654" d="M32.1033 65.887H33.5973V63.782H32.1033V65.887Z" fill="#C4D9ED"/>
</g>
<g id="Group 1162">
<path id="Rectangle 655" d="M29.4352 65.887H30.9292V63.782H29.4352V65.887Z" fill="#C4D9ED"/>
<path id="Rectangle 656" d="M26.641 65.887H28.135V63.782H26.641V65.887Z" fill="#C4D9ED"/>
<path id="Rectangle 657" d="M23.911 65.887H25.405V63.782H23.911V65.887Z" fill="#C4D9ED"/>
<path id="Path 2330" d="M22.8162 63.781V65.881H21.4021C21.5588 65.181 21.7355 64.481 21.9321 63.781H22.8162Z" fill="#C4D9ED"/>
</g>
</g>
</g>
<g id="Group 1171">
<g id="Group 1167">
<g id="Group 1165">
<path id="Rectangle 658" d="M69.7781 69.545H71.2721V67.44H69.7781V69.545Z" fill="#C4D9ED"/>
<path id="Rectangle 659" d="M66.9841 69.545H68.4781V67.44H66.9841V69.545Z" fill="#C4D9ED"/>
<path id="Rectangle 660" d="M64.2542 69.545H65.7482V67.44H64.2542V69.545Z" fill="#C4D9ED"/>
<path id="Rectangle 661" d="M61.6653 69.545H63.1593V67.44H61.6653V69.545Z" fill="#C4D9ED"/>
<path id="Rectangle 662" d="M59.0261 69.545H60.5201V67.44H59.0261V69.545Z" fill="#C4D9ED"/>
</g>
<g id="Group 1166">
<path id="Rectangle 663" d="M56.3572 69.545H57.8512V67.44H56.3572V69.545Z" fill="#C4D9ED"/>
<path id="Rectangle 664" d="M53.5642 69.545H55.0582V67.44H53.5642V69.545Z" fill="#C4D9ED"/>
<path id="Rectangle 665" d="M50.8333 69.545H52.3273V67.44H50.8333V69.545Z" fill="#C4D9ED"/>
<path id="Rectangle 666" d="M48.2442 69.545H49.7382V67.44H48.2442V69.545Z" fill="#C4D9ED"/>
<path id="Rectangle 667" d="M45.6052 69.545H47.0992V67.44H45.6052V69.545Z" fill="#C4D9ED"/>
</g>
</g>
<g id="Group 1170">
<g id="Group 1168">
<path id="Rectangle 668" d="M42.8552 69.545H44.3492V67.44H42.8552V69.545Z" fill="#C4D9ED"/>
<path id="Rectangle 669" d="M40.0623 69.545H41.5563V67.44H40.0623V69.545Z" fill="#C4D9ED"/>
<path id="Rectangle 670" d="M37.3313 69.545H38.8253V67.44H37.3313V69.545Z" fill="#C4D9ED"/>
<path id="Rectangle 671" d="M34.7422 69.545H36.2362V67.44H34.7422V69.545Z" fill="#C4D9ED"/>
<path id="Rectangle 672" d="M32.1033 69.545H33.5973V67.44H32.1033V69.545Z" fill="#C4D9ED"/>
</g>
<g id="Group 1169">
<path id="Rectangle 673" d="M29.4353 69.545H30.9293V67.44H29.4353V69.545Z" fill="#C4D9ED"/>
<path id="Rectangle 674" d="M26.6411 69.545H28.1351V67.44H26.6411V69.545Z" fill="#C4D9ED"/>
<path id="Rectangle 675" d="M23.9112 69.545H25.4052V67.44H23.9112V69.545Z" fill="#C4D9ED"/>
<path id="Rectangle 676" d="M21.3213 69.545H22.8153V67.44H21.3213V69.545Z" fill="#C4D9ED"/>
</g>
</g>
</g>
<g id="Group 1193">
<g id="Group 1178">
<g id="Group 1174">
<g id="Group 1172">
<path id="Rectangle 677" d="M69.7781 73.431H71.2721V71.326H69.7781V73.431Z" fill="#C4D9ED"/>
<path id="Rectangle 678" d="M66.9841 73.431H68.4781V71.326H66.9841V73.431Z" fill="#C4D9ED"/>
<path id="Rectangle 679" d="M64.2542 73.431H65.7482V71.326H64.2542V73.431Z" fill="#C4D9ED"/>
<path id="Rectangle 680" d="M61.6653 73.431H63.1593V71.326H61.6653V73.431Z" fill="#C4D9ED"/>
<path id="Rectangle 681" d="M59.0261 73.431H60.5201V71.326H59.0261V73.431Z" fill="#C4D9ED"/>
</g>
<g id="Group 1173">
<path id="Rectangle 682" d="M56.3572 73.431H57.8512V71.326H56.3572V73.431Z" fill="#C4D9ED"/>
<path id="Rectangle 683" d="M53.5642 73.431H55.0582V71.326H53.5642V73.431Z" fill="#C4D9ED"/>
<path id="Rectangle 684" d="M50.8333 73.431H52.3273V71.326H50.8333V73.431Z" fill="#C4D9ED"/>
<path id="Rectangle 685" d="M48.2442 73.431H49.7382V71.326H48.2442V73.431Z" fill="#C4D9ED"/>
<path id="Rectangle 686" d="M45.6052 73.431H47.0992V71.326H45.6052V73.431Z" fill="#C4D9ED"/>
</g>
</g>
<g id="Group 1177">
<g id="Group 1175">
<path id="Rectangle 687" d="M42.8552 73.431H44.3492V71.326H42.8552V73.431Z" fill="#C4D9ED"/>
<path id="Rectangle 688" d="M40.0623 73.431H41.5563V71.326H40.0623V73.431Z" fill="#C4D9ED"/>
<path id="Rectangle 689" d="M37.3313 73.431H38.8253V71.326H37.3313V73.431Z" fill="#C4D9ED"/>
<path id="Rectangle 690" d="M34.7422 73.431H36.2362V71.326H34.7422V73.431Z" fill="#C4D9ED"/>
<path id="Rectangle 691" d="M32.1033 73.431H33.5973V71.326H32.1033V73.431Z" fill="#C4D9ED"/>
</g>
<g id="Group 1176">
<path id="Rectangle 692" d="M29.4353 73.431H30.9293V71.326H29.4353V73.431Z" fill="#C4D9ED"/>
<path id="Rectangle 693" d="M26.6411 73.431H28.1351V71.326H26.6411V73.431Z" fill="#C4D9ED"/>
<path id="Rectangle 694" d="M23.9112 73.431H25.4052V71.326H23.9112V73.431Z" fill="#C4D9ED"/>
<path id="Rectangle 695" d="M21.3213 73.431H22.8153V71.326H21.3213V73.431Z" fill="#C4D9ED"/>
</g>
</g>
</g>
<g id="Group 1185">
<g id="Group 1181">
<g id="Group 1179">
<path id="Rectangle 696" d="M69.7781 77.147H71.2721V75.042H69.7781V77.147Z" fill="#C4D9ED"/>
<path id="Rectangle 697" d="M66.9841 77.147H68.4781V75.042H66.9841V77.147Z" fill="#C4D9ED"/>
<path id="Rectangle 698" d="M64.2542 77.147H65.7482V75.042H64.2542V77.147Z" fill="#C4D9ED"/>
<path id="Rectangle 699" d="M61.6653 77.147H63.1593V75.042H61.6653V77.147Z" fill="#C4D9ED"/>
<path id="Rectangle 700" d="M59.0261 77.147H60.5201V75.042H59.0261V77.147Z" fill="#C4D9ED"/>
</g>
<g id="Group 1180">
<path id="Rectangle 701" d="M56.3572 77.147H57.8512V75.042H56.3572V77.147Z" fill="#C4D9ED"/>
<path id="Rectangle 702" d="M53.5642 77.147H55.0582V75.042H53.5642V77.147Z" fill="#C4D9ED"/>
<path id="Rectangle 703" d="M50.8333 77.147H52.3273V75.042H50.8333V77.147Z" fill="#C4D9ED"/>
<path id="Rectangle 704" d="M48.2442 77.147H49.7382V75.042H48.2442V77.147Z" fill="#C4D9ED"/>
<path id="Rectangle 705" d="M45.6052 77.147H47.0992V75.042H45.6052V77.147Z" fill="#C4D9ED"/>
</g>
</g>
<g id="Group 1184">
<g id="Group 1182">
<path id="Rectangle 706" d="M42.8552 77.147H44.3492V75.042H42.8552V77.147Z" fill="#C4D9ED"/>
<path id="Rectangle 707" d="M40.0623 77.147H41.5563V75.042H40.0623V77.147Z" fill="#C4D9ED"/>
<path id="Rectangle 708" d="M37.3313 77.147H38.8253V75.042H37.3313V77.147Z" fill="#C4D9ED"/>
<path id="Rectangle 709" d="M34.7422 77.147H36.2362V75.042H34.7422V77.147Z" fill="#C4D9ED"/>
<path id="Rectangle 710" d="M32.1033 77.147H33.5973V75.042H32.1033V77.147Z" fill="#C4D9ED"/>
</g>
<g id="Group 1183">
<path id="Rectangle 711" d="M29.4353 77.147H30.9293V75.042H29.4353V77.147Z" fill="#C4D9ED"/>
<path id="Rectangle 712" d="M26.6411 77.147H28.1351V75.042H26.6411V77.147Z" fill="#C4D9ED"/>
<path id="Rectangle 713" d="M23.9112 77.147H25.4052V75.042H23.9112V77.147Z" fill="#C4D9ED"/>
<path id="Rectangle 714" d="M21.3213 77.147H22.8153V75.042H21.3213V77.147Z" fill="#C4D9ED"/>
</g>
</g>
</g>
<g id="Group 1192">
<g id="Group 1188">
<g id="Group 1186">
<path id="Rectangle 715" d="M69.7781 80.805H71.2721V78.7H69.7781V80.805Z" fill="#C4D9ED"/>
<path id="Rectangle 716" d="M66.9841 80.805H68.4781V78.7H66.9841V80.805Z" fill="#C4D9ED"/>
<path id="Rectangle 717" d="M64.2542 80.805H65.7482V78.7H64.2542V80.805Z" fill="#C4D9ED"/>
<path id="Rectangle 718" d="M61.6653 80.805H63.1593V78.7H61.6653V80.805Z" fill="#C4D9ED"/>
<path id="Rectangle 719" d="M59.0261 80.805H60.5201V78.7H59.0261V80.805Z" fill="#C4D9ED"/>
</g>
<g id="Group 1187">
<path id="Rectangle 720" d="M56.3572 80.805H57.8512V78.7H56.3572V80.805Z" fill="#C4D9ED"/>
<path id="Rectangle 721" d="M53.5642 80.805H55.0582V78.7H53.5642V80.805Z" fill="#C4D9ED"/>
<path id="Rectangle 722" d="M50.8333 80.805H52.3273V78.7H50.8333V80.805Z" fill="#C4D9ED"/>
<path id="Rectangle 723" d="M48.2442 80.805H49.7382V78.7H48.2442V80.805Z" fill="#C4D9ED"/>
<path id="Rectangle 724" d="M45.6052 80.805H47.0992V78.7H45.6052V80.805Z" fill="#C4D9ED"/>
</g>
</g>
<g id="Group 1191">
<g id="Group 1189">
<path id="Rectangle 725" d="M42.8552 80.805H44.3492V78.7H42.8552V80.805Z" fill="#C4D9ED"/>
<path id="Rectangle 726" d="M40.0623 80.805H41.5563V78.7H40.0623V80.805Z" fill="#C4D9ED"/>
<path id="Rectangle 727" d="M37.3313 80.805H38.8253V78.7H37.3313V80.805Z" fill="#C4D9ED"/>
<path id="Rectangle 728" d="M34.7422 80.805H36.2362V78.7H34.7422V80.805Z" fill="#C4D9ED"/>
<path id="Rectangle 729" d="M32.1033 80.805H33.5973V78.7H32.1033V80.805Z" fill="#C4D9ED"/>
</g>
<g id="Group 1190">
<path id="Rectangle 730" d="M29.4353 80.805H30.9293V78.7H29.4353V80.805Z" fill="#C4D9ED"/>
<path id="Rectangle 731" d="M26.6411 80.805H28.1351V78.7H26.6411V80.805Z" fill="#C4D9ED"/>
<path id="Rectangle 732" d="M23.9112 80.805H25.4052V78.7H23.9112V80.805Z" fill="#C4D9ED"/>
<path id="Rectangle 733" d="M21.3213 80.805H22.8153V78.7H21.3213V80.805Z" fill="#C4D9ED"/>
</g>
</g>
</g>
</g>
</g>
<path id="Path 2331" d="M47.0762 104.363L81.7451 104.38V85.3H47.125L47.0762 104.363Z" fill="#C4D9ED"/>
<path id="Rectangle 734" d="M73.3761 103.973H107.996V94.634H73.3761V103.973Z" fill="#C4D9ED"/>
<path id="Path 2332" d="M44.3491 88.206V104.363L28.1941 104.386C28.1811 104.363 27.9621 103.922 27.9431 103.891L27.8511 103.73C27.8401 103.709 27.827 103.687 27.813 103.663C27.766 103.579 27.7131 103.485 27.6541 103.377C27.5821 103.246 27.5021 103.096 27.4131 102.93C27.0811 102.309 26.6421 101.448 26.1431 100.378C25.9791 100.027 25.8094 99.653 25.634 99.257C25.564 99.099 25.4941 98.939 25.4231 98.775C25.3541 98.616 25.2851 98.455 25.2161 98.289L25.209 98.273C25.161 98.159 25.1092 98.045 25.0652 97.927C25.0212 97.809 24.9651 97.686 24.9141 97.564C24.6561 96.93 24.3921 96.258 24.1301 95.549L24.1091 95.493C23.9378 95.0263 23.7672 94.5473 23.5972 94.056C23.5038 93.7853 23.4114 93.5097 23.3201 93.229C23.3141 93.213 23.308 93.196 23.303 93.177C23.262 93.053 23.2221 92.929 23.1821 92.803C23.1481 92.697 23.114 92.592 23.082 92.485C23.0154 92.2663 22.9466 92.0447 22.876 91.82C22.789 91.533 22.7022 91.24 22.6172 90.945C22.5025 90.545 22.3897 90.137 22.2791 89.721C22.2461 89.597 22.2132 89.472 22.1792 89.347C22.0832 88.9723 21.9884 88.593 21.895 88.209L44.3491 88.206Z" fill="#C4D9ED"/>
<path id="Rectangle 735" d="M72.9821 90.942H79.4321V87.483H72.9821V90.942Z" fill="#D5E7F7"/>
<path id="Rectangle 736" d="M64.7021 90.942H71.1521V87.483H64.7021V90.942Z" fill="#D5E7F7"/>
<path id="Rectangle 737" d="M56.58 90.942H63.03V87.483H56.58V90.942Z" fill="#D5E7F7"/>
<path id="Rectangle 738" d="M48.6142 90.942H55.0642V87.483H48.6142V90.942Z" fill="#D5E7F7"/>
<path id="Rectangle 739" d="M47.4851 85.296H44.1621V104.363H47.4851V85.296Z" fill="#ADC9E0"/>
<path id="Rectangle 740" d="M97.549 53.431H97.729V51.969H97.549V53.431Z" fill="#DCEAF9"/>
<path id="Rectangle 741" d="M91.0832 53.431H91.2632V51.969H91.0832V53.431Z" fill="#DCEAF9"/>
<path id="Path 2333" d="M20.7122 81.6C20.7922 82.284 20.886 82.96 20.989 83.625C21.101 84.345 21.2254 85.0527 21.3621 85.748C21.4854 86.3793 21.6165 86.9987 21.7551 87.606L21.8091 87.836C21.8371 87.961 21.867 88.084 21.896 88.208C21.9893 88.592 22.0842 88.9713 22.1802 89.346C22.2122 89.471 22.245 89.596 22.28 89.72C22.39 90.1353 22.5028 90.5433 22.6182 90.944C22.7032 91.244 22.7902 91.532 22.8772 91.819C22.9439 92.043 23.0123 92.2647 23.083 92.484C23.116 92.591 23.1501 92.696 23.1831 92.802C23.2231 92.928 23.2632 93.052 23.3042 93.176C23.3092 93.195 23.315 93.212 23.321 93.228C23.413 93.508 23.5055 93.7837 23.5981 94.055C23.7681 94.549 23.9388 95.028 24.1101 95.492L24.1311 95.548C24.3931 96.257 24.657 96.929 24.915 97.563C24.965 97.685 25.0152 97.807 25.0662 97.926C25.1172 98.045 25.1662 98.158 25.2102 98.272L25.217 98.288V81.6H20.7122Z" fill="#D5E7F7"/>
<g id="Group 1198">
<path id="Path 2334" d="M25.2161 87.834V98.287L25.209 98.271C25.161 98.157 25.1092 98.043 25.0652 97.925C25.0212 97.807 24.9651 97.684 24.9141 97.562C24.6561 96.928 24.3921 96.256 24.1301 95.547L24.1091 95.491C23.9378 95.0243 23.7672 94.5453 23.5972 94.054C23.5038 93.7833 23.4114 93.5077 23.3201 93.227C23.3141 93.211 23.308 93.194 23.303 93.175C23.262 93.051 23.2221 92.927 23.1821 92.801C23.1481 92.695 23.114 92.59 23.082 92.483C23.0154 92.2643 22.9466 92.0427 22.876 91.818C22.789 91.531 22.7022 91.238 22.6172 90.943C22.5025 90.543 22.3897 90.135 22.2791 89.719C22.2461 89.595 22.2132 89.47 22.1792 89.345C22.0832 88.9703 21.9884 88.591 21.895 88.207C21.866 88.083 21.8361 87.96 21.8081 87.835L25.2161 87.834Z" fill="#D5E7F7"/>
<path id="Path 2335" d="M25.2161 85.746V90.946H22.616C22.5013 90.546 22.3887 90.138 22.2781 89.722C22.2451 89.598 22.212 89.473 22.178 89.348C22.082 88.9733 21.9874 88.594 21.894 88.21C21.865 88.086 21.8351 87.963 21.8071 87.838L21.7532 87.608C21.6152 87 21.4841 86.3807 21.3601 85.75L25.2161 85.746Z" fill="#C4D9ED"/>
<g id="Group 1197">
<g id="Group 1196">
<g id="Group 1195">
<path id="Path 2336" d="M23.5972 92.482V94.053C23.5038 93.7823 23.4114 93.5067 23.3201 93.226C23.3141 93.21 23.308 93.193 23.303 93.174C23.262 93.05 23.2221 92.926 23.1821 92.8C23.1481 92.694 23.114 92.589 23.082 92.482H23.5972Z" fill="#C4D9ED"/>
</g>
</g>
</g>
<path id="Rectangle 742" d="M22.3771 88.981H23.4031V87.206H22.3771V88.981Z" fill="#ADC9E0"/>
</g>
<g id="Group 1209">
<path id="Rectangle 743" d="M101.443 103.821H125.214V87.835H101.443V103.821Z" fill="#D5E7F7"/>
<path id="Rectangle 744" d="M101.443 90.942H125.214V85.746H101.443V90.942Z" fill="#C4D9ED"/>
<g id="Group 1208">
<g id="Group 1201">
<g id="Group 1199">
<path id="Rectangle 745" d="M122.374 94.202H123.595V92.481H122.374V94.202Z" fill="#C4D9ED"/>
<path id="Rectangle 746" d="M120.091 94.202H121.312V92.481H120.091V94.202Z" fill="#C4D9ED"/>
<path id="Rectangle 747" d="M117.859 94.202H119.08V92.481H117.859V94.202Z" fill="#C4D9ED"/>
<path id="Rectangle 748" d="M115.743 94.202H116.964V92.481H115.743V94.202Z" fill="#C4D9ED"/>
<path id="Rectangle 749" d="M113.586 94.202H114.807V92.481H113.586V94.202Z" fill="#C4D9ED"/>
</g>
<g id="Group 1200">
<path id="Rectangle 750" d="M111.405 94.202H112.626V92.481H111.405V94.202Z" fill="#C4D9ED"/>
<path id="Rectangle 751" d="M109.122 94.202H110.343V92.481H109.122V94.202Z" fill="#C4D9ED"/>
<path id="Rectangle 752" d="M106.89 94.202H108.111V92.481H106.89V94.202Z" fill="#C4D9ED"/>
<path id="Rectangle 753" d="M104.774 94.202H105.995V92.481H104.774V94.202Z" fill="#C4D9ED"/>
<path id="Rectangle 754" d="M102.617 94.202H103.838V92.481H102.617V94.202Z" fill="#C4D9ED"/>
</g>
</g>
<g id="Group 1204">
<g id="Group 1202">
<path id="Rectangle 755" d="M122.374 97.239H123.595V95.518H122.374V97.239Z" fill="#C4D9ED"/>
<path id="Rectangle 756" d="M120.091 97.239H121.312V95.518H120.091V97.239Z" fill="#C4D9ED"/>
<path id="Rectangle 757" d="M117.859 97.239H119.08V95.518H117.859V97.239Z" fill="#C4D9ED"/>
<path id="Rectangle 758" d="M115.743 97.239H116.964V95.518H115.743V97.239Z" fill="#C4D9ED"/>
<path id="Rectangle 759" d="M113.586 97.239H114.807V95.518H113.586V97.239Z" fill="#C4D9ED"/>
</g>
<g id="Group 1203">
<path id="Rectangle 760" d="M111.405 97.239H112.626V95.518H111.405V97.239Z" fill="#C4D9ED"/>
<path id="Rectangle 761" d="M109.122 97.239H110.343V95.518H109.122V97.239Z" fill="#C4D9ED"/>
<path id="Rectangle 762" d="M106.89 97.239H108.111V95.518H106.89V97.239Z" fill="#C4D9ED"/>
<path id="Rectangle 763" d="M104.774 97.239H105.995V95.518H104.774V97.239Z" fill="#C4D9ED"/>
<path id="Rectangle 764" d="M102.617 97.239H103.838V95.518H102.617V97.239Z" fill="#C4D9ED"/>
</g>
</g>
<g id="Group 1207">
<g id="Group 1205">
<path id="Rectangle 765" d="M122.374 100.229H123.595V98.508H122.374V100.229Z" fill="#C4D9ED"/>
<path id="Rectangle 766" d="M120.091 100.229H121.312V98.508H120.091V100.229Z" fill="#C4D9ED"/>
<path id="Rectangle 767" d="M117.859 100.229H119.08V98.508H117.859V100.229Z" fill="#C4D9ED"/>
<path id="Rectangle 768" d="M115.743 100.229H116.964V98.508H115.743V100.229Z" fill="#C4D9ED"/>
<path id="Rectangle 769" d="M113.586 100.229H114.807V98.508H113.586V100.229Z" fill="#C4D9ED"/>
</g>
<g id="Group 1206">
<path id="Rectangle 770" d="M111.405 100.229H112.626V98.508H111.405V100.229Z" fill="#C4D9ED"/>
<path id="Rectangle 771" d="M109.122 100.229H110.343V98.508H109.122V100.229Z" fill="#C4D9ED"/>
<path id="Rectangle 772" d="M106.89 100.229H108.111V98.508H106.89V100.229Z" fill="#C4D9ED"/>
<path id="Rectangle 773" d="M104.774 100.229H105.995V98.508H104.774V100.229Z" fill="#C4D9ED"/>
<path id="Rectangle 774" d="M102.617 100.229H103.838V98.508H102.617V100.229Z" fill="#C4D9ED"/>
</g>
</g>
</g>
<path id="Rectangle 775" d="M122.374 88.981H123.4V87.206H122.374V88.981Z" fill="#ADC9E0"/>
<path id="Rectangle 776" d="M112.189 88.981H113.215V87.206H112.189V88.981Z" fill="#ADC9E0"/>
<path id="Rectangle 777" d="M104.087 88.981H105.113V87.206H104.087V88.981Z" fill="#ADC9E0"/>
</g>
<g id="Group 1220">
<path id="Rectangle 778" d="M126.706 103.821H150.477V87.835H126.706V103.821Z" fill="#D5E7F7"/>
<path id="Rectangle 779" d="M126.706 90.942H150.477V85.746H126.706V90.942Z" fill="#C4D9ED"/>
<g id="Group 1219">
<g id="Group 1212">
<g id="Group 1210">
<path id="Rectangle 780" d="M147.638 94.202H148.859V92.481H147.638V94.202Z" fill="#C4D9ED"/>
<path id="Rectangle 781" d="M145.355 94.202H146.576V92.481H145.355V94.202Z" fill="#C4D9ED"/>
<path id="Rectangle 782" d="M143.123 94.202H144.344V92.481H143.123V94.202Z" fill="#C4D9ED"/>
<path id="Rectangle 783" d="M141.007 94.202H142.228V92.481H141.007V94.202Z" fill="#C4D9ED"/>
<path id="Rectangle 784" d="M138.85 94.202H140.071V92.481H138.85V94.202Z" fill="#C4D9ED"/>
</g>
<g id="Group 1211">
<path id="Rectangle 785" d="M136.669 94.202H137.89V92.481H136.669V94.202Z" fill="#C4D9ED"/>
<path id="Rectangle 786" d="M134.386 94.202H135.607V92.481H134.386V94.202Z" fill="#C4D9ED"/>
<path id="Rectangle 787" d="M132.154 94.202H133.375V92.481H132.154V94.202Z" fill="#C4D9ED"/>
<path id="Rectangle 788" d="M130.038 94.202H131.259V92.481H130.038V94.202Z" fill="#C4D9ED"/>
<path id="Rectangle 789" d="M127.881 94.202H129.102V92.481H127.881V94.202Z" fill="#C4D9ED"/>
</g>
</g>
<g id="Group 1215">
<g id="Group 1213">
<path id="Rectangle 790" d="M147.638 97.239H148.859V95.518H147.638V97.239Z" fill="#C4D9ED"/>
<path id="Rectangle 791" d="M145.355 97.239H146.576V95.518H145.355V97.239Z" fill="#C4D9ED"/>
<path id="Rectangle 792" d="M143.123 97.239H144.344V95.518H143.123V97.239Z" fill="#C4D9ED"/>
<path id="Rectangle 793" d="M141.007 97.239H142.228V95.518H141.007V97.239Z" fill="#C4D9ED"/>
<path id="Rectangle 794" d="M138.85 97.239H140.071V95.518H138.85V97.239Z" fill="#C4D9ED"/>
</g>
<g id="Group 1214">
<path id="Rectangle 795" d="M136.669 97.239H137.89V95.518H136.669V97.239Z" fill="#C4D9ED"/>
<path id="Rectangle 796" d="M134.386 97.239H135.607V95.518H134.386V97.239Z" fill="#C4D9ED"/>
<path id="Rectangle 797" d="M132.154 97.239H133.375V95.518H132.154V97.239Z" fill="#C4D9ED"/>
<path id="Rectangle 798" d="M130.038 97.239H131.259V95.518H130.038V97.239Z" fill="#C4D9ED"/>
<path id="Rectangle 799" d="M127.881 97.239H129.102V95.518H127.881V97.239Z" fill="#C4D9ED"/>
</g>
</g>
<g id="Group 1218">
<g id="Group 1216">
<path id="Rectangle 800" d="M147.638 100.229H148.859V98.508H147.638V100.229Z" fill="#C4D9ED"/>
<path id="Rectangle 801" d="M145.355 100.229H146.576V98.508H145.355V100.229Z" fill="#C4D9ED"/>
<path id="Rectangle 802" d="M143.123 100.229H144.344V98.508H143.123V100.229Z" fill="#C4D9ED"/>
<path id="Rectangle 803" d="M141.007 100.229H142.228V98.508H141.007V100.229Z" fill="#C4D9ED"/>
<path id="Rectangle 804" d="M138.85 100.229H140.071V98.508H138.85V100.229Z" fill="#C4D9ED"/>
</g>
<g id="Group 1217">
<path id="Rectangle 805" d="M136.669 100.229H137.89V98.508H136.669V100.229Z" fill="#C4D9ED"/>
<path id="Rectangle 806" d="M134.386 100.229H135.607V98.508H134.386V100.229Z" fill="#C4D9ED"/>
<path id="Rectangle 807" d="M132.154 100.229H133.375V98.508H132.154V100.229Z" fill="#C4D9ED"/>
<path id="Rectangle 808" d="M130.038 100.229H131.259V98.508H130.038V100.229Z" fill="#C4D9ED"/>
<path id="Rectangle 809" d="M127.881 100.229H129.102V98.508H127.881V100.229Z" fill="#C4D9ED"/>
</g>
</g>
</g>
<path id="Rectangle 810" d="M147.638 88.981H148.664V87.206H147.638V88.981Z" fill="#ADC9E0"/>
<path id="Rectangle 811" d="M137.453 88.981H138.479V87.206H137.453V88.981Z" fill="#ADC9E0"/>
<path id="Rectangle 812" d="M129.351 88.981H130.377V87.206H129.351V88.981Z" fill="#ADC9E0"/>
</g>
<g id="Group 1231">
<path id="Rectangle 813" d="M175.797 87.835H152.026V104.359H175.797V87.835Z" fill="#D5E7F7"/>
<path id="Rectangle 814" d="M152.026 90.942H175.797V85.746H152.026V90.942Z" fill="#C4D9ED"/>
<g id="Group 1230">
<g id="Group 1223">
<g id="Group 1221">
<path id="Rectangle 815" d="M172.957 94.202H174.178V92.481H172.957V94.202Z" fill="#C4D9ED"/>
<path id="Rectangle 816" d="M170.674 94.202H171.895V92.481H170.674V94.202Z" fill="#C4D9ED"/>
<path id="Rectangle 817" d="M168.442 94.202H169.663V92.481H168.442V94.202Z" fill="#C4D9ED"/>
<path id="Rectangle 818" d="M166.326 94.202H167.547V92.481H166.326V94.202Z" fill="#C4D9ED"/>
<path id="Rectangle 819" d="M164.17 94.202H165.391V92.481H164.17V94.202Z" fill="#C4D9ED"/>
</g>
<g id="Group 1222">
<path id="Rectangle 820" d="M161.988 94.202H163.209V92.481H161.988V94.202Z" fill="#C4D9ED"/>
<path id="Rectangle 821" d="M159.705 94.202H160.926V92.481H159.705V94.202Z" fill="#C4D9ED"/>
<path id="Rectangle 822" d="M157.473 94.202H158.694V92.481H157.473V94.202Z" fill="#C4D9ED"/>
<path id="Rectangle 823" d="M155.357 94.202H156.578V92.481H155.357V94.202Z" fill="#C4D9ED"/>
<path id="Rectangle 824" d="M153.201 94.202H154.422V92.481H153.201V94.202Z" fill="#C4D9ED"/>
</g>
</g>
<g id="Group 1226">
<g id="Group 1224">
<path id="Rectangle 825" d="M172.957 97.239H174.178V95.518H172.957V97.239Z" fill="#C4D9ED"/>
<path id="Rectangle 826" d="M170.674 97.239H171.895V95.518H170.674V97.239Z" fill="#C4D9ED"/>
<path id="Rectangle 827" d="M168.442 97.239H169.663V95.518H168.442V97.239Z" fill="#C4D9ED"/>
<path id="Rectangle 828" d="M166.326 97.239H167.547V95.518H166.326V97.239Z" fill="#C4D9ED"/>
<path id="Rectangle 829" d="M164.17 97.239H165.391V95.518H164.17V97.239Z" fill="#C4D9ED"/>
</g>
<g id="Group 1225">
<path id="Rectangle 830" d="M161.988 97.239H163.209V95.518H161.988V97.239Z" fill="#C4D9ED"/>
<path id="Rectangle 831" d="M159.705 97.239H160.926V95.518H159.705V97.239Z" fill="#C4D9ED"/>
<path id="Rectangle 832" d="M157.473 97.239H158.694V95.518H157.473V97.239Z" fill="#C4D9ED"/>
<path id="Rectangle 833" d="M155.357 97.239H156.578V95.518H155.357V97.239Z" fill="#C4D9ED"/>
<path id="Rectangle 834" d="M153.201 97.239H154.422V95.518H153.201V97.239Z" fill="#C4D9ED"/>
</g>
</g>
<g id="Group 1229">
<g id="Group 1227">
<path id="Rectangle 835" d="M172.957 100.229H174.178V98.508H172.957V100.229Z" fill="#C4D9ED"/>
<path id="Rectangle 836" d="M170.674 100.229H171.895V98.508H170.674V100.229Z" fill="#C4D9ED"/>
<path id="Rectangle 837" d="M168.442 100.229H169.663V98.508H168.442V100.229Z" fill="#C4D9ED"/>
<path id="Rectangle 838" d="M166.326 100.229H167.547V98.508H166.326V100.229Z" fill="#C4D9ED"/>
<path id="Rectangle 839" d="M164.17 100.229H165.391V98.508H164.17V100.229Z" fill="#C4D9ED"/>
</g>
<g id="Group 1228">
<path id="Rectangle 840" d="M161.988 100.229H163.209V98.508H161.988V100.229Z" fill="#C4D9ED"/>
<path id="Rectangle 841" d="M159.705 100.229H160.926V98.508H159.705V100.229Z" fill="#C4D9ED"/>
<path id="Rectangle 842" d="M157.473 100.229H158.694V98.508H157.473V100.229Z" fill="#C4D9ED"/>
<path id="Rectangle 843" d="M155.357 100.229H156.578V98.508H155.357V100.229Z" fill="#C4D9ED"/>
<path id="Rectangle 844" d="M153.201 100.229H154.422V98.508H153.201V100.229Z" fill="#C4D9ED"/>
</g>
</g>
</g>
<path id="Rectangle 845" d="M172.957 88.981H173.983V87.206H172.957V88.981Z" fill="#ADC9E0"/>
<path id="Rectangle 846" d="M162.772 88.981H163.798V87.206H162.772V88.981Z" fill="#ADC9E0"/>
<path id="Rectangle 847" d="M154.671 88.981H155.697V87.206H154.671V88.981Z" fill="#ADC9E0"/>
</g>
</g>
</g>
<path id="Path 2337" d="M228.378 104.316H215.595C214.91 103.735 216.069 102.416 217.28 102.326C217.938 102.317 218.594 102.395 219.231 102.557C219.407 100.221 220.411 89.717 224.197 90.139C228.454 90.612 224.197 94.765 222.997 97.224C222.145 99.0716 221.39 100.963 220.735 102.889C221.081 102.964 221.435 103.037 221.804 103.104C222.368 101.372 224.468 95.545 227.138 95.884C230.272 96.284 229.012 98.618 226.791 100.005C225.161 101.025 223.159 102.475 222.208 103.175C223.033 103.318 223.87 103.385 224.708 103.375C226.005 103.234 227.309 103.568 228.378 104.316Z" fill="#A8D29F"/>
<g id="Group 1236">
<g id="man">
<path id="Path 2338" d="M170.82 34.372C170.82 34.372 170.409 32.4 169.381 31.948C168.353 31.496 167.738 29.688 167.327 30.181C166.916 30.674 167.45 33.961 168.227 34.372C168.655 34.5836 169.044 34.8663 169.377 35.208L170.82 34.372Z" fill="#9C5F33"/>
<path id="Path 2339" d="M188.455 26.522C188.455 26.522 181.907 37.944 179.531 40.046L170.82 33.546C170.422 33.6877 170.057 33.9072 169.744 34.1917C169.432 34.4762 169.18 34.82 169.002 35.203C169.002 35.203 174.292 45.98 179.502 46.437C184.712 46.894 192.021 33.519 192.021 33.519L188.455 26.522Z" fill="#E58638"/>
<g id="Group 1234">
<path id="Path 2340" d="M208.721 97.194C208.721 97.194 210.235 98.594 209.94 99.594C209.645 100.594 208.278 101.255 208.093 102.474C207.908 103.693 207.17 104.357 206.505 104.357H203.337C203.337 104.357 202.847 103.5 204.029 103.241C205.211 102.982 205.656 101.551 205.582 100.221C205.551 99.1864 205.589 98.1508 205.693 97.121L208.204 96.531L208.721 97.194Z" fill="#233862"/>
<path id="Path 2341" d="M189.851 104.307C189.779 104.337 189.703 104.357 189.626 104.368H181.269C181.35 104.071 181.525 103.808 181.767 103.617C182.009 103.426 182.305 103.318 182.613 103.309C183.937 103.095 186.231 102.326 186.742 100.633C186.758 100.578 186.773 100.523 186.786 100.466C187.192 98.657 190.146 101.02 190.146 101.02C190.146 101.02 190.155 101.092 190.168 101.22C190.236 101.88 190.412 104.026 189.851 104.307Z" fill="#233862"/>
<path id="Path 2342" d="M182.965 55.908C182.965 55.908 183.414 61.508 183.941 68.235C184.658 77.376 185.52 88.604 185.605 90.735C185.753 94.429 186.344 100.335 186.344 100.335C186.929 100.799 187.617 101.115 188.35 101.256C189.083 101.397 189.839 101.36 190.554 101.147C192.154 95.4713 193.23 89.661 193.77 83.789L193.803 83.348C194.468 74.264 195.503 55.135 195.503 55.135L182.965 55.908Z" fill="#2B478B"/>
<path id="Path 2343" d="M182.965 55.908C182.965 55.908 183.414 61.508 183.941 68.235L193.77 83.787L193.803 83.346C194.468 74.262 195.503 55.133 195.503 55.133L182.965 55.908Z" fill="#233862"/>
<path id="Path 2344" d="M185.013 56.573C185.013 56.573 193.101 76.847 198.413 86.373C203.725 95.899 205.393 98.56 205.393 98.56C205.393 98.56 208.439 97.341 208.716 96.51C208.716 96.51 206.683 78.117 203.122 73.633C201.109 71.099 198.746 63.496 198.635 60.833C198.524 58.17 197.915 52.912 197.915 52.912L185.013 56.573Z" fill="#2B478B"/>
</g>
<path id="Path 2345" d="M189.165 25.279C188.961 24.162 188.837 23.0318 188.794 21.897L192.894 18.591C192.807 19.8499 193.011 21.1119 193.49 22.2795C193.968 23.447 194.709 24.4887 195.655 25.324C195.655 25.324 190.187 28.016 187.026 27.019C187.627 26.3131 188.352 25.7233 189.165 25.279Z" fill="#9C5F33"/>
<path id="Path 2346" d="M187.824 21.822C187.824 21.822 193.044 22.69 193.534 19.431C194.024 16.172 195.028 14.088 191.716 13.397C188.404 12.706 187.567 13.851 187.139 14.897C186.711 15.943 186.479 21.513 187.824 21.822Z" fill="#AB7041"/>
<path id="Path 2347" d="M182.616 56.375C182.708 56.4554 182.826 56.5001 182.948 56.501C184.134 56.485 187.595 57.144 190.523 56.844C192.953 56.5675 195.319 55.8847 197.523 54.824C197.835 54.684 198.552 54.301 198.536 53.953C198.526 53.571 198.488 53.018 198.436 52.322C198.13 48.5318 198.073 44.7257 198.263 40.928C198.313 40.033 198.34 39.146 198.343 38.272C198.368 31.758 197.076 26.029 194.481 24.09C194.259 23.932 192.898 24.597 191.648 25.214C190.594 25.7321 189.395 25.8773 188.248 25.626L187.157 26.591C185.494 28.0249 184.302 29.9276 183.738 32.05C183.116 35.3921 182.772 38.7801 182.71 42.179C182.631 44.015 182.567 45.866 182.551 47.623V47.686C182.536 47.86 182.536 48.05 182.536 48.225C182.473 52.735 182.537 56.311 182.616 56.375Z" fill="#EE9849"/>
<path id="Path 2348" d="M198.44 52.322C198.134 48.5318 198.077 44.7257 198.267 40.928C198.317 40.033 198.344 39.146 198.347 38.272C197.266 35.649 196.383 33.747 196.383 33.747H193.658C193.658 33.747 191.665 47.393 198.44 52.322Z" fill="#E58638"/>
<path id="Path 2349" d="M216.297 64.482L215.571 59.382C215.464 58.6512 215.072 57.9924 214.481 57.5491C213.891 57.1058 213.149 56.9138 212.417 57.015L208.423 57.584L208.268 56.498C208.233 56.2565 208.104 56.0386 207.909 55.8922C207.714 55.7457 207.469 55.6827 207.227 55.717L203.756 56.211C203.636 56.2281 203.521 56.2686 203.417 56.3302C203.313 56.3918 203.223 56.4733 203.15 56.57C203.077 56.6666 203.025 56.7765 202.995 56.8935C202.964 57.0106 202.958 57.1324 202.975 57.252L203.13 58.339L200.816 58.668C200.725 58.681 200.634 58.6987 200.545 58.721L199.275 58.902C198.547 59.008 197.89 59.398 197.448 59.9867C197.006 60.5754 196.815 61.315 196.917 62.044L197.635 67.08C197.741 67.8086 198.131 68.4656 198.719 68.9077C199.308 69.3497 200.048 69.5407 200.777 69.439L201.726 69.303C201.926 69.3184 202.127 69.312 202.326 69.284L213.926 67.631C214.656 67.5247 215.315 67.1341 215.759 66.5444C216.203 65.9547 216.397 65.2134 216.297 64.482ZM203.837 56.787L207.309 56.293C207.342 56.2877 207.376 56.2877 207.409 56.293C207.481 56.3046 207.548 56.339 207.599 56.3911C207.651 56.4433 207.684 56.5105 207.695 56.583L207.85 57.67L203.699 58.261L203.544 57.175C203.532 57.0847 203.555 56.9931 203.61 56.9204C203.665 56.8476 203.747 56.7997 203.837 56.787Z" fill="#233862"/>
<path id="Path 2350" d="M203.742 53.17L204.259 54.062C204.118 54.3426 204.042 54.6517 204.038 54.9659C204.034 55.28 204.102 55.5909 204.236 55.875C204.37 56.1592 204.567 56.409 204.812 56.6057C205.057 56.8023 205.344 56.9406 205.65 57.01C205.65 57.01 206.684 57.271 206.773 56.554C206.862 55.837 206.708 56.119 206.859 55.106C206.972 54.6875 206.935 54.2425 206.754 53.8487C206.572 53.4549 206.259 53.1372 205.867 52.951L205.277 52.387L203.742 53.17Z" fill="#AB7041"/>
<path id="Path 2351" d="M205.113 53.414C204.438 53.5301 203.752 53.5683 203.068 53.528C203.068 53.528 200.155 44.528 199.78 43.706C199.405 42.884 191.127 33.154 191.127 33.154L194.575 24.524C194.575 24.524 203.529 39.48 204.438 41.581C205.938 45.054 206.462 52.84 206.462 52.84C206.055 53.1185 205.596 53.3135 205.113 53.414Z" fill="#EE9849"/>
<path id="Path 2352" d="M193.538 19.117C193.538 19.117 193.003 19.027 193.089 18.289C193.175 17.551 193.174 16.589 192.574 16.767C191.974 16.945 191.945 17.427 191.698 17.146C191.451 16.865 191.447 15.684 189.662 15.602C187.877 15.52 187.152 16.141 186.322 15.776C185.492 15.411 185.448 14.155 185.448 14.155C185.582 14.4068 185.789 14.6126 186.041 14.746C186.041 14.746 184.656 12.852 186.259 11.553C187.862 10.254 189.497 11.105 190.425 11.161C192.469 11.285 193.79 11.407 194.458 12.751C195.126 14.095 194.85 17.824 193.538 19.117Z" fill="#2B478B"/>
<g id="Group 1235">
<path id="Rectangle 848" d="M168.121 28.2546L166.939 28.8373C166.855 28.8786 166.821 28.9799 166.862 29.0636L168.985 33.3717C169.027 33.4554 169.128 33.4898 169.212 33.4485L170.394 32.8658C170.478 32.8246 170.512 32.7232 170.471 32.6395L168.347 28.3314C168.306 28.2477 168.205 28.2133 168.121 28.2546Z" fill="#2B478B"/>
<path id="Path 2353" d="M169.37 33.227L167.211 28.847C167.196 28.8164 167.169 28.7931 167.137 28.782C167.105 28.771 167.07 28.7731 167.039 28.788L166.346 29.13C166.316 29.1451 166.292 29.1716 166.281 29.2038C166.27 29.2361 166.272 29.2713 166.287 29.302L168.446 33.683C168.461 33.7134 168.488 33.7366 168.521 33.7474C168.553 33.7583 168.588 33.756 168.619 33.741L169.312 33.4C169.342 33.3845 169.366 33.3577 169.376 33.3254C169.387 33.293 169.385 33.2577 169.37 33.227Z" fill="#233862"/>
</g>
</g>
</g>
<path id="Path 2354" d="M160.973 72.949C151.756 75.189 144.385 86.049 140.197 93.762C139.67 93.1753 139.195 92.5432 138.779 91.873C140.547 87.873 143.979 79.279 140.655 79.566C137.768 79.816 137.493 85.789 137.629 89.946C135.283 85.875 132.629 81.158 125.119 81.459C112.687 81.959 108.852 94.885 100.219 94.634C91.586 94.383 65.211 91.085 60.019 104.363H150.908C150.608 103.547 150.089 100.263 147.66 97.873C148.105 97.7217 148.567 97.568 149.046 97.412C156.746 94.903 153.869 92.312 153.869 92.312C150.394 92.462 147.053 93.6961 144.315 95.841C143.925 95.7103 143.528 95.6038 143.125 95.522C142.668 95.4294 142.228 95.2707 141.817 95.051C146.375 89.812 152.946 83.134 158.086 81.446C161.603 80.291 163.367 78.709 164.206 77.2C164.486 76.7053 164.614 76.1395 164.575 75.5726C164.537 75.0057 164.333 74.4625 163.989 74.0102C163.645 73.5579 163.176 73.2163 162.64 73.0277C162.104 72.8391 161.525 72.8118 160.973 72.949Z" fill="#A8D29F"/>
<path id="Path 2355" d="M54.3381 25.975C52.7639 25.975 51.2051 26.2851 49.7507 26.8876C48.2963 27.49 46.9747 28.3731 45.8616 29.4863C44.7485 30.5995 43.8655 31.921 43.2632 33.3755C42.6608 34.8299 42.3509 36.3888 42.3511 37.963C42.3511 44.583 54.3381 59.302 54.3381 59.302C54.3381 59.302 66.3252 44.583 66.3252 37.963C66.3253 36.3888 66.0152 34.8299 65.4128 33.3755C64.8105 31.921 63.9276 30.5995 62.8145 29.4863C61.7013 28.3731 60.3799 27.49 58.9255 26.8876C57.4711 26.2851 55.9124 25.975 54.3381 25.975ZM54.3381 43.444C52.8529 43.444 51.4284 42.854 50.3782 41.8038C49.328 40.7536 48.738 39.3292 48.738 37.844C48.738 36.3588 49.328 34.9344 50.3782 33.8842C51.4284 32.834 52.8529 32.244 54.3381 32.244C55.8233 32.244 57.2476 32.834 58.2979 33.8842C59.3481 34.9344 59.938 36.3588 59.938 37.844C59.938 39.3292 59.3481 40.7536 58.2979 41.8038C57.2476 42.854 55.8233 43.444 54.3381 43.444Z" fill="#C94C43"/>
<g id="Group 1240">
<path id="Path 2356" d="M30.603 90.48C28.028 90.48 23.009 93.64 23.009 97.539C23.009 101.438 25.0971 104.597 27.6721 104.597H30.603C33.178 104.597 35.2651 101.437 35.2651 97.539C35.2651 93.641 33.178 90.48 30.603 90.48Z" fill="#661717"/>
<path id="Path 2357" d="M85.865 98.949H60.3462C60.4728 98.195 60.5353 97.4316 60.5332 96.667C60.5332 90.894 57.0671 86.211 52.7971 86.211C48.5271 86.211 45.0681 90.894 45.0681 96.667C45.0664 97.4316 45.1292 98.195 45.2561 98.949H34.3811C34.3811 98.949 31.0011 90.549 34.3811 87.641C37.7611 84.733 56.6302 82.756 56.6302 82.756C56.6302 82.756 63.788 73.436 68.168 70.54C69.3777 69.923 70.6946 69.5435 72.0471 69.422C81.2041 70.613 81.54 80.236 86.77 81.839C92.235 83.517 85.865 98.949 85.865 98.949Z" fill="#661717"/>
<g id="Group 1237">
<path id="Path 2358" d="M61.5571 95.668C61.3868 98.7545 60.6437 101.782 59.366 104.597H55.6582C52.4012 104.597 49.7581 100.597 49.7581 95.668C49.7581 90.739 56.107 86.739 59.364 86.739C62.621 86.739 61.5571 90.737 61.5571 95.668Z" fill="#631818"/>
<path id="Ellipse 58" d="M59.366 104.597C62.6234 104.597 65.264 100.599 65.264 95.668C65.264 90.7367 62.6234 86.739 59.366 86.739C56.1086 86.739 53.468 90.7367 53.468 95.668C53.468 100.599 56.1086 104.597 59.366 104.597Z" fill="#822121"/>
<path id="Path 2359" d="M63.7351 95.668C63.7351 99.383 61.745 102.394 59.292 102.394C56.839 102.394 54.8491 99.383 54.8491 95.668C54.8491 91.953 56.838 88.942 59.292 88.942C61.746 88.942 63.7351 91.953 63.7351 95.668Z" fill="#661717"/>
</g>
<path id="Path 2360" d="M93.121 98.949H67.602C67.7285 98.195 67.7911 97.4316 67.789 96.667C67.789 90.894 64.3229 86.211 60.0529 86.211C55.7829 86.211 52.3251 90.894 52.3251 96.667C52.323 97.4316 52.3856 98.195 52.5121 98.949H13.8859C13.8859 98.949 10.4979 90.549 13.8859 87.641C17.2739 84.733 36.9179 81.922 36.9179 81.922C36.9179 81.922 45.8771 75.275 50.2641 72.379C54.6511 69.483 78.0241 69.312 78.0241 69.312C78.4691 69.33 78.8981 69.367 79.3041 69.422C88.4611 70.613 88.797 80.236 94.027 81.839C99.491 83.517 93.121 98.949 93.121 98.949Z" fill="#C94C43"/>
<path id="Path 2361" d="M93.1211 98.949H67.6021C67.7286 98.195 67.7912 97.4316 67.7891 96.667C67.7891 90.894 64.323 86.211 60.053 86.211C55.783 86.211 52.3252 90.894 52.3252 96.667C52.3231 97.4316 52.3857 98.195 52.5122 98.949H41.6382C41.6382 98.949 38.2582 90.549 41.6382 87.641C45.0182 84.733 63.886 82.756 63.886 82.756C63.886 82.756 71.0451 73.436 75.4241 70.54C76.6342 69.9231 77.9514 69.5436 79.3042 69.422C88.4612 70.613 88.7971 80.236 94.0271 81.839C99.4911 83.517 93.1211 98.949 93.1211 98.949Z" fill="#A8302D"/>
<path id="Path 2362" d="M67.665 81.839C67.665 81.839 75.0862 70.639 79.6912 71.272C87.2052 72.303 89.645 80.444 89.645 80.444C89.645 80.444 83.084 80.866 67.665 81.839Z" fill="#A2C2DD"/>
<path id="Path 2363" d="M73.4651 70.812C73.4481 70.8289 73.4298 70.8442 73.4102 70.858C69.8059 73.7162 66.5295 76.965 63.6411 80.545L40.135 80.945C40.804 80.413 41.619 79.772 42.499 79.075C46.027 76.308 50.6461 72.761 51.5171 72.475C54.3151 71.8483 57.1565 71.4348 60.0171 71.238C60.3171 71.21 60.6311 71.192 60.9431 71.165C64.2871 70.936 67.7431 70.853 70.1711 70.826H70.4001C72.2601 70.8 73.4651 70.812 73.4651 70.812Z" fill="#C4D9ED"/>
<g id="Group 1238">
<path id="Path 2364" d="M38.1651 91.166V91.459C38.1685 91.922 37.9881 92.3674 37.6633 92.6974C37.3386 93.0275 36.8961 93.215 36.4331 93.219H27.6001C27.1374 93.2137 26.6955 93.0257 26.3709 92.696C26.0462 92.3664 25.8653 91.9217 25.8672 91.459V91.166C25.8653 90.7033 26.0462 90.2586 26.3709 89.929C26.6955 89.5993 27.1374 89.4113 27.6001 89.406H36.4331C36.8961 89.41 37.3386 89.5975 37.6633 89.9276C37.9881 90.2576 38.1685 90.703 38.1651 91.166Z" fill="#A2C2DD"/>
<path id="Path 2365" d="M38.1651 91.166V91.459C38.1686 91.922 37.9881 92.3674 37.6634 92.6974C37.3386 93.0275 36.8961 93.215 36.4332 93.219H28.6011C28.1381 93.215 27.6957 93.0275 27.3709 92.6974C27.0461 92.3674 26.8657 91.922 26.8692 91.459V91.166C26.8657 90.703 27.0461 90.2576 27.3709 89.9276C27.6957 89.5975 28.1381 89.41 28.6011 89.406H36.4332C36.8961 89.41 37.3386 89.5975 37.6634 89.9276C37.9881 90.2576 38.1686 90.703 38.1651 91.166Z" fill="#C4D9ED"/>
</g>
<g id="Group 1239">
<path id="Path 2366" d="M20.353 91.166V91.459C20.353 92.43 19.9212 93.219 19.3892 93.219H14.4741C13.9471 93.219 13.511 92.43 13.511 91.459V91.166C13.511 90.194 13.9471 89.406 14.4741 89.406H19.3892C19.9212 89.406 20.353 90.194 20.353 91.166Z" fill="#A2C2DD"/>
<path id="Path 2367" d="M20.353 91.166V91.459C20.353 92.43 19.9212 93.219 19.3892 93.219H15.032C14.5 93.219 14.0681 92.43 14.0681 91.459V91.166C14.0681 90.194 14.5 89.406 15.032 89.406H19.3892C19.9212 89.406 20.353 90.194 20.353 91.166Z" fill="#C4D9ED"/>
</g>
<path id="Path 2368" d="M73.415 70.858C69.8108 73.7162 66.5344 76.965 63.646 80.545L40.1401 80.945C40.8091 80.413 41.6242 79.772 42.5042 79.075C47.8382 77.737 56.4431 75.098 60.9431 71.167C64.2871 70.938 67.7431 70.855 70.1711 70.828H70.4001L73.415 70.858Z" fill="#A2C2DD"/>
</g>
<g id="Group 1249">
<g id="Group 1248">
<g id="Group 1242">
<path id="Rectangle 849" d="M118.632 4.858H87.0192C81.2683 4.858 76.6062 9.52006 76.6062 15.271V93.946C76.6062 99.6969 81.2683 104.359 87.0192 104.359H118.632C124.383 104.359 129.045 99.6969 129.045 93.946V15.271C129.045 9.52006 124.383 4.858 118.632 4.858Z" fill="#D3671E"/>
<path id="Rectangle 850" d="M122.457 4.858H93.3602C86.9145 4.858 81.6892 10.0833 81.6892 16.529V92.688C81.6892 99.1337 86.9145 104.359 93.3602 104.359H122.457C128.903 104.359 134.128 99.1337 134.128 92.688V16.529C134.128 10.0833 128.903 4.858 122.457 4.858Z" fill="#F99746"/>
<g id="Group 1241">
<path id="Path 2369" opacity="0.4" d="M115.593 8.62399H101.965C101.824 8.62452 101.69 8.68064 101.59 8.78011C101.491 8.87957 101.435 9.01433 101.434 9.155C101.435 9.29558 101.491 9.43023 101.59 9.52954C101.69 9.62885 101.825 9.68474 101.965 9.685H115.596C115.737 9.68474 115.871 9.62885 115.971 9.52954C116.07 9.43023 116.127 9.29558 116.127 9.155C116.127 9.01381 116.07 8.87861 115.97 8.77905C115.87 8.6795 115.734 8.62373 115.593 8.62399Z" fill="#D3671E"/>
<path id="Path 2370" opacity="0.4" d="M99.541 8.62399C99.4003 8.62452 99.2657 8.68064 99.1663 8.78011C99.0668 8.87957 99.0105 9.01433 99.01 9.155C99.0105 9.29557 99.0668 9.43023 99.1663 9.52954C99.2658 9.62885 99.4004 9.68473 99.541 9.685C99.6814 9.68447 99.816 9.62847 99.9153 9.52919C100.015 9.42991 100.071 9.2954 100.071 9.155C100.071 9.01442 100.015 8.87966 99.9155 8.78017C99.8162 8.68067 99.6816 8.62452 99.541 8.62399Z" fill="#D3671E"/>
</g>
<path id="Path 2371" opacity="0.4" d="M105.137 98.861C105.137 97.9539 105.498 97.084 106.139 96.4426C106.781 95.8013 107.651 95.441 108.558 95.441C109.465 95.441 110.335 95.8013 110.976 96.4427C111.618 97.0841 111.978 97.954 111.978 98.861C111.978 99.7681 111.618 100.638 110.977 101.28C110.335 101.921 109.465 102.282 108.558 102.282C107.651 102.282 106.781 101.922 106.139 101.28C105.498 100.638 105.137 99.7683 105.137 98.861Z" fill="#D86713"/>
<path id="Rectangle 851" d="M129.653 12.748H86.0542V93.229H129.653V12.748Z" fill="#D5E7F7"/>
<path id="Rectangle 852" d="M129.653 83.892H86.0542V93.235H129.653V83.892Z" fill="#D5E7F7"/>
<path id="Path 2372" d="M130.954 68.038L121.903 53.205C123.88 51.8866 125.28 49.8637 125.816 47.549C127.48 40.694 122.333 31.882 120.616 29.207C121.205 28.6376 121.674 27.9553 121.993 27.2009C122.313 26.4465 122.478 25.6354 122.477 24.816C122.475 23.1932 121.83 21.6374 120.682 20.4899C119.535 19.3423 117.979 18.6969 116.356 18.695C114.733 18.6969 113.178 19.3423 112.03 20.4899C110.883 21.6374 110.237 23.1932 110.235 24.816C110.235 25.4299 110.327 26.0404 110.508 26.627C103.924 30.443 96.8171 34.457 94.3081 35.709L86.7781 23.145C86.6049 22.8562 86.324 22.6481 85.9973 22.5663C85.6707 22.4846 85.325 22.5359 85.0362 22.709C84.8932 22.7947 84.7685 22.9077 84.6692 23.0415C84.5699 23.1754 84.498 23.3275 84.4576 23.4892C84.4171 23.6509 84.4087 23.8189 84.4331 23.9838C84.4576 24.1486 84.5144 24.3071 84.6001 24.45L95.8841 43.276C96.483 44.2788 97.4459 45.0115 98.5721 45.3214C99.6982 45.6312 100.9 45.4942 101.928 44.939L109.108 41.071C109.599 40.8064 110.173 40.7403 110.711 40.8861C111.25 41.032 111.712 41.3787 112.002 41.855L118.369 52.289C105.563 59.077 87.1691 68.758 85.7481 69.311C85.4385 69.4042 85.1761 69.6121 85.0144 69.8921C84.8528 70.1721 84.8041 70.5033 84.8782 70.818C84.9439 71.0962 85.1016 71.3442 85.3257 71.5216C85.5498 71.6991 85.8272 71.7958 86.1131 71.796C86.2114 71.796 86.3094 71.7845 86.4051 71.762C86.7281 71.686 87.2152 71.571 104.117 62.684C110.667 59.24 117.202 55.784 119.694 54.46L128.786 69.36C128.9 69.5461 129.059 69.6999 129.249 69.8066C129.439 69.9133 129.653 69.9692 129.871 69.969C130.104 69.969 130.332 69.9046 130.531 69.783C130.818 69.6076 131.024 69.3253 131.104 68.9981C131.183 68.6709 131.129 68.3255 130.954 68.038ZM116.361 21.238C117.311 21.2391 118.221 21.6168 118.893 22.2883C119.564 22.9598 119.942 23.8703 119.943 24.82C119.942 25.7697 119.564 26.6802 118.893 27.3517C118.221 28.0232 117.311 28.4009 116.361 28.402C115.411 28.4009 114.501 28.0232 113.829 27.3517C113.158 26.6802 112.78 25.7697 112.779 24.82C112.779 23.8689 113.157 22.9568 113.829 22.2843C114.502 21.6118 115.414 21.234 116.365 21.234L116.361 21.238ZM107.905 38.838L100.725 42.705C100.272 42.9485 99.7433 43.0083 99.2476 42.872C98.7519 42.7357 98.3276 42.4138 98.063 41.973L95.616 37.891C96.895 37.246 99.3161 35.943 104.048 33.26C107.206 31.47 110.3 29.685 111.754 28.844C112.327 29.503 113.035 30.0314 113.83 30.3936C114.625 30.7559 115.488 30.9436 116.361 30.944C117.081 30.9449 117.796 30.8179 118.471 30.569C119.561 32.2876 120.528 34.0807 121.366 35.935C122.745 39.013 124.208 43.425 123.348 46.961C122.969 48.6204 121.981 50.0767 120.578 51.041L114.17 40.541C113.543 39.509 112.543 38.757 111.377 38.4398C110.212 38.1226 108.969 38.2644 107.905 38.836V38.838Z" fill="#F99746"/>
</g>
<g id="Group 1243">
<path id="Path 2373" d="M120.35 22.856C120.283 22.8562 120.218 22.8384 120.161 22.8047C120.103 22.7709 120.056 22.7223 120.024 22.664C120 22.6212 119.985 22.5741 119.979 22.5254C119.973 22.4767 119.977 22.4273 119.991 22.3801C120.004 22.333 120.027 22.2889 120.057 22.2504C120.087 22.2119 120.125 22.1799 120.168 22.156L130.249 16.525C130.292 16.501 130.339 16.4857 130.387 16.4799C130.436 16.4741 130.485 16.4779 130.533 16.4912C130.58 16.5045 130.624 16.5269 130.662 16.5573C130.701 16.5876 130.733 16.6252 130.757 16.668C130.781 16.7108 130.796 16.7579 130.802 16.8066C130.808 16.8553 130.804 16.9047 130.79 16.9519C130.777 16.999 130.754 17.0431 130.724 17.0816C130.694 17.12 130.656 17.1521 130.613 17.176L120.532 22.808C120.476 22.8392 120.414 22.8557 120.35 22.856Z" fill="#F99746"/>
</g>
<g id="Group 1244">
<path id="Path 2374" d="M113.785 21.182C113.724 21.1821 113.663 21.167 113.609 21.1383C113.555 21.1095 113.509 21.0678 113.475 21.017L109.787 15.541C109.732 15.4589 109.711 15.3581 109.73 15.2608C109.748 15.1635 109.805 15.0776 109.887 15.022C109.928 14.9946 109.973 14.9754 110.021 14.9655C110.069 14.9557 110.119 14.9554 110.167 14.9647C110.215 14.974 110.261 14.9927 110.301 15.0197C110.342 15.0466 110.378 15.0814 110.405 15.122L114.093 20.599C114.12 20.6396 114.14 20.6852 114.15 20.7332C114.159 20.7812 114.16 20.8306 114.15 20.8787C114.141 20.9268 114.122 20.9726 114.095 21.0135C114.068 21.0544 114.034 21.0896 113.993 21.117C113.932 21.1588 113.859 21.1815 113.785 21.182Z" fill="#F99746"/>
</g>
<g id="Group 1245">
<path id="Path 2375" d="M112.825 84.627C112.761 84.6268 112.698 84.6102 112.642 84.5789C112.586 84.5476 112.54 84.5025 112.506 84.448L99.9001 63.84C99.8744 63.7982 99.8572 63.7518 99.8495 63.7033C99.8419 63.6549 99.8439 63.6054 99.8554 63.5577C99.8669 63.51 99.8877 63.4651 99.9167 63.4255C99.9456 63.3859 99.9822 63.3524 100.024 63.327C100.066 63.3014 100.112 63.2843 100.161 63.2766C100.209 63.2689 100.258 63.2708 100.306 63.2822C100.354 63.2937 100.399 63.3144 100.438 63.3431C100.478 63.3719 100.511 63.4082 100.537 63.45L113.143 84.059C113.169 84.1007 113.186 84.1471 113.194 84.1955C113.202 84.2439 113.2 84.2934 113.188 84.3411C113.177 84.3887 113.156 84.4337 113.127 84.4733C113.098 84.513 113.062 84.5465 113.02 84.572C112.961 84.6079 112.894 84.627 112.825 84.627Z" fill="#F99746"/>
</g>
<path id="Ellipse 59" d="M116.36 26.585C117.337 26.585 118.129 25.793 118.129 24.816C118.129 23.839 117.337 23.047 116.36 23.047C115.383 23.047 114.591 23.839 114.591 24.816C114.591 25.793 115.383 26.585 116.36 26.585Z" fill="#F99746"/>
<g id="Group 1246">
<path id="Path 2376" d="M107.78 83.8L102.154 74.579C101.445 73.4168 100.321 72.5671 99.0098 72.2016C97.6983 71.8361 96.2971 71.982 95.0891 72.61L86.115 77.276V83.934L107.78 83.8Z" fill="#C4D9ED"/>
<path id="Path 2377" d="M86.115 64.767C86.065 64.317 103.671 55.229 109.979 51.988C110.259 51.8445 110.505 51.6438 110.702 51.399C110.9 51.1542 111.043 50.8707 111.124 50.5669C111.205 50.2631 111.221 49.9457 111.171 49.6353C111.121 49.3249 111.007 49.0284 110.835 48.765L110.497 48.244C110.277 47.906 109.94 47.6611 109.55 47.5561C109.161 47.4511 108.746 47.4934 108.386 47.675L99.8982 51.951C99.0902 52.3587 98.1594 52.4514 97.2869 52.2111C96.4144 51.9709 95.6624 51.4148 95.177 50.651L86.0542 35.551L86.115 64.767Z" fill="#C4D9ED"/>
<path id="Path 2378" d="M90.677 20.472L94.8901 27.672C95.3057 28.3821 95.9832 28.9009 96.7771 29.1171C97.571 29.3332 98.4178 29.2294 99.136 28.828L103.572 26.352C104.02 26.1007 104.4 25.7436 104.679 25.3119C104.958 24.8802 105.127 24.387 105.172 23.875C105.254 22.6612 105.582 21.4767 106.135 20.393C106.401 19.9085 106.534 19.3621 106.521 18.8095C106.507 18.2569 106.347 17.7177 106.057 17.247C105.776 16.7885 105.382 16.4098 104.912 16.1471C104.443 15.8845 103.914 15.7467 103.376 15.747H93.3921C92.8397 15.7478 92.2973 15.894 91.8193 16.1711C91.3414 16.4481 90.9447 16.8461 90.6694 17.3251C90.3942 17.8041 90.2501 18.3472 90.2515 18.8996C90.2528 19.452 90.3995 19.9943 90.677 20.472Z" fill="#C4D9ED"/>
<path id="Path 2379" d="M129.653 23.309V40.609C128.766 37.5517 127.488 34.6213 125.853 31.89C125.59 31.4399 125.433 30.9357 125.395 30.4158C125.356 29.8959 125.437 29.3741 125.63 28.89C125.957 28.0214 126.169 27.1137 126.261 26.19C126.322 25.6378 126.541 25.115 126.892 24.6845C127.244 24.2539 127.711 23.934 128.24 23.763L129.653 23.309Z" fill="#C4D9ED"/>
<path id="Path 2380" d="M128.023 52.912C128.715 52.0849 129.266 51.1493 129.653 50.143V59.855L127.672 55.706C127.457 55.2555 127.376 54.7528 127.439 54.2576C127.501 53.7624 127.704 53.2954 128.023 52.912Z" fill="#C4D9ED"/>
<path id="Path 2381" d="M129.653 76.142V83.929H120.42L110.592 68.838C110.294 68.379 110.094 67.8639 110.003 67.3243C109.912 66.7848 109.933 66.2323 110.064 65.7011C110.195 65.17 110.434 64.6714 110.766 64.2362C111.098 63.801 111.515 63.4385 111.992 63.171L114.761 61.62C115.92 60.9702 117.285 60.7915 118.573 61.1208C119.86 61.4502 120.971 62.2624 121.676 63.389L129.653 76.142Z" fill="#C4D9ED"/>
<path id="Path 2382" d="M100.39 37.726L109.613 32.754C109.837 32.633 110.086 32.5646 110.34 32.5539C110.595 32.5431 110.849 32.5904 111.082 32.692C112.809 33.5014 114.669 33.9868 116.571 34.124C116.889 34.1223 117.2 34.2104 117.47 34.3782C117.739 34.5459 117.955 34.7864 118.094 35.072C119.137 37.1741 119.986 39.3677 120.627 41.625C120.727 42.0059 120.689 42.4095 120.522 42.7657C120.354 43.1219 120.067 43.4081 119.71 43.5745C119.354 43.741 118.95 43.7771 118.569 43.6767C118.189 43.5763 117.855 43.3457 117.627 43.025L113.49 37.269C113.268 36.9596 112.947 36.7348 112.58 36.6315C112.213 36.5281 111.823 36.5523 111.471 36.7L101.837 40.755C101.457 40.9154 101.03 40.9302 100.639 40.7964C100.249 40.6627 99.9207 40.3899 99.7181 40.03C99.6089 39.8351 99.5398 39.6203 99.5145 39.3983C99.4892 39.1764 99.5083 38.9515 99.5709 38.737C99.6334 38.5226 99.7381 38.3227 99.8787 38.1491C100.019 37.9755 100.193 37.8317 100.39 37.726Z" fill="#C4D9ED"/>
</g>
<g id="Group 1247">
<path id="Path 2383" d="M119.159 86.241H96.6592C96.5339 86.2415 96.4138 86.2915 96.3252 86.3801C96.2366 86.4687 96.1866 86.5887 96.186 86.714C96.1866 86.8393 96.2366 86.9593 96.3252 87.0479C96.4138 87.1365 96.5339 87.1865 96.6592 87.187H119.159C119.284 87.1865 119.404 87.1365 119.493 87.0479C119.582 86.9593 119.632 86.8393 119.632 86.714C119.632 86.5886 119.582 86.4685 119.493 86.3798C119.405 86.2912 119.285 86.2413 119.159 86.241Z" fill="#699FF0"/>
<path id="Path 2384" d="M119.159 88.313H96.6592C96.5339 88.3135 96.4138 88.3635 96.3252 88.4521C96.2366 88.5407 96.1866 88.6607 96.186 88.786C96.1866 88.9113 96.2366 89.0313 96.3252 89.1199C96.4138 89.2085 96.5339 89.2585 96.6592 89.259H119.159C119.285 89.2587 119.405 89.2088 119.493 89.1202C119.582 89.0315 119.632 88.9114 119.632 88.786C119.632 88.6607 119.582 88.5407 119.493 88.4521C119.404 88.3635 119.284 88.3135 119.159 88.313Z" fill="#699FF0"/>
</g>
</g>
<path id="Path 2385" d="M90.595 84.9C90.0611 84.9 89.5491 85.1121 89.1716 85.4896C88.7941 85.8671 88.582 86.3791 88.582 86.913C88.582 88.024 90.595 90.495 90.595 90.495C90.595 90.495 92.6072 88.024 92.6072 86.913C92.6072 86.3793 92.3951 85.8674 92.0178 85.49C91.6405 85.1125 91.1287 84.9003 90.595 84.9ZM90.595 87.833C90.3454 87.833 90.1062 87.7338 89.9297 87.5574C89.7532 87.3809 89.6541 87.1416 89.6541 86.892C89.6541 86.6424 89.7532 86.4031 89.9297 86.2266C90.1062 86.0502 90.3454 85.951 90.595 85.951C90.8444 85.9513 91.0835 86.0505 91.2598 86.227C91.436 86.4034 91.5352 86.6426 91.5352 86.892C91.5341 87.1407 91.4344 87.3789 91.2583 87.5544C91.0822 87.73 90.8437 87.8287 90.595 87.829V87.833Z" fill="#D3671E"/>
<path id="Path 2386" d="M105.494 47.036C104.96 47.036 104.448 47.2481 104.071 47.6256C103.693 48.0031 103.481 48.5151 103.481 49.049C103.481 50.161 105.494 52.632 105.494 52.632C105.494 52.632 107.507 50.161 107.507 49.049C107.507 48.5151 107.295 48.0031 106.917 47.6256C106.54 47.2481 106.028 47.036 105.494 47.036ZM105.494 49.969C105.245 49.969 105.006 49.87 104.829 49.6937C104.653 49.5175 104.553 49.2784 104.553 49.029C104.553 48.7794 104.652 48.5401 104.829 48.3636C105.005 48.1871 105.245 48.088 105.494 48.088C105.744 48.088 105.983 48.1871 106.159 48.3636C106.336 48.5401 106.435 48.7794 106.435 49.029C106.435 49.1525 106.411 49.2748 106.364 49.3889C106.316 49.5031 106.247 49.6067 106.159 49.694C106.072 49.7813 105.968 49.8506 105.854 49.8977C105.74 49.9449 105.618 49.9691 105.494 49.969Z" fill="#D3671E"/>
</g>
<g id="Group 1250">
<path id="Path 2387" d="M107.507 45.665C107.452 45.6652 107.398 45.6445 107.357 45.607C107.335 45.5874 107.317 45.5637 107.305 45.5372C107.292 45.5107 107.284 45.4819 107.283 45.4525C107.281 45.4232 107.286 45.3938 107.295 45.366C107.305 45.3383 107.32 45.3128 107.34 45.291C107.414 45.2077 107.488 45.1257 107.562 45.045C107.582 45.0231 107.606 45.0053 107.632 44.9927C107.659 44.98 107.687 44.9727 107.717 44.9712C107.746 44.9698 107.776 44.9741 107.803 44.984C107.831 44.9939 107.856 45.0092 107.878 45.029C107.9 45.0486 107.918 45.0724 107.93 45.099C107.943 45.1255 107.95 45.1543 107.952 45.1837C107.953 45.213 107.949 45.2424 107.939 45.2701C107.929 45.2978 107.914 45.3232 107.894 45.345L107.674 45.59C107.653 45.6134 107.627 45.6322 107.598 45.6451C107.57 45.658 107.539 45.6648 107.507 45.665ZM108.49 44.588C108.433 44.5879 108.379 44.5665 108.337 44.528C108.294 44.4873 108.268 44.4312 108.266 44.3718C108.264 44.3124 108.286 44.2546 108.326 44.211C108.583 43.935 108.844 43.658 109.102 43.389C109.143 43.3462 109.2 43.3215 109.259 43.3202C109.318 43.3189 109.376 43.3411 109.419 43.382C109.462 43.4232 109.487 43.4797 109.488 43.5391C109.489 43.5984 109.467 43.6559 109.426 43.699C109.169 43.967 108.909 44.242 108.654 44.516C108.633 44.5387 108.608 44.5569 108.58 44.5693C108.551 44.5817 108.521 44.588 108.49 44.588ZM110.05 42.96C109.991 42.9598 109.934 42.9365 109.892 42.895C109.871 42.8743 109.855 42.8496 109.844 42.8225C109.832 42.7954 109.826 42.7664 109.826 42.737C109.826 42.7076 109.832 42.6786 109.844 42.6515C109.855 42.6243 109.871 42.5997 109.892 42.579C110.158 42.31 110.427 42.041 110.692 41.779C110.734 41.7372 110.791 41.7137 110.851 41.7137C110.91 41.7137 110.967 41.7372 111.009 41.779C111.051 41.8211 111.075 41.8781 111.075 41.9375C111.075 41.9969 111.051 42.0538 111.009 42.096C110.744 42.356 110.477 42.623 110.209 42.889C110.189 42.911 110.164 42.9287 110.137 42.9409C110.11 42.9531 110.08 42.9596 110.05 42.96ZM111.659 41.381C111.629 41.381 111.598 41.3748 111.57 41.3627C111.542 41.3507 111.517 41.3331 111.496 41.311C111.455 41.2678 111.433 41.2102 111.435 41.1508C111.436 41.0915 111.461 41.0351 111.504 40.994C111.778 40.734 112.055 40.474 112.33 40.222C112.352 40.202 112.377 40.1865 112.405 40.1763C112.432 40.1662 112.461 40.1616 112.491 40.1628C112.52 40.164 112.549 40.171 112.576 40.1834C112.602 40.1958 112.626 40.2133 112.646 40.235C112.666 40.2566 112.682 40.2819 112.692 40.3094C112.702 40.337 112.707 40.3663 112.705 40.3957C112.704 40.4251 112.697 40.4539 112.685 40.4806C112.672 40.5072 112.655 40.5311 112.633 40.551C112.361 40.802 112.085 41.06 111.813 41.319C111.772 41.3586 111.717 41.3808 111.659 41.381ZM113.317 39.854C113.286 39.854 113.254 39.8473 113.226 39.8343C113.197 39.8214 113.171 39.8026 113.15 39.779C113.131 39.757 113.115 39.7314 113.106 39.7035C113.096 39.6757 113.092 39.6462 113.093 39.6168C113.095 39.5873 113.102 39.5585 113.115 39.5319C113.128 39.5053 113.146 39.4816 113.168 39.462C113.449 39.212 113.735 38.962 114.019 38.717C114.064 38.6785 114.123 38.6594 114.182 38.6639C114.241 38.6684 114.296 38.6961 114.335 38.741C114.354 38.7633 114.369 38.7892 114.378 38.8172C114.387 38.8451 114.391 38.8746 114.389 38.904C114.387 38.9333 114.378 38.9619 114.365 38.9882C114.352 39.0144 114.333 39.0378 114.311 39.057C114.03 39.299 113.745 39.548 113.466 39.797C113.425 39.8336 113.372 39.8539 113.317 39.854ZM115.026 38.383C114.993 38.383 114.961 38.3758 114.931 38.3618C114.901 38.3478 114.874 38.3274 114.853 38.302C114.834 38.2794 114.82 38.2533 114.812 38.2252C114.803 38.1971 114.8 38.1675 114.803 38.1383C114.805 38.109 114.814 38.0805 114.828 38.0546C114.842 38.0286 114.86 38.0056 114.883 37.987C115.172 37.746 115.467 37.506 115.759 37.272C115.782 37.2535 115.809 37.2398 115.837 37.2315C115.865 37.2232 115.894 37.2206 115.924 37.2237C115.953 37.2269 115.981 37.2358 116.007 37.2499C116.033 37.264 116.056 37.2831 116.074 37.306C116.092 37.329 116.106 37.3553 116.114 37.3836C116.123 37.4119 116.125 37.4415 116.122 37.4707C116.119 37.5 116.11 37.5283 116.096 37.5541C116.081 37.5799 116.062 37.6026 116.039 37.621C115.749 37.854 115.456 38.093 115.169 38.331C115.129 38.3645 115.078 38.383 115.026 38.383ZM116.785 36.974C116.751 36.9741 116.717 36.9662 116.686 36.9509C116.656 36.9356 116.629 36.9134 116.608 36.886C116.59 36.8628 116.577 36.8362 116.569 36.8079C116.561 36.7795 116.559 36.7499 116.563 36.7207C116.567 36.6915 116.576 36.6633 116.591 36.6378C116.605 36.6123 116.625 36.5899 116.648 36.572C116.948 36.342 117.248 36.112 117.548 35.889C117.596 35.8537 117.656 35.8387 117.714 35.8473C117.773 35.8559 117.826 35.8875 117.861 35.935C117.897 35.9828 117.912 36.0426 117.903 36.1015C117.894 36.1603 117.863 36.2133 117.815 36.249C117.515 36.47 117.215 36.698 116.915 36.927C116.878 36.9558 116.832 36.9722 116.785 36.974ZM118.595 35.629C118.559 35.6291 118.524 35.6207 118.492 35.6046C118.461 35.5884 118.433 35.5649 118.412 35.536C118.378 35.4874 118.364 35.4272 118.374 35.3686C118.384 35.3099 118.417 35.2576 118.465 35.223C118.771 35.004 119.083 34.786 119.392 34.575C119.441 34.5415 119.501 34.5288 119.56 34.5397C119.618 34.5506 119.67 34.5841 119.703 34.633C119.72 34.6572 119.731 34.6844 119.738 34.7132C119.744 34.742 119.744 34.7717 119.739 34.8006C119.733 34.8295 119.722 34.857 119.706 34.8816C119.69 34.9062 119.669 34.9274 119.645 34.944C119.339 35.154 119.029 35.371 118.725 35.588C118.687 35.6148 118.642 35.6291 118.595 35.629ZM120.455 34.355C120.418 34.3553 120.381 34.3463 120.348 34.3289C120.316 34.3114 120.288 34.286 120.267 34.255C120.235 34.2054 120.223 34.1449 120.235 34.0868C120.247 34.0286 120.282 33.9777 120.331 33.945C120.646 33.739 120.967 33.533 121.284 33.333C121.335 33.3016 121.395 33.2915 121.453 33.3048C121.511 33.3181 121.561 33.3538 121.593 33.404C121.609 33.4289 121.619 33.4567 121.624 33.4858C121.629 33.5148 121.628 33.5445 121.622 33.5732C121.615 33.6019 121.603 33.629 121.586 33.653C121.569 33.677 121.547 33.6974 121.522 33.713C121.207 33.913 120.89 34.113 120.577 34.32C120.541 34.3435 120.498 34.3557 120.455 34.355ZM122.364 33.155C122.325 33.1552 122.287 33.1454 122.253 33.1265C122.22 33.1075 122.191 33.0802 122.171 33.047C122.141 32.9959 122.132 32.9348 122.146 32.8771C122.16 32.8194 122.197 32.7697 122.248 32.739C122.571 32.545 122.9 32.353 123.225 32.167C123.276 32.139 123.336 32.132 123.392 32.1475C123.448 32.163 123.496 32.1998 123.525 32.25C123.54 32.2755 123.549 32.3037 123.553 32.3329C123.557 32.3621 123.555 32.3919 123.547 32.4203C123.54 32.4488 123.526 32.4754 123.508 32.4987C123.49 32.522 123.468 32.5415 123.442 32.556C123.12 32.74 122.794 32.931 122.474 33.123C122.441 33.1434 122.404 33.1548 122.365 33.156L122.364 33.155ZM124.32 32.036C124.279 32.0366 124.239 32.026 124.204 32.0054C124.169 31.9847 124.14 31.9549 124.12 31.919C124.093 31.8672 124.087 31.8067 124.104 31.7506C124.121 31.6946 124.159 31.6473 124.21 31.619C124.541 31.439 124.877 31.26 125.21 31.088C125.263 31.0618 125.325 31.0577 125.381 31.0764C125.437 31.0951 125.483 31.1352 125.51 31.188C125.523 31.2142 125.531 31.2428 125.533 31.2721C125.535 31.3015 125.532 31.3309 125.523 31.3588C125.513 31.3867 125.499 31.4124 125.479 31.4346C125.46 31.4568 125.437 31.4749 125.41 31.488C125.08 31.659 124.746 31.836 124.418 32.015C124.387 32.0295 124.354 32.037 124.32 32.037V32.036ZM126.32 31.001C126.278 31.0009 126.237 30.9889 126.202 30.9667C126.167 30.9444 126.138 30.9126 126.12 30.875C126.107 30.8488 126.099 30.8202 126.097 30.7908C126.094 30.7615 126.098 30.732 126.107 30.7041C126.117 30.6761 126.131 30.6504 126.151 30.6282C126.17 30.6061 126.194 30.588 126.22 30.575C126.558 30.409 126.902 30.245 127.243 30.088C127.27 30.0752 127.299 30.0679 127.329 30.0665C127.358 30.0651 127.388 30.0695 127.416 30.0797C127.444 30.0898 127.469 30.1054 127.491 30.1256C127.513 30.1457 127.531 30.17 127.543 30.197C127.556 30.2238 127.563 30.2529 127.564 30.2825C127.566 30.3122 127.561 30.3418 127.551 30.3697C127.541 30.3976 127.526 30.4231 127.505 30.445C127.485 30.4669 127.461 30.4845 127.434 30.497C127.096 30.653 126.755 30.815 126.42 30.979C126.39 30.9931 126.357 31.0002 126.323 31L126.32 31.001ZM128.366 30.055C128.322 30.0549 128.28 30.0421 128.243 30.0181C128.207 29.9941 128.179 29.96 128.161 29.92C128.149 29.8931 128.143 29.8641 128.142 29.8347C128.141 29.8052 128.147 29.776 128.157 29.7485C128.168 29.7211 128.184 29.6961 128.204 29.6749C128.225 29.6537 128.249 29.6367 128.276 29.625C128.622 29.475 128.976 29.325 129.32 29.185C129.375 29.1625 129.437 29.1627 129.491 29.1856C129.546 29.2085 129.59 29.2521 129.612 29.307C129.623 29.3342 129.629 29.3634 129.629 29.3929C129.629 29.4223 129.623 29.4515 129.612 29.4786C129.6 29.5058 129.583 29.5304 129.562 29.5511C129.541 29.5717 129.516 29.588 129.489 29.599C129.146 29.74 128.798 29.887 128.455 30.036C128.427 30.0491 128.396 30.0559 128.365 30.056L128.366 30.055ZM164.579 29.448C164.544 29.4486 164.51 29.4407 164.479 29.425C164.479 29.425 164.116 29.25 163.455 28.986C163.428 28.9752 163.403 28.9591 163.382 28.9386C163.361 28.9181 163.344 28.8936 163.332 28.8665C163.32 28.8395 163.314 28.8104 163.314 28.781C163.314 28.7515 163.319 28.7223 163.33 28.695C163.352 28.64 163.396 28.596 163.45 28.5726C163.505 28.5492 163.566 28.5483 163.621 28.57C164.299 28.841 164.659 29.015 164.674 29.022C164.727 29.0486 164.767 29.0951 164.786 29.1513C164.805 29.2076 164.801 29.2689 164.774 29.322C164.757 29.3585 164.729 29.3896 164.696 29.4119C164.662 29.4343 164.623 29.4471 164.582 29.449L164.579 29.448ZM130.453 29.201C130.408 29.2012 130.363 29.1875 130.326 29.1617C130.288 29.136 130.259 29.0995 130.243 29.057C130.233 29.0295 130.228 29.0002 130.229 28.9708C130.229 28.9414 130.236 28.9124 130.248 28.8856C130.26 28.8587 130.277 28.8345 130.299 28.8144C130.32 28.7942 130.346 28.7784 130.373 28.768C130.725 28.633 131.082 28.501 131.435 28.376C131.463 28.366 131.492 28.3616 131.522 28.3631C131.551 28.3645 131.58 28.3718 131.607 28.3844C131.633 28.3971 131.657 28.4148 131.677 28.4367C131.696 28.4586 131.712 28.4842 131.721 28.512C131.741 28.5679 131.738 28.6295 131.712 28.6831C131.687 28.7368 131.641 28.7781 131.585 28.798C131.236 28.922 130.885 29.053 130.533 29.186C130.509 29.1954 130.482 29.2002 130.456 29.2L130.453 29.201ZM162.485 28.601C162.46 28.6011 162.434 28.5967 162.41 28.588C162.066 28.465 161.71 28.344 161.348 28.227C161.292 28.2087 161.245 28.1687 161.218 28.1158C161.191 28.0629 161.186 28.0015 161.204 27.945C161.213 27.917 161.228 27.891 161.247 27.8685C161.266 27.8461 161.289 27.8277 161.315 27.8143C161.341 27.8009 161.37 27.7928 161.399 27.7905C161.429 27.7883 161.458 27.7918 161.486 27.801C161.851 27.919 162.213 28.042 162.561 28.166C162.589 28.1759 162.614 28.1913 162.636 28.2111C162.658 28.2309 162.676 28.2548 162.688 28.2815C162.701 28.3081 162.708 28.337 162.709 28.3664C162.711 28.3959 162.706 28.4253 162.696 28.453C162.68 28.4957 162.652 28.5327 162.615 28.5589C162.578 28.5852 162.534 28.5995 162.488 28.6L162.485 28.601ZM132.576 28.442C132.529 28.442 132.483 28.4271 132.445 28.3994C132.407 28.3718 132.379 28.3327 132.364 28.288C132.345 28.2316 132.35 28.1702 132.377 28.1171C132.403 28.064 132.45 28.0237 132.506 28.005C132.864 27.887 133.227 27.772 133.586 27.663C133.643 27.6458 133.704 27.6519 133.756 27.6798C133.809 27.7078 133.848 27.7553 133.865 27.812C133.874 27.8402 133.877 27.8698 133.874 27.8991C133.871 27.9284 133.863 27.9569 133.849 27.9829C133.835 28.0089 133.816 28.0319 133.793 28.0507C133.771 28.0694 133.744 28.0834 133.716 28.092C133.361 28.2 133.001 28.314 132.647 28.431C132.625 28.4396 132.602 28.4446 132.579 28.446L132.576 28.442ZM160.339 27.906C160.318 27.906 160.297 27.9029 160.276 27.897C159.921 27.797 159.557 27.691 159.195 27.597C159.167 27.5896 159.14 27.5766 159.117 27.5587C159.093 27.5409 159.073 27.5186 159.059 27.4931C159.044 27.4677 159.034 27.4395 159.03 27.4103C159.027 27.3811 159.029 27.3514 159.036 27.323C159.044 27.2946 159.057 27.2679 159.075 27.2445C159.092 27.2211 159.115 27.2015 159.14 27.1867C159.166 27.172 159.194 27.1624 159.223 27.1585C159.252 27.1546 159.282 27.1564 159.31 27.164C159.675 27.264 160.043 27.364 160.402 27.464C160.43 27.4723 160.457 27.486 160.48 27.5045C160.502 27.5229 160.522 27.5457 160.536 27.5715C160.55 27.5973 160.559 27.6257 160.562 27.6549C160.565 27.6842 160.563 27.7138 160.554 27.742C160.542 27.7892 160.514 27.8311 160.476 27.8614C160.438 27.8917 160.391 27.9088 160.342 27.91L160.339 27.906ZM134.733 27.786C134.684 27.7859 134.637 27.7698 134.598 27.7402C134.559 27.7106 134.53 27.6691 134.517 27.622C134.501 27.5647 134.509 27.5036 134.538 27.4519C134.568 27.4001 134.616 27.3621 134.673 27.346C135.035 27.246 135.403 27.146 135.768 27.055C135.797 27.0478 135.826 27.0463 135.856 27.0506C135.885 27.0549 135.913 27.0649 135.938 27.0801C135.963 27.0952 135.985 27.1152 136.003 27.1389C136.02 27.1625 136.033 27.1894 136.04 27.218C136.055 27.2755 136.046 27.3365 136.015 27.3875C135.985 27.4385 135.936 27.4754 135.878 27.49C135.517 27.581 135.152 27.678 134.793 27.778C134.775 27.7842 134.756 27.7882 134.736 27.79L134.733 27.786ZM158.159 27.328C158.141 27.328 158.124 27.326 158.106 27.322C157.745 27.236 157.376 27.153 157.011 27.076C156.953 27.0635 156.902 27.0285 156.87 26.9786C156.838 26.9287 156.827 26.8681 156.839 26.81C156.845 26.7813 156.857 26.754 156.874 26.7298C156.89 26.7056 156.911 26.6849 156.936 26.669C156.96 26.653 156.988 26.642 157.017 26.6367C157.046 26.6314 157.075 26.6318 157.104 26.638C157.473 26.716 157.845 26.799 158.21 26.886C158.239 26.8927 158.266 26.905 158.29 26.9222C158.314 26.9395 158.334 26.9613 158.349 26.9864C158.365 27.0115 158.375 27.0394 158.38 27.0685C158.384 27.0976 158.383 27.1274 158.376 27.156C158.366 27.2047 158.339 27.2484 158.301 27.2803C158.263 27.3122 158.215 27.3304 158.165 27.332L158.159 27.328ZM136.919 27.228C136.868 27.228 136.819 27.2108 136.779 27.1792C136.74 27.1476 136.712 27.1035 136.7 27.054C136.694 27.0253 136.693 26.9956 136.698 26.9666C136.703 26.9376 136.713 26.9099 136.729 26.885C136.745 26.8601 136.765 26.8385 136.789 26.8216C136.813 26.8046 136.841 26.7925 136.869 26.786C137.236 26.702 137.609 26.622 137.977 26.548C138.035 26.5362 138.096 26.548 138.145 26.5808C138.195 26.6137 138.229 26.6648 138.241 26.723C138.253 26.7812 138.241 26.8416 138.208 26.891C138.175 26.9404 138.124 26.9749 138.066 26.987C137.701 27.06 137.332 27.14 136.966 27.223C136.952 27.2288 136.937 27.2335 136.922 27.237L136.919 27.228ZM155.952 26.856C155.939 26.8575 155.925 26.8575 155.911 26.856C155.545 26.788 155.173 26.723 154.805 26.664C154.747 26.6544 154.694 26.622 154.659 26.5738C154.624 26.5257 154.61 26.4657 154.619 26.407C154.629 26.3483 154.661 26.2958 154.709 26.261C154.757 26.2261 154.817 26.2118 154.876 26.221C155.248 26.282 155.624 26.347 155.993 26.421C156.022 26.4263 156.05 26.4372 156.074 26.4532C156.099 26.4692 156.12 26.49 156.137 26.5142C156.154 26.5385 156.165 26.5658 156.171 26.5946C156.177 26.6234 156.178 26.6531 156.172 26.682C156.163 26.7329 156.136 26.7789 156.096 26.8122C156.057 26.8456 156.007 26.8643 155.955 26.865L155.952 26.856ZM139.128 26.781C139.076 26.7807 139.025 26.762 138.985 26.7282C138.945 26.6944 138.918 26.6476 138.908 26.596C138.898 26.5375 138.911 26.4774 138.945 26.4287C138.979 26.38 139.031 26.3467 139.089 26.336C139.46 26.27 139.836 26.208 140.207 26.151C140.236 26.1466 140.266 26.148 140.295 26.155C140.323 26.1621 140.35 26.1747 140.374 26.1922C140.397 26.2096 140.417 26.2316 140.432 26.2568C140.448 26.282 140.458 26.3099 140.462 26.339C140.467 26.368 140.466 26.3977 140.459 26.4262C140.452 26.4548 140.439 26.4817 140.422 26.5054C140.404 26.5291 140.382 26.5491 140.357 26.5643C140.332 26.5795 140.304 26.5896 140.275 26.594C139.907 26.65 139.535 26.712 139.168 26.777C139.156 26.7826 139.144 26.787 139.131 26.79L139.128 26.781ZM153.728 26.496C153.718 26.497 153.708 26.497 153.698 26.496C153.328 26.446 152.954 26.396 152.584 26.357C152.555 26.354 152.526 26.3452 152.5 26.3312C152.474 26.3171 152.451 26.2981 152.433 26.2751C152.414 26.2522 152.4 26.2257 152.392 26.1974C152.384 26.1691 152.381 26.1394 152.384 26.11C152.387 26.0806 152.396 26.052 152.41 26.026C152.424 26.0001 152.444 25.9771 152.467 25.9585C152.49 25.94 152.516 25.9261 152.545 25.9178C152.573 25.9094 152.603 25.9068 152.632 25.91C153.006 25.952 153.384 25.999 153.756 26.05C153.815 26.0582 153.868 26.0894 153.904 26.1368C153.94 26.1843 153.956 26.244 153.948 26.303C153.943 26.3579 153.918 26.409 153.877 26.4463C153.836 26.4836 153.783 26.5045 153.728 26.505V26.496ZM141.36 26.44C141.305 26.4396 141.252 26.419 141.211 26.3822C141.17 26.3453 141.144 26.2947 141.138 26.24C141.134 26.2108 141.136 26.1812 141.144 26.1528C141.152 26.1244 141.165 26.0979 141.183 26.0746C141.201 26.0514 141.224 26.0319 141.249 26.0174C141.275 26.0029 141.303 25.9936 141.332 25.99C141.705 25.942 142.084 25.898 142.457 25.859C142.486 25.8559 142.516 25.8587 142.544 25.8671C142.572 25.8755 142.599 25.8894 142.622 25.908C142.645 25.9266 142.663 25.9495 142.677 25.9754C142.691 26.0013 142.7 26.0297 142.703 26.059C142.706 26.0883 142.704 26.1179 142.695 26.1461C142.687 26.1743 142.673 26.2006 142.654 26.2235C142.636 26.2463 142.613 26.2653 142.587 26.2793C142.561 26.2933 142.533 26.302 142.503 26.305C142.134 26.343 141.759 26.387 141.389 26.434L141.36 26.44ZM151.487 26.24H151.467C151.096 26.207 150.719 26.178 150.348 26.154C150.289 26.1501 150.234 26.1229 150.194 26.0783C150.155 26.0336 150.135 25.9753 150.139 25.916C150.143 25.8567 150.17 25.8014 150.215 25.7622C150.26 25.723 150.318 25.7032 150.377 25.707C150.752 25.731 151.132 25.76 151.507 25.794C151.566 25.8001 151.62 25.829 151.657 25.8745C151.694 25.9199 151.712 25.9783 151.707 26.037C151.705 26.0943 151.681 26.1487 151.64 26.1889C151.599 26.2291 151.544 26.252 151.487 26.253V26.24ZM143.603 26.203C143.547 26.2032 143.493 26.182 143.451 26.1438C143.41 26.1056 143.384 26.0531 143.38 25.997C143.378 25.9677 143.381 25.9382 143.39 25.9102C143.399 25.8822 143.413 25.8562 143.432 25.8338C143.451 25.8114 143.475 25.793 143.501 25.7797C143.527 25.7663 143.556 25.7583 143.585 25.756C143.96 25.726 144.341 25.7 144.716 25.679C144.775 25.676 144.834 25.6966 144.878 25.7363C144.922 25.776 144.949 25.8317 144.952 25.891C144.955 25.9504 144.935 26.0085 144.895 26.0527C144.855 26.0969 144.799 26.1236 144.74 26.127C144.369 26.147 143.992 26.173 143.621 26.202L143.603 26.203ZM149.237 26.095H149.227C148.856 26.08 148.478 26.069 148.105 26.063C148.076 26.0625 148.047 26.0562 148.02 26.0444C147.993 26.0327 147.968 26.0157 147.948 25.9946C147.927 25.9734 147.911 25.9484 147.901 25.921C147.89 25.8936 147.885 25.8644 147.885 25.835C147.886 25.7763 147.91 25.7203 147.952 25.6792C147.994 25.638 148.05 25.615 148.109 25.615C148.485 25.621 148.866 25.632 149.241 25.648C149.27 25.6491 149.3 25.6561 149.326 25.6684C149.353 25.6808 149.377 25.6983 149.397 25.7199C149.417 25.7416 149.433 25.7669 149.443 25.7946C149.453 25.8222 149.457 25.8516 149.456 25.881C149.457 25.9401 149.434 25.9971 149.393 26.0396C149.352 26.0821 149.296 26.1067 149.237 26.108V26.095ZM145.854 26.078C145.796 26.078 145.74 26.0553 145.699 26.0148C145.657 25.9743 145.633 25.9191 145.631 25.861C145.63 25.8317 145.635 25.8025 145.645 25.7751C145.656 25.7477 145.671 25.7226 145.691 25.7012C145.712 25.6799 145.736 25.6627 145.762 25.6506C145.789 25.6386 145.818 25.6319 145.847 25.631C146.222 25.619 146.603 25.611 146.98 25.609C147.009 25.6087 147.039 25.6143 147.066 25.6253C147.093 25.6363 147.118 25.6526 147.139 25.6732C147.16 25.6938 147.177 25.7183 147.188 25.7454C147.2 25.7725 147.206 25.8016 147.206 25.831C147.206 25.8605 147.201 25.8897 147.19 25.9171C147.179 25.9444 147.162 25.9693 147.142 25.9903C147.121 26.0113 147.096 26.028 147.069 26.0395C147.042 26.0509 147.013 26.0569 146.983 26.057C146.61 26.057 146.233 26.067 145.861 26.078H145.854Z" fill="#699FF0"/>
</g>
<g id="Group 1251">
<path id="Path 2388" d="M57.626 58.894C57.5918 58.894 57.558 58.8862 57.5273 58.8711C57.4967 58.856 57.4698 58.8341 57.449 58.807C57.4126 58.7602 57.3963 58.7008 57.4036 58.6419C57.4109 58.5831 57.4413 58.5295 57.488 58.493C57.502 58.482 57.8171 58.239 58.4141 57.82C58.4381 57.803 58.4654 57.7909 58.4941 57.7845C58.5229 57.778 58.5525 57.7774 58.5815 57.7825C58.6106 57.7876 58.6383 57.7984 58.6631 57.8143C58.6879 57.8302 58.7093 57.8508 58.7261 57.875C58.7431 57.8991 58.7553 57.9262 58.7617 57.955C58.7682 57.9837 58.7688 58.0135 58.7637 58.0425C58.7586 58.0715 58.7478 58.0992 58.7319 58.124C58.7161 58.1488 58.6953 58.1702 58.6711 58.187C58.0841 58.599 57.7662 58.844 57.7632 58.847C57.7238 58.8771 57.6755 58.8936 57.626 58.894ZM59.4761 57.594C59.4392 57.594 59.4031 57.5849 59.3706 57.5674C59.3381 57.55 59.3104 57.5247 59.29 57.494C59.2737 57.4695 59.2623 57.4421 59.2566 57.4132C59.2508 57.3843 59.2508 57.3545 59.2566 57.3256C59.2624 57.2968 59.2737 57.2693 59.29 57.2448C59.3064 57.2203 59.3275 57.1993 59.3521 57.183C59.6591 56.983 59.979 56.77 60.302 56.564C60.3523 56.5322 60.4133 56.5215 60.4714 56.5345C60.5295 56.5474 60.58 56.5828 60.6121 56.633C60.6436 56.6832 60.654 56.7438 60.6411 56.8017C60.6282 56.8596 60.5929 56.91 60.543 56.942C60.222 57.142 59.9051 57.353 59.6001 57.556C59.5631 57.5795 59.5199 57.5914 59.4761 57.59V57.594ZM61.3811 56.379C61.3427 56.3792 61.305 56.3694 61.2715 56.3507C61.238 56.3319 61.2101 56.3048 61.1902 56.272C61.1747 56.247 61.1641 56.2191 61.1594 56.19C61.1548 56.1609 61.156 56.1312 61.1628 56.1026C61.1697 56.0739 61.1823 56.0469 61.1997 56.0232C61.2171 55.9994 61.239 55.9793 61.2642 55.964C61.5832 55.764 61.9101 55.572 62.2351 55.381C62.2604 55.366 62.2885 55.3562 62.3176 55.352C62.3468 55.3479 62.3765 55.3495 62.405 55.3569C62.4335 55.3642 62.4604 55.3771 62.4839 55.3948C62.5074 55.4125 62.527 55.4346 62.542 55.46C62.5569 55.4854 62.5667 55.5135 62.5708 55.5427C62.5749 55.5719 62.5734 55.6016 62.5659 55.6301C62.5585 55.6586 62.5454 55.6854 62.5276 55.7089C62.5098 55.7324 62.4876 55.7521 62.4622 55.767C62.1392 55.957 61.814 56.152 61.498 56.346C61.4624 56.366 61.422 56.3761 61.3811 56.375V56.379ZM63.3271 55.234C63.2866 55.235 63.2464 55.2249 63.2112 55.2048C63.1759 55.1847 63.147 55.1554 63.1272 55.12C63.0995 55.0689 63.0927 55.009 63.1084 54.953C63.1241 54.897 63.161 54.8493 63.2112 54.82C63.5372 54.635 63.8701 54.45 64.2021 54.27C64.2539 54.2426 64.3145 54.2366 64.3706 54.2535C64.4268 54.2703 64.4741 54.3086 64.5022 54.36C64.5297 54.4117 64.5357 54.4721 64.519 54.5282C64.5024 54.5844 64.4643 54.6317 64.4131 54.66C64.0841 54.839 63.7532 55.022 63.4292 55.205C63.3977 55.2214 63.3627 55.2299 63.3271 55.23V55.234ZM65.3101 54.155C65.2689 54.1552 65.2286 54.1441 65.1934 54.1229C65.1581 54.1018 65.1293 54.0714 65.1101 54.035C65.0836 53.9825 65.0787 53.9217 65.0964 53.8656C65.1142 53.8096 65.1532 53.7627 65.2051 53.735C65.5371 53.562 65.8762 53.388 66.2122 53.219C66.2652 53.1926 66.3266 53.1883 66.3828 53.207C66.439 53.2258 66.4856 53.266 66.5122 53.319C66.5254 53.3452 66.5333 53.3739 66.5354 53.4032C66.5375 53.4325 66.5337 53.4619 66.5244 53.4898C66.5151 53.5177 66.5005 53.5434 66.4812 53.5656C66.4619 53.5878 66.4384 53.6059 66.4121 53.619C66.0781 53.787 65.7411 53.96 65.4121 54.132C65.3802 54.1466 65.3451 54.1532 65.3101 54.151V54.155ZM67.3271 53.142C67.2852 53.1418 67.2441 53.1297 67.2087 53.1073C67.1734 53.0848 67.1452 53.0528 67.1272 53.015C67.1008 52.9619 67.0962 52.9006 67.115 52.8443C67.1337 52.7881 67.1741 52.7416 67.2271 52.715C67.5651 52.553 67.909 52.39 68.251 52.232C68.2779 52.2193 68.3072 52.212 68.3369 52.2106C68.3666 52.2093 68.3961 52.2139 68.4241 52.2241C68.452 52.2343 68.4777 52.25 68.4995 52.2703C68.5213 52.2905 68.5388 52.3149 68.551 52.342C68.5638 52.3688 68.5711 52.3979 68.5725 52.4276C68.5739 52.4573 68.5695 52.4869 68.5593 52.5148C68.5492 52.5427 68.5336 52.5684 68.5134 52.5902C68.4933 52.612 68.4691 52.6296 68.4421 52.642C68.1021 52.799 67.76 52.96 67.425 53.122C67.394 53.1345 67.3606 53.1399 67.3271 53.138V53.142ZM69.376 52.197C69.3323 52.1972 69.2898 52.1846 69.2532 52.1608C69.2166 52.137 69.1877 52.103 69.1702 52.063C69.1466 52.0086 69.1455 51.9471 69.167 51.8918C69.1885 51.8366 69.231 51.7921 69.2852 51.768C69.6282 51.616 69.978 51.468 70.324 51.319C70.3789 51.2963 70.4406 51.2962 70.4956 51.3187C70.5506 51.3411 70.5948 51.3844 70.6182 51.439C70.6411 51.4938 70.6412 51.5554 70.6187 51.6103C70.5962 51.6653 70.5528 51.709 70.498 51.732C70.154 51.877 69.8071 52.027 69.4661 52.178C69.4374 52.1891 69.4067 52.1942 69.376 52.193V52.197ZM71.4551 51.321C71.4103 51.3211 71.3665 51.3077 71.3293 51.2826C71.2922 51.2574 71.2636 51.2217 71.2471 51.18C71.225 51.125 71.2258 51.0634 71.249 51.0089C71.2723 50.9543 71.3161 50.9112 71.3711 50.889C71.7191 50.749 72.071 50.61 72.426 50.476C72.4535 50.4655 72.4828 50.4606 72.5122 50.4615C72.5416 50.4624 72.5706 50.469 72.5974 50.4811C72.6243 50.4932 72.6485 50.5104 72.6687 50.5319C72.6889 50.5533 72.7047 50.5785 72.7151 50.606C72.7255 50.6335 72.7304 50.6628 72.7295 50.6922C72.7286 50.7216 72.722 50.7506 72.71 50.7774C72.6979 50.8043 72.6806 50.8285 72.6592 50.8486C72.6378 50.8688 72.6127 50.8846 72.5852 50.895C72.2362 51.028 71.8851 51.166 71.5381 51.305C71.5115 51.3143 71.4833 51.3184 71.4551 51.317V51.321ZM73.563 50.521C73.5168 50.5212 73.4719 50.5071 73.4341 50.4806C73.3963 50.4541 73.3676 50.4165 73.3521 50.373C73.3321 50.3172 73.3353 50.2557 73.3606 50.2021C73.3859 50.1485 73.4313 50.1071 73.4871 50.087C73.8401 49.959 74.2002 49.833 74.5552 49.712C74.583 49.7024 74.6125 49.6985 74.6418 49.7003C74.6712 49.7022 74.6999 49.7098 74.7263 49.7229C74.7527 49.7359 74.7763 49.754 74.7957 49.7761C74.815 49.7983 74.8298 49.8241 74.8391 49.852C74.8487 49.8798 74.8526 49.9092 74.8508 49.9385C74.849 49.9678 74.8415 49.9965 74.8286 50.0229C74.8157 50.0493 74.7977 50.0729 74.7756 50.0923C74.7536 50.1117 74.728 50.1265 74.7002 50.136C74.3472 50.256 73.9902 50.381 73.6392 50.508C73.6149 50.5137 73.59 50.5154 73.5652 50.513L73.563 50.521ZM75.698 49.794C75.6506 49.7938 75.6047 49.7785 75.5664 49.7505C75.5282 49.7225 75.4996 49.6831 75.4851 49.638C75.4761 49.61 75.4727 49.5806 75.4751 49.5513C75.4775 49.522 75.4858 49.4935 75.4993 49.4674C75.5127 49.4412 75.5312 49.418 75.5537 49.3991C75.5762 49.3802 75.6021 49.3659 75.6301 49.357C75.9891 49.242 76.3532 49.129 76.7112 49.021C76.7394 49.0125 76.769 49.0098 76.7983 49.0128C76.8277 49.0158 76.8559 49.0246 76.8818 49.0386C76.9078 49.0526 76.9307 49.0716 76.9492 49.0945C76.9678 49.1174 76.9816 49.1437 76.99 49.172C76.9986 49.2001 77.0017 49.2296 76.9988 49.2589C76.9959 49.2881 76.9871 49.3165 76.9731 49.3423C76.9592 49.3682 76.9403 49.391 76.9175 49.4095C76.8946 49.428 76.8683 49.4418 76.8401 49.45C76.4841 49.557 76.1231 49.669 75.7671 49.783C75.7444 49.7879 75.721 49.7889 75.698 49.786V49.794ZM77.8591 49.147C77.8102 49.1469 77.7626 49.1308 77.7236 49.1012C77.6847 49.0716 77.6563 49.0301 77.6431 48.983C77.6352 48.9546 77.6329 48.925 77.6365 48.8958C77.64 48.8665 77.6493 48.8383 77.6638 48.8127C77.6783 48.787 77.6977 48.7645 77.7209 48.7464C77.7442 48.7282 77.7707 48.7149 77.7991 48.707C78.1621 48.607 78.5301 48.507 78.8931 48.413C78.9215 48.4056 78.9511 48.404 78.9802 48.4081C79.0093 48.4122 79.0372 48.422 79.0625 48.437C79.0878 48.4519 79.1098 48.4718 79.1274 48.4953C79.145 48.5188 79.1578 48.5455 79.165 48.574C79.1724 48.6025 79.174 48.6322 79.1699 48.6613C79.1658 48.6905 79.1561 48.7185 79.1411 48.7439C79.1262 48.7692 79.1065 48.7914 79.083 48.8091C79.0595 48.8268 79.0327 48.8397 79.0042 48.847C78.6452 48.94 78.2802 49.038 77.9192 49.138C77.8993 49.1412 77.8791 49.1416 77.8591 49.139V49.147ZM80.043 48.583C79.9926 48.5828 79.9438 48.5658 79.9043 48.5346C79.8648 48.5035 79.8371 48.4599 79.8252 48.411C79.8117 48.3531 79.8215 48.2921 79.8528 48.2415C79.8841 48.1909 79.9343 48.1548 79.9922 48.141C80.3582 48.054 80.73 47.97 81.092 47.891C81.1501 47.8785 81.2109 47.8897 81.2607 47.9219C81.3106 47.9542 81.3457 48.0049 81.3582 48.063C81.3706 48.1211 81.3594 48.1817 81.3271 48.2316C81.2949 48.2815 81.2441 48.3165 81.186 48.329C80.823 48.408 80.4552 48.491 80.0862 48.577C80.0718 48.5777 80.0572 48.577 80.043 48.575V48.583ZM101.272 48.283C101.255 48.283 101.238 48.281 101.221 48.277C100.859 48.193 100.491 48.113 100.121 48.039C100.063 48.027 100.012 47.9923 99.9788 47.9426C99.946 47.893 99.9342 47.8323 99.946 47.774C99.9519 47.7452 99.9633 47.7178 99.9797 47.6935C99.9962 47.6691 100.017 47.6483 100.042 47.6321C100.067 47.616 100.094 47.6048 100.123 47.5993C100.152 47.5938 100.181 47.594 100.21 47.6C100.579 47.675 100.952 47.756 101.317 47.84C101.346 47.8466 101.373 47.8588 101.397 47.8759C101.421 47.893 101.441 47.9147 101.457 47.9397C101.472 47.9646 101.483 47.9925 101.488 48.0215C101.493 48.0506 101.492 48.0803 101.485 48.109C101.472 48.1561 101.445 48.1977 101.406 48.2277C101.368 48.2577 101.321 48.2743 101.272 48.275V48.283ZM82.248 48.108C82.1961 48.108 82.1458 48.09 82.1057 48.057C82.0656 48.024 82.0381 47.978 82.0281 47.927C82.0169 47.8687 82.0293 47.8083 82.0625 47.759C82.0957 47.7098 82.1468 47.6756 82.2051 47.664C82.5761 47.593 82.9511 47.524 83.3191 47.464C83.3481 47.459 83.3778 47.4597 83.4065 47.4662C83.4352 47.4727 83.4625 47.4848 83.4866 47.5018C83.5106 47.5188 83.5312 47.5404 83.5469 47.5653C83.5626 47.5902 83.5732 47.618 83.5781 47.647C83.5831 47.676 83.5824 47.7058 83.5759 47.7345C83.5694 47.7632 83.5573 47.7904 83.5403 47.8145C83.5233 47.8385 83.5017 47.859 83.4768 47.8747C83.4519 47.8904 83.4241 47.901 83.395 47.906C83.03 47.968 82.6582 48.036 82.2952 48.106C82.2793 48.1058 82.2634 48.1037 82.248 48.1V48.108ZM99.063 47.834C99.05 47.8355 99.0371 47.8355 99.0242 47.834C98.6582 47.77 98.286 47.71 97.917 47.655C97.8879 47.6507 97.8601 47.6407 97.835 47.6257C97.8098 47.6106 97.7877 47.5906 97.7703 47.567C97.7528 47.5434 97.7402 47.5166 97.7332 47.4881C97.7261 47.4596 97.7246 47.43 97.729 47.401C97.7377 47.3423 97.7693 47.2894 97.8169 47.2539C97.8645 47.2185 97.9244 47.2034 97.9832 47.212C98.3552 47.267 98.7311 47.328 99.1021 47.393C99.1605 47.4033 99.2125 47.4363 99.2466 47.4848C99.2807 47.5334 99.2943 47.5935 99.2842 47.652C99.2727 47.7015 99.2446 47.7456 99.2048 47.7772C99.1651 47.8088 99.116 47.826 99.0652 47.826L99.063 47.834ZM84.47 47.727C84.4164 47.7269 84.3648 47.7075 84.3242 47.6725C84.2837 47.6374 84.2569 47.589 84.249 47.536C84.2404 47.4773 84.2556 47.4175 84.291 47.3699C84.3265 47.3223 84.3793 47.2906 84.438 47.282C84.811 47.226 85.1881 47.174 85.5601 47.127C85.5892 47.1232 85.6188 47.1252 85.6472 47.133C85.6756 47.1407 85.7021 47.1539 85.7253 47.172C85.7486 47.19 85.7682 47.2125 85.7827 47.238C85.7972 47.2636 85.8065 47.2918 85.8101 47.321C85.8138 47.3502 85.8119 47.3798 85.8042 47.4082C85.7965 47.4366 85.7832 47.4631 85.7651 47.4864C85.7471 47.5096 85.7246 47.5291 85.699 47.5436C85.6734 47.5581 85.6452 47.5674 85.616 47.571C85.248 47.618 84.8742 47.671 84.5042 47.725L84.47 47.727ZM96.833 47.504H96.8062C96.4372 47.46 96.0622 47.419 95.6912 47.384C95.6324 47.3779 95.5782 47.3489 95.5408 47.3032C95.5033 47.2575 95.4854 47.1988 95.491 47.14C95.497 47.0812 95.5263 47.0272 95.572 46.9898C95.6177 46.9523 95.6763 46.9344 95.7351 46.94C96.1101 46.976 96.4891 47.016 96.8621 47.061C96.8917 47.064 96.9206 47.0729 96.9468 47.0871C96.973 47.1013 96.996 47.1207 97.0146 47.144C97.0333 47.1672 97.047 47.194 97.0552 47.2227C97.0633 47.2514 97.0656 47.2814 97.062 47.311C97.0535 47.365 97.0256 47.4141 96.9834 47.4489C96.9412 47.4837 96.8877 47.5019 96.833 47.5V47.504ZM86.708 47.444C86.6527 47.4441 86.5995 47.4237 86.5583 47.3868C86.5172 47.3498 86.491 47.299 86.4851 47.244C86.4821 47.2147 86.4848 47.1851 86.4932 47.1569C86.5016 47.1287 86.5156 47.1024 86.5342 47.0795C86.5528 47.0567 86.5757 47.0377 86.6016 47.0237C86.6275 47.0097 86.6558 47.001 86.6851 46.998C87.0601 46.959 87.439 46.925 87.813 46.898C87.8721 46.8933 87.9309 46.9122 87.9761 46.9507C88.0213 46.9891 88.0494 47.0439 88.0542 47.103C88.0589 47.1621 88.0399 47.2207 88.0015 47.2659C87.963 47.3111 87.9082 47.3391 87.8491 47.344C87.4781 47.374 87.1022 47.409 86.7312 47.444H86.708ZM94.5891 47.292H94.573C94.203 47.266 93.8261 47.246 93.4541 47.23C93.3946 47.2274 93.3384 47.2013 93.2981 47.1574C93.2578 47.1136 93.2366 47.0555 93.239 46.996C93.2402 46.9665 93.2473 46.9376 93.2598 46.9108C93.2722 46.8841 93.2898 46.8601 93.3115 46.8402C93.3333 46.8203 93.3587 46.8049 93.3865 46.7949C93.4142 46.7849 93.4437 46.7805 93.4731 46.782C93.8491 46.798 94.23 46.819 94.604 46.845C94.6333 46.8469 94.6621 46.8546 94.6885 46.8676C94.7148 46.8806 94.7382 46.8987 94.7576 46.9208C94.7769 46.9429 94.7917 46.9686 94.801 46.9964C94.8104 47.0243 94.814 47.0537 94.812 47.083C94.8063 47.1382 94.7805 47.1892 94.7393 47.2264C94.6981 47.2635 94.6446 47.284 94.5891 47.284V47.292ZM88.9551 47.264C88.898 47.2641 88.843 47.2422 88.8015 47.203C88.76 47.1637 88.7353 47.11 88.7322 47.053C88.7304 47.0236 88.7345 46.9941 88.7441 46.9662C88.7538 46.9384 88.7687 46.9127 88.7883 46.8907C88.8079 46.8687 88.8319 46.8507 88.8584 46.8379C88.8849 46.8251 88.9137 46.8177 88.9431 46.816C89.3191 46.795 89.7002 46.778 90.0752 46.766C90.1046 46.7651 90.1338 46.7699 90.1614 46.7803C90.1889 46.7908 90.2141 46.8065 90.2356 46.8266C90.257 46.8468 90.2743 46.871 90.2864 46.8978C90.2985 46.9246 90.3052 46.9536 90.3062 46.983C90.3071 47.0124 90.3022 47.0417 90.2917 47.0693C90.2813 47.0968 90.2655 47.122 90.2454 47.1435C90.2252 47.1649 90.2011 47.1822 90.1743 47.1943C90.1475 47.2064 90.1185 47.2131 90.0891 47.214C89.7181 47.226 89.341 47.243 88.968 47.264H88.9551ZM92.3362 47.197C91.9652 47.191 91.5881 47.19 91.2151 47.192C91.156 47.192 91.0993 47.1687 91.0574 47.1271C91.0154 47.0855 90.9915 47.0291 90.991 46.97C90.9907 46.9406 90.9963 46.9114 91.0073 46.8841C91.0183 46.8568 91.0346 46.832 91.0552 46.811C91.0758 46.79 91.1004 46.7733 91.1274 46.7618C91.1545 46.7503 91.1837 46.7443 91.2131 46.744C91.5901 46.744 91.9712 46.744 92.3462 46.75C92.3756 46.7504 92.4044 46.7566 92.4314 46.7682C92.4584 46.7799 92.4827 46.7967 92.5032 46.8178C92.5236 46.8389 92.5398 46.8638 92.5505 46.8911C92.5613 46.9185 92.5667 46.9476 92.5662 46.977C92.5628 47.0353 92.5368 47.0899 92.4939 47.1295C92.451 47.1691 92.3945 47.1904 92.3362 47.189V47.197Z" fill="#699FF0"/>
</g>
<path id="Path 2389" d="M167.62 33.4C167.62 33.4 169.113 31.51 168.335 30.416C168.163 30.175 167.184 31.27 167.184 31.27C167.293 31.9869 167.439 32.6979 167.62 33.4Z" fill="#9C5F33"/>
<path id="Rectangle 853" d="M1.06802 104.363H240.602C240.644 104.363 240.685 104.371 240.724 104.387C240.762 104.403 240.797 104.427 240.827 104.456C240.856 104.486 240.88 104.521 240.896 104.559C240.912 104.598 240.92 104.639 240.92 104.681C240.92 104.723 240.912 104.764 240.896 104.803C240.88 104.841 240.856 104.876 240.827 104.906C240.797 104.935 240.762 104.959 240.724 104.975C240.685 104.991 240.644 104.999 240.602 104.999H1.06802C0.983765 104.999 0.902927 104.966 0.843161 104.906C0.783394 104.847 0.749552 104.766 0.749023 104.682C0.749023 104.597 0.782632 104.516 0.842456 104.456C0.90228 104.397 0.983419 104.363 1.06802 104.363Z" fill="#2E3552"/>
</g>
</svg>
