<svg width="57" height="16" viewBox="0 0 57 16" fill="none" xmlns="http://www.w3.org/2000/svg">
<path id="Path 2" d="M0 12.3032V1.01606H8.30411V2.91435H2.31502V5.71904H7.02915V7.52981H2.31502V10.4029H8.53901V12.3012L0 12.3032ZM10.3804 12.3032V3.75235H12.4439L12.5781 6.3176L12.2928 6.04397C12.4021 5.53981 12.6198 5.0667 12.9303 4.65874C13.2091 4.30259 13.5731 4.02544 13.9872 3.85393C14.4287 3.66842 14.9021 3.57536 15.3795 3.5803C15.9132 3.56918 16.4419 3.68635 16.9229 3.92233C17.3788 4.14731 17.7543 4.51211 17.9967 4.96556C18.2826 5.49324 18.4217 6.09044 18.3992 6.69282V12.3022H16.1008V7.35982C16.1615 6.82014 16.011 6.27784 15.6816 5.85084C15.5378 5.70788 15.367 5.59624 15.1796 5.52274C14.9921 5.44924 14.7917 5.41539 14.591 5.42327C14.2689 5.42541 13.9524 5.5076 13.6685 5.6627C13.3608 5.82808 13.1094 6.08441 12.9472 6.39807C12.7505 6.82527 12.6581 7.29476 12.6785 7.76623V12.2982L10.3804 12.3032ZM28.5014 1.71722L28.7697 3.39318H28.6187C28.5692 3.38136 28.5184 3.37562 28.4676 3.37608C28.0513 3.34386 27.6384 3.47201 27.3102 3.73522C27.1799 3.85541 27.0775 4.00382 27.0108 4.16953C26.944 4.33524 26.9145 4.51408 26.9243 4.69294L25.9849 4.29958C25.981 3.86265 26.0727 3.43033 26.2533 3.03405C26.4233 2.64579 26.6969 2.31397 27.0428 2.07635C27.4234 1.83025 27.8672 1.70523 28.3178 1.71722H28.5014ZM25.75 10.6957C26.4959 10.6486 27.2354 10.8614 27.847 11.2993C28.0912 11.4992 28.2856 11.7554 28.4139 12.0467C28.5422 12.3381 28.6009 12.6563 28.5852 12.9752C28.603 13.573 28.4061 14.1568 28.0316 14.617C27.6175 15.103 27.0763 15.4588 26.4713 15.6431C25.7287 15.8841 24.9524 15.9996 24.1732 15.9851C23.082 16.0605 21.99 15.8485 21.0024 15.3695C20.7096 15.2184 20.463 14.9886 20.289 14.7049C20.1151 14.4212 20.0205 14.0944 20.0156 13.7599C20.0123 13.5364 20.0573 13.3149 20.1471 13.111C20.237 12.9071 20.3697 12.7258 20.5357 12.5799C21.0492 12.2094 21.6686 12.023 22.2971 12.0497L22.2133 12.3234C21.7216 12.2605 21.2567 12.0592 20.8711 11.7419C20.717 11.5827 20.5971 11.3925 20.5191 11.1834C20.4411 10.9744 20.4068 10.751 20.4182 10.5277C20.4121 10.2821 20.462 10.0386 20.5639 9.816C20.6658 9.59345 20.8168 9.398 21.0053 9.24503C21.473 8.87624 22.0419 8.66524 22.6327 8.64143L23.6393 9.1203H23.4044C23.0408 9.11643 22.6843 9.22365 22.381 9.42813C22.2953 9.49081 22.2252 9.57279 22.1757 9.66772C22.1262 9.76264 22.099 9.86792 22.0959 9.97536C22.0908 10.0824 22.1128 10.189 22.1598 10.2849C22.2068 10.3807 22.2772 10.4626 22.3643 10.5226C22.6136 10.6499 22.8911 10.7089 23.1695 10.6937L25.75 10.6957ZM24.1898 14.3725C24.6696 14.3842 25.149 14.3325 25.6158 14.2186C25.9206 14.1528 26.2073 14.0184 26.4547 13.8253C26.5389 13.7651 26.6084 13.686 26.6578 13.5941C26.7073 13.5021 26.7352 13.3999 26.7397 13.2951C26.7418 13.1928 26.7201 13.0914 26.6764 12.9993C26.6326 12.9071 26.5682 12.8268 26.4882 12.765C26.2108 12.6132 25.8959 12.5478 25.5823 12.5768H22.7472C22.5078 12.5666 22.272 12.6374 22.0762 12.7781C21.9936 12.8452 21.9277 12.9314 21.8839 13.0295C21.8402 13.1275 21.8197 13.2348 21.8244 13.3424C21.8244 13.661 22.0315 13.9118 22.4453 14.0949C23.0039 14.3012 23.5961 14.3954 24.1898 14.3725ZM24.2067 3.58132C24.8998 3.56492 25.5893 3.68691 26.2364 3.94045C26.7655 4.12874 27.2271 4.47421 27.5618 4.93234C27.8808 5.3849 28.0459 5.93151 28.0316 6.48864C28.0441 7.04022 27.879 7.5808 27.5618 8.0278C27.2248 8.48682 26.7644 8.83629 26.2364 9.03378C25.5867 9.27586 24.8983 9.39187 24.2067 9.37582C23.1992 9.44255 22.1978 9.17233 21.3546 8.60622C21.039 8.35681 20.7864 8.0344 20.6172 7.66566C20.448 7.29691 20.3673 6.89242 20.3818 6.4856C20.367 5.931 20.5257 5.38599 20.8347 4.92934C21.174 4.47596 21.6341 4.13164 22.16 3.93744C22.8145 3.68332 23.5114 3.56233 24.2115 3.58132H24.2067ZM24.2067 5.05208C23.8051 5.03653 23.4115 5.17023 23.0994 5.42831C22.9536 5.55691 22.8386 5.71774 22.7631 5.89851C22.6875 6.07929 22.6534 6.27525 22.6633 6.47151C22.6546 6.67013 22.6891 6.86826 22.7645 7.05162C22.8399 7.23497 22.9543 7.39899 23.0994 7.53183C23.4115 7.78991 23.8051 7.92361 24.2067 7.90806C24.6018 7.92446 24.9888 7.79035 25.2923 7.53183C25.4374 7.39899 25.5517 7.23497 25.6271 7.05162C25.7026 6.86826 25.7371 6.67013 25.7283 6.47151C25.7383 6.27525 25.7042 6.07929 25.6286 5.89851C25.553 5.71774 25.438 5.55691 25.2923 5.42831C24.9901 5.17098 24.6049 5.03694 24.2115 5.05208H24.2067ZM32.2393 0.00703037V9.66956C32.2103 9.9636 32.28 10.259 32.4368 10.5076C32.5247 10.595 32.6302 10.6617 32.7462 10.7031C32.8621 10.7445 32.9856 10.7594 33.1078 10.747C33.265 10.7497 33.4223 10.7382 33.5776 10.7128C33.7009 10.6786 33.8567 10.6333 34.0471 10.576L33.8498 12.1151C33.6252 12.2413 33.3814 12.3281 33.1285 12.3716C32.8538 12.4388 32.5721 12.4725 32.2896 12.4723C31.9659 12.5003 31.6402 12.4613 31.3317 12.3576C31.0232 12.2539 30.7385 12.0875 30.4947 11.8687C30.0797 11.3111 29.8823 10.6164 29.9411 9.91903V0L32.2393 0.00703037ZM36.4896 2.522C36.1073 2.55232 35.7266 2.44322 35.4158 2.21417C35.2942 2.09247 35.1998 1.94544 35.139 1.78311C35.0782 1.62077 35.0524 1.44696 35.0636 1.27357C35.0501 1.09996 35.0747 0.925476 35.1356 0.76278C35.1966 0.600085 35.2923 0.453265 35.4158 0.332976C35.7219 0.092933 36.1046 -0.0228425 36.4896 0.00804348C36.8746 -0.0227457 37.257 0.0930197 37.5632 0.332976C37.6868 0.453222 37.7827 0.600043 37.8436 0.762749C37.9045 0.925456 37.9292 1.09996 37.9156 1.27357C37.9268 1.44696 37.901 1.62077 37.8402 1.78311C37.7794 1.94544 37.6848 2.09247 37.5632 2.21417C37.2522 2.44279 36.8718 2.55252 36.4896 2.522ZM37.6304 3.75333V12.3042H35.332V3.75333H37.6304ZM43.4209 12.4753C42.6209 12.4852 41.8273 12.3281 41.0891 12.0135C40.4276 11.7297 39.8454 11.2831 39.3947 10.7138L40.72 9.34564C40.996 9.76177 41.3638 10.1063 41.7938 10.3516C42.2815 10.6242 42.8314 10.76 43.3875 10.745C43.7435 10.7606 44.0985 10.6964 44.4275 10.5568C44.5493 10.5049 44.6528 10.4167 44.7246 10.3038C44.7964 10.1909 44.8332 10.0586 44.8301 9.92406C44.8319 9.83833 44.8165 9.75312 44.7848 9.6737C44.7531 9.59429 44.7056 9.52237 44.6456 9.46233C44.4354 9.28379 44.179 9.17096 43.9074 9.1374L42.4271 8.82957C41.6638 8.72186 40.9443 8.4024 40.347 7.90607C40.1449 7.69016 39.9875 7.43515 39.8837 7.15609C39.78 6.87704 39.7321 6.57959 39.743 6.28138C39.7438 5.81108 39.8844 5.35204 40.1458 4.96455C40.4626 4.52408 40.8919 4.18094 41.3871 3.97265C42.0329 3.6906 42.7315 3.55631 43.4337 3.57929C44.1806 3.56145 44.9233 3.70121 45.6148 3.98975C46.2112 4.22628 46.7261 4.63671 47.095 5.16978L45.7193 6.53791C45.4844 6.14936 45.1472 5.83571 44.7463 5.63253C44.3661 5.4189 43.9389 5.3071 43.5048 5.30759C43.233 5.3015 42.9619 5.33539 42.6996 5.4082C42.5092 5.45692 42.3352 5.5574 42.1963 5.69893C42.1402 5.75757 42.0965 5.82723 42.0677 5.90367C42.0388 5.98011 42.0256 6.06172 42.0287 6.14356C42.03 6.23624 42.0516 6.32742 42.0923 6.41032C42.1329 6.49322 42.1916 6.56574 42.2636 6.62243C42.5238 6.78949 42.815 6.9001 43.1191 6.94736L44.8301 7.30649C45.4983 7.39652 46.1208 7.70215 46.6064 8.17869C46.9632 8.57413 47.1556 9.09523 47.1432 9.63235C47.1501 10.1567 46.9979 10.6704 46.7071 11.1031C46.3905 11.554 45.9538 11.9031 45.4488 12.1091C44.8038 12.3685 44.1141 12.4927 43.4209 12.4742V12.4753ZM48.9788 12.3042V0.00703037H51.2769V5.20598C51.5134 4.69384 51.9004 4.26945 52.3842 3.99175C52.8706 3.71391 53.4205 3.57231 53.9779 3.58132C54.5116 3.57042 55.0402 3.68758 55.5213 3.92335C55.9768 4.14888 56.3522 4.51354 56.5951 4.96658C56.881 5.49425 57.0201 6.09145 56.9976 6.69384V12.3032H54.6992V7.37388C54.7599 6.83015 54.6095 6.28384 54.28 5.85182C54.139 5.70984 53.971 5.59868 53.7864 5.52517C53.6018 5.45165 53.4043 5.41733 53.2062 5.42429C52.8786 5.42486 52.5562 5.50706 52.2669 5.66372C51.9557 5.83218 51.7036 6.09514 51.5456 6.41618C51.3484 6.84322 51.256 7.31284 51.2769 7.78434V12.2992L48.9788 12.3042Z" fill="#060606"/>
</svg>
