<svg width="9" height="12" viewBox="0 0 9 12" fill="none" xmlns="http://www.w3.org/2000/svg">
<g id="Group 3351">
<path id="Path 7096" d="M2.09998 0.264905C1.72867 0.264905 1.37266 0.412389 1.11011 0.67494C0.847557 0.937491 0.699951 1.29357 0.699951 1.66487V9.82789C0.699951 10.2 0.847848 10.5568 1.11096 10.82C1.37408 11.0831 1.73093 11.2309 2.10303 11.2309C2.47513 11.2309 2.83198 11.0831 3.09509 10.82C3.35821 10.5568 3.50598 10.2 3.50598 9.82789V1.66487C3.50598 1.48051 3.46954 1.29801 3.3988 1.12776C3.32807 0.957511 3.22451 0.802884 3.09387 0.672803C2.96323 0.542723 2.80812 0.439706 2.63757 0.369703C2.46702 0.2997 2.28433 0.264115 2.09998 0.264905Z" fill="black"/>
<path id="Path 7097" d="M7.19995 0.264905C6.82865 0.264905 6.47263 0.412389 6.21008 0.67494C5.94753 0.937491 5.80005 1.29357 5.80005 1.66487V9.82789C5.80005 10.2 5.94782 10.5568 6.21094 10.82C6.47405 11.0831 6.8309 11.2309 7.203 11.2309C7.5751 11.2309 7.93195 11.0831 8.19507 10.82C8.45818 10.5568 8.60596 10.2 8.60596 9.82789V1.66487C8.60596 1.48051 8.56963 1.29801 8.4989 1.12776C8.42817 0.957511 8.32449 0.802884 8.19385 0.672803C8.06321 0.542723 7.9081 0.439706 7.73755 0.369703C7.567 0.2997 7.38431 0.264115 7.19995 0.264905Z" fill="black"/>
</g>
</svg>
