<svg width="35" height="35" viewBox="0 0 35 35" fill="none" xmlns="http://www.w3.org/2000/svg">
<path d="M22.6619 18.686H19.0898V22.25C19.0898 22.7009 18.9109 23.1333 18.592 23.4521C18.2732 23.7709 17.8408 23.95 17.3899 23.95C16.939 23.95 16.5068 23.7709 16.188 23.4521C15.8692 23.1333 15.6899 22.7009 15.6899 22.25V18.686H12.127C11.6761 18.686 11.2436 18.5069 10.9248 18.1881C10.606 17.8693 10.427 17.4369 10.427 16.986C10.427 16.5352 10.606 16.1027 10.9248 15.7839C11.2436 15.4651 11.6761 15.286 12.127 15.286H15.6899V11.72C15.6899 11.2691 15.8692 10.8368 16.188 10.5179C16.5068 10.1991 16.939 10.02 17.3899 10.02C17.8408 10.02 18.2732 10.1991 18.592 10.5179C18.9109 10.8368 19.0898 11.2691 19.0898 11.72V15.28H22.6528C23.1037 15.2788 23.5368 15.4568 23.8564 15.7747C24.1761 16.0927 24.3562 16.5247 24.3574 16.9755C24.3586 17.4264 24.1808 17.8593 23.8628 18.1789C23.5448 18.4986 23.1127 18.6788 22.6619 18.68V18.686Z" fill="#1E1F4B"/>
</svg>
