<svg width="38" height="30" viewBox="0 0 38 30" fill="none" xmlns="http://www.w3.org/2000/svg">
<rect width="38" height="30" fill="#1E1E1E"/>
<g id="Group 621">
<path id="Path 390" d="M37.505 27.2363C25.053 34.7073 12.6049 19.7653 0.147949 27.2363V2.33627C12.6009 -5.13473 25.048 9.80827 37.505 2.33627V27.2363Z" fill="#006B35"/>
<g id="Group 49">
<path id="Path 391" d="M25.532 21.8273C25.5004 21.8058 25.467 21.7874 25.432 21.7723C25.3206 21.7381 25.2065 21.7137 25.091 21.6993C24.969 21.6723 24.84 21.6473 24.718 21.6183C24.467 21.5623 24.218 21.5043 23.964 21.4423C23.95 21.4423 23.7089 21.3723 23.7059 21.3793C23.7075 21.3653 23.7075 21.3512 23.7059 21.3373C23.7059 21.2853 23.769 21.3153 23.798 21.2523C23.827 21.1893 23.7499 21.0343 23.6649 21.0183C23.6586 21.0188 23.6522 21.0179 23.6462 21.0159C23.6402 21.0138 23.6347 21.0105 23.63 21.0063C23.6235 21.0004 23.6185 20.9931 23.6156 20.9849C23.6126 20.9767 23.6117 20.9679 23.613 20.9593C23.6106 20.9355 23.6029 20.9125 23.5904 20.8921C23.578 20.8717 23.5611 20.8544 23.541 20.8414C23.5209 20.8284 23.4982 20.8201 23.4744 20.8172C23.4507 20.8142 23.4266 20.8166 23.404 20.8243C23.33 20.8603 23.32 20.9453 23.337 21.0363C23.3472 21.0826 23.3598 21.1283 23.375 21.1733C23.375 21.1833 23.42 21.3063 23.409 21.3043C19.641 20.3333 15.8739 18.8573 12.1089 18.1213C12.2555 18.379 12.4569 18.6014 12.6988 18.7728C12.9407 18.9442 13.2172 19.0604 13.509 19.1133C13.509 18.9553 22.033 21.5733 23.366 21.8613C23.3734 21.9849 23.3891 22.1078 23.4129 22.2293C23.4258 22.3029 23.4473 22.3747 23.477 22.4433C23.4923 22.4846 23.5194 22.5206 23.555 22.5467C23.5905 22.5728 23.6329 22.588 23.677 22.5903C23.7003 22.588 23.7224 22.5786 23.7403 22.5634C23.7581 22.5483 23.7709 22.528 23.7769 22.5053C24.2379 22.6143 24.7009 22.7163 25.1629 22.8053C25.1839 22.8053 25.214 22.8553 25.229 22.8743C25.2477 22.9031 25.2703 22.9294 25.296 22.9523C25.3697 23.0067 25.4583 23.0375 25.55 23.0403C25.682 23.0653 25.834 22.9733 25.834 22.4483C25.8377 22.328 25.8122 22.2087 25.7596 22.1005C25.707 21.9923 25.6289 21.8985 25.532 21.8273ZM25.126 22.4963C25.061 22.5503 24.691 22.4493 24.69 22.4493C24.689 22.4493 24.625 22.3083 24.52 22.2853C24.4826 22.28 24.4446 22.2833 24.4087 22.2949C24.3729 22.3065 24.3401 22.3261 24.313 22.3523C24.1221 22.3234 23.9334 22.2819 23.748 22.2283C23.7233 22.1914 23.7094 22.1484 23.7078 22.104C23.7062 22.0597 23.717 22.0158 23.739 21.9773C24.1903 22.0853 24.641 22.1853 25.091 22.2773C25.091 22.2773 25.19 22.4443 25.126 22.4923V22.4963Z" fill="white"/>
<g id="Group 48">
<path id="Path 392" d="M9.85197 11.1873C9.79697 11.1643 9.61396 11.4873 9.53796 11.8473C9.49644 12.0043 9.49405 12.1691 9.53097 12.3273C9.54697 12.3943 9.63897 12.7133 9.83697 12.7473C10.002 12.7763 10.137 12.5863 10.188 12.4543C10.241 12.2963 10.215 12.1093 10.158 12.0863C10.101 12.0633 10.078 12.1603 9.96796 12.1613C9.92905 12.1633 9.89058 12.152 9.85895 12.1293C9.78995 12.0693 9.82696 11.9293 9.84396 11.8363C9.89996 11.5563 9.90697 11.2083 9.85197 11.1873Z" fill="white"/>
<path id="Path 393" d="M11.255 9.89228C11.263 9.82428 11.098 9.70128 10.949 9.65328C10.8205 9.61723 10.6838 9.62318 10.559 9.67028C10.2448 9.7899 9.98782 10.0244 9.83997 10.3263C9.78897 10.4053 9.78098 10.4263 9.79098 10.4393C9.86198 10.5543 10.751 10.0453 11.172 9.94728C11.2 9.94328 11.249 9.92928 11.255 9.89228Z" fill="white"/>
<path id="Path 394" d="M10.224 6.82827C10.154 6.74127 10.024 6.58327 10.053 6.47827C10.0621 6.45178 10.0785 6.42838 10.1002 6.4107C10.1219 6.39303 10.1482 6.38179 10.176 6.37828C10.299 6.36128 10.414 6.51327 10.432 6.53527C10.4871 6.62294 10.5196 6.72291 10.5266 6.82623C10.5336 6.92955 10.5148 7.03298 10.472 7.12727C10.44 7.20727 10.372 7.29927 10.34 7.28727C10.308 7.27527 10.294 7.12828 10.292 7.08728C10.3012 7.02514 10.2953 6.96171 10.275 6.90228C10.2609 6.87571 10.2438 6.85087 10.224 6.82827Z" fill="white"/>
<path id="Path 395" d="M9.64995 7.33428C9.62393 7.53142 9.62393 7.73113 9.64995 7.92827C9.71995 8.29627 9.64995 8.27528 9.72395 8.55228C9.77895 8.75228 9.83595 8.95227 9.99695 9.02527C10.0724 9.05702 10.1572 9.05881 10.2339 9.03028C10.4189 8.95828 10.451 8.69528 10.468 8.56528C10.495 8.35028 10.4379 8.28228 10.4969 8.10228C10.5339 7.98728 10.609 7.86028 10.647 7.87328C10.6857 8.19891 10.707 8.52638 10.7109 8.85428C10.7419 9.10828 10.776 9.22628 10.867 9.29828C10.982 9.39028 11.1219 9.35729 11.2319 9.48629C11.2731 9.5382 11.3013 9.59924 11.3139 9.66428C11.3686 9.99967 11.3851 10.3402 11.363 10.6793C11.373 11.1273 11.4299 11.1663 11.4499 11.1743C11.5309 11.2123 11.6499 11.0803 11.7079 10.9933C11.7529 10.9293 11.831 10.7843 11.82 10.3163C11.8222 10.082 11.8061 9.848 11.772 9.61628C11.739 9.40828 11.6969 9.23127 11.7859 9.16127C11.8106 9.14639 11.838 9.13653 11.8665 9.13224C11.895 9.12795 11.924 9.12933 11.9519 9.13628C12.0759 9.16128 12.1149 9.25328 12.2429 9.32128C12.3722 9.38735 12.5219 9.40097 12.6609 9.35929C12.7831 9.33404 12.8907 9.26232 12.9609 9.15928C13.0074 9.08338 13.0371 8.99843 13.0479 8.91011C13.0588 8.8218 13.0506 8.73217 13.024 8.64728C12.9979 8.4618 12.9516 8.27972 12.886 8.10428C12.8705 8.05921 12.8681 8.01068 12.8789 7.96428C12.8929 7.94628 12.929 7.96928 12.957 7.95128C12.985 7.93328 12.9879 7.91528 12.9799 7.85128C12.9682 7.72582 12.9233 7.60574 12.85 7.50328C12.783 7.42128 12.617 7.25327 12.485 7.28827C12.353 7.32327 12.3499 7.51028 12.3439 7.58828C12.3459 7.82603 12.4093 8.05923 12.528 8.26528C12.628 8.45028 12.7179 8.56528 12.6889 8.69228C12.6889 8.70828 12.67 8.78428 12.606 8.80228C12.526 8.82428 12.427 8.73227 12.348 8.66327C12.2485 8.58716 12.1701 8.48702 12.1199 8.37227C12.0509 8.19427 12.148 8.15428 12.134 7.85428C12.1377 7.68713 12.0848 7.52363 11.9839 7.39028C11.942 7.33067 11.8798 7.28837 11.809 7.27127C11.581 7.25027 11.609 7.54828 11.621 7.70928C11.631 7.80573 11.648 7.90131 11.6719 7.99527C11.6849 8.03827 11.6949 8.07827 11.7109 8.12027C11.7629 8.26327 11.826 8.40728 11.77 8.47028C11.77 8.47528 11.7399 8.50427 11.7109 8.49527C11.6609 8.48127 11.6359 8.37128 11.6109 8.27028C11.5783 8.11439 11.5573 7.95628 11.548 7.79728C11.5371 7.62083 11.5157 7.44519 11.4839 7.27127C11.4389 7.03127 11.367 6.63528 11.212 6.59128C11.129 6.56728 11.0399 6.64828 11.0039 6.72628C10.9379 6.85728 11.015 6.99129 11.076 7.23829C11.134 7.46429 11.085 7.41227 11.149 7.77327C11.229 8.24527 11.329 8.43628 11.218 8.57328C11.207 8.58428 11.157 8.65428 11.1 8.63828C11.022 8.61228 11 8.39128 10.988 8.29628C10.9799 8.11547 10.9852 7.9343 11.0039 7.75428C11.0109 7.51528 11.0039 7.43728 10.9539 7.35428C10.9459 7.34328 10.86 7.20927 10.746 7.20427C10.632 7.19927 10.5749 7.30428 10.4969 7.45028C10.3952 7.61509 10.3304 7.80001 10.307 7.99228C10.283 8.22128 10.3289 8.36329 10.2389 8.41729C10.2153 8.4306 10.1886 8.4376 10.1615 8.4376C10.1343 8.4376 10.1076 8.4306 10.084 8.41729C9.97795 8.36529 9.94895 8.19328 9.91295 7.94428C9.90896 7.79267 9.88302 7.64245 9.83595 7.49828C9.83595 7.49828 9.79895 7.34027 9.72395 7.30327C9.70895 7.29521 9.69146 7.29307 9.67495 7.29728C9.66723 7.29973 9.66056 7.30472 9.65602 7.31144C9.65148 7.31815 9.64934 7.3262 9.64995 7.33428Z" fill="white"/>
<path id="Path 396" d="M11.785 6.74228C11.727 6.81028 11.764 6.92227 11.78 6.96527C11.8112 7.05782 11.8711 7.13803 11.951 7.19427C12.0407 7.25478 12.1503 7.27841 12.257 7.26027C12.2982 7.2601 12.3389 7.25109 12.3763 7.23384C12.4138 7.21659 12.4471 7.1915 12.474 7.16028C12.508 7.10665 12.5241 7.04362 12.52 6.98027C12.52 6.93727 12.52 6.82628 12.469 6.79428C12.4476 6.78705 12.4244 6.78726 12.4031 6.79489C12.3819 6.80251 12.3639 6.81709 12.352 6.83627C12.325 6.87427 12.336 6.91427 12.31 6.92027C12.284 6.92627 12.258 6.89727 12.24 6.87527C12.199 6.82027 12.225 6.77528 12.194 6.74228C12.1767 6.72929 12.1556 6.72227 12.134 6.72227C12.1123 6.72227 12.0913 6.72929 12.074 6.74228C12.033 6.78328 12.065 6.86428 12.041 6.86728C12.017 6.87028 12 6.83327 11.982 6.80627C11.94 6.74527 11.948 6.72128 11.924 6.70628C11.9001 6.69616 11.8735 6.69419 11.8484 6.7007C11.8232 6.7072 11.801 6.72182 11.785 6.74228Z" fill="white"/>
<path id="Path 397" d="M15.394 10.2133C15.373 10.1573 15.271 10.1193 15.2 10.1133C15.178 10.1106 15.1556 10.1129 15.1346 10.1198C15.1135 10.1267 15.0942 10.1381 15.078 10.1533C15.043 10.1983 15.067 10.2453 15.025 10.3053C15.012 10.3233 14.986 10.3623 14.957 10.3503C14.928 10.3383 14.926 10.2633 14.874 10.1933C14.8447 10.1518 14.8049 10.1187 14.7587 10.0975C14.7126 10.0762 14.6616 10.0675 14.611 10.0723C14.568 10.0833 14.574 10.1123 14.451 10.2603C14.395 10.3273 14.38 10.3423 14.351 10.3513C14.3157 10.3604 14.2787 10.3601 14.2436 10.3505C14.2085 10.3408 14.1766 10.3221 14.151 10.2963C14.092 10.2263 14.16 10.1653 14.101 10.0463C14.0818 10.0047 14.0541 9.96762 14.0196 9.93747C13.9852 9.90731 13.9447 9.88476 13.901 9.87127C13.829 9.85527 13.81 9.90327 13.775 9.88527C13.689 9.84727 13.715 9.56328 13.665 9.15228C13.6462 8.9213 13.6104 8.69201 13.558 8.46628C13.52 8.33228 13.473 8.19827 13.529 8.15127C13.585 8.10427 13.742 8.22128 13.799 8.16928C13.856 8.11728 13.749 7.97728 13.641 7.66028C13.6015 7.45414 13.5205 7.25818 13.403 7.08427C13.368 7.04166 13.3215 7.01005 13.269 6.99327C13.246 6.98693 13.2218 6.98581 13.1983 6.98996C13.1748 6.99411 13.1525 7.00343 13.133 7.01727C13.1019 7.02103 13.0721 7.03205 13.0461 7.04942C13.02 7.06679 12.9984 7.09003 12.983 7.11728C12.9613 7.19509 12.9695 7.27819 13.006 7.35028C13.0586 7.54998 13.0921 7.75424 13.106 7.96028C13.146 8.17328 13.115 8.08328 13.227 8.77928C13.258 8.97128 13.276 9.11328 13.315 9.39727C13.379 9.87127 13.392 10.0463 13.301 10.0843C13.2699 10.0899 13.238 10.0894 13.2071 10.0827C13.1762 10.076 13.1469 10.0633 13.121 10.0453C12.961 9.95227 12.974 9.78928 12.838 9.69328C12.7766 9.66093 12.7087 9.64302 12.6394 9.64094C12.57 9.63886 12.5012 9.65265 12.438 9.68127C12.3633 9.70457 12.2943 9.74333 12.2356 9.79501C12.1768 9.84669 12.1296 9.91016 12.097 9.98127C12.0483 10.0798 12.0263 10.1893 12.0332 10.299C12.04 10.4086 12.0755 10.5146 12.136 10.6063C12.1905 10.6791 12.2609 10.7385 12.3418 10.7801C12.4227 10.8217 12.512 10.8443 12.603 10.8463C12.74 10.8373 12.842 10.7363 12.885 10.7783C12.903 10.7953 12.896 10.8213 12.895 10.8333C12.8844 10.9663 12.8408 11.0945 12.768 11.2063C12.6549 11.3393 12.5065 11.4378 12.34 11.4903C12.07 11.5993 11.904 11.6633 11.708 11.5903C11.6096 11.5492 11.5207 11.4882 11.4471 11.4111C11.3734 11.334 11.3165 11.2425 11.28 11.1423C11.21 10.9293 11.301 10.7853 11.173 10.5233C11.124 10.4233 11.094 10.4133 11.08 10.4123C10.992 10.4013 10.929 10.6873 10.91 10.8303C10.8612 11.052 10.8797 11.2831 10.963 11.4943C11.0436 11.6867 11.1708 11.8561 11.333 11.9873C11.5177 12.1323 11.7409 12.2199 11.975 12.2393C12.2028 12.2588 12.4306 12.2014 12.622 12.0763C12.741 12.0165 12.8467 11.9333 12.9326 11.8315C13.0186 11.7298 13.083 11.6116 13.122 11.4843C13.192 11.2133 13.115 10.9503 13.286 10.8543C13.303 10.8443 13.357 10.8113 13.399 10.8403C13.476 10.8963 13.414 11.1503 13.388 11.2613C13.3435 11.507 13.244 11.7394 13.097 11.9413C12.9591 12.14 12.7667 12.2945 12.543 12.3863C12.3085 12.474 12.0552 12.4991 11.808 12.4593C11.5052 12.4331 11.2235 12.293 11.02 12.0673C10.9492 11.9633 10.8986 11.847 10.871 11.7243C10.8591 11.5319 10.8169 11.3425 10.746 11.1633C10.697 11.0713 10.67 11.0633 10.662 11.0633C10.562 11.0573 10.521 11.4883 10.516 11.5263C10.4797 11.7451 10.4948 11.9693 10.56 12.1813C10.6263 12.4089 10.7585 12.6117 10.94 12.7643C11.161 12.9179 11.422 13.0037 11.691 13.0113C12 13.0583 12.3154 13.0419 12.618 12.9633C12.8282 12.9079 13.026 12.8133 13.201 12.6843C13.4119 12.5459 13.575 12.3458 13.668 12.1113C13.7226 11.9503 13.7499 11.7813 13.749 11.6113C13.759 11.2733 13.688 10.8113 13.758 10.7943C13.7725 10.791 13.7875 10.791 13.802 10.7943C13.834 10.8043 13.85 10.8313 13.871 10.8543C13.9069 10.8864 13.9496 10.91 13.996 10.9233C14.0594 10.9494 14.1274 10.9626 14.196 10.9623C14.2507 10.9592 14.3046 10.9481 14.356 10.9293C14.468 10.8943 14.473 10.8653 14.537 10.8623C14.6052 10.8681 14.6714 10.8886 14.731 10.9223C14.8303 10.9737 14.9345 11.0152 15.042 11.0463C15.0965 11.0504 15.1512 11.0396 15.2 11.0149C15.2488 10.9902 15.29 10.9527 15.319 10.9063C15.433 10.7193 15.281 10.4563 15.383 10.2903C15.3903 10.279 15.395 10.2663 15.3969 10.253C15.3988 10.2397 15.3978 10.2261 15.394 10.2133ZM12.675 10.3833C12.636 10.4243 12.523 10.4003 12.464 10.3273C12.424 10.2783 12.392 10.1933 12.435 10.1433C12.478 10.0933 12.563 10.1043 12.617 10.1433C12.6569 10.1784 12.6828 10.2266 12.69 10.2793C12.694 10.3063 12.7 10.3603 12.675 10.3833Z" fill="white"/>
<path id="Path 398" d="M14.3869 11.4783C14.4869 11.6413 14.5309 11.6393 14.5629 11.7123C14.6239 11.8673 14.4859 11.9783 14.5479 12.0543C14.563 12.0694 14.5815 12.0805 14.602 12.0866C14.6224 12.0927 14.644 12.0937 14.6649 12.0893C14.7809 12.0653 14.7799 11.8533 14.7769 11.7813C14.7792 11.6386 14.7369 11.4988 14.6559 11.3813C14.6139 11.3233 14.5379 11.2113 14.4449 11.2063C14.4153 11.2039 14.3859 11.213 14.3626 11.2315C14.3394 11.2501 14.3242 11.2768 14.3199 11.3063C14.3179 11.3333 14.3169 11.3673 14.3869 11.4783Z" fill="white"/>
<path id="Path 399" d="M19.9429 14.4253C19.9519 14.3483 19.959 14.2473 19.908 14.1963C19.857 14.1453 19.7809 14.1683 19.7079 14.1813C19.6349 14.1943 19.461 14.2333 19.479 14.3423C19.489 14.3761 19.5064 14.4072 19.5299 14.4335C19.5534 14.4598 19.5825 14.4805 19.615 14.4943C19.668 14.5153 19.693 14.4943 19.715 14.5203C19.737 14.5463 19.7009 14.6203 19.7339 14.7203C19.7554 14.7817 19.7943 14.8356 19.8459 14.8753C19.9229 14.9293 19.9929 14.9113 20.0939 14.9003C20.4079 14.8673 20.5519 14.9613 20.5939 14.8713C20.6026 14.8358 20.6018 14.7986 20.5916 14.7635C20.5815 14.7284 20.5623 14.6966 20.536 14.6713C20.461 14.5953 20.329 14.5973 20.136 14.6113C20.023 14.6173 19.958 14.6303 19.931 14.5943C19.904 14.5583 19.9339 14.5273 19.9429 14.4253Z" fill="white"/>
<path id="Path 400" d="M15.017 9.14227C15.024 9.09827 15.04 9.08427 15.032 9.04227C15.0301 9.00466 15.0145 8.96905 14.988 8.94227C14.939 8.90927 14.85 8.96026 14.806 9.02326C14.7722 9.07472 14.7536 9.1347 14.7523 9.19627C14.7511 9.25783 14.7673 9.31849 14.799 9.37127C14.842 9.45354 14.9089 9.52083 14.991 9.56426C15.0328 9.58616 15.0793 9.59762 15.1265 9.59762C15.1737 9.59762 15.2202 9.58616 15.262 9.56426C15.32 9.52826 15.362 9.45627 15.342 9.42127C15.322 9.38627 15.297 9.40826 15.207 9.38526C15.117 9.36226 15.068 9.35026 15.039 9.31226C15.0112 9.26015 15.0034 9.19972 15.017 9.14227Z" fill="white"/>
<path id="Path 401" d="M17.9579 10.8313C17.9239 10.7993 17.8629 10.7563 17.8269 10.7673C17.7689 10.7863 17.8099 10.9493 17.8129 10.9583C17.8491 11.0886 17.9298 11.2022 18.0409 11.2793C18.0817 11.3114 18.1287 11.3349 18.1789 11.3481C18.2292 11.3614 18.2816 11.3641 18.3329 11.3563C18.3622 11.3468 18.3891 11.331 18.4117 11.3102C18.4343 11.2893 18.4522 11.2637 18.4639 11.2353C18.5109 11.1423 18.5289 10.9813 18.4589 10.9223C18.4336 10.9042 18.4027 10.8956 18.3716 10.898C18.3405 10.9003 18.3113 10.9135 18.2889 10.9353C18.2629 10.9673 18.2609 11.0133 18.2489 11.0103C18.2369 11.0073 18.2409 10.9173 18.1869 10.8653C18.1771 10.8548 18.1649 10.8468 18.1513 10.8419C18.1377 10.837 18.1232 10.8354 18.1089 10.8373C18.0599 10.8503 18.0729 10.9373 18.0449 10.9373C18.0169 10.9373 18.0129 10.8823 17.9579 10.8313Z" fill="white"/>
<path id="Path 402" d="M15.456 7.75627C15.4529 7.69505 15.4363 7.63528 15.4072 7.5813C15.3782 7.52733 15.3374 7.48051 15.288 7.44428C15.2348 7.39503 15.1656 7.36669 15.0932 7.36449C15.0208 7.36228 14.95 7.38637 14.894 7.43228C14.8542 7.48194 14.8306 7.54265 14.8265 7.60616C14.8224 7.66967 14.8379 7.7329 14.871 7.78728C14.921 7.87128 15.008 7.93327 15.036 8.03427C15.0442 8.06031 15.0442 8.08824 15.036 8.11427C15.0257 8.13463 15.0088 8.15087 14.988 8.16028C14.8324 8.28302 14.6608 8.38396 14.478 8.46028C14.25 8.53728 14.229 8.58328 14.036 8.64328C13.99 8.65828 13.904 8.72527 13.93 8.78227C13.974 8.88227 14.29 8.95128 14.5 8.91828C14.759 8.87728 14.7 8.72328 15.08 8.51828C15.235 8.43428 15.429 8.36628 15.401 8.24228C15.3742 8.18506 15.3567 8.12398 15.349 8.06128C15.3507 8.02073 15.3595 7.9808 15.375 7.94328C15.419 7.81128 15.45 7.81027 15.456 7.75627ZM15.224 7.90828C15.186 7.92528 15.109 7.87428 15.073 7.81928C15.037 7.76428 15.02 7.68127 15.061 7.65727C15.102 7.63327 15.171 7.67628 15.207 7.72328C15.259 7.78628 15.267 7.88628 15.224 7.90828Z" fill="white"/>
<path id="Path 403" d="M15.6719 8.00727C15.5779 8.00027 15.5719 8.41727 15.5989 8.71627C15.6369 9.11627 15.6729 9.59626 15.9789 9.80326C16.0368 9.853 16.1063 9.88717 16.1811 9.90257C16.2558 9.91796 16.3332 9.91409 16.4059 9.89128C16.5369 9.81428 16.4609 9.61727 16.6009 9.31427C16.6549 9.19527 16.7409 9.06427 16.7809 9.08427C16.8369 9.11627 16.6919 9.41328 16.8239 9.80728C16.9039 10.0585 17.0695 10.2737 17.292 10.4153C17.3906 10.4477 17.495 10.4591 17.5983 10.4488C17.7016 10.4385 17.8017 10.4066 17.8919 10.3553C18.0169 10.2893 18.1019 10.1943 18.2189 10.2483C18.2698 10.2782 18.3132 10.3192 18.3459 10.3683C18.3829 10.4133 18.6739 10.7783 18.9139 10.8113C18.9753 10.8139 19.0364 10.8013 19.0917 10.7746C19.147 10.7479 19.1948 10.708 19.2309 10.6583C19.3029 10.5583 19.3019 10.4433 19.3709 10.4533C19.4189 10.4533 19.4819 10.5263 19.5079 10.5813C19.5409 10.6533 19.5079 10.6913 19.5469 10.7333C19.5656 10.7504 19.5879 10.763 19.6121 10.7703C19.6364 10.7776 19.6619 10.7793 19.6869 10.7753C19.8459 10.7653 19.9059 10.6043 19.9349 10.5333C19.9639 10.4623 19.9979 10.3693 19.9549 10.3203C19.9119 10.2713 19.8669 10.3013 19.7359 10.2943C19.6634 10.2959 19.5912 10.2858 19.5219 10.2643C19.4449 10.2243 19.3999 10.1393 19.3279 9.99127C19.1449 9.60027 19.0399 9.37727 19.1179 9.26327C19.1269 9.25127 19.1829 9.17327 19.2539 9.19627C19.2919 9.20727 19.3039 9.23827 19.3179 9.23527C19.3599 9.22827 19.3309 8.89926 19.1179 8.63526C19.0659 8.57426 18.9369 8.41727 18.8059 8.41127C18.6309 8.40027 18.5739 8.66527 18.5679 8.81127C18.5873 9.00842 18.6505 9.19872 18.7529 9.36827C18.8165 9.47804 18.8704 9.59315 18.9139 9.71228C18.9519 9.85928 18.9799 10.1273 18.8449 10.1693C18.7902 10.1725 18.7355 10.1631 18.6849 10.142C18.6343 10.1208 18.5891 10.0884 18.5529 10.0473C18.4168 9.87702 18.343 9.66528 18.3439 9.44728C18.3201 9.25415 18.3071 9.05985 18.3049 8.86528C18.3099 8.70583 18.2917 8.54649 18.251 8.39227C18.221 8.27327 18.1729 8.10327 18.0869 8.06527C18.0009 8.02727 17.8979 8.17428 17.8769 8.20828C17.8265 8.29989 17.803 8.40386 17.8089 8.50827C17.8379 8.65924 17.8787 8.80769 17.9309 8.95227C17.957 9.07275 17.9651 9.19642 17.9549 9.31927C17.9449 9.48327 17.9259 9.69727 17.7649 9.78327C17.7193 9.80878 17.6683 9.82291 17.616 9.82447C17.5638 9.82604 17.512 9.815 17.4649 9.79228C17.3487 9.72291 17.2581 9.61762 17.2069 9.49227C17.1369 9.33527 17.1669 9.25227 17.1779 8.91427C17.1929 8.41427 17.1339 8.32527 17.0899 8.28527C17.0534 8.25604 17.011 8.23502 16.9656 8.22363C16.9202 8.21224 16.8729 8.21075 16.8269 8.21926C16.4619 8.26426 16.3719 8.86426 16.3559 8.96926C16.3479 9.01626 16.3419 9.03927 16.3319 9.08827C16.2939 9.25527 16.2629 9.37526 16.1999 9.37226C16.1369 9.36926 16.0579 9.24228 16.0299 9.19328C15.9445 9.04215 15.8946 8.87355 15.8839 8.70027C15.8489 8.41627 15.8839 8.31027 15.7839 8.13327C15.7569 8.09227 15.7129 8.01027 15.6719 8.00727Z" fill="white"/>
<path id="Path 404" d="M16.272 7.53427C16.142 7.52527 16.065 7.70928 16.054 7.73428C16.0161 7.81392 16.0022 7.90287 16.014 7.99028C16.0148 8.06535 16.045 8.13711 16.098 8.19028C16.1282 8.20916 16.1634 8.21858 16.199 8.21733C16.2347 8.21608 16.2691 8.20423 16.298 8.18327C16.334 8.15627 16.385 8.09827 16.359 8.05427C16.333 8.01027 16.275 8.02328 16.236 7.96828C16.2222 7.94429 16.2142 7.91738 16.2128 7.88974C16.2115 7.8621 16.2166 7.83453 16.228 7.80928C16.256 7.72928 16.312 7.73328 16.337 7.64328C16.351 7.59228 16.343 7.57127 16.337 7.56227C16.3291 7.55287 16.3191 7.54545 16.3078 7.54059C16.2965 7.53573 16.2842 7.53356 16.272 7.53427Z" fill="white"/>
<path id="Path 405" d="M17.44 7.91928C17.414 7.93028 17.332 7.97427 17.309 8.18427C17.292 8.31727 17.309 8.30928 17.297 8.51228C17.2931 8.54978 17.2974 8.58766 17.3095 8.62338C17.3215 8.65909 17.3412 8.69179 17.367 8.71926C17.401 8.74526 17.467 8.68328 17.484 8.66928C17.611 8.55328 17.611 8.36928 17.611 8.14128C17.611 8.06228 17.611 7.99627 17.567 7.96427C17.523 7.93227 17.469 7.90728 17.44 7.91928Z" fill="white"/>
<path id="Path 406" d="M22.292 13.5543C22.13 13.1239 21.9316 12.708 21.699 12.3113C21.492 11.9113 21.288 11.5193 21.077 11.1323C21.046 10.7703 21.019 10.4573 20.993 10.2683C21.008 10.2053 21.048 10.2013 21.047 10.2013C21.08 10.2013 21.106 10.2303 21.129 10.2243C21.177 10.2123 21.129 10.0363 21.134 10.0363C21.0199 9.71373 20.8578 9.41031 20.653 9.13628C20.615 9.07428 20.553 8.95927 20.498 8.94827C20.411 8.93427 20.366 9.10628 20.351 9.22228C20.3402 9.32925 20.3487 9.43729 20.376 9.54128C20.3146 9.41678 20.2444 9.29681 20.166 9.18228C20.0632 9.02737 19.9478 8.88119 19.821 8.74527C19.608 8.51327 19.552 8.50527 19.529 8.50627C19.473 8.51327 19.455 8.57927 19.429 8.68527C19.3846 8.82263 19.3877 8.97095 19.438 9.10628C19.4612 9.16214 19.4889 9.21598 19.521 9.26728C19.974 9.93728 20.345 10.5533 20.651 11.1093C20.761 12.3333 20.806 13.8583 20.786 14.2473C20.779 14.3883 20.758 14.7323 20.864 14.7943C20.953 14.8483 21.09 14.6633 21.156 14.5773C21.2302 14.4516 21.2787 14.3125 21.2986 14.1679C21.3185 14.0234 21.3095 13.8763 21.272 13.7353C21.272 13.7353 21.222 12.9353 21.154 12.0813C21.268 12.3193 21.368 12.5363 21.454 12.7363C21.6895 13.3216 21.9658 13.8897 22.281 14.4363C22.394 14.5023 22.434 13.9613 22.292 13.5543ZM20.229 9.64128C20.229 9.63328 20.207 9.60228 20.215 9.59128C20.232 9.56428 20.359 9.66927 20.393 9.64427C20.393 9.64427 20.393 9.63628 20.399 9.62728C20.431 9.72728 20.468 9.80727 20.473 9.82727C20.494 9.92727 20.519 10.0383 20.537 10.1643C20.436 9.99228 20.336 9.81828 20.229 9.64128Z" fill="white"/>
<path id="Path 407" d="M21.2919 9.41728C21.2819 9.51728 21.3839 9.57427 21.4819 9.80027C21.5279 9.89911 21.5615 10.0032 21.5819 10.1103C21.6099 10.2903 21.5719 10.3813 21.6039 10.4013C21.6359 10.4213 21.7359 10.3283 21.7859 10.2013C21.8224 10.0941 21.8353 9.98026 21.824 9.8676C21.8126 9.75493 21.7771 9.64603 21.7199 9.54828C21.6759 9.47128 21.5839 9.29928 21.4659 9.27928C21.4453 9.27604 21.4243 9.27711 21.4041 9.28242C21.3839 9.28773 21.365 9.29717 21.3487 9.31013C21.3323 9.3231 21.3189 9.33932 21.3091 9.35775C21.2993 9.37619 21.2935 9.39647 21.2919 9.41728Z" fill="white"/>
<path id="Path 408" d="M21.4569 10.8613C21.4129 10.8083 21.4299 10.7613 21.4019 10.7363C21.3739 10.7113 21.3019 10.7493 21.2699 10.8083C21.2528 10.8583 21.248 10.9118 21.2562 10.9641C21.2644 11.0164 21.2853 11.0659 21.3169 11.1083C21.3566 11.1625 21.4068 11.2081 21.4646 11.2425C21.5223 11.2768 21.5864 11.2992 21.6529 11.3083C21.7017 11.3186 21.7524 11.3166 21.8002 11.3025C21.848 11.2883 21.8916 11.2625 21.9269 11.2273C21.9583 11.1868 21.977 11.138 21.9808 11.0869C21.9845 11.0359 21.9731 10.9849 21.9479 10.9403C21.9279 10.9083 21.8839 10.8723 21.8579 10.8763C21.8149 10.8833 21.8349 10.9853 21.7999 10.9873C21.7649 10.9893 21.7329 10.9313 21.7149 10.8983C21.6819 10.8333 21.6909 10.7983 21.6669 10.7863C21.6429 10.7743 21.5879 10.7993 21.5669 10.8413C21.5459 10.8833 21.5529 10.9003 21.5339 10.9043C21.5149 10.9083 21.4759 10.8823 21.4569 10.8613Z" fill="white"/>
<path id="Path 409" d="M24.4219 12.0453C24.3639 12.0063 24.3729 11.9453 24.3219 11.9023C24.29 11.8774 24.251 11.8634 24.2106 11.8621C24.1701 11.8609 24.1303 11.8725 24.0969 11.8953C24.0727 11.9219 24.0553 11.954 24.0461 11.9888C24.0369 12.0236 24.0361 12.0601 24.0439 12.0953C24.0499 12.1523 24.0749 12.2563 24.3889 12.6063C24.6099 12.8543 24.6659 12.8763 24.6999 12.8683C24.7339 12.8603 24.7529 12.7983 24.7689 12.7213C24.8089 12.5013 24.7109 12.3673 24.7839 12.3013C24.8299 12.2583 24.8939 12.2933 24.9489 12.2283C24.9717 12.1991 24.9869 12.1648 24.9929 12.1283C25.0057 12.0609 25.0002 11.9913 24.977 11.9268C24.9538 11.8622 24.9137 11.8051 24.8609 11.7613C24.7789 11.7073 24.6609 11.6863 24.6079 11.7423C24.5359 11.8243 24.6639 12.0333 24.5939 12.0743C24.5586 12.0838 24.5213 12.0838 24.4859 12.0743C24.4633 12.0679 24.4417 12.0581 24.4219 12.0453Z" fill="white"/>
<path id="Path 410" d="M26.3589 16.2433C26.3589 16.1693 26.4249 16.1623 26.4259 16.1163C26.4259 16.0483 26.296 15.9413 26.169 15.9303C26.08 15.9243 25.9829 15.9643 25.9839 16.0173C25.9849 16.0703 26.1449 16.1173 26.1779 16.2283C26.1849 16.2498 26.1871 16.2725 26.1845 16.2949C26.182 16.3173 26.1746 16.3389 26.1629 16.3583C26.1089 16.4853 25.973 16.4703 25.963 16.5533C25.9648 16.5836 25.9743 16.6131 25.9905 16.6388C26.0068 16.6645 26.0293 16.6856 26.056 16.7003C26.141 16.7493 26.196 16.6603 26.435 16.6003C26.554 16.5693 26.6259 16.5723 26.6349 16.5183C26.6377 16.4915 26.6333 16.4644 26.6223 16.4398C26.6112 16.4152 26.5939 16.394 26.572 16.3783C26.501 16.3233 26.4159 16.3783 26.3719 16.3243C26.3642 16.3125 26.359 16.2991 26.3568 16.2852C26.3545 16.2712 26.3553 16.2569 26.3589 16.2433Z" fill="white"/>
<path id="Path 411" d="M23.8139 13.8723C23.8139 13.8723 23.7509 13.3193 23.5769 12.0053C23.5219 11.6153 23.4479 11.2233 23.4149 10.8353C23.4499 10.8353 23.4819 10.8483 23.5149 10.8553C23.5479 10.8623 23.6469 10.8943 23.6759 10.8723C23.7209 10.8383 23.636 10.7203 23.615 10.6723C23.569 10.5803 23.5249 10.4873 23.4819 10.3933L23.2699 9.94928C23.2409 9.88828 23.178 9.66927 23.098 9.64927C23.018 9.62927 22.9429 10.0003 22.9239 10.2493C22.9003 10.5694 22.9266 10.8912 23.0019 11.2033C23.2471 12.2999 23.3996 13.4151 23.4579 14.5373C23.4739 14.8203 23.4099 15.2093 23.5069 15.2593C23.5839 15.2973 23.7129 15.1113 23.7799 14.9743C23.904 14.6191 23.9158 14.2344 23.8139 13.8723Z" fill="white"/>
<path id="Path 412" d="M22.263 9.51328C22.1505 9.66419 22.0858 9.84528 22.077 10.0333C22.077 10.3093 22.148 10.3803 22.19 10.8213C22.198 10.9213 22.202 10.9943 22.204 11.0593C22.268 12.4593 22.382 13.0543 22.418 13.6073C22.4726 13.8911 22.4925 14.1806 22.477 14.4693C22.464 14.5963 22.377 14.6693 22.272 14.7693C21.9361 14.9843 21.571 15.15 21.188 15.2613C21.15 15.2723 21.062 15.2503 21.047 15.2943C21.032 15.3383 21.128 15.4663 21.202 15.5333C21.2918 15.6032 21.3957 15.6529 21.5065 15.679C21.6173 15.705 21.7324 15.7069 21.844 15.6843C22.0131 15.6505 22.1719 15.577 22.3071 15.4699C22.4424 15.3629 22.5503 15.2252 22.622 15.0683C22.7457 14.8284 22.8186 14.5656 22.836 14.2963C22.9149 13.3582 22.8475 12.4136 22.636 11.4963C22.636 11.4963 22.42 10.6083 22.558 10.5963C22.58 10.5963 22.608 10.6223 22.646 10.6123C22.702 10.6013 22.714 10.5123 22.715 10.4923C22.7179 10.3818 22.6891 10.2729 22.632 10.1783C22.424 9.76027 22.398 9.49528 22.314 9.48528C22.287 9.48528 22.271 9.50528 22.263 9.51328Z" fill="white"/>
<g id="Group 47">
<path id="Path 413" d="M25.239 13.4553C25.339 13.3763 25.349 13.0083 25.239 13.0163C25.219 13.0223 24.469 13.3593 24.388 13.4163C24.307 13.4733 24.252 13.5233 24.252 13.6163C24.252 13.7093 24.231 13.8163 24.252 13.8453C24.5949 13.7536 24.9261 13.6227 25.239 13.4553Z" fill="white"/>
<path id="Path 414" d="M24.977 13.6843C24.927 13.7253 24.964 14.0083 25.001 14.0933C25.0393 14.277 25.0613 14.4637 25.067 14.6513C25.067 14.6943 25.112 14.8663 25.181 14.8103C25.2858 14.7052 25.3556 14.5704 25.381 14.4243C25.3386 14.1847 25.2716 13.9501 25.181 13.7243C25.1555 13.6971 25.1221 13.6786 25.0855 13.6714C25.0489 13.6642 25.0109 13.6687 24.977 13.6843Z" fill="white"/>
<path id="Path 415" d="M26.987 11.5623C27.0021 11.6687 27.0118 11.7758 27.016 11.8833C27.024 12.0833 27.006 12.1733 27.03 12.1833C27.054 12.1933 27.174 12.0423 27.206 11.8583C27.2295 11.6888 27.2071 11.5161 27.141 11.3583C27.091 11.2133 27.05 11.0953 26.958 11.0583C26.9294 11.0477 26.8983 11.0455 26.8685 11.0521C26.8388 11.0587 26.8115 11.0736 26.79 11.0953C26.731 11.1683 26.79 11.2953 26.823 11.3583C26.8617 11.4377 26.9178 11.5074 26.987 11.5623Z" fill="white"/>
<path id="Path 417" d="M26.643 15.7363C26.769 15.5833 26.848 15.5533 26.893 15.3653C26.9161 15.1167 26.9248 14.8669 26.919 14.6173C27.111 14.9333 27.278 15.2293 27.419 15.4973C27.605 15.7693 27.626 15.8103 27.631 15.8183C27.7241 15.5228 27.7092 15.2038 27.589 14.9183C27.3828 14.5309 27.1541 14.1559 26.904 13.7953C26.8947 13.3376 26.8482 12.8814 26.765 12.4313C26.583 11.6123 26.565 11.5063 26.683 11.5253C26.801 11.5443 26.513 10.7073 26.402 10.4903C26.291 10.2733 26.145 10.3173 26.102 10.3523C26.059 10.3873 25.964 10.4233 25.995 10.6163C26.07 11.0613 26.147 11.5243 26.209 11.9943C26.252 12.3093 26.289 12.6143 26.322 12.9193C26.164 12.6813 25.994 12.4193 25.827 12.1533C25.79 11.6693 25.771 11.3183 25.769 11.2993C25.769 11.2613 25.9 11.2643 25.901 11.2123C25.8457 11.0212 25.7621 10.8395 25.653 10.6733C25.412 10.3883 25.453 10.1733 25.373 10.1593C25.293 10.1453 25.217 10.2913 25.22 10.3393C25.239 10.5893 25.261 10.9393 25.286 11.2893C25.2001 11.158 25.1226 11.0214 25.054 10.8803C25.054 10.7953 25.049 10.7923 25.105 10.8033C25.1254 10.8071 25.1464 10.8062 25.1664 10.8004C25.1864 10.7947 25.2047 10.7844 25.22 10.7703C25.246 10.7513 24.414 9.67028 24.471 9.97528C24.4186 10.121 24.396 10.2757 24.4044 10.4302C24.4128 10.5848 24.4521 10.7361 24.52 10.8753C24.607 11.0033 24.94 11.5023 25.364 12.1493C25.3743 12.2475 25.3904 12.3449 25.412 12.4413C25.5265 13.2841 25.56 14.136 25.512 14.9853C25.503 15.0853 25.412 15.2953 25.264 15.2853C25.155 15.2853 25.052 15.1483 24.979 15.0543C24.779 14.7943 24.762 14.6443 24.627 14.5753C24.5888 14.555 24.546 14.5452 24.5028 14.5468C24.4596 14.5484 24.4176 14.5613 24.381 14.5843C24.281 14.6353 24.203 14.7073 24.067 15.0473C23.942 15.3693 23.924 15.5423 23.805 15.6203C23.7635 15.6398 23.7179 15.649 23.6721 15.6471C23.6263 15.6452 23.5817 15.6322 23.542 15.6093C23.308 15.5093 23.23 15.0373 23.199 14.8973C23.162 14.7256 23.1573 14.5486 23.185 14.3753C23.0953 14.5765 23.0508 14.7949 23.0544 15.0151C23.058 15.2353 23.1098 15.4521 23.206 15.6503C23.372 15.9773 23.706 16.2843 23.885 16.2443C24.064 16.2043 24.16 15.9443 24.257 15.4763C24.271 15.4072 24.3118 15.3465 24.3705 15.3075C24.4292 15.2685 24.5009 15.2544 24.57 15.2683C24.808 15.3033 24.886 15.7323 25.199 15.8683C25.3153 15.9065 25.4398 15.9125 25.5592 15.8856C25.6786 15.8586 25.7884 15.7998 25.877 15.7153C26.014 15.5913 26.105 15.2923 25.959 13.7623C25.933 13.5013 25.911 13.2273 25.889 12.9623C26.059 13.2253 26.231 13.4983 26.402 13.7703C26.46 14.4703 26.495 15.1463 26.509 15.7893C26.513 15.7983 26.521 15.8923 26.643 15.7363Z" fill="white"/>
<path id="Path 418" d="M27.874 11.5263C27.938 11.4683 28.182 11.6553 28.144 11.4833C28.106 11.3113 27.67 10.4683 27.465 10.4773C27.391 10.4773 27.32 10.7113 27.319 10.8143C27.318 10.9173 27.379 11.4773 27.428 11.8843C27.477 12.2913 27.845 15.4503 27.757 15.7263C27.6682 15.9514 27.5161 16.1459 27.319 16.2863C27.18 16.4123 26.548 16.5863 26.546 16.7473C26.544 16.9083 26.874 16.9473 27.195 16.8723C27.4002 16.8479 27.5929 16.7609 27.747 16.6232C27.901 16.4854 28.0089 16.3035 28.056 16.1023C28.1546 15.2096 28.1694 14.3097 28.1 13.4143C27.992 12.7893 27.9166 12.1591 27.874 11.5263Z" fill="white"/>
</g>
<path id="Path 419" d="M20.6719 13.0483C20.6499 12.9903 20.4999 12.9613 20.4539 12.9543C19.8832 12.8193 19.3244 12.6383 18.7829 12.4133C18.7829 12.4003 18.8979 12.4333 19.0829 12.4373C19.3127 12.4551 19.5429 12.4076 19.7469 12.3003C19.8412 12.2607 19.9233 12.1969 19.9848 12.1151C20.0463 12.0334 20.085 11.9369 20.0969 11.8353C20.0987 11.6987 20.0693 11.5636 20.0111 11.44C19.9529 11.3165 19.8673 11.2078 19.7609 11.1223C19.6818 11.0482 19.5858 10.9945 19.4812 10.9659C19.3767 10.9373 19.2667 10.9347 19.1609 10.9583C18.9739 11.0233 18.9199 11.2323 18.8689 11.4323C18.8109 11.6733 18.8689 11.7273 18.8029 11.7993C18.6479 11.9753 18.2949 11.6653 17.8699 11.7393C17.6672 11.7762 17.4874 11.892 17.3699 12.0613C17.3539 11.9533 17.3389 11.8303 17.3159 11.6703C17.2944 11.2138 17.159 10.77 16.9219 10.3793C16.8689 10.3113 16.7389 10.1253 16.6369 10.1293C16.5159 10.1363 16.5149 10.4163 16.5129 10.4803C16.5419 10.7704 16.6183 11.0538 16.7389 11.3193C16.8352 11.5617 16.8945 11.8172 16.9149 12.0773C16.926 12.3695 16.83 12.6558 16.6449 12.8823C16.4552 13.1059 16.1955 13.2589 15.9079 13.3163C15.819 13.3429 15.7251 13.3483 15.6337 13.332C15.5423 13.3157 15.4561 13.2781 15.3819 13.2223C15.3028 13.1485 15.251 13.0502 15.2349 12.9433C15.2529 12.9353 15.2719 12.9293 15.2879 12.9233C15.4976 12.8506 15.6944 12.7449 15.8709 12.6103C16.0107 12.5287 16.1309 12.4177 16.2234 12.2849C16.3158 12.152 16.3781 12.0007 16.4059 11.8413C16.4412 11.5526 16.3889 11.2599 16.2559 11.0013C16.2559 10.9933 16.1839 10.9013 16.2009 10.8843C16.2179 10.8673 16.3119 10.9493 16.3479 10.9293C16.3839 10.9093 16.3269 10.7073 16.2359 10.5523C16.1651 10.3937 16.0414 10.2647 15.8859 10.1873C15.8362 10.1638 15.7807 10.1553 15.7262 10.1627C15.6717 10.1702 15.6205 10.1933 15.5789 10.2293C15.4659 10.3673 15.6159 10.6553 15.6449 10.7113C15.7289 10.8623 15.7809 10.8553 15.8709 11.0113C15.9476 11.147 15.9902 11.2994 15.9949 11.4553C15.9979 11.572 15.9704 11.6875 15.9149 11.7903C15.7414 12.0563 15.4798 12.2528 15.1759 12.3453C15.1609 11.9783 15.2149 11.7823 15.1699 11.7603C15.1249 11.7383 14.9549 12.0023 14.8699 12.3233C14.8549 12.3773 14.8399 12.4293 14.8269 12.4823C14.4939 12.6043 14.4939 12.5823 14.1819 12.7033C13.9489 12.7893 13.1429 13.1163 13.1969 13.2303C13.2509 13.3443 14.3089 13.1603 14.3629 13.1573C14.5239 13.1323 14.6629 13.1033 14.7779 13.0753C14.798 13.1746 14.8338 13.2702 14.8839 13.3583C15.0544 13.6452 15.3298 13.8547 15.6519 13.9423C15.8987 13.9893 16.1542 13.941 16.3669 13.8073C16.6907 13.6791 16.9639 13.4488 17.1449 13.1513C17.16 13.1304 17.1728 13.1079 17.1829 13.0843C17.1991 13.1827 17.229 13.2783 17.2719 13.3683C17.3377 13.5011 17.4241 13.6226 17.5279 13.7283C17.7306 13.9703 17.9663 14.1827 18.2279 14.3593C18.3969 14.4753 18.7089 14.6843 18.8849 14.6293C18.9324 14.6133 18.9732 14.582 19.0009 14.5403C19.0169 14.5129 19.0271 14.4825 19.0309 14.4511C19.0347 14.4196 19.0319 14.3877 19.0229 14.3573C18.9809 14.2153 18.8229 14.2033 18.6939 14.0113C18.6789 13.9923 18.5639 13.8113 18.5999 13.6983C18.6309 13.6103 18.7419 13.5923 18.9209 13.5903C19.283 13.6069 19.6438 13.6463 20.0009 13.7083C20.2299 13.7373 20.3689 13.7433 20.4239 13.6513C20.4789 13.5593 20.3949 13.4893 20.4609 13.3623C20.5085 13.2693 20.5699 13.184 20.6429 13.1093C20.6599 13.0923 20.6819 13.0713 20.6719 13.0483ZM19.2369 11.5303C19.2649 11.4943 19.3519 11.5123 19.4129 11.5593C19.4729 11.6177 19.512 11.6944 19.5239 11.7773C19.5389 11.8273 19.5339 11.8393 19.5289 11.8463C19.5059 11.8733 19.4209 11.8313 19.3689 11.7883C19.2799 11.7153 19.1999 11.5803 19.2369 11.5303ZM18.5709 13.0573C18.5439 13.1953 18.2519 13.0733 18.1549 13.2393C18.0899 13.3543 18.1669 13.5133 18.0899 13.5393C18.0409 13.5573 17.9759 13.5133 17.9219 13.4753C17.8122 13.401 17.7187 13.3051 17.6472 13.1935C17.5757 13.082 17.5276 12.957 17.5059 12.8263C17.5059 12.7863 17.4829 12.5433 17.6059 12.5133C17.6899 12.4943 17.7479 12.5883 17.9409 12.6793C18.2269 12.8093 18.3629 12.7223 18.4889 12.8643C18.5147 12.8894 18.5353 12.9194 18.5493 12.9525C18.5634 12.9857 18.5708 13.0213 18.5709 13.0573Z" fill="white"/>
</g>
</g>
</g>
</svg>
