<svg width="28" height="28" viewBox="0 0 28 28" fill="none" xmlns="http://www.w3.org/2000/svg">
<path d="M14 28C21.732 28 28 21.732 28 14C28 6.26801 21.732 0 14 0C6.26801 0 0 6.26801 0 14C0 21.732 6.26801 28 14 28Z" fill="#3972FE"/>
<path d="M18.0909 14.7342C18.0414 14.785 17.9849 14.8286 17.9212 14.8721L13.9413 18.9523C13.7504 19.1484 13.4959 19.25 13.2415 19.25C12.987 19.25 12.7325 19.1484 12.5416 18.9523C12.1528 18.553 12.1528 17.9141 12.5416 17.5148L15.9702 13.9936L12.5557 10.487C12.1669 10.0877 12.1669 9.44879 12.5557 9.04948C12.9445 8.65017 13.5666 8.65017 13.9554 9.04948L17.9142 13.1152C17.9707 13.1515 18.0273 13.2023 18.0838 13.2531C18.2818 13.4564 18.3737 13.725 18.3737 13.9864C18.3878 14.2623 18.2888 14.5309 18.0909 14.7342Z" fill="white"/>
</svg>
