<svg width="18" height="18" viewBox="0 0 18 18" fill="none" xmlns="http://www.w3.org/2000/svg">
<path d="M17.6874 16.1825L14.2273 12.7224C15.2759 11.3496 15.8511 9.68447 15.8513 7.92741C15.8513 5.80998 15.0266 3.81914 13.5291 2.32191C12.0319 0.824676 10.0413 0 7.92364 0C5.8062 0 3.81536 0.824676 2.31813 2.32191C-0.772711 5.41301 -0.772711 10.4423 2.31813 13.5329C3.81536 15.0304 5.8062 15.8551 7.92364 15.8551C9.6807 15.8549 11.3458 15.2797 12.7186 14.2311L16.1787 17.6912C16.3869 17.8996 16.6601 18.0038 16.9331 18.0038C17.2061 18.0038 17.4793 17.8996 17.6874 17.6912C18.1042 17.2747 18.1042 16.599 17.6874 16.1825ZM3.82682 12.0242C1.56795 9.76535 1.56821 6.08974 3.82682 3.8306C4.9211 2.73659 6.37613 2.13384 7.92364 2.13384C9.4714 2.13384 10.9262 2.73659 12.0204 3.8306C13.1147 4.92487 13.7175 6.37991 13.7175 7.92741C13.7175 9.47518 13.1147 10.93 12.0204 12.0242C10.9262 13.1185 9.4714 13.7212 7.92364 13.7212C6.37613 13.7212 4.9211 13.1185 3.82682 12.0242Z" fill="#1E1F4B"/>
</svg>
