<svg width="23" height="23" viewBox="0 0 23 23" fill="none" xmlns="http://www.w3.org/2000/svg">
<g id="Group 94">
<g id="2-Magnifying Glass">
<g id="Group 845">
<g id="Group 844">
<path id="Path 853" d="M18.9019 17.635L15.9539 14.687C16.8508 13.4799 17.3331 12.0149 17.3289 10.511C17.3316 9.58328 17.1502 8.66424 16.7954 7.80703C16.4406 6.94982 15.9195 6.17144 15.262 5.517C14.6074 4.85952 13.8291 4.33834 12.9719 3.98355C12.1147 3.62876 11.1955 3.44738 10.2678 3.44998C9.34173 3.44826 8.42454 3.63011 7.56909 3.98489C6.71364 4.33967 5.937 4.86036 5.28394 5.517C4.62793 6.17271 4.10749 6.95125 3.75244 7.80813C3.39739 8.66502 3.2146 9.58348 3.2146 10.511C3.2146 11.4385 3.39739 12.357 3.75244 13.2139C4.10749 14.0708 4.62793 14.8493 5.28394 15.505C5.93686 16.1618 6.71337 16.6827 7.56885 17.0375C8.42433 17.3923 9.34169 17.574 10.2678 17.572C11.7741 17.573 13.2411 17.0915 14.4539 16.198L17.3918 19.135C17.5929 19.3343 17.8639 19.4473 18.147 19.45C18.4305 19.4492 18.7019 19.336 18.9019 19.135C18.999 19.0371 19.0757 18.9207 19.1272 18.7928C19.1787 18.6648 19.2041 18.5279 19.2019 18.39C19.205 18.2505 19.1799 18.1118 19.1284 17.9821C19.0769 17.8524 18.9998 17.7344 18.9019 17.635ZM13.856 14.089C13.3856 14.5616 12.8265 14.9366 12.2107 15.1923C11.5949 15.448 10.9346 15.5794 10.2678 15.579C9.6027 15.5785 8.94433 15.4465 8.33032 15.1908C7.71631 14.9351 7.15886 14.5607 6.68994 14.089C5.74221 13.1394 5.20996 11.8526 5.20996 10.511C5.20996 9.1694 5.74221 7.8826 6.68994 6.93301C7.15751 6.45956 7.71477 6.08406 8.3291 5.8284C8.94344 5.57274 9.60241 5.44204 10.2678 5.444C10.9349 5.4411 11.5958 5.57138 12.2119 5.82705C12.828 6.08273 13.387 6.45867 13.856 6.93301C14.3267 7.40207 14.6998 7.95986 14.9536 8.574C15.2075 9.18815 15.3371 9.84647 15.335 10.511C15.3372 11.1756 15.2077 11.834 14.9539 12.4481C14.7 13.0623 14.3268 13.62 13.856 14.089Z" fill="#3F3F55"/>
</g>
</g>
</g>
</g>
</svg>
