<svg width="22" height="22" viewBox="0 0 22 22" fill="none" xmlns="http://www.w3.org/2000/svg">
<path d="M18.7849 6.69696L18.7749 6.68695C18.1799 4.20895 16.346 3 13.165 3H8.83398C4.79498 3 3 4.79492 3 8.83392V13.175C3 16.346 4.20995 18.18 6.69995 18.785C7.36059 18.9267 8.03429 18.9987 8.70996 18.9999H13.168C15.227 18.9999 16.5831 18.561 17.5681 17.575C18.5531 16.589 19.002 15.224 19.002 13.175V8.836C19.0048 8.11736 18.932 7.40038 18.7849 6.69696ZM13.5171 12.4529L17.458 8.51202V13.195C17.547 14.1413 17.3714 15.0936 16.9509 15.946L13.5171 12.4529ZM6.61694 17.2139C5.13494 16.7139 4.54907 15.575 4.54907 13.175V8.836C4.54907 5.636 5.63203 4.55292 8.83203 4.55292H13.1631C15.5731 4.55292 16.7139 5.13802 17.2019 6.61102L11.9441 11.9479L6.61694 17.2139ZM13.1831 17.4579H8.51001L12.4409 13.517L15.9409 16.951C15.0867 17.3714 14.1329 17.5468 13.1851 17.4579H13.1831Z" fill="#3972FE"/>
<path d="M11.5074 7.965C11.3615 7.38661 11.0262 6.8736 10.555 6.50773C10.0839 6.14186 9.50386 5.94412 8.90734 5.94596C8.30997 5.94077 7.72829 6.13731 7.25646 6.5037C6.78463 6.8701 6.45015 7.38496 6.30724 7.965C6.19787 8.61353 6.26725 9.27958 6.50792 9.89164C6.74859 10.5037 7.15166 11.0387 7.67345 11.439C7.83282 11.603 8.02409 11.7325 8.23546 11.8197C8.44683 11.9069 8.67383 11.9499 8.90245 11.946C9.38716 11.95 9.85495 11.7687 10.2103 11.439C10.725 11.0352 11.1185 10.4972 11.3473 9.88432C11.5761 9.27143 11.6315 8.60734 11.5074 7.965ZM9.40734 10.639C9.34216 10.7055 9.26443 10.7583 9.17858 10.7944C9.09272 10.8304 9.00046 10.849 8.90734 10.849C8.81421 10.849 8.72195 10.8304 8.6361 10.7944C8.55024 10.7583 8.47251 10.7055 8.40734 10.639C8.05284 10.3584 7.77433 9.99345 7.59703 9.57755C7.41974 9.16166 7.34942 8.70803 7.39244 8.25797C7.4604 7.90836 7.64903 7.5937 7.9254 7.36906C8.20177 7.14441 8.54828 7.02407 8.90441 7.02897C9.26739 7.03166 9.6194 7.15329 9.9066 7.37528C10.1938 7.59728 10.4002 7.90738 10.4942 8.25797C10.5417 8.71507 10.4663 9.17656 10.2755 9.59464C10.0847 10.0127 9.7856 10.3721 9.40929 10.6359L9.40734 10.639Z" fill="#3972FE"/>
<path d="M9.69971 8.47296C9.68367 8.65907 9.60255 8.83356 9.47046 8.96564C9.33838 9.09772 9.16389 9.17898 8.97779 9.19501C8.77846 9.19596 8.58597 9.12238 8.43799 8.98883C8.29002 8.85529 8.19717 8.67134 8.17774 8.47296C8.17747 8.37808 8.19599 8.28407 8.23218 8.19635C8.26837 8.10864 8.32158 8.02895 8.38867 7.96186C8.45577 7.89476 8.53533 7.84155 8.62305 7.80536C8.71077 7.76917 8.80477 7.75065 8.89966 7.75092H8.97779C9.07267 7.75065 9.16668 7.76917 9.2544 7.80536C9.34211 7.84155 9.42168 7.89476 9.48877 7.96186C9.55587 8.02895 9.60908 8.10864 9.64527 8.19635C9.68146 8.28407 9.69997 8.37808 9.69971 8.47296Z" fill="#3972FE"/>
</svg>
