<svg width="23" height="23" viewBox="0 0 23 23" fill="none" xmlns="http://www.w3.org/2000/svg">
<path fill-rule="evenodd" clip-rule="evenodd" d="M0.326172 15.9C0.326438 13.0268 1.46802 10.2714 3.49976 8.23987C5.5315 6.20832 8.28697 5.06702 11.1602 5.06702C12.5828 5.06702 13.9913 5.34719 15.3057 5.8916C16.62 6.43601 17.8144 7.23393 18.8203 8.23987C19.8263 9.24581 20.624 10.4401 21.1685 11.7544C21.7129 13.0687 21.9932 14.4774 21.9932 15.9V16.983C21.9933 17.1253 21.9653 17.2662 21.9109 17.3977C21.8565 17.5292 21.7768 17.6487 21.6763 17.7494C21.5757 17.8501 21.4562 17.93 21.3247 17.9845C21.1932 18.039 21.0525 18.067 20.9102 18.067C20.7678 18.0671 20.6267 18.0392 20.4951 17.9847C20.3635 17.9303 20.244 17.8504 20.1433 17.7498C20.0426 17.6491 19.9629 17.5295 19.9084 17.3979C19.854 17.2664 19.826 17.1254 19.8262 16.983V15.9C19.8263 14.7619 19.6022 13.6349 19.1667 12.5834C18.7313 11.5319 18.0931 10.5764 17.2883 9.77161C16.4836 8.96679 15.5283 8.32827 14.4768 7.8927C13.4253 7.45713 12.2983 7.23303 11.1602 7.23303C10.022 7.2329 8.89485 7.45694 7.84326 7.89246C6.79167 8.32797 5.83608 8.96641 5.03125 9.77124C4.22642 10.5761 3.5881 11.5315 3.15259 12.5831C2.71708 13.6347 2.49303 14.7618 2.49316 15.9V16.983C2.4933 17.1253 2.46526 17.2662 2.41089 17.3977C2.35652 17.5292 2.27685 17.6487 2.17627 17.7494C2.07569 17.8501 1.95617 17.93 1.82471 17.9845C1.69325 18.039 1.55246 18.067 1.41016 18.067C1.26777 18.0671 1.12669 18.0392 0.995118 17.9847C0.863541 17.9303 0.743996 17.8504 0.643311 17.7498C0.542626 17.6491 0.462877 17.5295 0.408448 17.3979C0.354018 17.2664 0.326041 17.1254 0.326172 16.983V15.9ZM7.26001 10.7C7.48983 10.5277 7.77869 10.4538 8.06299 10.4945C8.34729 10.5352 8.60385 10.6872 8.77612 10.917L10.9001 13.749C10.9864 13.7381 11.0732 13.7328 11.1602 13.733C11.4447 13.733 11.7264 13.789 11.9893 13.8979C12.2521 14.0069 12.491 14.1666 12.6921 14.3678C12.8933 14.569 13.0528 14.8079 13.1616 15.0708C13.2704 15.3337 13.3263 15.6155 13.3262 15.9C13.3263 16.1846 13.2704 16.4663 13.1616 16.7292C13.0528 16.9922 12.8933 17.231 12.6921 17.4323C12.491 17.6335 12.2521 17.7931 11.9893 17.902C11.7264 18.0109 11.4447 18.067 11.1602 18.067C10.5854 18.067 10.0343 17.8386 9.62793 17.4323C9.22154 17.0259 8.99316 16.4747 8.99316 15.9C8.99283 15.6072 9.0521 15.3172 9.16724 15.048L7.04321 12.217C6.95778 12.1032 6.89544 11.9737 6.86011 11.8358C6.82477 11.6979 6.81701 11.5545 6.83716 11.4136C6.85731 11.2727 6.90497 11.1371 6.97754 11.0146C7.05011 10.8922 7.14609 10.7853 7.26001 10.7Z" fill="#3972FE"/>
</svg>
