<svg width="22" height="22" viewBox="0 0 22 22" fill="none" xmlns="http://www.w3.org/2000/svg">
<path d="M13.4202 15.6935C13.4209 15.7694 13.4064 15.8447 13.3777 15.9149C13.349 15.9852 13.3068 16.049 13.2532 16.1027C13.1996 16.1564 13.1356 16.1988 13.0655 16.2277C12.9953 16.2565 12.9201 16.271 12.8443 16.2705H9.01833C8.94246 16.271 8.86709 16.2565 8.7969 16.2277C8.72671 16.1988 8.663 16.1564 8.6094 16.1027C8.55579 16.049 8.51334 15.9852 8.48464 15.9149C8.45594 15.8447 8.44174 15.7694 8.44241 15.6935C8.44319 15.541 8.50399 15.395 8.61184 15.2871C8.71969 15.1793 8.86581 15.1183 9.01833 15.1176H12.8443C12.9968 15.1183 13.1429 15.1793 13.2508 15.2871C13.3586 15.395 13.4194 15.541 13.4202 15.6935Z" fill="#3972FE"/>
<path d="M17.709 7.50354L12.825 3.65857C12.2858 3.23208 11.6184 3 10.9309 3C10.2434 3 9.57629 3.23208 9.03711 3.65857L4.16211 7.50354C3.79983 7.78992 3.50691 8.15454 3.30566 8.57019C3.10442 8.98584 2.99996 9.44176 3 9.90356V15.9485C3.00132 16.7575 3.32343 17.533 3.89551 18.1051C4.46758 18.6772 5.24297 18.9992 6.052 19.0005H15.8191C16.6266 18.9971 17.3997 18.6741 17.9697 18.1022C18.5398 17.5303 18.8603 16.756 18.8611 15.9485V9.90356C18.8608 9.44283 18.757 8.98799 18.5576 8.57263C18.3582 8.15727 18.0683 7.79195 17.709 7.50354ZM17.2651 15.9485C17.2636 16.3315 17.1107 16.6984 16.8398 16.9692C16.569 17.2401 16.2021 17.393 15.8191 17.3945H6.052C5.66759 17.3948 5.29879 17.2428 5.02612 16.9718C4.75346 16.7008 4.59904 16.3329 4.59692 15.9485V9.90356C4.59671 9.68451 4.64683 9.46835 4.74341 9.27173C4.83998 9.07511 4.98056 8.90326 5.15405 8.76953L10.0381 4.91553C10.289 4.71172 10.6028 4.60142 10.926 4.60352C11.2535 4.5974 11.5725 4.708 11.8259 4.91553L16.72 8.76953C16.8908 8.90513 17.0289 9.07758 17.1238 9.27393C17.2187 9.47027 17.2679 9.68549 17.2681 9.90356L17.2651 15.9485Z" fill="#3972FE"/>
</svg>
