<svg width="8" height="5" viewBox="0 0 8 5" fill="none" xmlns="http://www.w3.org/2000/svg">
<g id="Group 10067">
<path id="Path 2148" d="M4.00008 0.099995H0.915057C0.791367 0.089472 0.666875 0.104655 0.549334 0.144581C0.431793 0.184507 0.323763 0.248315 0.232073 0.331997C0.157584 0.408542 0.0989167 0.499011 0.0594048 0.59824C0.0198929 0.69747 0.00030173 0.803516 0.0017876 0.910313C0.00327346 1.01711 0.0258145 1.12257 0.0680718 1.22066C0.110329 1.31875 0.171474 1.40756 0.248064 1.482L0.26607 1.499C1.3254 2.535 2.37277 3.58266 3.4081 4.64199C3.55683 4.7982 3.76145 4.889 3.97707 4.89444C4.19269 4.89987 4.40165 4.81951 4.55806 4.67099L4.57405 4.654L7.5981 1.625C7.79603 1.47372 7.93469 1.25789 7.99007 1.015C8.00644 0.91286 8.00245 0.808492 7.97835 0.707898C7.95426 0.607303 7.91056 0.512465 7.84969 0.42883C7.78882 0.345194 7.71199 0.274413 7.62367 0.220555C7.53536 0.166696 7.43732 0.130821 7.3351 0.114994H7.3011C7.21154 0.103996 7.12132 0.0989854 7.03108 0.099995H4.00008Z" fill="#1E1F4B"/>
</g>
</svg>
