<svg width="22" height="22" viewBox="0 0 22 22" fill="none" xmlns="http://www.w3.org/2000/svg">
<path d="M18.6899 17.19L15.7397 14.2399C16.6425 13.034 17.1272 11.5664 17.1199 10.06C17.121 9.13285 16.9388 8.21464 16.5835 7.35823C16.2282 6.50183 15.7069 5.72415 15.0498 5.07003C14.3963 4.41213 13.6188 3.89043 12.7622 3.53511C11.9057 3.17979 10.9871 2.9979 10.0598 3.00002C9.13279 2.99988 8.21491 3.18259 7.35864 3.5378C6.50237 3.89301 5.72454 4.41373 5.06982 5.07003C4.41363 5.72584 3.89323 6.50447 3.53809 7.36153C3.18294 8.21859 3 9.13729 3 10.065C3 10.9928 3.18294 11.9113 3.53809 12.7684C3.89323 13.6255 4.41363 14.4042 5.06982 15.06C5.72454 15.7163 6.50237 16.2369 7.35864 16.5921C8.21491 16.9473 9.13279 17.1301 10.0598 17.13C11.5649 17.1292 13.03 16.6455 14.2397 15.75L17.1799 18.69C17.3828 18.8891 17.6557 19.0003 17.9399 19C18.0792 19.0001 18.217 18.9728 18.3457 18.9196C18.4744 18.8664 18.5914 18.7884 18.6899 18.69C18.7891 18.5921 18.8677 18.4752 18.9209 18.3464C18.9741 18.2176 19.0008 18.0794 18.9998 17.94C19.0009 17.8006 18.9741 17.6624 18.9209 17.5335C18.8677 17.4047 18.7892 17.2879 18.6899 17.19ZM13.6499 13.64C13.1794 14.1129 12.6201 14.4881 12.0039 14.7439C11.3878 14.9996 10.7269 15.1308 10.0598 15.13C9.39406 15.1317 8.73477 15.0008 8.12012 14.745C7.50547 14.4891 6.94769 14.1135 6.47974 13.64C5.53359 12.6908 5.00244 11.4052 5.00244 10.065C5.00244 8.7248 5.53359 7.43916 6.47974 6.48995C6.94633 6.01458 7.50369 5.63774 8.11865 5.38179C8.73361 5.12585 9.39373 4.99601 10.0598 4.99996C10.7273 4.99681 11.3887 5.12703 12.0051 5.38289C12.6216 5.63875 13.1808 6.0151 13.6499 6.48995C14.1187 6.95834 14.4899 7.51512 14.7422 8.12789C14.9945 8.74066 15.1229 9.39734 15.1199 10.06C15.1234 10.7237 14.9952 11.3814 14.7429 11.9952C14.4906 12.609 14.1191 13.1666 13.6499 13.6359V13.64Z" fill="#3972FE"/>
</svg>
