<svg width="18" height="21" viewBox="0 0 18 21" fill="none" xmlns="http://www.w3.org/2000/svg">
<path opacity="0.4" fill-rule="evenodd" clip-rule="evenodd" d="M9 8.05711e-10C9.10407 -4.86169e-06 9.20696 0.0219993 9.30192 0.0645682C9.39688 0.107137 9.48176 0.169308 9.551 0.247L12.651 3.727C12.7151 3.79888 12.7643 3.88272 12.7958 3.9737C12.8273 4.06468 12.8405 4.161 12.8347 4.25711C12.8288 4.35322 12.804 4.44722 12.7617 4.5337C12.7193 4.62018 12.6603 4.69743 12.588 4.761C12.4418 4.89049 12.2503 4.95677 12.0554 4.94534C11.8605 4.9339 11.678 4.84568 11.548 4.7L9.736 2.663V12.042C9.736 12.2372 9.65846 12.4244 9.52043 12.5624C9.3824 12.7005 9.1952 12.778 9 12.778C8.8048 12.778 8.6176 12.7005 8.47957 12.5624C8.34154 12.4244 8.264 12.2372 8.264 12.042V2.663L6.452 4.7C6.32215 4.84553 6.13998 4.93374 5.94529 4.94536C5.7506 4.95697 5.55923 4.89105 5.413 4.762C5.34053 4.69842 5.28138 4.62111 5.23895 4.53454C5.19652 4.44797 5.17167 4.35386 5.16581 4.25763C5.15995 4.1614 5.17321 4.06497 5.20483 3.97389C5.23644 3.88281 5.28578 3.7989 5.35 3.727L8.45 0.247C8.51912 0.169434 8.60385 0.107337 8.69863 0.0647725C8.7934 0.0222083 8.8961 0.000136008 9 8.05711e-10ZM0 11.837C0.0037081 10.6042 0.496732 9.42325 1.37073 8.55376C2.24472 7.68427 3.42817 7.19734 4.661 7.2H5.074C5.17247 7.19636 5.27066 7.21261 5.36271 7.24779C5.45476 7.28296 5.53877 7.33633 5.60972 7.40471C5.68067 7.47308 5.73711 7.55507 5.77565 7.64575C5.8142 7.73644 5.83407 7.83396 5.83407 7.9325C5.83407 8.03104 5.8142 8.12856 5.77565 8.21925C5.73711 8.30993 5.68067 8.39192 5.60972 8.46029C5.53877 8.52867 5.45476 8.58204 5.36271 8.61721C5.27066 8.65239 5.17247 8.66864 5.074 8.665H4.661C3.81725 8.66314 3.00731 8.99647 2.40929 9.59168C1.81126 10.1869 1.47412 10.9953 1.472 11.839V16.363C1.47412 17.2067 1.81126 18.0151 2.40929 18.6103C3.00731 19.2055 3.81725 19.5389 4.661 19.537H13.338C14.1817 19.5389 14.9917 19.2055 15.5897 18.6103C16.1877 18.0151 16.5249 17.2067 16.527 16.363V11.837C16.5249 10.9933 16.1877 10.1849 15.5897 9.58968C14.9917 8.99447 14.1817 8.66114 13.338 8.663H12.925C12.8265 8.66664 12.7283 8.65039 12.6363 8.61521C12.5442 8.58004 12.4602 8.52667 12.3893 8.45829C12.3183 8.38992 12.2619 8.30793 12.2233 8.21725C12.1848 8.12656 12.1649 8.02904 12.1649 7.9305C12.1649 7.83196 12.1848 7.73444 12.2233 7.64375C12.2619 7.55307 12.3183 7.47109 12.3893 7.40271C12.4602 7.33433 12.5442 7.28096 12.6363 7.24579C12.7283 7.21061 12.8265 7.19436 12.925 7.198H13.338C13.9487 7.19642 14.5538 7.31517 15.1186 7.54746C15.6835 7.77975 16.197 8.12103 16.6299 8.55182C17.0628 8.9826 17.4067 9.49445 17.6417 10.0581C17.8768 10.6218 17.9986 11.2263 18 11.837V16.361C17.9968 17.5942 17.504 18.7756 16.63 19.6455C15.7559 20.5155 14.5722 21.0027 13.339 21H4.661C3.42782 21.0027 2.24407 20.5155 1.37002 19.6455C0.49597 18.7756 0.00317886 17.5942 0 16.361V11.837Z" fill="#1E1F4B"/>
</svg>
