<svg width="35" height="35" viewBox="0 0 35 35" fill="none" xmlns="http://www.w3.org/2000/svg">
<path d="M24.348 0H10.435C4.67191 0 0 4.67191 0 10.435V24.348C0 30.1111 4.67191 34.783 10.435 34.783H24.348C30.1111 34.783 34.783 30.1111 34.783 24.348V10.435C34.783 4.67191 30.1111 0 24.348 0Z" fill="white"/>
<path d="M14.1075 14.7C13.2592 14.6982 12.4447 15.0333 11.8433 15.6316C11.2418 16.23 10.9026 17.0426 10.9 17.891V17.8913L14.1073 14.8M14.1075 14.7L14.1073 14.8M14.1075 14.7H14.1073V14.8M14.1075 14.7H14.3809M14.1073 14.8H14.3827M14.3809 14.7C14.3803 14.7 14.3796 14.7 14.379 14.7001L14.3827 14.8M14.3809 14.7C14.4593 14.6974 14.5375 14.7104 14.6108 14.7384C14.6848 14.7667 14.7522 14.8095 14.8092 14.8645C14.8662 14.9194 14.9115 14.9852 14.9425 15.058C14.9734 15.1309 14.9894 15.2092 14.9894 15.2883C14.9894 15.3675 14.9734 15.4458 14.9425 15.5186C14.9115 15.5914 14.8662 15.6573 14.8092 15.7122C14.7522 15.7671 14.6848 15.81 14.6108 15.8382C14.5375 15.8662 14.4593 15.8793 14.3809 15.8767M14.3809 14.7H14.3827V14.8M14.3827 14.8L12.0813 20.9085M19.892 23.0247C20.4545 23.0259 20.9945 22.8037 21.3931 22.4069C21.7918 22.0101 22.0166 21.4712 22.018 20.9087M19.892 23.0247L19.6167 15.7753M19.892 23.0247H14.1073C13.5448 23.0259 13.0049 22.8037 12.6062 22.4069C12.2075 22.0101 11.9827 21.4712 11.9813 20.9087M19.892 23.0247L11.9813 20.9087M22.018 20.9087V17.8913M22.018 20.9087L21.918 20.9084M22.018 20.9087H21.918M22.018 17.8913C22.0166 17.3288 21.7918 16.7899 21.3931 16.3931C20.9945 15.9963 20.4545 15.7741 19.892 15.7753H19.6167M22.018 17.8913H21.918C21.918 17.8914 21.918 17.8915 21.918 17.8916M22.018 17.8913L21.918 17.8916M19.6167 15.7753V15.8753H19.6184C19.6191 15.8753 19.6197 15.8753 19.6204 15.8753L19.6167 15.7753ZM21.918 17.8916V20.9084M21.918 17.8916V20.9084M21.918 20.9084L21.918 20.9087M21.918 20.9087C21.9166 21.4446 21.7024 21.958 21.3226 22.336C20.9427 22.7141 20.4282 22.9258 19.8922 22.9247H19.892H14.1073L14.1071 22.9247C13.5711 22.9258 13.0566 22.7141 12.6767 22.336C12.2969 21.9579 12.0827 21.4445 12.0813 20.9085M21.918 20.9087L12.0813 20.9085M12.0813 20.9085V17.8928M12.0813 20.9085C12.0813 20.9085 12.0813 20.9084 12.0813 20.9084L11.9813 20.9087M12.0813 20.9085V20.9087H11.9813M12.0813 17.8928C12.0827 17.3569 12.2969 16.8434 12.6767 16.4653C13.0566 16.0872 13.5711 15.8755 14.1071 15.8767H14.1073H14.3809M12.0813 17.8928V17.8927H11.9813L12.0813 17.8929C12.0813 17.8929 12.0813 17.8929 12.0813 17.8928ZM14.3809 15.8767C14.3803 15.8766 14.3796 15.8766 14.379 15.8766L14.3827 15.7767V15.8767H14.3809ZM23.1 17.8911L23.1 17.8913V20.9073V20.9076C23.0978 21.7562 22.7587 22.5692 22.1572 23.1679C21.5557 23.7665 20.7412 24.1018 19.8927 24.1C19.8926 24.1 19.8925 24.1 19.8924 24.1L23.1 17.8911ZM23.1 17.8911C23.099 17.4708 23.0152 17.0548 22.8534 16.6669C22.6917 16.279 22.4551 15.9268 22.1571 15.6303C21.8592 15.3339 21.5058 15.099 21.1171 14.9392C20.7284 14.7793 20.312 14.6976 19.8917 14.6987L23.1 17.8911ZM17 9.9L16.9999 9.9L14.4921 12.4181L14.5667 12.4847L14.492 12.4181L14.492 12.4181C14.4404 12.4759 14.4008 12.5433 14.3754 12.6165C14.35 12.6897 14.3393 12.7672 14.3441 12.8445C14.3488 12.9218 14.3687 12.9975 14.4028 13.067C14.4369 13.1366 14.4844 13.1986 14.5426 13.2497C14.6599 13.3532 14.8134 13.406 14.9695 13.3967C15.1257 13.3874 15.2718 13.3166 15.3759 13.1999L15.376 13.1998L16.4093 12.0382V18.028C16.4093 18.1847 16.4716 18.3349 16.5823 18.4457C16.6931 18.5564 16.8433 18.6187 17 18.6187C17.1567 18.6187 17.3069 18.5564 17.4177 18.4457C17.5284 18.3349 17.5907 18.1847 17.5907 18.028V12.0382L18.6239 13.1998L18.6241 13.1999C18.7283 13.3168 18.8747 13.3875 19.0311 13.3967C19.1874 13.4059 19.3409 13.3528 19.4582 13.249C19.5162 13.1979 19.5636 13.1359 19.5976 13.0664C19.6316 12.9969 19.6516 12.9214 19.6563 12.8442C19.661 12.7669 19.6504 12.6895 19.625 12.6164C19.5997 12.5433 19.5601 12.4759 19.5087 12.4181C19.5087 12.4181 19.5087 12.4181 19.5086 12.4181L17.442 10.0982L17.442 10.0981C17.3864 10.0358 17.3184 9.98594 17.2422 9.95179C17.166 9.91765 17.0835 9.9 17 9.9ZM19.6184 14.6987H19.6167V14.7987L19.6204 14.6987C19.6197 14.6987 19.6191 14.6987 19.6184 14.6987ZM14.1075 24.1L14.1073 24V24.1L14.1075 24.1Z" fill="#1E1F4B" stroke="#1E1F4B" stroke-width="0.2"/>
</svg>
