<svg width="35" height="35" viewBox="0 0 35 35" fill="none" xmlns="http://www.w3.org/2000/svg">
<path d="M24.348 0H10.435C4.67191 0 0 4.67191 0 10.435V24.348C0 30.1111 4.67191 34.783 10.435 34.783H24.348C30.1111 34.783 34.783 30.1111 34.783 24.348V10.435C34.783 4.67191 30.1111 0 24.348 0Z" fill="white"/>
<path d="M16.857 8.73337L16.8571 8.73337C16.9505 8.73337 17.0429 8.75312 17.1281 8.79132C17.2133 8.82952 17.2895 8.88531 17.3516 8.95503L17.3516 8.95505L19.7135 11.6065C19.7135 11.6065 19.7135 11.6065 19.7135 11.6065C19.7711 11.6711 19.8153 11.7464 19.8437 11.8282C19.872 11.91 19.8839 11.9966 19.8786 12.083C19.8734 12.1694 19.8511 12.2539 19.813 12.3316C19.775 12.4093 19.722 12.4787 19.657 12.5358M16.857 8.73337L16.8571 8.83337C16.9364 8.83337 17.0148 8.85014 17.0872 8.88257C17.1595 8.915 17.2242 8.96237 17.2769 9.02156L19.6389 11.673C19.6877 11.7278 19.7252 11.7916 19.7492 11.861C19.7732 11.9303 19.7833 12.0037 19.7788 12.0769C19.7743 12.1501 19.7554 12.2217 19.7232 12.2876C19.6909 12.3535 19.646 12.4124 19.5909 12.4608C19.4795 12.5595 19.3336 12.61 19.1851 12.6012C19.0365 12.5925 18.8975 12.5253 18.7985 12.4143L17.5179 10.9747V11.1252M16.857 8.73337C16.7638 8.7335 16.6716 8.7533 16.5866 8.7915C16.5015 8.8297 16.4255 8.88542 16.3634 8.95503L16.3634 8.95505L14.0016 11.6064L16.857 8.73337ZM19.657 12.5358C19.657 12.5358 19.6569 12.5359 19.6569 12.5359L19.5909 12.4608L19.6572 12.5357C19.6571 12.5357 19.6571 12.5357 19.657 12.5358ZM19.657 12.5358C19.5259 12.6519 19.3541 12.7113 19.1792 12.7011C19.0043 12.6908 18.8405 12.6116 18.7239 12.4809L18.7238 12.4808L17.5179 11.1252M17.5179 11.1252L17.4179 11.0128V18.0082C17.4179 18.1569 17.3588 18.2996 17.2537 18.4047C17.1485 18.5099 17.0059 18.569 16.8571 18.569C16.7084 18.569 16.5658 18.5099 16.4606 18.4047C16.3555 18.2996 16.2964 18.1569 16.2964 18.0082V11.0128L16.1964 11.1252M17.5179 11.1252V18.0082C17.5179 18.1835 17.4483 18.3515 17.3244 18.4755C17.2005 18.5994 17.0324 18.669 16.8571 18.669C16.6819 18.669 16.5138 18.5994 16.3899 18.4755C16.266 18.3515 16.1964 18.1835 16.1964 18.0082V11.1252M16.1964 11.1252V10.9747L14.0582 12.5367C14.0582 12.5367 14.0581 12.5366 14.0581 12.5366C14.1893 12.6524 14.361 12.7115 14.5357 12.7011C14.7104 12.6907 14.8739 12.6115 14.9904 12.4809L14.9905 12.4808L16.1964 11.1252ZM13.5512 14.2191C12.5855 14.2171 11.6585 14.5985 10.9738 15.2796C10.2891 15.9608 9.90291 16.8859 9.9 17.8517V17.852L13.5512 14.2191ZM13.5512 14.2191C13.5513 14.2191 13.5514 14.2191 13.5515 14.2191M13.5512 14.2191L13.5515 14.2191M13.5515 14.2191L13.8641 14.2191" fill="#1E1F4B" stroke="#1E1F4B" stroke-width="0.2"/>
</svg>
