<?xml version="1.0" encoding="UTF-8"?><svg xmlns="http://www.w3.org/2000/svg" viewBox="0 0 322 322"><defs><style>.d{opacity:0;}.d,.e{fill:#3972fe;}.f{fill:#ebf1ff;}.g{fill:#1e1f4b;}</style></defs><g id="a"/><g id="b"><g id="c"><g><g><g><rect class="e" x="159.27" y="54.97" width="3.46" height="22.56"/><rect class="e" x="244.47" y="159.27" width="22.56" height="3.46"/><rect class="e" x="54.96" y="159.27" width="22.56" height="3.46"/><rect class="e" x="216.72" y="92.27" width="22.56" height="3.46" transform="translate(.31 188.75) rotate(-45)"/><rect class="e" x="82.72" y="226.27" width="22.56" height="3.47" transform="translate(-133.69 133.25) rotate(-45)"/><rect class="e" x="226.27" y="216.72" width="3.46" height="22.56" transform="translate(-94.44 228) rotate(-45)"/><rect class="e" x="92.27" y="82.72" width="3.46" height="22.56" transform="translate(-38.94 94) rotate(-45)"/><rect class="e" x="123.01" y="62.18" width="3.46" height="22.56" transform="translate(-18.62 53.32) rotate(-22.5)"/><rect class="e" x="237.26" y="123.01" width="22.56" height="3.46" transform="translate(-28.82 104.62) rotate(-22.5)"/><rect class="e" x="62.18" y="195.53" width="22.57" height="3.47" transform="translate(-69.91 43.14) rotate(-22.5)"/><rect class="e" x="185.98" y="71.73" width="22.56" height="3.46" transform="translate(53.91 227.6) rotate(-67.5)"/><rect class="e" x="246.81" y="185.98" width="3.46" height="22.56" transform="translate(-28.86 351.32) rotate(-67.48)"/><rect class="e" x="71.73" y="113.46" width="3.46" height="22.56" transform="translate(-69.9 144.86) rotate(-67.5)"/><rect class="e" x="55.24" y="168.16" width="12.63" height="1.33" transform="translate(-13.11 5.38) rotate(-4.52)"/><rect class="e" x="254.13" y="152.51" width="12.63" height="1.33" transform="translate(-11.2 20.87) rotate(-4.49)"/><rect class="e" x="56.16" y="175.94" width="12.63" height="1.33" transform="translate(-26.92 11.98) rotate(-9.02)"/><rect class="e" x="253.21" y="144.73" width="12.63" height="1.33" transform="translate(-19.59 42.49) rotate(-9.02)"/><rect class="e" x="57.69" y="183.62" width="12.63" height="1.33" transform="translate(-41.19 19.99) rotate(-13.48)"/><rect class="e" x="251.68" y="137.05" width="12.63" height="1.33" transform="translate(-24.98 63.88) rotate(-13.47)"/><rect class="e" x="59.82" y="191.16" width="12.63" height="1.33" transform="translate(-55.99 29.79) rotate(-17.98)"/><rect class="e" x="249.55" y="129.51" width="12.63" height="1.33" transform="translate(-27.67 85.25) rotate(-17.96)"/><rect class="e" x="65.81" y="205.62" width="12.63" height="1.33" transform="translate(-85.88 55.32) rotate(-27.03)"/><rect class="e" x="243.56" y="115.05" width="12.63" height="1.33" transform="translate(-25.3 126.12) rotate(-27.01)"/><rect class="e" x="69.63" y="212.45" width="12.63" height="1.33" transform="translate(-100.23 71.18) rotate(-31.53)"/><rect class="e" x="239.73" y="108.22" width="12.63" height="1.33" transform="translate(-20.62 144.73) rotate(-31.53)"/><rect class="e" x="73.99" y="218.97" width="12.63" height="1.33" transform="translate(-113.71 89.08) rotate(-35.98)"/><rect class="e" x="235.38" y="101.7" width="12.63" height="1.33" transform="translate(-14.07 161.35) rotate(-35.94)"/><rect class="e" x="78.84" y="225.12" width="12.63" height="1.33" transform="translate(-126.23 109.38) rotate(-40.5)"/><rect class="e" x="230.53" y="95.55" width="12.63" height="1.33" transform="translate(-5.8 176.7) rotate(-40.46)"/><rect class="e" x="219.47" y="84.48" width="12.63" height="1.33" transform="translate(14.46 201.64) rotate(-49.53)"/><rect class="e" x="213.32" y="79.64" width="12.63" height="1.33" transform="translate(25.67 210.94) rotate(-54.05)"/><rect class="e" x="206.8" y="75.28" width="12.63" height="1.33" transform="translate(36.94 217.9) rotate(-58.47)"/><rect class="e" x="199.97" y="71.46" width="12.63" height="1.33" transform="translate(48.23 223.03) rotate(-62.94)"/><rect class="e" x="185.51" y="65.47" width="12.63" height="1.33" transform="translate(69.82 228.26) rotate(-72.06)"/><rect class="e" x="177.97" y="63.34" width="12.63" height="1.33" transform="translate(79.18 228.36) rotate(-76.55)"/><rect class="e" x="170.29" y="61.81" width="12.63" height="1.33" transform="translate(87.24 227.12) rotate(-80.99)"/><rect class="e" x="162.51" y="60.89" width="12.63" height="1.33" transform="translate(94.04 224.96) rotate(-85.44)"/><rect class="e" x="152.51" y="55.24" width="1.33" height="12.63" transform="translate(-4.37 12.25) rotate(-4.52)"/><rect class="e" x="144.73" y="56.17" width="1.33" height="12.63" transform="translate(-8.02 23.66) rotate(-9.05)"/><rect class="e" x="137.05" y="57.69" width="1.33" height="12.63" transform="translate(-11.13 33.87) rotate(-13.48)"/><rect class="e" x="129.51" y="59.82" width="1.33" height="12.63" transform="translate(-14.04 43.28) rotate(-17.93)"/><rect class="e" x="115.05" y="65.81" width="1.33" height="12.63" transform="translate(-20.14 60.5) rotate(-27.05)"/><rect class="e" x="108.21" y="69.64" width="1.33" height="12.63" transform="translate(-23.65 68.16) rotate(-31.53)"/><rect class="e" x="101.7" y="73.99" width="1.33" height="12.63" transform="translate(-27.65 75.52) rotate(-36.01)"/><rect class="e" x="95.55" y="78.84" width="1.33" height="12.63" transform="translate(-32.25 82.7) rotate(-40.41)"/><rect class="e" x="236.18" y="219.47" width="1.33" height="12.63" transform="translate(-88.66 259.23) rotate(-49.5)"/><rect class="e" x="84.48" y="89.91" width="1.33" height="12.63" transform="translate(-43.32 98.55) rotate(-49.53)"/><rect class="e" x="241.04" y="213.32" width="1.33" height="12.63" transform="translate(-77.95 286.6) rotate(-54.09)"/><rect class="e" x="79.64" y="96.06" width="1.33" height="12.63" transform="translate(-49.72 107.2) rotate(-54.02)"/><rect class="e" x="245.38" y="206.81" width="1.33" height="12.63" transform="translate(-64.33 311.22) rotate(-58.44)"/><rect class="e" x="75.28" y="102.57" width="1.33" height="12.63" transform="translate(-56.56 116.91) rotate(-58.57)"/><rect class="e" x="249.21" y="199.97" width="1.33" height="12.63" transform="translate(-47.4 335.19) rotate(-62.98)"/><rect class="e" x="71.46" y="109.4" width="1.33" height="12.63" transform="translate(-63.73 127.37) rotate(-62.97)"/><rect class="e" x="255.2" y="185.51" width="1.33" height="12.63" transform="translate(-5.62 375.92) rotate(-72.01)"/><rect class="e" x="65.47" y="123.86" width="1.33" height="12.63" transform="translate(-78.07 153.09) rotate(-72.09)"/><rect class="e" x="257.33" y="177.97" width="1.33" height="12.63" transform="translate(18.81 392.42) rotate(-76.57)"/><rect class="e" x="63.34" y="131.4" width="1.33" height="12.63" transform="translate(-84.86 167.75) rotate(-76.48)"/><rect class="e" x="258.86" y="170.29" width="1.33" height="12.63" transform="translate(44.41 405.23) rotate(-80.98)"/><rect class="e" x="61.81" y="139.08" width="1.33" height="12.63" transform="translate(-90.86 184.55) rotate(-81.07)"/><rect class="e" x="259.78" y="162.51" width="1.33" height="12.63" transform="translate(71.52 415.09) rotate(-85.46)"/><rect class="e" x="60.89" y="146.86" width="1.33" height="12.63" transform="translate(-96.02 202.37) rotate(-85.44)"/><path class="f" d="M160.47,299.75c-76.5,0-138.75-62.24-138.75-138.75S83.97,22.25,160.47,22.25s138.75,62.24,138.75,138.75-62.24,138.75-138.75,138.75Zm0-276.49C84.52,23.25,22.73,85.05,22.73,161s61.79,137.75,137.75,137.75,137.75-61.79,137.75-137.75S236.43,23.25,160.47,23.25Z"/><path class="f" d="M274.8,274.8l-4.24-4.24c60.41-60.41,60.41-158.7,0-219.11l4.24-4.24c62.75,62.75,62.75,164.85,0,227.6Z"/><path class="f" d="M47.2,274.8c-62.75-62.75-62.75-164.85,0-227.6l4.24,4.24c-60.41,60.41-60.41,158.7,0,219.11l-4.24,4.24Z"/><path class="e" d="M160.47,310c-82.16,0-149-66.84-149-149S78.31,12,160.47,12s149,66.84,149,149-66.84,149-149,149Zm0-295C79.97,15,14.47,80.5,14.47,161s65.5,146,146,146,146-65.5,146-146S240.98,15,160.47,15Z"/><path class="e" d="M86.92,237.57c-20.93-20.26-32.46-47.45-32.46-76.57,0-58.74,47.79-106.54,106.54-106.54s106.54,47.79,106.54,106.54c0,29.11-11.52,56.3-32.44,76.55l-.7-.72c20.73-20.06,32.14-47,32.14-75.83,0-58.19-47.34-105.54-105.54-105.54S55.46,102.81,55.46,161c0,28.84,11.42,55.78,32.15,75.85l-.7,.72Z"/><path class="g" d="M76.2,242.25c.22-1.41,1.04-2.01,2.38-2.01h1.97c1.49,0,1.92,1.01,1.76,2l-.76,4.79c-.23,1.43-1,2-2.32,2h-1.97c-1.16,0-2.05-.56-1.82-2l.76-4.77Zm1.3,5.7h1.75c.71,0,1.1-.35,1.21-1l.74-4.64c.1-.66-.07-1-.88-1h-1.77c-.9,0-1.17,.51-1.25,1l-.74,4.64c-.16,1.03,.41,1,.94,1Z"/><g><path class="g" d="M237.67,247.54c1.58-.96,5.49-3.52,5.78-5.35,.14-.92-.21-1.48-1.3-1.48h-3.49l.13-.82c1.21-.17,2.29-.26,3.68-.26,1.66,0,2.22,1.28,2.08,2.61-.21,2.15-3.69,4.54-4.72,5.22h3.84l-.17,1.07h-5.99l.16-1Z"/><path class="g" d="M249.34,239.76h1.32l-4.15,5.51h2.99l.38-2.35,.6-.91h.68l-.52,3.26h1.03l-.13,.87-1.06,.25-.33,2.13h-1.13l.33-2.13h-4.27l-.32-.53,4.61-6.09Z"/><path class="g" d="M253.22,241.78c.22-1.41,1.04-2.01,2.38-2.01h1.97c1.5,0,1.92,1.01,1.76,2l-.76,4.79c-.23,1.43-1,2-2.32,2h-1.97c-1.16,0-2.05-.56-1.82-2l.76-4.77Zm1.3,5.7h1.75c.71,0,1.1-.35,1.21-1l.74-4.64c.11-.66-.07-1-.87-1h-1.77c-.9,0-1.17,.51-1.25,1l-.74,4.64c-.16,1.03,.41,1,.94,1Z"/></g><g><path class="g" d="M152.91,41.3c1.02,0,2.01-.91,2.09-1.01h1.08l-1.37,8.78h-1.1l1.2-7.48c-.29,.21-1.03,.47-2.01,.47l.12-.76Z"/><path class="g" d="M156.29,48.07c1.58-.96,5.49-3.52,5.78-5.35,.14-.92-.2-1.48-1.3-1.48h-3.49l.13-.82c1.21-.16,2.29-.26,3.68-.26,1.66,0,2.22,1.28,2.08,2.61-.21,2.15-3.69,4.54-4.72,5.22h3.84l-.17,1.07h-5.99l.16-1Z"/><path class="g" d="M164.55,42.3c.22-1.41,1.04-2.01,2.38-2.01h1.97c1.5,0,1.92,1.01,1.76,2l-.76,4.79c-.23,1.43-1,2-2.32,2h-1.97c-1.16,0-2.04-.56-1.82-2l.76-4.77Zm1.3,5.7h1.75c.71,0,1.1-.35,1.21-1l.74-4.64c.1-.66-.07-1-.88-1h-1.77c-.9,0-1.17,.51-1.25,1l-.74,4.64c-.16,1.03,.41,1,.94,1Z"/></g><g><path class="g" d="M198.93,49.8c1.02,0,2.01-.91,2.09-1.01h1.08l-1.37,8.78h-1.1l1.2-7.48c-.29,.21-1.03,.47-2.01,.47l.12-.76Z"/><path class="g" d="M206.87,48.79h1.32l-4.15,5.51h2.99l.38-2.35,.6-.91h.68l-.52,3.26h1.03l-.13,.87-1.07,.25-.33,2.13h-1.13l.33-2.13h-4.27l-.32-.53,4.61-6.09Z"/><path class="g" d="M210.75,50.8c.22-1.41,1.04-2.01,2.38-2.01h1.97c1.5,0,1.92,1.01,1.76,2l-.76,4.79c-.23,1.43-1,2-2.32,2h-1.97c-1.16,0-2.04-.56-1.82-2l.76-4.77Zm1.3,5.7h1.75c.71,0,1.1-.35,1.21-1l.74-4.64c.1-.66-.07-1-.88-1h-1.77c-.9,0-1.17,.51-1.25,1l-.74,4.64c-.16,1.03,.41,1,.94,1Z"/></g><g><path class="g" d="M239.68,74.03c1.02,0,2.01-.91,2.09-1.01h1.08l-1.37,8.78h-1.1l1.2-7.48c-.29,.21-1.03,.47-2.01,.47l.12-.76Z"/><path class="g" d="M246.54,72.96c1.21-.03,2.61,.06,3.64,.23l-.13,.83h-3.34c-1.04,0-1.56,1.86-1.74,2.85,.96-.14,2.09-.24,2.99-.25,1.64-.02,1.79,1.13,1.67,1.9l-.23,1.52c-.22,1.38-1.11,1.78-2.28,1.78h-1.75c-1.19,0-2.17-.87-1.57-4.64,.5-3.18,1.73-4.18,2.74-4.2Zm-.9,7.81h1.56c.39,0,1.02-.14,1.14-.93l.2-1.31c.12-.7-.12-.86-.83-.86h-2.87c-.21,1.35-.33,3.1,.8,3.1Z"/><path class="g" d="M251.62,75.04c.22-1.41,1.04-2.01,2.38-2.01h1.97c1.5,0,1.92,1.01,1.76,2l-.76,4.79c-.23,1.43-1,2-2.32,2h-1.97c-1.16,0-2.04-.56-1.82-2l.76-4.77Zm1.3,5.7h1.75c.71,0,1.1-.35,1.21-1l.74-4.64c.1-.66-.07-1-.88-1h-1.77c-.9,0-1.17,.51-1.25,1l-.74,4.64c-.16,1.03,.41,1,.94,1Z"/></g><g><path class="g" d="M264.99,112.78c1.02,0,2.01-.91,2.09-1.01h1.08l-1.37,8.78h-1.1l1.2-7.48c-.29,.21-1.03,.47-2.01,.47l.12-.76Z"/><path class="g" d="M268.98,117.53c.14-.84,.72-1.25,1.31-1.32-.8-.29-.93-1.08-.83-1.68l.13-.78c.25-1.63,1.13-2.04,2.47-2.04h1.77c1.22,0,1.86,.76,1.66,2.11l-.12,.74c-.03,.27-.29,1.21-1.17,1.38,.67,.21,.79,1.09,.7,1.61l-.17,1.14c-.28,1.74-1.34,1.87-2.3,1.87h-1.76c-2.05,0-1.92-1.44-1.84-1.93l.17-1.09Zm1.92,1.97h1.57c.48,0,1.03-.2,1.13-.87l.18-1.14c.1-.63-.29-.91-.81-.91h-1.72c-.54,0-1.05,.23-1.16,.91l-.18,1.14c-.1,.65,.18,.87,.99,.87Zm.51-3.94h1.71c.82,0,1.04-.51,1.11-.94l.12-.75c.15-.9-.11-1.12-.8-1.12h-1.58c-.9,0-1.18,.32-1.3,1.12l-.12,.75c-.12,.75,.46,.94,.87,.94Z"/><path class="g" d="M277.07,113.78c.22-1.41,1.04-2.01,2.38-2.01h1.97c1.5,0,1.92,1.01,1.76,2l-.76,4.79c-.23,1.43-1,2-2.32,2h-1.97c-1.16,0-2.05-.56-1.82-2l.76-4.77Zm1.3,5.7h1.75c.71,0,1.1-.35,1.21-1l.74-4.64c.11-.66-.07-1-.87-1h-1.77c-.9,0-1.17,.51-1.25,1l-.74,4.64c-.16,1.03,.41,1,.94,1Z"/></g><g><path class="g" d="M271.24,163.55c1.58-.96,5.49-3.52,5.78-5.35,.14-.92-.2-1.48-1.3-1.48h-3.49l.13-.82c1.21-.17,2.29-.26,3.68-.26,1.66,0,2.22,1.28,2.08,2.61-.21,2.15-3.69,4.54-4.72,5.22h3.84l-.17,1.07h-5.99l.16-.99Z"/><path class="g" d="M279.5,157.78c.22-1.41,1.04-2.01,2.38-2.01h1.97c1.49,0,1.92,1.01,1.76,2l-.76,4.79c-.23,1.43-1,2-2.32,2h-1.97c-1.16,0-2.04-.56-1.82-2l.76-4.77Zm1.3,5.7h1.75c.71,0,1.1-.35,1.21-1l.74-4.64c.1-.66-.07-1-.88-1h-1.77c-.9,0-1.17,.51-1.25,1l-.74,4.64c-.16,1.03,.41,1,.94,1Z"/><path class="g" d="M287.16,157.78c.22-1.41,1.04-2.01,2.38-2.01h1.97c1.5,0,1.92,1.01,1.76,2l-.76,4.79c-.23,1.43-1,2-2.32,2h-1.97c-1.16,0-2.04-.56-1.82-2l.76-4.77Zm1.3,5.7h1.75c.71,0,1.1-.35,1.21-1l.74-4.64c.1-.66-.07-1-.88-1h-1.77c-.9,0-1.17,.51-1.25,1l-.74,4.64c-.16,1.03,.41,1,.94,1Z"/></g><g><path class="g" d="M264.01,210.02c1.58-.96,5.49-3.52,5.78-5.35,.14-.92-.2-1.48-1.3-1.48h-3.49l.13-.82c1.21-.17,2.29-.26,3.68-.26,1.66,0,2.22,1.28,2.08,2.61-.21,2.15-3.69,4.54-4.72,5.22h3.84l-.17,1.07h-5.99l.16-.99Z"/><path class="g" d="M271.12,210.02c1.58-.96,5.49-3.52,5.78-5.35,.14-.92-.2-1.48-1.3-1.48h-3.49l.13-.82c1.21-.17,2.29-.26,3.68-.26,1.66,0,2.22,1.28,2.08,2.61-.21,2.15-3.69,4.54-4.72,5.22h3.84l-.17,1.07h-5.99l.16-.99Z"/><path class="g" d="M279.38,204.25c.22-1.41,1.04-2.02,2.38-2.02h1.97c1.49,0,1.92,1.01,1.76,2l-.76,4.79c-.23,1.43-1,2-2.32,2h-1.97c-1.16,0-2.05-.56-1.82-2l.76-4.77Zm1.3,5.7h1.75c.71,0,1.1-.35,1.21-1l.74-4.64c.1-.66-.07-1-.87-1h-1.78c-.9,0-1.17,.51-1.25,1l-.74,4.64c-.16,1.03,.41,1,.94,1Z"/></g><g><path class="g" d="M46.53,109.98c1.21-.03,2.61,.06,3.64,.23l-.13,.83h-3.34c-1.04,0-1.56,1.86-1.74,2.85,.96-.14,2.09-.24,2.99-.25,1.64-.02,1.79,1.13,1.67,1.9l-.23,1.52c-.22,1.38-1.11,1.78-2.28,1.78h-1.75c-1.19,0-2.17-.87-1.57-4.64,.5-3.18,1.73-4.18,2.74-4.2Zm-.9,7.81h1.56c.4,0,1.02-.14,1.14-.93l.2-1.31c.11-.7-.12-.86-.83-.86h-2.87c-.21,1.35-.33,3.1,.8,3.1Z"/><path class="g" d="M51.61,112.06c.22-1.41,1.04-2.01,2.38-2.01h1.97c1.49,0,1.92,1.01,1.76,2l-.76,4.79c-.23,1.43-1,2-2.32,2h-1.97c-1.16,0-2.05-.56-1.82-2l.76-4.77Zm1.3,5.7h1.75c.71,0,1.1-.35,1.21-1l.74-4.64c.1-.66-.07-1-.88-1h-1.77c-.9,0-1.17,.51-1.25,1l-.74,4.64c-.16,1.03,.41,1,.94,1Z"/></g><g><path class="g" d="M45.19,210.02c1.58-.96,5.49-3.52,5.78-5.35,.14-.93-.2-1.48-1.3-1.48h-3.49l.13-.82c1.21-.16,2.29-.26,3.68-.26,1.66,0,2.22,1.28,2.08,2.62-.21,2.15-3.69,4.54-4.72,5.22h3.84l-.17,1.07h-5.99l.16-1Z"/><path class="g" d="M53.45,204.25c.22-1.41,1.04-2.01,2.38-2.01h1.97c1.49,0,1.92,1.01,1.76,2l-.76,4.79c-.23,1.43-1,2-2.32,2h-1.97c-1.16,0-2.05-.56-1.82-2l.76-4.77Zm1.3,5.7h1.75c.71,0,1.1-.35,1.21-1l.74-4.64c.1-.66-.07-1-.88-1h-1.77c-.9,0-1.17,.51-1.25,1l-.74,4.64c-.16,1.03,.41,1,.94,1Z"/></g><g><path class="g" d="M41.61,155.76h1.32l-4.15,5.51h2.99l.38-2.35,.6-.91h.68l-.52,3.26h1.03l-.13,.87-1.06,.25-.33,2.13h-1.13l.33-2.13h-4.27l-.32-.53,4.61-6.09Z"/><path class="g" d="M45.49,157.78c.22-1.41,1.04-2.01,2.38-2.01h1.97c1.49,0,1.92,1.01,1.76,2l-.76,4.78c-.23,1.43-1,2-2.32,2h-1.97c-1.16,0-2.05-.56-1.82-2l.76-4.77Zm1.3,5.7h1.75c.71,0,1.1-.35,1.21-1l.74-4.64c.1-.66-.07-1-.88-1h-1.77c-.9,0-1.17,.51-1.25,1l-.74,4.64c-.16,1.03,.41,1,.94,1Z"/></g><g><path class="g" d="M68.62,80.97c.14-.84,.72-1.25,1.31-1.32-.79-.29-.93-1.08-.83-1.68l.13-.78c.25-1.63,1.13-2.04,2.47-2.04h1.77c1.22,0,1.86,.76,1.65,2.11l-.12,.74c-.03,.27-.3,1.21-1.17,1.38,.67,.21,.79,1.09,.7,1.61l-.17,1.14c-.28,1.74-1.34,1.87-2.3,1.87h-1.76c-2.05,0-1.92-1.44-1.84-1.93l.17-1.09Zm1.92,1.97h1.57c.48,0,1.03-.2,1.13-.87l.18-1.14c.1-.63-.29-.91-.81-.91h-1.72c-.54,0-1.05,.23-1.16,.91l-.18,1.14c-.1,.65,.18,.87,.99,.87Zm.51-3.94h1.71c.82,0,1.04-.51,1.11-.94l.12-.75c.15-.9-.11-1.12-.8-1.12h-1.58c-.9,0-1.18,.32-1.3,1.12l-.12,.75c-.12,.75,.46,.94,.87,.94Z"/><path class="g" d="M76.72,77.23c.22-1.41,1.04-2.01,2.38-2.01h1.97c1.49,0,1.92,1.01,1.76,2l-.76,4.79c-.23,1.43-1,2-2.32,2h-1.97c-1.16,0-2.05-.56-1.82-2l.76-4.77Zm1.3,5.7h1.75c.71,0,1.1-.35,1.21-1l.74-4.64c.1-.66-.07-1-.88-1h-1.77c-.9,0-1.17,.51-1.25,1l-.74,4.64c-.16,1.03,.41,1,.94,1Z"/></g><g><path class="g" d="M108.91,49.8c1.02,0,2.01-.91,2.09-1.01h1.08l-1.37,8.78h-1.1l1.2-7.48c-.29,.21-1.03,.47-2.01,.47l.12-.76Z"/><path class="g" d="M113.45,50.8c.22-1.41,1.04-2.01,2.38-2.01h1.97c1.49,0,1.92,1.01,1.76,2l-.76,4.79c-.23,1.43-1,2-2.32,2h-1.97c-1.16,0-2.05-.56-1.82-2l.76-4.77Zm1.3,5.7h1.75c.71,0,1.1-.35,1.21-1l.74-4.64c.1-.66-.07-1-.88-1h-1.77c-.9,0-1.17,.51-1.25,1l-.74,4.64c-.16,1.03,.41,1,.94,1Z"/><path class="g" d="M121.1,50.8c.22-1.41,1.04-2.01,2.38-2.01h1.97c1.49,0,1.92,1.01,1.76,2l-.76,4.79c-.23,1.43-1,2-2.32,2h-1.97c-1.16,0-2.05-.56-1.82-2l.76-4.77Zm1.3,5.7h1.75c.71,0,1.1-.35,1.21-1l.74-4.64c.1-.66-.07-1-.88-1h-1.77c-.9,0-1.17,.51-1.25,1l-.74,4.64c-.16,1.03,.41,1,.94,1Z"/></g></g><path class="e" d="M223.23,243.78c-.11,.11-.26,.17-.41,.17-.16,0-.32-.07-.44-.19l-6.82-7.15c-4.61-4.83-11.08-7.6-17.76-7.6H124.19c-6.68,0-13.15,2.77-17.76,7.6l-6.83,7.15c-.11,.12-.27,.19-.43,.19-.15,0-.3-.06-.41-.17-.24-.23-.25-.61-.02-.85l6.82-7.15c4.84-5.07,11.62-7.97,18.63-7.97h73.61c7,0,13.79,2.9,18.63,7.97l6.82,7.15c.23,.24,.22,.62-.02,.85Z"/></g><circle class="d" cx="161" cy="161" r="161"/></g></g></g></svg>