<svg width="23" height="23" viewBox="0 0 23 23" fill="none" xmlns="http://www.w3.org/2000/svg">
<g id="Group 93">
<path id="Path 852" fill-rule="evenodd" clip-rule="evenodd" d="M0.708984 15.783C0.70925 12.9098 1.85058 10.1544 3.88232 8.1228C5.91406 6.09125 8.66979 4.94995 11.543 4.94995C14.4161 4.94995 17.1713 6.09134 19.2029 8.12292C21.2345 10.1545 22.376 12.9099 22.376 15.783V16.8669C22.376 17.0092 22.3479 17.1501 22.2935 17.2815C22.239 17.4129 22.1592 17.5322 22.0586 17.6328C21.958 17.7334 21.8387 17.8131 21.7073 17.8676C21.5759 17.922 21.4352 17.95 21.293 17.95C21.1507 17.9501 21.0097 17.9222 20.8782 17.8678C20.7467 17.8134 20.627 17.7338 20.5264 17.6332C20.4257 17.5326 20.346 17.4132 20.2915 17.2817C20.237 17.1503 20.209 17.0092 20.209 16.8669V15.783C20.209 13.4846 19.2958 11.2805 17.6707 9.65527C16.0455 8.03008 13.8413 7.11694 11.543 7.11694C10.4048 7.11681 9.27784 7.34092 8.22632 7.77637C7.1748 8.21182 6.21937 8.85018 5.41455 9.65491C4.60973 10.4596 3.97121 11.415 3.53564 12.4664C3.10007 13.5179 2.87598 14.6448 2.87598 15.783V16.8669C2.87598 17.1542 2.7617 17.4297 2.55859 17.6328C2.35549 17.8359 2.0802 17.95 1.79297 17.95C1.65066 17.9501 1.50968 17.9222 1.37817 17.8678C1.24666 17.8134 1.12704 17.7338 1.02637 17.6332C0.925695 17.5326 0.845992 17.4132 0.791504 17.2817C0.737016 17.1503 0.708984 17.0092 0.708984 16.8669V15.783ZM7.64282 10.583C7.75657 10.4976 7.88614 10.4355 8.02393 10.4001C8.16171 10.3648 8.30499 10.357 8.4458 10.3772C8.58661 10.3974 8.72214 10.445 8.84448 10.5176C8.96683 10.5901 9.07372 10.6862 9.15894 10.8L11.283 13.632C11.3693 13.6219 11.4561 13.6169 11.543 13.6169C12.1174 13.6169 12.6683 13.8453 13.0745 14.2515C13.4807 14.6577 13.709 15.2085 13.709 15.783C13.7091 16.0675 13.653 16.3493 13.5442 16.6122C13.4354 16.8751 13.2761 17.1139 13.075 17.3152C12.8738 17.5164 12.6349 17.6761 12.3721 17.785C12.1092 17.8939 11.8275 17.95 11.543 17.95C10.9682 17.95 10.4169 17.7217 10.0105 17.3153C9.60411 16.9089 9.37598 16.3577 9.37598 15.783C9.37567 15.4904 9.4347 15.2009 9.5498 14.932L7.42578 12.1C7.3404 11.9861 7.27842 11.8565 7.24316 11.7186C7.20791 11.5807 7.20021 11.4372 7.22046 11.2963C7.24071 11.1554 7.28842 11.0199 7.36108 10.8975C7.43375 10.7751 7.52882 10.6682 7.64282 10.583Z" fill="#3F3F55"/>
</g>
</svg>
