<svg xmlns="http://www.w3.org/2000/svg" width="159.092" height="159.092" viewBox="0 0 159.092 159.092">
  <g id="Group_10165" data-name="Group 10165" transform="translate(-82.454 -166.723)">
    <g id="g704" transform="translate(84.454 168.723)">
      <path id="path706" d="M-101.81-297.286l-26.227-43.032a31.378,31.378,0,0,1-5.3-17.492,31.522,31.522,0,0,1,31.523-31.523A31.522,31.522,0,0,1-70.288-357.81a31.378,31.378,0,0,1-5.3,17.492Z" transform="translate(133.333 389.332)" fill="rgba(0,0,0,0)" stroke="#70c167" stroke-linecap="round" stroke-linejoin="round" stroke-width="4"/>
    </g>
    <g id="g708" transform="translate(103.368 187.636)">
      <path id="path710" d="M-81.448-40.724A12.61,12.61,0,0,1-94.057-28.115a12.61,12.61,0,0,1-12.609-12.609A12.61,12.61,0,0,1-94.057-53.333,12.61,12.61,0,0,1-81.448-40.724Z" transform="translate(106.666 53.333)" fill="rgba(0,0,0,0)" stroke="#70c167" stroke-linecap="round" stroke-linejoin="round" stroke-width="4"/>
    </g>
    <g id="g712" transform="translate(201.719 311.205)">
      <path id="path714" d="M-20.362,0a6.3,6.3,0,0,1,6.3,6.3,6.3,6.3,0,0,1-6.3,6.3,6.3,6.3,0,0,1-6.3-6.3A6.3,6.3,0,0,1-20.362,0Z" transform="translate(26.667 0)" fill="rgba(0,0,0,0)" stroke="#70c167" stroke-linecap="round" stroke-linejoin="round" stroke-width="4"/>
    </g>
    <g id="g716" transform="translate(176.5 221.05)">
      <path id="path718" d="M-101.81-291.177l-26.227-41.14a31.378,31.378,0,0,1-5.3-17.492,31.522,31.522,0,0,1,31.523-31.523A31.522,31.522,0,0,1-70.288-349.81a31.378,31.378,0,0,1-5.3,17.492Z" transform="translate(133.333 381.332)" fill="rgba(0,0,0,0)" stroke="#70c167" stroke-linecap="round" stroke-linejoin="round" stroke-width="4"/>
    </g>
    <g id="g720" transform="translate(195.414 239.964)">
      <path id="path722" d="M-81.448-40.724A12.61,12.61,0,0,1-94.057-28.115a12.61,12.61,0,0,1-12.609-12.609A12.61,12.61,0,0,1-94.057-53.333,12.61,12.61,0,0,1-81.448-40.724Z" transform="translate(106.666 53.333)" fill="rgba(0,0,0,0)" stroke="#70c167" stroke-linecap="round" stroke-linejoin="round" stroke-width="4"/>
    </g>
    <g id="g724" transform="translate(109.672 260.769)">
      <path id="path726" d="M-40.724-20.362a6.3,6.3,0,0,1-6.3,6.3,6.3,6.3,0,0,1-6.3-6.3,6.3,6.3,0,0,1,6.3-6.3A6.3,6.3,0,0,1-40.724-20.362Z" transform="translate(53.333 26.667)" fill="rgba(0,0,0,0)" stroke="#70c167" stroke-linecap="round" stroke-linejoin="round" stroke-width="4"/>
    </g>
    <g id="g728" transform="translate(154.119 314.357)">
      <path id="path730" d="M-20.362-10.181a3.152,3.152,0,0,1-3.152,3.152,3.152,3.152,0,0,1-3.152-3.152,3.152,3.152,0,0,1,3.152-3.152,3.152,3.152,0,0,1,3.152,3.152" transform="translate(26.667 13.333)" fill="#6ebf66"/>
    </g>
    <g id="g732" transform="translate(98.955 267.073)">
      <path id="path734" d="M-75.34,0h27.11A12.61,12.61,0,0,1-35.621,12.609,12.61,12.61,0,0,1-48.23,25.218H-86.057A12.61,12.61,0,0,0-98.666,37.827,12.61,12.61,0,0,0-86.057,50.436h31.523" transform="translate(98.666)" fill="rgba(0,0,0,0)" stroke="#70c167" stroke-linecap="round" stroke-linejoin="round" stroke-width="4"/>
    </g>
    <g id="g736" transform="translate(171.457 317.51)">
      <path id="path738" d="M0,0H30.262" fill="rgba(0,0,0,0)" stroke="#70c167" stroke-linecap="round" stroke-linejoin="round" stroke-width="4"/>
    </g>
  </g>
</svg>
