<svg width="33" height="39" viewBox="0 0 33 39" fill="none" xmlns="http://www.w3.org/2000/svg">
<g id="Icon">
<g id="53">
<g id="Group 1278">
<path id="Ellipse 61" d="M16.8911 38.012C25.7326 38.012 32.9001 34.9384 32.9001 31.147C32.9001 27.3556 25.7326 24.282 16.8911 24.282C8.04955 24.282 0.88208 27.3556 0.88208 31.147C0.88208 34.9384 8.04955 38.012 16.8911 38.012Z" fill="url(#paint0_linear_1_2282)"/>
<path id="Ellipse 62" d="M16.8909 35.266C23.4614 35.266 28.7879 33.4219 28.7879 31.147C28.7879 28.8721 23.4614 27.028 16.8909 27.028C10.3204 27.028 4.9939 28.8721 4.9939 31.147C4.9939 33.4219 10.3204 35.266 16.8909 35.266Z" fill="url(#paint1_linear_1_2282)"/>
</g>
<g id="Group 1279">
<path id="Path 2432" d="M28.6 11.724C28.6 16.578 22 25.9 18.714 30.241C18.5012 30.5229 18.2258 30.7515 17.9097 30.909C17.5935 31.0664 17.2452 31.1483 16.892 31.1483C16.5388 31.1483 16.1904 31.0664 15.8743 30.909C15.5581 30.7515 15.2829 30.5229 15.0701 30.241C11.7751 25.9 5.177 16.578 5.177 11.724C5.17806 8.61828 6.41217 5.64005 8.60815 3.44389C10.8041 1.24772 13.7822 0.0133263 16.8879 0.012001C19.9938 0.0130612 22.9723 1.24734 25.1685 3.44353C27.3647 5.63973 28.5989 8.61811 28.6 11.724Z" fill="url(#paint2_linear_1_2282)"/>
<path id="Ellipse 63" d="M16.891 20.415C21.6909 20.415 25.582 16.5239 25.582 11.724C25.582 6.92409 21.6909 3.033 16.891 3.033C12.091 3.033 8.19995 6.92409 8.19995 11.724C8.19995 16.5239 12.091 20.415 16.891 20.415Z" fill="url(#paint3_linear_1_2282)"/>
<path id="Ellipse 64" d="M16.8911 18.129C20.4285 18.129 23.2961 15.2614 23.2961 11.724C23.2961 8.18662 20.4285 5.319 16.8911 5.319C13.3537 5.319 10.4861 8.18662 10.4861 11.724C10.4861 15.2614 13.3537 18.129 16.8911 18.129Z" fill="url(#paint4_linear_1_2282)"/>
</g>
<path id="Path 2433" d="M16.8911 14.4C17.0242 14.3931 17.1573 14.4131 17.2824 14.459C17.4076 14.5049 17.5221 14.5757 17.6191 14.667C17.7099 14.7555 17.7811 14.8619 17.8283 14.9795C17.8755 15.0972 17.8975 15.2233 17.893 15.35C17.8975 15.4756 17.8754 15.6008 17.8282 15.7173C17.781 15.8337 17.7098 15.939 17.6191 16.026C17.5212 16.1161 17.4066 16.1861 17.2817 16.2319C17.1568 16.2777 17.024 16.2985 16.8911 16.293C16.7583 16.2985 16.6257 16.2778 16.5009 16.2319C16.3762 16.1861 16.2618 16.1161 16.1642 16.026C16.0731 15.9392 16.0016 15.834 15.9542 15.7175C15.9068 15.601 15.8845 15.4757 15.889 15.35C15.8852 15.2233 15.9078 15.0973 15.9552 14.9797C16.0025 14.8622 16.0737 14.7557 16.1642 14.667C16.2615 14.5764 16.3759 14.5061 16.5007 14.4603C16.6255 14.4144 16.7582 14.3939 16.8911 14.4ZM16.8911 13.42C16.6914 13.4204 16.4993 13.3433 16.3553 13.2049C16.2113 13.0665 16.1265 12.8776 16.119 12.678L15.9642 8.106C15.9598 7.98166 15.9804 7.8577 16.025 7.74155C16.0696 7.62541 16.1372 7.51948 16.2237 7.43011C16.3103 7.34074 16.4141 7.26978 16.5288 7.22147C16.6434 7.17317 16.7667 7.14852 16.8911 7.149C17.0155 7.14852 17.1388 7.17316 17.2535 7.22146C17.3682 7.26975 17.472 7.34071 17.5587 7.43006C17.6453 7.51941 17.713 7.62533 17.7578 7.74148C17.8025 7.85762 17.8234 7.98161 17.8191 8.106L17.6631 12.678C17.6541 12.8774 17.5691 13.0657 17.4255 13.2043C17.2819 13.3429 17.0906 13.4211 16.8911 13.423V13.42Z" fill="url(#paint5_linear_1_2282)"/>
</g>
</g>
<defs>
<linearGradient id="paint0_linear_1_2282" x1="8.18219" y1="150.433" x2="11.8498" y2="170.384" gradientUnits="userSpaceOnUse">
<stop stop-color="#FFA914"/>
<stop offset="1" stop-color="#FF6F00"/>
</linearGradient>
<linearGradient id="paint1_linear_1_2282" x1="10.5855" y1="152.847" x2="12.2547" y2="166.756" gradientUnits="userSpaceOnUse">
<stop stop-color="#FFEB59"/>
<stop offset="1" stop-color="#FFBB00"/>
</linearGradient>
<linearGradient id="paint2_linear_1_2282" x1="7.65983" y1="132.404" x2="29.5533" y2="144.798" gradientUnits="userSpaceOnUse">
<stop stop-color="#FF5E7D"/>
<stop offset="1" stop-color="#FF0031"/>
</linearGradient>
<linearGradient id="paint3_linear_1_2282" x1="10.7377" y1="133.572" x2="23.0442" y2="145.861" gradientUnits="userSpaceOnUse">
<stop stop-color="#DB024B"/>
<stop offset="1" stop-color="#B8023F"/>
</linearGradient>
<linearGradient id="paint4_linear_1_2282" x1="12.3563" y1="135.2" x2="21.4258" y2="144.256" gradientUnits="userSpaceOnUse">
<stop stop-color="#FFE0E8"/>
<stop offset="1" stop-color="#FFC4D4"/>
</linearGradient>
<linearGradient id="paint5_linear_1_2282" x1="14.3926" y1="137.271" x2="19.6173" y2="137.522" gradientUnits="userSpaceOnUse">
<stop stop-color="#FF5E7D"/>
<stop offset="1" stop-color="#FF0031"/>
</linearGradient>
</defs>
</svg>
