<svg width="34" height="35" viewBox="0 0 34 35" fill="none" xmlns="http://www.w3.org/2000/svg">
<path d="M27.217 0H6C2.68629 0 0 2.82826 0 6.3171V28.6554C0 32.1442 2.68629 34.9725 6 34.9725H27.217C30.5307 34.9725 33.217 32.1442 33.217 28.6554V6.3171C33.217 2.82826 30.5307 0 27.217 0Z" fill="#00CD15"/>
<path d="M21.5889 18.9227L21.5814 18.9852C19.7489 18.0718 19.5572 17.9502 19.3206 18.3052C19.1564 18.551 18.6781 19.1085 18.5339 19.2735C18.3881 19.436 18.2431 19.4485 17.9956 19.336C17.7456 19.211 16.9431 18.9485 15.9931 18.0985C15.2531 17.436 14.7565 16.6235 14.6098 16.3735C14.3657 15.9519 14.8765 15.8919 15.3415 15.0119C15.4248 14.8369 15.3823 14.6994 15.3206 14.5752C15.2581 14.4502 14.7607 13.2253 14.5523 12.7369C14.3523 12.2503 14.1465 12.3119 13.9923 12.3119C13.5123 12.2703 13.1615 12.2769 12.8524 12.5986C11.5074 14.0769 11.8465 15.6019 12.9974 17.2235C15.259 20.1835 16.464 20.7285 18.6673 21.4851C19.2622 21.6743 19.8047 21.6476 20.2339 21.5859C20.7122 21.5101 21.7064 20.9851 21.9139 20.3976C22.1264 19.8101 22.1264 19.3226 22.0639 19.2101C22.0022 19.0977 21.8389 19.0352 21.5889 18.9227Z" fill="white"/>
<path d="M24.0997 9.87448C17.6923 3.68042 7.08833 8.17284 7.08417 16.911C7.08417 18.6576 7.54166 20.361 8.41331 21.8651L7 27L12.2791 25.6234C18.8665 29.1816 26.9963 24.4567 26.9996 16.916C26.9996 14.2694 25.9663 11.7786 24.0872 9.90697L24.0997 9.87448ZM25.3347 16.8885C25.3297 23.2492 18.3473 27.2217 12.8249 23.9751L12.5249 23.7967L9.39996 24.6092L10.2374 21.5718L10.0383 21.2593C6.60167 15.7885 10.5499 8.63866 17.0598 8.63866C19.2714 8.63866 21.3472 9.50115 22.9105 11.0636C24.473 12.6128 25.3347 14.6886 25.3347 16.8885Z" fill="white"/>
</svg>
