<svg width="13" height="13" viewBox="0 0 13 13" fill="none" xmlns="http://www.w3.org/2000/svg">
<g id="Group 1320">
<path id="Ellipse 68" d="M6.59204 12.197C9.90575 12.197 12.592 9.51071 12.592 6.19701C12.592 2.8833 9.90575 0.197006 6.59204 0.197006C3.27833 0.197006 0.592041 2.8833 0.592041 6.19701C0.592041 9.51071 3.27833 12.197 6.59204 12.197Z" fill="url(#paint0_linear_1_2229)"/>
<g id="Group 1319">
<path id="WA Logo" d="M3.48706 7.976C3.15358 7.39831 2.978 6.74303 2.97803 6.076C2.97961 5.06717 3.38103 4.10011 4.09448 3.38685C4.80793 2.67359 5.7751 2.27232 6.78394 2.27099C7.28431 2.26972 7.77993 2.3677 8.24219 2.55926C8.70444 2.75082 9.12425 3.03216 9.47705 3.38699C9.8314 3.73984 10.1123 4.15942 10.3035 4.62149C10.4947 5.08355 10.5925 5.57893 10.5911 6.07899C10.5892 7.08792 10.1875 8.05497 9.47388 8.7682C8.76027 9.48143 7.79286 9.88268 6.78394 9.884C6.14847 9.88382 5.52331 9.72465 4.96509 9.421L2.94702 9.949L3.48706 7.976ZM5.17407 8.79899C5.66149 9.08769 6.21743 9.24002 6.78394 9.24C7.62267 9.23895 8.42675 8.90542 9.02002 8.31253C9.61329 7.71964 9.94739 6.91573 9.94897 6.07699C9.95007 5.66143 9.8689 5.24979 9.70996 4.86583C9.55102 4.48186 9.31744 4.1332 9.02295 3.83999C8.73018 3.54513 8.38189 3.31135 7.99805 3.15222C7.61421 2.99309 7.20263 2.91177 6.78711 2.91299C5.9483 2.91326 5.1437 3.24638 4.55029 3.83923C3.95688 4.43208 3.62313 5.23618 3.62207 6.07499C3.6206 6.67025 3.78764 7.25376 4.104 7.75799L4.17993 7.878L3.86011 9.045L5.06006 8.731L5.17407 8.79899ZM7.40601 7.849C7.22197 7.79185 7.04106 7.7251 6.86401 7.649C6.20695 7.3194 5.64694 6.82452 5.23901 6.21299C5.01603 5.9304 4.88087 5.58864 4.8501 5.22999C4.84742 5.08192 4.87552 4.93493 4.93286 4.79838C4.9902 4.66184 5.07552 4.53876 5.18311 4.43699C5.21475 4.40048 5.25361 4.37102 5.29736 4.35052C5.34112 4.33002 5.3887 4.31893 5.43701 4.31799C5.50001 4.31799 5.56412 4.31799 5.62012 4.31799H5.64111C5.69611 4.31799 5.76498 4.318 5.83398 4.481C5.91298 4.671 6.10295 5.13899 6.12695 5.18699C6.14203 5.21198 6.1507 5.24033 6.1521 5.26948C6.1535 5.29863 6.14763 5.32768 6.13501 5.354C6.10925 5.4111 6.07549 5.46427 6.03491 5.51199C5.98691 5.56799 5.93509 5.636 5.89209 5.679C5.84909 5.722 5.79207 5.779 5.85107 5.873C5.99368 6.11744 6.17178 6.33922 6.37988 6.531C6.60492 6.73239 6.86408 6.89221 7.14502 7.003C7.23902 7.052 7.2941 7.04299 7.3501 6.97999C7.4061 6.91699 7.5879 6.70199 7.6499 6.60699C7.7119 6.51199 7.77701 6.528 7.86401 6.559C7.95101 6.59 8.41692 6.821 8.51392 6.869C8.61092 6.917 8.67104 6.93899 8.69604 6.97999C8.72252 7.13288 8.70288 7.2902 8.63989 7.432C8.56976 7.54768 8.47664 7.64756 8.36597 7.72535C8.2553 7.80315 8.12966 7.85717 7.99707 7.884C7.92129 7.8957 7.84474 7.90171 7.76807 7.90199C7.64537 7.90234 7.52326 7.88514 7.40601 7.849Z" fill="white"/>
</g>
</g>
<defs>
<linearGradient id="paint0_linear_1_2229" x1="6.59204" y1="11.321" x2="6.59204" y2="-0.678994" gradientUnits="userSpaceOnUse">
<stop stop-color="#27CD44"/>
<stop offset="1" stop-color="#5FFB7C"/>
</linearGradient>
</defs>
</svg>
