<svg width="40" height="40" viewBox="0 0 40 40" fill="none" xmlns="http://www.w3.org/2000/svg">
<g id="b">
<g id="c">
<g id="Group">
<g id="Group_2">
<path id="Vector" opacity="0.54" d="M38.75 30.04C38.75 34.73 34.94 38.55 30.24 38.55C30.07 38.55 29.91 38.55 29.74 38.54C29.57 38.55 29.41 38.55 29.24 38.55C26.65 38.55 24.32 37.38 22.76 35.55H21.94C22.01 35.66 22.08 35.77 22.16 35.88C22.17 35.88 22.17 35.89 22.17 35.89C18.82 36.62 15.34 36.29 12.2 35C11.53 34.73 10.86 34.4 10.22 34.03C10.22 34.02 7.83002 32.39 7.32002 31.94C7.00002 31.64 6.68002 31.33 6.37002 31.02C4.71002 29.26 3.46002 27.18 2.68002 24.95C2.61002 24.74 2.54002 24.51 2.47002 24.3C1.63002 21.55 1.49002 18.57 2.13002 15.67C2.13002 15.64 2.13002 15.6 2.15002 15.57C2.20002 15.34 2.25002 15.12 2.33002 14.9C2.34002 14.87 2.35002 14.83 2.36002 14.8C2.42002 14.55 2.50002 14.3 2.59002 14.06C2.64002 13.87 2.70002 13.69 2.78002 13.51C2.77002 13.5 2.78002 13.5 2.78002 13.49L3.62002 11.59C3.82002 11.2 4.03002 10.83 4.27002 10.47C4.92002 9.4 5.69002 8.41 6.57002 7.53C7.15002 6.93 7.77002 6.38 8.44002 5.89C9.09002 5.38 9.79002 4.93 10.51 4.53C10.51 4.53 11.61 3.93 13.02 3.42C13 3.43 12.98 3.43 12.96 3.43C12.98 3.42 13 3.42 13.02 3.41H13.04C13.23 3.34 13.43 3.27 13.62 3.22C13.64 3.22 13.65 3.22 13.67 3.21C15.07 2.77 16.53 2.54 18 2.48C18 2.49 18.49 2.49 18.9 2.49L23.51 2.28L27.73 4.54L31.73 7.54L34.26 11.29L35.73 15.54V17.54L35.6 22.78L35.3 23.22C37.38 24.77 38.73 27.25 38.73 30.04H38.75Z" fill="url(#paint0_linear_6_3184)"/>
<path id="Vector_2" d="M33.0199 30.24C32.9299 30.01 32.7199 29.84 32.4699 29.82C32.4399 29.81 32.4199 29.81 32.3899 29.81H29.8499V26.85C29.8499 26.76 29.8299 26.68 29.7999 26.6C29.7699 26.54 29.7399 26.48 29.6899 26.43C29.5599 26.27 29.3799 26.17 29.1699 26.17C28.9599 26.17 28.7699 26.27 28.6399 26.43C28.5899 26.48 28.5599 26.54 28.5299 26.6C28.4999 26.68 28.4799 26.76 28.4799 26.85V30.49C28.4799 30.59 28.4999 30.67 28.5299 30.76C28.5599 30.82 28.5899 30.88 28.6399 30.93C28.7699 31.07 28.9599 31.17 29.1699 31.17H32.3899C32.5999 31.17 32.7899 31.07 32.9099 30.93C32.9599 30.88 32.9899 30.82 33.0199 30.76C33.0499 30.67 33.0699 30.59 33.0699 30.49C33.0699 30.4 33.0499 30.32 33.0199 30.24ZM38.9199 27.81C38.8699 27.5 38.7899 27.19 38.6899 26.89C38.5099 26.33 38.2899 25.79 37.9999 25.27C37.9999 25.27 38.0099 25.27 37.9999 25.26C37.5399 24.4 36.9299 23.61 36.1999 22.92C36.4399 21.99 36.5899 21.06 36.6599 20.14C36.6699 20 36.6899 19.86 36.6899 19.71C36.8099 17.59 36.5099 15.54 35.8699 13.62C35.7799 13.34 35.6799 13.07 35.5699 12.81C35.4899 12.58 35.3899 12.36 35.2899 12.13C35.2899 12.11 35.2699 12.09 35.2599 12.06C35.2399 12.02 35.2299 11.98 35.2099 11.93C35.1699 11.84 35.1199 11.74 35.0699 11.65C35.0199 11.53 34.9599 11.42 34.8999 11.3C34.7899 11.09 34.6899 10.89 34.5699 10.68C34.5199 10.58 34.4699 10.49 34.4199 10.39C34.3999 10.37 34.3899 10.34 34.3799 10.32C34.1699 9.97 33.9499 9.62 33.7099 9.27C33.6099 9.11 33.4999 8.95 33.3799 8.8C33.2599 8.63 33.1399 8.47 33.0199 8.31C32.9199 8.19 32.8199 8.06 32.7199 7.94C32.5699 7.74 32.4099 7.55 32.2399 7.37C32.0399 7.13 31.8199 6.9 31.6099 6.68C31.3999 6.46 31.1799 6.25 30.9599 6.04C30.7699 5.86 30.5699 5.69 30.3699 5.52H30.3599C30.0899 5.27 29.8199 5.05 29.5299 4.83C29.3699 4.7 29.1999 4.58 29.0299 4.46C28.6699 4.2 28.2999 3.96 27.9299 3.72C27.8199 3.65 27.7099 3.58 27.5899 3.52C26.5399 2.9 25.4299 2.38 24.2699 1.98C24.0499 1.9 23.8199 1.83 23.5899 1.76C23.1599 1.63 22.7199 1.51 22.2699 1.41C21.7499 1.3 21.2199 1.21 20.6899 1.15C20.5299 1.12 20.3699 1.11 20.2099 1.09C19.9399 1.06 19.6599 1.04 19.3899 1.04C19.1599 1.03 18.9299 1.02 18.6999 1.02H18.2899C18.1699 1.02 18.0599 1.03 17.9399 1.04C17.6999 1.05 17.4599 1.06 17.2199 1.08C16.9899 1.1 16.7499 1.13 16.5099 1.16C16.4699 1.17 16.4199 1.17 16.3799 1.18C16.1099 1.22 15.8399 1.26 15.5799 1.31C15.2899 1.37 14.9999 1.43 14.7199 1.5L14.4799 1.56C14.4199 1.58 14.3599 1.6 14.2899 1.61C14.0499 1.68 13.8099 1.73 13.5599 1.81C13.3499 1.88 13.1299 1.96 12.9199 2.04C12.8699 2.05 12.8399 2.06 12.7999 2.09C12.6999 2.13 12.6199 2.18 12.5599 2.27C12.4899 2.33 12.4399 2.43 12.4099 2.53C12.3699 2.65 12.3699 2.79 12.4199 2.93C12.5499 3.28 12.9199 3.48 13.2799 3.36C14.8499 2.81 16.4899 2.51 18.1499 2.45V2.47C18.1799 2.64 18.1899 2.8 18.2199 2.97C18.4599 3.81 18.4899 4.66 18.3399 5.48C18.3199 5.59 18.2899 5.7 18.2699 5.81C18.2699 5.82 18.2599 5.82 18.2699 5.83C18.1499 6.32 17.9499 6.79 17.7099 7.23C17.2899 7.95 16.7099 8.59 15.9899 9.08C15.9099 9.17 15.8499 9.26 15.8099 9.36C15.7599 9.46 15.7299 9.57 15.7099 9.67C15.6899 9.81 15.6899 9.96 15.7099 10.1C15.7099 10.18 15.7399 10.25 15.7699 10.32C15.8199 10.46 15.8999 10.59 15.9999 10.71L16.8099 11.6C16.8599 11.66 16.9099 11.72 16.9499 11.79C17.0799 11.98 17.1799 12.18 17.2499 12.39C17.4199 12.86 17.4399 13.37 17.3199 13.86C17.2599 14.07 17.1799 14.27 17.0699 14.47V14.49C16.9999 14.65 16.9699 14.82 16.9699 14.99C16.9699 15.19 17.0099 15.39 17.0799 15.57C17.2999 16.08 17.8099 16.44 18.3999 16.45C18.7599 16.42 19.1099 16.31 19.4399 16.15C20.4199 15.71 21.5199 15.6 22.5699 15.82C23.4699 16.15 24.4199 16.31 25.3799 16.32C26.0799 16.29 26.6499 15.91 26.9599 15.35C26.9999 15.27 27.0399 15.18 27.0699 15.09C27.2399 14.61 27.2499 14.02 27.0299 13.41C26.9999 13.33 26.9699 13.25 26.9299 13.17C26.8299 12.92 26.6699 12.67 26.4799 12.42C26.3299 12.17 26.1999 11.91 26.0999 11.63C26.0499 11.49 26.0099 11.36 25.9799 11.21C25.9399 11.07 25.9199 10.93 25.8999 10.79V10.03C25.8999 9.97 25.9199 9.92 25.9399 9.87C25.9799 9.71 26.0599 9.58 26.1799 9.46C26.3599 9.25 26.6299 9.13 26.9299 9.14L27.9099 9.24C28.8499 9.36 29.8099 9.16 30.6199 8.67C30.8599 8.51 31.1399 8.42 31.4199 8.41C31.9499 9.04 32.4299 9.71 32.8599 10.4C33.2899 11.1 33.6599 11.82 33.9699 12.55C34.1799 13.05 34.3699 13.55 34.5299 14.06C35.3299 16.58 35.5099 19.29 35.0099 21.96C32.0599 19.96 28.2299 19.82 25.1299 21.59C25.0399 21.65 24.9699 21.72 24.9199 21.8C24.8699 21.87 24.8399 21.95 24.8099 22.03C24.7899 22.14 24.7899 22.25 24.8099 22.35C24.8299 22.41 24.8499 22.47 24.8799 22.52C25.0699 22.84 25.4899 22.96 25.8199 22.77C26.8199 22.2 27.9399 21.85 29.0899 21.76V23.36C29.0899 23.41 29.0999 23.47 29.1099 23.52C29.1299 23.59 29.1599 23.66 29.1999 23.72C29.3299 23.91 29.5299 24.03 29.7699 24.04C29.9799 24.04 30.1699 23.94 30.2899 23.8C30.3399 23.75 30.3699 23.69 30.3999 23.63C30.4399 23.55 30.4599 23.45 30.4599 23.36V21.74C32.5299 21.93 34.3799 22.9 35.6799 24.36C36.3599 25.12 36.8899 25.98 37.2399 26.94C37.4799 27.59 37.6399 28.28 37.6999 28.99H36.0899C35.8699 28.99 35.6699 29.1 35.5599 29.26C35.5099 29.31 35.4799 29.37 35.4599 29.43C35.4299 29.51 35.4099 29.59 35.4099 29.68C35.4099 29.73 35.4199 29.79 35.4199 29.84C35.4499 29.95 35.5099 30.05 35.5799 30.14C35.7099 30.27 35.8899 30.36 36.0899 30.36H37.7099V30.38C37.6399 31.09 37.4799 31.78 37.2399 32.43C37.1099 32.79 36.9599 33.13 36.7799 33.46C35.5299 35.75 33.1999 37.36 30.4599 37.6V35.99C30.4599 35.99 30.4599 35.91 30.4399 35.87C30.4299 35.83 30.4199 35.79 30.3999 35.75C30.3799 35.69 30.3399 35.63 30.2999 35.58C30.1799 35.42 29.9999 35.32 29.7899 35.31C29.5799 35.31 29.3899 35.41 29.2599 35.57C29.2099 35.62 29.1799 35.68 29.1499 35.74C29.1099 35.82 29.0899 35.9 29.0899 35.99V37.6C27.1099 37.42 25.3399 36.53 24.0399 35.18C23.4699 34.59 22.9999 33.93 22.6299 33.19C22.5099 32.94 22.3999 32.69 22.3099 32.43C22.0699 31.78 21.9099 31.09 21.8399 30.38V30.36H23.4599C23.6999 30.35 23.8999 30.23 24.0299 30.05C24.0699 29.98 24.0999 29.91 24.1199 29.84C24.1299 29.79 24.1399 29.73 24.1399 29.68C24.1399 29.64 24.1399 29.6 24.1299 29.56C24.1199 29.52 24.1099 29.48 24.0899 29.44C23.9999 29.18 23.7499 29 23.4599 28.99H21.8399C21.8999 28.35 22.0299 27.73 22.2399 27.13C22.3199 26.88 22.4199 26.63 22.5299 26.39C22.6399 26.14 22.7599 25.9 22.8999 25.68C23.1599 25.21 23.4799 24.78 23.8499 24.37C23.8999 24.3 23.9499 24.23 23.9799 24.16C24.0199 24.04 24.0299 23.92 24.0099 23.8C23.9799 23.66 23.9099 23.52 23.7999 23.42C23.5199 23.16 23.0899 23.18 22.8299 23.45C22.2399 24.12 21.7599 24.85 21.3899 25.62C21.2699 25.88 21.1599 26.14 21.0599 26.41C20.3199 28.36 20.2599 30.51 20.8999 32.5C20.9699 32.73 21.0499 32.96 21.1399 33.18C21.4199 33.86 21.7699 34.52 22.2099 35.13C18.2299 35.98 14.0599 35.33 10.5299 33.31C10.5299 33.3 10.5299 33.3 10.5299 33.3C11.0099 32.92 11.3399 32.42 11.5299 31.88C11.6899 31.43 11.7399 30.94 11.6699 30.46C11.6399 30.24 11.5899 30.02 11.4999 29.81C11.4999 29.81 11.4999 29.8067 11.4999 29.8C11.4199 29.58 11.3099 29.36 11.1799 29.16L9.8299 27.11C9.8299 27.11 9.7899 27.04 9.7699 27C9.7599 26.97 9.7499 26.93 9.7299 26.9C9.7199 26.8 9.7199 26.69 9.7499 26.59C9.7999 26.4 9.9399 26.24 10.1399 26.15C11.2599 25.64 11.8699 25.02 12.1899 24.41C12.2299 24.32 12.2699 24.24 12.2999 24.15C12.5599 23.45 12.4599 22.78 12.3199 22.32C12.1999 21.92 12.1399 21.5 12.1399 21.08C12.0999 20.63 12.1999 20.22 12.3499 19.81C12.4599 19.45 12.6099 19.09 12.7199 18.73C12.7899 18.49 12.8399 18.25 12.8499 18C12.8499 17.86 12.8499 17.73 12.8099 17.59C12.7799 17.44 12.7499 17.3 12.6899 17.17C12.5999 16.92 12.4799 16.69 12.3199 16.49C11.7699 15.77 10.8399 15.38 9.8899 15.54C9.6799 15.56 9.4899 15.74 9.2999 15.57C9.2799 15.57 9.2699 15.54 9.2499 15.53C9.2299 15.5 9.2099 15.47 9.1899 15.43C9.1799 15.4 9.1699 15.36 9.1699 15.33C9.1699 15.29 9.1799 15.26 9.1999 15.22C9.2099 15.18 9.2399 15.13 9.2699 15.1L9.8099 14.53C10.1199 14.2 10.3299 13.82 10.4499 13.41C10.5899 12.91 10.5899 12.36 10.4199 11.85C10.3999 11.75 10.3599 11.65 10.3199 11.56C9.6999 10.18 8.0899 9.55 6.7099 10.17L4.1099 11.35H4.0899C5.6099 8.44 7.9599 6.03 10.8499 4.45C10.9299 4.4 10.9999 4.34 11.0599 4.28C11.1099 4.2 11.1499 4.12 11.1799 4.04C11.1999 3.93 11.1999 3.82 11.1799 3.72C11.1699 3.67 11.1499 3.61 11.1199 3.56C11.1299 3.55 11.1199 3.55 11.1199 3.54C11.0899 3.49 11.0599 3.44 11.0099 3.4C10.8999 3.26 10.7299 3.18 10.5499 3.17C10.4299 3.17 10.3099 3.19 10.1899 3.25C7.6799 4.67 5.7099 6.41 4.2599 8.36C4.2499 8.36 4.2599 8.37 4.2599 8.37C3.7699 9.02 3.3399 9.68 2.9699 10.37C2.4699 11.28 2.0599 12.23 1.7499 13.2C0.539899 16.9 0.669899 20.88 1.8799 24.51C2.2399 25.58 2.6899 26.61 3.2199 27.6C3.5399 28.19 3.8999 28.77 4.2799 29.32C4.4099 29.51 4.5499 29.7 4.6699 29.88C8.5599 35.08 15.1699 38.28 23.2299 36.3C27.0999 40.19 32.8799 39.62 36.2999 36.38C36.8299 35.87 37.2999 35.31 37.7099 34.68C37.9699 34.26 38.2099 33.82 38.4099 33.35C38.5099 33.12 38.5999 32.88 38.6799 32.63C38.9799 31.73 39.1399 30.74 39.1399 29.69C39.1399 29.06 39.0799 28.44 38.9399 27.83L38.9199 27.81ZM30.3899 7.24C30.2099 7.3 30.0399 7.39 29.8699 7.5C28.8999 8.1 27.9699 7.83 27.0199 7.76C26.0799 7.71 25.2399 8.21 24.8199 8.98C24.7599 9.09 24.7099 9.2 24.6699 9.31C24.5799 9.52 24.5399 9.73 24.5199 9.96C24.5199 9.96 24.5199 10.87 24.5199 10.9C24.5699 11.31 24.6699 11.72 24.8099 12.11C24.8799 12.31 24.9699 12.5 25.0599 12.69C25.1499 12.87 25.2599 13.05 25.3699 13.22C25.5199 13.44 25.6399 13.65 25.6999 13.85C25.7499 13.94 25.7799 14.04 25.7899 14.12C25.8299 14.3 25.8299 14.46 25.7799 14.59C25.6799 14.85 25.4099 14.99 24.9199 14.91C23.7699 14.91 23.0399 14.35 21.8299 14.31C20.6999 14.21 19.4499 14.7 18.3399 15.05H18.3299C18.3699 14.95 18.3999 14.87 18.4299 14.78C18.4599 14.69 18.4899 14.6 18.5099 14.51C18.8099 13.46 18.7699 12.65 18.5599 11.99C18.4499 11.63 18.2799 11.31 18.0899 11.04C17.7799 10.58 17.3999 10.22 17.1099 9.91H17.0999C17.6899 9.45 18.1599 8.96 18.5499 8.43C18.5499 8.43 18.5399 8.42 18.5499 8.42C18.8299 8.02 19.0599 7.6 19.2399 7.16C19.2999 7.02 19.3499 6.87 19.3999 6.72C19.8299 5.39 19.8199 3.93 19.5099 2.45V2.43C23.6099 2.62 27.4899 4.33 30.3999 7.23L30.3899 7.24ZM10.2499 31.37C10.2099 31.49 10.1699 31.61 10.0999 31.72C10.0399 31.83 9.9599 31.93 9.8799 32.03C9.7099 32.21 9.4899 32.37 9.2399 32.47C6.3399 30.44 4.2599 27.59 3.1499 24.42C3.0799 24.21 3.0099 23.99 2.9399 23.78C2.1199 21.09 1.9799 18.18 2.6099 15.34C2.6699 15.05 2.7399 14.77 2.8299 14.49C2.8899 14.24 2.9699 14 3.0599 13.76C3.1099 13.57 3.1699 13.39 3.2399 13.21L7.2599 11.39C7.7599 11.16 8.3599 11.26 8.7699 11.65C8.9199 11.78 9.0199 11.95 9.0799 12.12C9.2099 12.44 9.2099 12.8 9.0899 13.12C9.0599 13.21 9.0199 13.29 8.9699 13.37C8.9199 13.44 8.8599 13.51 8.7999 13.57C8.5899 13.79 8.3499 14.02 8.1599 14.28C8.1199 14.33 8.0799 14.39 8.0499 14.44C7.9799 14.55 7.9299 14.66 7.8799 14.77C7.8099 14.96 7.7699 15.16 7.7999 15.38C7.8099 15.56 7.8499 15.74 7.9099 15.9C8.2599 16.78 9.2499 17.21 10.1299 16.86C10.3599 16.83 10.5899 16.86 10.7999 16.96C10.9599 17.04 11.0899 17.15 11.1899 17.28C11.2999 17.4 11.3699 17.55 11.4099 17.7C11.4599 17.88 11.4699 18.07 11.4299 18.26C11.4099 18.33 11.3799 18.41 11.3499 18.48C11.2999 18.58 11.2499 18.69 11.2099 18.8C11.1699 18.9 11.1299 19 11.0899 19.11C10.6799 20.26 10.6499 21.52 10.9999 22.7C11.0799 22.96 11.1199 23.27 11.0099 23.59C10.8699 24.01 10.4699 24.46 9.5499 24.89C9.4499 24.93 9.3499 24.99 9.2599 25.05C9.1699 25.11 9.0799 25.18 8.9999 25.27C8.8299 25.4 8.6999 25.57 8.5999 25.76C8.5499 25.85 8.5099 25.94 8.4699 26.04C8.3199 26.44 8.2999 26.88 8.4199 27.3C8.4799 27.49 8.5599 27.67 8.6699 27.84L10.0199 29.9C10.0899 30 10.1499 30.1 10.1899 30.21V30.23C10.3499 30.61 10.3499 31 10.2499 31.36V31.37Z" fill="url(#paint1_linear_6_3184)"/>
</g>
</g>
</g>
</g>
<defs>
<linearGradient id="paint0_linear_6_3184" x1="20.24" y1="38.55" x2="20.24" y2="2.26" gradientUnits="userSpaceOnUse">
<stop stop-color="#5558FF" stop-opacity="0.5"/>
<stop offset="0.5" stop-color="#EAF6FF"/>
<stop offset="1" stop-color="#EAF6FF"/>
</linearGradient>
<linearGradient id="paint1_linear_6_3184" x1="0.879899" y1="20" x2="39.1199" y2="20" gradientUnits="userSpaceOnUse">
<stop stop-color="#00C0FF"/>
<stop offset="1" stop-color="#5558FF"/>
</linearGradient>
</defs>
</svg>
