<?xml version="1.0" encoding="UTF-8"?><svg xmlns="http://www.w3.org/2000/svg" viewBox="0 0 40 40"><defs><style>.d{fill:#00bdf7;}.e{fill:#f5f5fd;}.f{fill:#00f085;}</style></defs><g id="a"/><g id="b"><g id="c"><g><path class="d" d="M31.04,5.33C27.61,1.89,23.04,0,18.18,0S8.76,1.89,5.32,5.33C1.89,8.77,0,13.33,0,18.19s1.89,9.42,5.32,12.86c3.43,3.44,8,5.33,12.86,5.33s9.42-1.89,12.86-5.33c3.43-3.44,5.32-8,5.32-12.86s-1.89-9.42-5.32-12.86Z"/><path class="d" d="M18.18,0C13.33,0,8.76,1.89,5.32,5.33,1.89,8.77,0,13.33,0,18.19s1.89,9.42,5.32,12.86c3.43,3.44,8,5.33,12.86,5.33V0h0Z"/><path class="f" d="M7.18,21.77l-1.49-3.12c-.13-.27-.41-.45-.71-.45H0c0,4.56,1.67,8.87,4.72,12.22l5.03-6.24c.32-.4,.18-1-.3-1.2l-1.88-.83c-.17-.08-.31-.21-.39-.38Z"/><path class="f" d="M17.95,26.98l-1.97,2.2c-.24,.27-.27,.67-.06,.96l4.25,6.14c2.76-.3,5.38-1.2,7.7-2.67l-5.01-6.58c-.15-.19-.38-.31-.63-.31h-3.7c-.22,0-.44,.1-.59,.26Z"/><path class="f" d="M17.95,26.98l-1.97,2.2c-.24,.27-.27,.67-.06,.96l2.26,3.27v-6.61c-.09,.04-.17,.1-.23,.18Z"/><path class="f" d="M12.59,10.06v-2.09c0-.43,.35-.78,.78-.78h3.17c.21,0,.42,.09,.57,.24l1.8,1.87c.28,.29,.73,.32,1.04,.08,.58-.45,1.43-1.32,1.79-2.79,.01-.06,.02-.12,.02-.18V.35c-1.18-.23-2.37-.35-3.58-.35C13.33,0,8.76,1.91,5.32,5.34,3.32,7.34,1.85,9.69,.96,12.34H10.09c.19,0,.38-.07,.52-.2l1.71-1.5c.17-.15,.27-.36,.27-.59Z"/><path class="f" d="M12.59,10.06v-2.09c0-.43,.35-.78,.78-.78h3.17c.21,0,.42,.09,.57,.24l1.07,1.11V0C13.33,0,8.76,1.91,5.32,5.34,3.32,7.34,1.85,9.69,.96,12.34H10.09c.19,0,.38-.07,.52-.2l1.71-1.5c.17-.15,.27-.36,.27-.59Z"/><path class="f" d="M33.79,9.69h-5.35c-.43,0-.78,.35-.78,.78v1.96c0,.38-.28,.71-.66,.77-1.02,.16-2.9,.64-3.38,2.06-.03,.08-.04,.17-.04,.25v1.21c0,.43-.35,.78-.78,.78h-3.84c-.43,0-.78,.35-.78,.78v2.25c0,1.17,.95,2.12,2.13,2.12h1.14c.22,0,.42-.09,.57-.24l1.02-1.07c.15-.16,.35-.24,.57-.24h3.68c.22,0,.43,.09,.58,.26l5.82,6.39c1.75-2.84,2.69-6.13,2.69-9.55,0-2.84-.65-5.6-1.87-8.07-.13-.27-.41-.43-.7-.43Z"/><g><g><path class="e" d="M30.25,20.54c-5.2,0-9.43,4.3-9.43,9.57s4.23,9.57,9.43,9.57,9.43-4.3,9.43-9.57-4.23-9.57-9.43-9.57Z"/><path class="f" d="M30.25,40c-5.37,0-9.75-4.44-9.75-9.89s4.37-9.89,9.75-9.89,9.75,4.44,9.75,9.89-4.37,9.89-9.75,9.89Zm0-19.15c-5.03,0-9.12,4.15-9.12,9.26s4.09,9.26,9.12,9.26,9.12-4.15,9.12-9.26-4.09-9.26-9.12-9.26Z"/></g><path class="d" d="M33.45,32.6l-2.27-3.03v-2.03c0-.65-.53-1.17-1.18-1.17s-1.18,.52-1.18,1.17v2.42c0,.25,.08,.5,.24,.7l2.51,3.34c.23,.31,.59,.47,.94,.47,.24,0,.49-.08,.7-.23,.52-.39,.63-1.12,.24-1.64Z"/></g></g></g></g></svg>